STARTFONT 2.1
COMMENT 
COMMENT Copyright (C) 2012-2025 Uwe Waldmann
COMMENT 
COMMENT Permission is hereby granted, free of charge, to any person obtaining
COMMENT a copy of this font software and associated files (the "Software"),
COMMENT to deal in the Software without restriction, including without
COMMENT limitation the rights to use, copy, modify, merge, publish,
COMMENT distribute, embed, sublicense, and/or sell copies of the Software,
COMMENT and to permit persons to whom the Software is furnished to do so,
COMMENT subject to the following conditions:
COMMENT 
COMMENT (1) The above copyright notice, this permission notice, and the
COMMENT     disclaimer below shall be included in all copies or substantial
COMMENT     portions of the Software.
COMMENT 
COMMENT (2) If the design of any glyphs in the fonts that are contained in the
COMMENT     Software or generated during the installation process is modified
COMMENT     or if additional glyphs are added to the fonts, the fonts
COMMENT     must be renamed. The new names may not contain the word "UW",
COMMENT     irrespective of capitalisation; the new names may contain the word
COMMENT     "ttyp0", irrespective of capitalisation, only if preceded by a
COMMENT     foundry name different from "UW".
COMMENT 
COMMENT THE SOFTWARE IS PROVIDED "AS IS", WITHOUT WARRANTY OF ANY KIND, EXPRESS
COMMENT OR IMPLIED, INCLUDING BUT NOT LIMITED TO THE WARRANTIES OF
COMMENT MERCHANTABILITY, FITNESS FOR A PARTICULAR PURPOSE AND NONINFRINGEMENT.
COMMENT IN NO EVENT SHALL THE AUTHORS OR COPYRIGHT HOLDERS BE LIABLE FOR ANY
COMMENT CLAIM, DAMAGES OR OTHER LIABILITY, WHETHER IN AN ACTION OF CONTRACT,
COMMENT TORT OR OTHERWISE, ARISING FROM, OUT OF OR IN CONNECTION WITH THE
COMMENT SOFTWARE OR THE USE OR OTHER DEALINGS IN THE SOFTWARE.
COMMENT 
FONT -UW-Ttyp0-Bold-R-Normal--13-120-75-75-C-70-UW-Fontspecific
SIZE 13 75 75
FONTBOUNDINGBOX 7 13 0 -2
STARTPROPERTIES 20
FONTNAME_REGISTRY ""
FOUNDRY "UW"
FAMILY_NAME "Ttyp0"
WEIGHT_NAME "Bold"
SLANT "R"
SETWIDTH_NAME "Normal"
ADD_STYLE_NAME ""
PIXEL_SIZE 13
POINT_SIZE 120
RESOLUTION_X 75
RESOLUTION_Y 75
SPACING "C"
AVERAGE_WIDTH 70
CHARSET_REGISTRY "UW"
CHARSET_ENCODING "Fontspecific"
DEFAULT_CHAR 0
FONT_DESCENT 2
FONT_ASCENT 11
COPYRIGHT "Copyright (C) 2012-2025 Uwe Waldmann"
_GBDFED_INFO "Edited with gbdfed 1.6."
ENDPROPERTIES
CHARS 241
STARTCHAR LtCapALdot
ENCODING 780
SWIDTH 516 0
DWIDTH 7 0
BBX 7 13 0 -2
BITMAP
00
00
18
18
18
3C
2C
2C
7E
46
46
00
18
ENDCHAR
STARTCHAR LtCapBLdot
ENCODING 781
SWIDTH 516 0
DWIDTH 7 0
BBX 7 13 0 -2
BITMAP
00
00
7C
66
66
64
7C
66
66
66
7C
00
18
ENDCHAR
STARTCHAR LtCapCLdot
ENCODING 782
SWIDTH 516 0
DWIDTH 7 0
BBX 7 13 0 -2
BITMAP
00
00
1C
36
60
60
60
60
60
36
1C
00
18
ENDCHAR
STARTCHAR LtCapDLdot
ENCODING 783
SWIDTH 516 0
DWIDTH 7 0
BBX 7 13 0 -2
BITMAP
00
00
78
64
66
66
66
66
66
64
78
00
30
ENDCHAR
STARTCHAR LtCapELdot
ENCODING 784
SWIDTH 516 0
DWIDTH 7 0
BBX 7 13 0 -2
BITMAP
00
00
7E
62
60
64
7C
64
60
62
7E
00
18
ENDCHAR
STARTCHAR LtCapHLdot
ENCODING 785
SWIDTH 516 0
DWIDTH 7 0
BBX 7 13 0 -2
BITMAP
00
00
66
66
66
66
7E
66
66
66
66
00
18
ENDCHAR
STARTCHAR LtCapILdot
ENCODING 786
SWIDTH 516 0
DWIDTH 7 0
BBX 7 13 0 -2
BITMAP
00
00
7E
18
18
18
18
18
18
18
7E
00
18
ENDCHAR
STARTCHAR LtCapKLdot
ENCODING 787
SWIDTH 516 0
DWIDTH 7 0
BBX 7 13 0 -2
BITMAP
00
00
66
64
68
78
78
6C
6C
66
66
00
18
ENDCHAR
STARTCHAR LtCapLLdot
ENCODING 788
SWIDTH 516 0
DWIDTH 7 0
BBX 7 13 0 -2
BITMAP
00
00
60
60
60
60
60
60
60
62
7E
00
18
ENDCHAR
STARTCHAR LtCapMLdot
ENCODING 789
SWIDTH 516 0
DWIDTH 7 0
BBX 7 13 0 -2
BITMAP
00
00
42
66
7E
7E
56
56
46
46
46
00
18
ENDCHAR
STARTCHAR LtCapNLdot
ENCODING 790
SWIDTH 516 0
DWIDTH 7 0
BBX 7 13 0 -2
BITMAP
00
00
62
72
72
5A
5A
4E
4E
46
46
00
18
ENDCHAR
STARTCHAR LtCapOLdot
ENCODING 791
SWIDTH 516 0
DWIDTH 7 0
BBX 7 13 0 -2
BITMAP
00
00
3C
66
66
66
66
66
66
66
3C
00
18
ENDCHAR
STARTCHAR LtCapPLdot
ENCODING 792
SWIDTH 516 0
DWIDTH 7 0
BBX 7 13 0 -2
BITMAP
00
00
7C
66
66
66
7C
60
60
60
60
00
60
ENDCHAR
STARTCHAR LtCapQLdot
ENCODING 793
SWIDTH 516 0
DWIDTH 7 0
BBX 7 13 0 -2
BITMAP
00
00
3C
66
66
66
66
66
76
6E
3C
06
1A
ENDCHAR
STARTCHAR LtCapRLdot
ENCODING 794
SWIDTH 516 0
DWIDTH 7 0
BBX 7 13 0 -2
BITMAP
00
00
7C
66
66
66
7C
68
6C
66
66
00
18
ENDCHAR
STARTCHAR LtCapSLdot
ENCODING 795
SWIDTH 516 0
DWIDTH 7 0
BBX 7 13 0 -2
BITMAP
00
00
3C
66
60
70
3C
0E
06
66
3C
00
18
ENDCHAR
STARTCHAR LtCapTLdot
ENCODING 796
SWIDTH 516 0
DWIDTH 7 0
BBX 7 13 0 -2
BITMAP
00
00
7E
5A
18
18
18
18
18
18
18
00
18
ENDCHAR
STARTCHAR LtCapULdot
ENCODING 797
SWIDTH 516 0
DWIDTH 7 0
BBX 7 13 0 -2
BITMAP
00
00
66
66
66
66
66
66
66
66
3C
00
18
ENDCHAR
STARTCHAR LtCapVLdot
ENCODING 798
SWIDTH 516 0
DWIDTH 7 0
BBX 7 13 0 -2
BITMAP
00
00
62
62
36
34
34
1C
18
18
08
00
18
ENDCHAR
STARTCHAR LtCapWLdot
ENCODING 799
SWIDTH 516 0
DWIDTH 7 0
BBX 7 13 0 -2
BITMAP
00
00
62
62
62
6A
6A
7E
3C
34
34
00
18
ENDCHAR
STARTCHAR LtCapYLdot
ENCODING 800
SWIDTH 516 0
DWIDTH 7 0
BBX 7 13 0 -2
BITMAP
00
00
66
66
34
38
18
18
18
18
18
00
18
ENDCHAR
STARTCHAR LtCapZLdot
ENCODING 801
SWIDTH 516 0
DWIDTH 7 0
BBX 7 13 0 -2
BITMAP
00
00
7E
46
0C
0C
18
30
30
62
7E
00
18
ENDCHAR
STARTCHAR LtSmlALdot
ENCODING 802
SWIDTH 516 0
DWIDTH 7 0
BBX 7 13 0 -2
BITMAP
00
00
00
00
3C
36
06
3E
66
66
3E
00
18
ENDCHAR
STARTCHAR LtSmlBLdot
ENCODING 803
SWIDTH 516 0
DWIDTH 7 0
BBX 7 13 0 -2
BITMAP
00
60
60
60
6C
76
66
66
66
76
6C
00
18
ENDCHAR
STARTCHAR LtSmlCLdot
ENCODING 804
SWIDTH 516 0
DWIDTH 7 0
BBX 7 13 0 -2
BITMAP
00
00
00
00
3C
66
60
60
60
66
3C
00
18
ENDCHAR
STARTCHAR LtSmlDLdot
ENCODING 805
SWIDTH 516 0
DWIDTH 7 0
BBX 7 13 0 -2
BITMAP
00
06
06
06
36
6E
66
66
66
6E
36
00
18
ENDCHAR
STARTCHAR LtSmlELdot
ENCODING 806
SWIDTH 516 0
DWIDTH 7 0
BBX 7 13 0 -2
BITMAP
00
00
00
00
3C
66
66
7E
60
66
3C
00
18
ENDCHAR
STARTCHAR LtSmlHLdot
ENCODING 807
SWIDTH 516 0
DWIDTH 7 0
BBX 7 13 0 -2
BITMAP
00
60
60
60
6C
76
66
66
66
66
66
00
18
ENDCHAR
STARTCHAR LtSmlILdot
ENCODING 808
SWIDTH 516 0
DWIDTH 7 0
BBX 7 13 0 -2
BITMAP
00
18
18
00
38
18
18
18
18
18
7E
00
18
ENDCHAR
STARTCHAR LtSmlKLdot
ENCODING 809
SWIDTH 516 0
DWIDTH 7 0
BBX 7 13 0 -2
BITMAP
00
60
60
60
66
64
68
78
6C
66
66
00
18
ENDCHAR
STARTCHAR LtSmlLLdot
ENCODING 810
SWIDTH 516 0
DWIDTH 7 0
BBX 7 13 0 -2
BITMAP
00
38
18
18
18
18
18
18
18
18
7E
00
18
ENDCHAR
STARTCHAR LtSmlMLdot
ENCODING 811
SWIDTH 516 0
DWIDTH 7 0
BBX 7 13 0 -2
BITMAP
00
00
00
00
6C
7E
7E
6A
6A
6A
6A
00
18
ENDCHAR
STARTCHAR LtSmlNLdot
ENCODING 812
SWIDTH 516 0
DWIDTH 7 0
BBX 7 13 0 -2
BITMAP
00
00
00
00
6C
76
66
66
66
66
66
00
18
ENDCHAR
STARTCHAR LtSmlOLdot
ENCODING 813
SWIDTH 516 0
DWIDTH 7 0
BBX 7 13 0 -2
BITMAP
00
00
00
00
3C
66
66
66
66
66
3C
00
18
ENDCHAR
STARTCHAR LtSmlPLdot
ENCODING 814
SWIDTH 516 0
DWIDTH 7 0
BBX 7 13 0 -2
BITMAP
00
00
00
00
6C
76
66
66
66
76
6C
60
6C
ENDCHAR
STARTCHAR LtSmlQLdot
ENCODING 815
SWIDTH 516 0
DWIDTH 7 0
BBX 7 13 0 -2
BITMAP
00
00
00
00
36
6E
66
66
66
6E
36
06
36
ENDCHAR
STARTCHAR LtSmlRLdot
ENCODING 816
SWIDTH 516 0
DWIDTH 7 0
BBX 7 13 0 -2
BITMAP
00
00
00
00
76
3E
30
30
30
30
30
00
30
ENDCHAR
STARTCHAR LtSmlSLdot
ENCODING 817
SWIDTH 516 0
DWIDTH 7 0
BBX 7 13 0 -2
BITMAP
00
00
00
00
3C
66
60
3C
06
66
3C
00
18
ENDCHAR
STARTCHAR LtSmlTLdot
ENCODING 818
SWIDTH 516 0
DWIDTH 7 0
BBX 7 13 0 -2
BITMAP
00
00
30
30
7C
30
30
30
30
36
1C
00
18
ENDCHAR
STARTCHAR LtSmlULdot
ENCODING 819
SWIDTH 516 0
DWIDTH 7 0
BBX 7 13 0 -2
BITMAP
00
00
00
00
66
66
66
66
66
6E
36
00
18
ENDCHAR
STARTCHAR LtSmlVLdot
ENCODING 820
SWIDTH 516 0
DWIDTH 7 0
BBX 7 13 0 -2
BITMAP
00
00
00
00
62
62
36
34
1C
18
08
00
18
ENDCHAR
STARTCHAR LtSmlWLdot
ENCODING 821
SWIDTH 516 0
DWIDTH 7 0
BBX 7 13 0 -2
BITMAP
00
00
00
00
62
6A
6A
6A
7E
34
34
00
18
ENDCHAR
STARTCHAR LtSmlYLdot
ENCODING 822
SWIDTH 516 0
DWIDTH 7 0
BBX 7 13 0 -2
BITMAP
00
00
00
00
62
62
36
34
1C
1C
08
5E
76
ENDCHAR
STARTCHAR LtSmlZLdot
ENCODING 823
SWIDTH 516 0
DWIDTH 7 0
BBX 7 13 0 -2
BITMAP
00
00
00
00
7E
4E
0C
18
30
72
7E
00
18
ENDCHAR
STARTCHAR LtCapOHornLdot
ENCODING 824
SWIDTH 516 0
DWIDTH 7 0
BBX 7 13 0 -2
BITMAP
0E
06
3C
66
66
66
66
66
66
66
3C
00
18
ENDCHAR
STARTCHAR LtCapUHornLdot
ENCODING 825
SWIDTH 516 0
DWIDTH 7 0
BBX 7 13 0 -2
BITMAP
0E
06
64
66
66
66
66
66
66
66
3C
00
18
ENDCHAR
STARTCHAR LtSmlOHornLdot
ENCODING 826
SWIDTH 516 0
DWIDTH 7 0
BBX 7 13 0 -2
BITMAP
00
00
0E
06
3C
66
66
66
66
66
3C
00
18
ENDCHAR
STARTCHAR LtSmlUHornLdot
ENCODING 827
SWIDTH 516 0
DWIDTH 7 0
BBX 7 13 0 -2
BITMAP
00
00
0E
06
64
66
66
66
66
6E
36
00
18
ENDCHAR
STARTCHAR LtCapSDotLdot
ENCODING 828
SWIDTH 516 0
DWIDTH 7 0
BBX 7 13 0 -2
BITMAP
18
18
00
3C
66
60
38
1C
06
66
3C
00
18
ENDCHAR
STARTCHAR LtSmlSDotLdot
ENCODING 829
SWIDTH 516 0
DWIDTH 7 0
BBX 7 13 0 -2
BITMAP
00
18
18
00
3C
66
60
3C
06
66
3C
00
18
ENDCHAR
STARTCHAR LtCapLMacronLdot
ENCODING 830
SWIDTH 516 0
DWIDTH 7 0
BBX 7 13 0 -2
BITMAP
78
78
00
60
60
60
60
60
60
62
7E
00
18
ENDCHAR
STARTCHAR LtCapRMacronLdot
ENCODING 831
SWIDTH 516 0
DWIDTH 7 0
BBX 7 13 0 -2
BITMAP
3C
3C
00
7C
66
66
7C
68
6C
66
66
00
18
ENDCHAR
STARTCHAR LtSmlLMacronLdot
ENCODING 832
SWIDTH 516 0
DWIDTH 7 0
BBX 7 13 0 -2
BITMAP
7C
00
38
18
18
18
18
18
18
18
7E
00
18
ENDCHAR
STARTCHAR LtSmlRMacronLdot
ENCODING 833
SWIDTH 516 0
DWIDTH 7 0
BBX 7 13 0 -2
BITMAP
00
3C
3C
00
76
3E
30
30
30
30
30
00
30
ENDCHAR
STARTCHAR LtCapEAcuteLdot
ENCODING 834
SWIDTH 516 0
DWIDTH 7 0
BBX 7 13 0 -2
BITMAP
0E
18
00
7E
62
60
7C
64
60
62
7E
00
18
ENDCHAR
STARTCHAR LtCapOAcuteLdot
ENCODING 835
SWIDTH 516 0
DWIDTH 7 0
BBX 7 13 0 -2
BITMAP
0E
18
00
3C
66
66
66
66
66
66
3C
00
18
ENDCHAR
STARTCHAR LtCapRAcuteLdot
ENCODING 836
SWIDTH 516 0
DWIDTH 7 0
BBX 7 13 0 -2
BITMAP
0E
18
00
7C
66
66
7C
68
6C
66
66
00
18
ENDCHAR
STARTCHAR LtSmlEAcuteLdot
ENCODING 837
SWIDTH 516 0
DWIDTH 7 0
BBX 7 13 0 -2
BITMAP
06
0C
08
00
3C
66
66
7E
60
66
3C
00
18
ENDCHAR
STARTCHAR LtSmlOAcuteLdot
ENCODING 838
SWIDTH 516 0
DWIDTH 7 0
BBX 7 13 0 -2
BITMAP
06
0C
08
00
3C
66
66
66
66
66
3C
00
18
ENDCHAR
STARTCHAR LtSmlRAcuteLdot
ENCODING 839
SWIDTH 516 0
DWIDTH 7 0
BBX 7 13 0 -2
BITMAP
06
0C
08
00
76
3E
30
30
30
30
30
00
30
ENDCHAR
STARTCHAR LtSmlRMacronAcuteLdot
ENCODING 840
SWIDTH 516 0
DWIDTH 7 0
BBX 7 13 0 -2
BITMAP
0E
18
3E
00
76
3E
30
30
30
30
30
00
30
ENDCHAR
STARTCHAR LtCapEGraveLdot
ENCODING 841
SWIDTH 516 0
DWIDTH 7 0
BBX 7 13 0 -2
BITMAP
70
18
00
7E
62
60
7C
64
60
62
7E
00
18
ENDCHAR
STARTCHAR LtCapOGraveLdot
ENCODING 842
SWIDTH 516 0
DWIDTH 7 0
BBX 7 13 0 -2
BITMAP
70
18
00
3C
66
66
66
66
66
66
3C
00
18
ENDCHAR
STARTCHAR LtCapRGraveLdot
ENCODING 843
SWIDTH 516 0
DWIDTH 7 0
BBX 7 13 0 -2
BITMAP
70
18
00
7C
66
66
7C
68
6C
66
66
00
18
ENDCHAR
STARTCHAR LtSmlEGraveLdot
ENCODING 844
SWIDTH 516 0
DWIDTH 7 0
BBX 7 13 0 -2
BITMAP
30
18
08
00
3C
66
66
7E
60
66
3C
00
18
ENDCHAR
STARTCHAR LtSmlOGraveLdot
ENCODING 845
SWIDTH 516 0
DWIDTH 7 0
BBX 7 13 0 -2
BITMAP
30
18
08
00
3C
66
66
66
66
66
3C
00
18
ENDCHAR
STARTCHAR LtSmlRGraveLdot
ENCODING 846
SWIDTH 516 0
DWIDTH 7 0
BBX 7 13 0 -2
BITMAP
30
18
08
00
76
3E
30
30
30
30
30
00
30
ENDCHAR
STARTCHAR LtCapACircumLdot
ENCODING 847
SWIDTH 516 0
DWIDTH 7 0
BBX 7 13 0 -2
BITMAP
1C
36
00
18
18
3C
2C
2C
7E
46
46
00
18
ENDCHAR
STARTCHAR LtCapECircumLdot
ENCODING 848
SWIDTH 516 0
DWIDTH 7 0
BBX 7 13 0 -2
BITMAP
1C
36
00
7E
62
60
7C
64
60
62
7E
00
18
ENDCHAR
STARTCHAR LtCapOCircumLdot
ENCODING 849
SWIDTH 516 0
DWIDTH 7 0
BBX 7 13 0 -2
BITMAP
1C
36
00
3C
66
66
66
66
66
66
3C
00
18
ENDCHAR
STARTCHAR LtSmlACircumLdot
ENCODING 850
SWIDTH 516 0
DWIDTH 7 0
BBX 7 13 0 -2
BITMAP
18
3C
24
00
3C
36
06
3E
66
66
3E
00
18
ENDCHAR
STARTCHAR LtSmlECircumLdot
ENCODING 851
SWIDTH 516 0
DWIDTH 7 0
BBX 7 13 0 -2
BITMAP
18
3C
24
00
3C
66
66
7E
60
66
3C
00
18
ENDCHAR
STARTCHAR LtSmlOCircumLdot
ENCODING 852
SWIDTH 516 0
DWIDTH 7 0
BBX 7 13 0 -2
BITMAP
18
3C
24
00
3C
66
66
66
66
66
3C
00
18
ENDCHAR
STARTCHAR LtCapCCaronLdot
ENCODING 853
SWIDTH 516 0
DWIDTH 7 0
BBX 7 13 0 -2
BITMAP
36
1C
00
1C
36
60
60
60
60
36
1C
00
18
ENDCHAR
STARTCHAR LtSmlCCaronLdot
ENCODING 854
SWIDTH 516 0
DWIDTH 7 0
BBX 7 13 0 -2
BITMAP
24
3C
18
00
3C
66
60
60
60
66
3C
00
18
ENDCHAR
STARTCHAR LtCapABreveLdot
ENCODING 855
SWIDTH 516 0
DWIDTH 7 0
BBX 7 13 0 -2
BITMAP
36
1C
00
18
18
3C
2C
2C
7E
46
46
00
18
ENDCHAR
STARTCHAR LtSmlABreveLdot
ENCODING 856
SWIDTH 516 0
DWIDTH 7 0
BBX 7 13 0 -2
BITMAP
00
36
1C
00
3C
36
06
3E
66
66
3E
00
18
ENDCHAR
STARTCHAR LtSmlRLvline
ENCODING 860
SWIDTH 516 0
DWIDTH 7 0
BBX 7 13 0 -2
BITMAP
00
00
00
00
76
3E
30
30
30
30
30
18
18
ENDCHAR
STARTCHAR LtCapALring
ENCODING 862
SWIDTH 516 0
DWIDTH 7 0
BBX 7 13 0 -2
BITMAP
00
00
18
18
18
3C
2C
2C
7E
46
5E
34
18
ENDCHAR
STARTCHAR LtCapRLring
ENCODING 863
SWIDTH 516 0
DWIDTH 7 0
BBX 7 13 0 -2
BITMAP
00
00
7C
66
66
66
7C
68
6C
66
5A
34
18
ENDCHAR
STARTCHAR LtSmlALring
ENCODING 864
SWIDTH 516 0
DWIDTH 7 0
BBX 7 13 0 -2
BITMAP
00
00
00
00
3C
36
06
3E
66
66
3E
34
18
ENDCHAR
STARTCHAR LtSmlLLring
ENCODING 865
SWIDTH 516 0
DWIDTH 7 0
BBX 7 13 0 -2
BITMAP
00
38
18
18
18
18
18
18
18
18
7E
34
18
ENDCHAR
STARTCHAR LtSmlRLring
ENCODING 866
SWIDTH 516 0
DWIDTH 7 0
BBX 7 13 0 -2
BITMAP
00
00
00
00
76
3E
30
30
30
30
30
68
30
ENDCHAR
STARTCHAR LtSmlLMacronLring
ENCODING 867
SWIDTH 516 0
DWIDTH 7 0
BBX 7 13 0 -2
BITMAP
7C
00
38
18
18
18
18
18
18
18
7E
34
18
ENDCHAR
STARTCHAR LtSmlRMacronLring
ENCODING 868
SWIDTH 516 0
DWIDTH 7 0
BBX 7 13 0 -2
BITMAP
00
3C
3C
00
76
3E
30
30
30
30
30
68
30
ENDCHAR
STARTCHAR LtSmlRAcuteLring
ENCODING 869
SWIDTH 516 0
DWIDTH 7 0
BBX 7 13 0 -2
BITMAP
06
0C
08
00
76
3E
30
30
30
30
30
68
30
ENDCHAR
STARTCHAR LtSmlRMacronAcuteLring
ENCODING 870
SWIDTH 516 0
DWIDTH 7 0
BBX 7 13 0 -2
BITMAP
0E
18
3E
00
76
3E
30
30
30
30
30
68
30
ENDCHAR
STARTCHAR LtSmlRGraveLring
ENCODING 871
SWIDTH 516 0
DWIDTH 7 0
BBX 7 13 0 -2
BITMAP
30
18
08
00
76
3E
30
30
30
30
30
68
30
ENDCHAR
STARTCHAR LtCapULdrss
ENCODING 872
SWIDTH 516 0
DWIDTH 7 0
BBX 7 13 0 -2
BITMAP
00
00
66
66
66
66
66
66
66
66
3C
00
6C
ENDCHAR
STARTCHAR LtSmlULdrss
ENCODING 873
SWIDTH 516 0
DWIDTH 7 0
BBX 7 13 0 -2
BITMAP
00
00
00
00
66
66
66
66
66
6E
36
00
6C
ENDCHAR
STARTCHAR LtCapBLmacron
ENCODING 874
SWIDTH 516 0
DWIDTH 7 0
BBX 7 13 0 -2
BITMAP
00
00
7C
66
66
64
7C
66
66
66
7C
00
7C
ENDCHAR
STARTCHAR LtCapDLmacron
ENCODING 875
SWIDTH 516 0
DWIDTH 7 0
BBX 7 13 0 -2
BITMAP
00
00
78
64
66
66
66
66
66
64
78
00
7C
ENDCHAR
STARTCHAR LtCapELmacron
ENCODING 876
SWIDTH 516 0
DWIDTH 7 0
BBX 7 13 0 -2
BITMAP
00
00
7E
62
60
64
7C
64
60
62
7E
00
7E
ENDCHAR
STARTCHAR LtCapHLmacron
ENCODING 877
SWIDTH 516 0
DWIDTH 7 0
BBX 7 13 0 -2
BITMAP
00
00
66
66
66
66
7E
66
66
66
66
00
7E
ENDCHAR
STARTCHAR LtCapKLmacron
ENCODING 878
SWIDTH 516 0
DWIDTH 7 0
BBX 7 13 0 -2
BITMAP
00
00
66
64
68
78
78
6C
6C
66
66
00
7E
ENDCHAR
STARTCHAR LtCapLLmacron
ENCODING 879
SWIDTH 516 0
DWIDTH 7 0
BBX 7 13 0 -2
BITMAP
00
00
60
60
60
60
60
60
60
62
7E
00
7E
ENDCHAR
STARTCHAR LtCapNLmacron
ENCODING 880
SWIDTH 516 0
DWIDTH 7 0
BBX 7 13 0 -2
BITMAP
00
00
62
72
72
5A
5A
4E
4E
46
46
00
7E
ENDCHAR
STARTCHAR LtCapOLmacron
ENCODING 881
SWIDTH 516 0
DWIDTH 7 0
BBX 7 13 0 -2
BITMAP
00
00
3C
66
66
66
66
66
66
66
3C
00
7E
ENDCHAR
STARTCHAR LtCapRLmacron
ENCODING 882
SWIDTH 516 0
DWIDTH 7 0
BBX 7 13 0 -2
BITMAP
00
00
7C
66
66
66
7C
68
6C
66
66
00
7E
ENDCHAR
STARTCHAR LtCapTLmacron
ENCODING 883
SWIDTH 516 0
DWIDTH 7 0
BBX 7 13 0 -2
BITMAP
00
00
7E
5A
18
18
18
18
18
18
18
00
7C
ENDCHAR
STARTCHAR LtCapZLmacron
ENCODING 884
SWIDTH 516 0
DWIDTH 7 0
BBX 7 13 0 -2
BITMAP
00
00
7E
46
0C
0C
18
30
30
62
7E
00
7E
ENDCHAR
STARTCHAR LtSmlBLmacron
ENCODING 885
SWIDTH 516 0
DWIDTH 7 0
BBX 7 13 0 -2
BITMAP
00
60
60
60
6C
76
66
66
66
76
6C
00
7E
ENDCHAR
STARTCHAR LtSmlDLmacron
ENCODING 886
SWIDTH 516 0
DWIDTH 7 0
BBX 7 13 0 -2
BITMAP
00
06
06
06
36
6E
66
66
66
6E
36
00
7E
ENDCHAR
STARTCHAR LtSmlELmacron
ENCODING 887
SWIDTH 516 0
DWIDTH 7 0
BBX 7 13 0 -2
BITMAP
00
00
00
00
3C
66
66
7E
60
66
3C
00
7E
ENDCHAR
STARTCHAR LtSmlHLmacron
ENCODING 888
SWIDTH 516 0
DWIDTH 7 0
BBX 7 13 0 -2
BITMAP
00
60
60
60
6C
76
66
66
66
66
66
00
7E
ENDCHAR
STARTCHAR LtSmlKLmacron
ENCODING 889
SWIDTH 516 0
DWIDTH 7 0
BBX 7 13 0 -2
BITMAP
00
60
60
60
66
64
68
78
6C
66
66
00
7E
ENDCHAR
STARTCHAR LtSmlLLmacron
ENCODING 890
SWIDTH 516 0
DWIDTH 7 0
BBX 7 13 0 -2
BITMAP
00
38
18
18
18
18
18
18
18
18
7E
00
7E
ENDCHAR
STARTCHAR LtSmlNLmacron
ENCODING 891
SWIDTH 516 0
DWIDTH 7 0
BBX 7 13 0 -2
BITMAP
00
00
00
00
6C
76
66
66
66
66
66
00
7E
ENDCHAR
STARTCHAR LtSmlOLmacron
ENCODING 892
SWIDTH 516 0
DWIDTH 7 0
BBX 7 13 0 -2
BITMAP
00
00
00
00
3C
66
66
66
66
66
3C
00
7E
ENDCHAR
STARTCHAR LtSmlRLmacron
ENCODING 893
SWIDTH 516 0
DWIDTH 7 0
BBX 7 13 0 -2
BITMAP
00
00
00
00
76
3E
30
30
30
30
30
00
7C
ENDCHAR
STARTCHAR LtSmlTLmacron
ENCODING 894
SWIDTH 516 0
DWIDTH 7 0
BBX 7 13 0 -2
BITMAP
00
00
30
30
7C
30
30
30
30
36
1C
00
3E
ENDCHAR
STARTCHAR LtSmlZLmacron
ENCODING 895
SWIDTH 516 0
DWIDTH 7 0
BBX 7 13 0 -2
BITMAP
00
00
00
00
7E
4E
0C
18
30
72
7E
00
7E
ENDCHAR
STARTCHAR LtCapGHLmacron
ENCODING 896
SWIDTH 516 0
DWIDTH 7 0
BBX 7 13 0 -2
BITMAP
00
00
3A
6A
4A
4A
7E
5A
5A
5A
3A
00
7E
ENDCHAR
STARTCHAR LtCapKHLmacron
ENCODING 897
SWIDTH 516 0
DWIDTH 7 0
BBX 7 13 0 -2
BITMAP
00
00
5A
5A
6A
6A
6E
6A
5A
5A
5A
00
7E
ENDCHAR
STARTCHAR LtMixGHLmacron
ENCODING 898
SWIDTH 516 0
DWIDTH 7 0
BBX 7 13 0 -2
BITMAP
00
08
38
68
4E
4E
7A
5A
5A
5A
3A
00
7E
ENDCHAR
STARTCHAR LtMixKHLmacron
ENCODING 899
SWIDTH 516 0
DWIDTH 7 0
BBX 7 13 0 -2
BITMAP
00
08
58
58
6E
6E
6A
6A
5A
5A
5A
00
7E
ENDCHAR
STARTCHAR LtSmlGHLmacron
ENCODING 900
SWIDTH 516 0
DWIDTH 7 0
BBX 7 13 0 -2
BITMAP
00
08
08
08
3E
7E
5A
5A
7A
3A
1A
50
7E
ENDCHAR
STARTCHAR LtSmlKHLmacron
ENCODING 901
SWIDTH 516 0
DWIDTH 7 0
BBX 7 13 0 -2
BITMAP
00
48
48
48
5E
5E
6A
7A
5A
5A
5A
00
7E
ENDCHAR
STARTCHAR LtCapDLcircum
ENCODING 902
SWIDTH 516 0
DWIDTH 7 0
BBX 7 13 0 -2
BITMAP
00
00
78
64
66
66
66
66
66
64
78
18
2C
ENDCHAR
STARTCHAR LtCapELcircum
ENCODING 903
SWIDTH 516 0
DWIDTH 7 0
BBX 7 13 0 -2
BITMAP
00
00
7E
62
60
64
7C
64
60
62
7E
18
2C
ENDCHAR
STARTCHAR LtCapLLcircum
ENCODING 904
SWIDTH 516 0
DWIDTH 7 0
BBX 7 13 0 -2
BITMAP
00
00
60
60
60
60
60
60
60
62
7E
18
2C
ENDCHAR
STARTCHAR LtCapNLcircum
ENCODING 905
SWIDTH 516 0
DWIDTH 7 0
BBX 7 13 0 -2
BITMAP
00
00
62
72
72
5A
5A
4E
4E
46
46
18
2C
ENDCHAR
STARTCHAR LtCapTLcircum
ENCODING 906
SWIDTH 516 0
DWIDTH 7 0
BBX 7 13 0 -2
BITMAP
00
00
7E
5A
18
18
18
18
18
18
18
18
2C
ENDCHAR
STARTCHAR LtCapULcircum
ENCODING 907
SWIDTH 516 0
DWIDTH 7 0
BBX 7 13 0 -2
BITMAP
00
00
66
66
66
66
66
66
66
66
3C
18
2C
ENDCHAR
STARTCHAR LtSmlDLcircum
ENCODING 908
SWIDTH 516 0
DWIDTH 7 0
BBX 7 13 0 -2
BITMAP
00
06
06
06
36
6E
66
66
66
6E
36
18
2C
ENDCHAR
STARTCHAR LtSmlELcircum
ENCODING 909
SWIDTH 516 0
DWIDTH 7 0
BBX 7 13 0 -2
BITMAP
00
00
00
00
3C
66
66
7E
60
66
3C
18
2C
ENDCHAR
STARTCHAR LtSmlLLcircum
ENCODING 910
SWIDTH 516 0
DWIDTH 7 0
BBX 7 13 0 -2
BITMAP
00
38
18
18
18
18
18
18
18
18
7E
18
2C
ENDCHAR
STARTCHAR LtSmlNLcircum
ENCODING 911
SWIDTH 516 0
DWIDTH 7 0
BBX 7 13 0 -2
BITMAP
00
00
00
00
6C
76
66
66
66
66
66
18
2C
ENDCHAR
STARTCHAR LtSmlTLcircum
ENCODING 912
SWIDTH 516 0
DWIDTH 7 0
BBX 7 13 0 -2
BITMAP
00
00
30
30
7C
30
30
30
30
36
1C
18
2C
ENDCHAR
STARTCHAR LtSmlULcircum
ENCODING 913
SWIDTH 516 0
DWIDTH 7 0
BBX 7 13 0 -2
BITMAP
00
00
00
00
66
66
66
66
66
6E
36
18
2C
ENDCHAR
STARTCHAR LtCapHLbreve
ENCODING 914
SWIDTH 516 0
DWIDTH 7 0
BBX 7 13 0 -2
BITMAP
00
00
66
66
66
66
7E
66
66
66
42
2C
18
ENDCHAR
STARTCHAR LtSmlHLbreve
ENCODING 915
SWIDTH 516 0
DWIDTH 7 0
BBX 7 13 0 -2
BITMAP
00
60
60
60
6C
76
66
66
66
66
42
2C
18
ENDCHAR
STARTCHAR LtSmlILinvbreve
ENCODING 916
SWIDTH 516 0
DWIDTH 7 0
BBX 7 13 0 -2
BITMAP
00
18
18
00
38
18
18
18
18
18
7E
18
2C
ENDCHAR
STARTCHAR LtSmlOLinvbreve
ENCODING 917
SWIDTH 516 0
DWIDTH 7 0
BBX 7 13 0 -2
BITMAP
00
00
00
00
3C
66
66
66
66
66
3C
18
2C
ENDCHAR
STARTCHAR LtSmlULinvbreve
ENCODING 918
SWIDTH 516 0
DWIDTH 7 0
BBX 7 13 0 -2
BITMAP
00
00
00
00
66
66
66
66
66
6E
36
18
2C
ENDCHAR
STARTCHAR LtSmlATrndLinvbreve
ENCODING 919
SWIDTH 516 0
DWIDTH 7 0
BBX 7 13 0 -2
BITMAP
00
00
00
00
6C
76
66
7C
60
6C
3C
18
2C
ENDCHAR
STARTCHAR LtCapELtilde
ENCODING 920
SWIDTH 516 0
DWIDTH 7 0
BBX 7 13 0 -2
BITMAP
00
00
7E
62
60
64
7C
64
60
62
7E
36
5C
ENDCHAR
STARTCHAR LtCapILtilde
ENCODING 921
SWIDTH 516 0
DWIDTH 7 0
BBX 7 13 0 -2
BITMAP
00
00
7E
18
18
18
18
18
18
18
7E
36
5C
ENDCHAR
STARTCHAR LtCapULtilde
ENCODING 922
SWIDTH 516 0
DWIDTH 7 0
BBX 7 13 0 -2
BITMAP
00
00
66
66
66
66
66
66
66
66
3C
36
5C
ENDCHAR
STARTCHAR LtSmlELtilde
ENCODING 923
SWIDTH 516 0
DWIDTH 7 0
BBX 7 13 0 -2
BITMAP
00
00
00
00
3C
66
66
7E
60
66
3C
36
5C
ENDCHAR
STARTCHAR LtSmlILtilde
ENCODING 924
SWIDTH 516 0
DWIDTH 7 0
BBX 7 13 0 -2
BITMAP
00
18
18
00
38
18
18
18
18
18
7E
36
5C
ENDCHAR
STARTCHAR LtSmlULtilde
ENCODING 925
SWIDTH 516 0
DWIDTH 7 0
BBX 7 13 0 -2
BITMAP
00
00
00
00
66
66
66
66
66
6E
36
3A
6C
ENDCHAR
STARTCHAR HbAlefPatah
ENCODING 1355
SWIDTH 516 0
DWIDTH 7 0
BBX 7 13 0 -2
BITMAP
00
00
00
00
4C
66
7C
3C
6E
66
72
00
3C
ENDCHAR
STARTCHAR HbAlefQamats
ENCODING 1357
SWIDTH 516 0
DWIDTH 7 0
BBX 7 13 0 -2
BITMAP
00
00
00
00
4C
66
7C
3C
6E
66
62
38
10
ENDCHAR
STARTCHAR GeGan
ENCODING 1388
SWIDTH 516 0
DWIDTH 7 0
BBX 7 13 0 -2
BITMAP
00
00
00
00
00
70
58
18
3C
66
66
66
3C
ENDCHAR
STARTCHAR GeDon
ENCODING 1389
SWIDTH 516 0
DWIDTH 7 0
BBX 7 13 0 -2
BITMAP
00
00
00
00
00
3C
66
66
66
3C
30
7C
46
ENDCHAR
STARTCHAR GeEn
ENCODING 1390
SWIDTH 516 0
DWIDTH 7 0
BBX 7 13 0 -2
BITMAP
00
00
00
00
00
3C
36
06
06
06
66
66
3C
ENDCHAR
STARTCHAR GeVin
ENCODING 1391
SWIDTH 516 0
DWIDTH 7 0
BBX 7 13 0 -2
BITMAP
00
00
00
00
00
3C
36
06
1C
06
66
66
3C
ENDCHAR
STARTCHAR GeKan
ENCODING 1395
SWIDTH 516 0
DWIDTH 7 0
BBX 7 13 0 -2
BITMAP
00
00
00
00
00
06
06
06
1C
06
66
66
3C
ENDCHAR
STARTCHAR GeLas
ENCODING 1396
SWIDTH 516 0
DWIDTH 7 0
BBX 7 13 0 -2
BITMAP
00
00
00
00
00
3C
66
66
66
64
30
7C
46
ENDCHAR
STARTCHAR GeZhar
ENCODING 1401
SWIDTH 516 0
DWIDTH 7 0
BBX 7 13 0 -2
BITMAP
00
00
00
00
00
1E
5E
76
36
06
66
66
3C
ENDCHAR
STARTCHAR GeTar
ENCODING 1404
SWIDTH 516 0
DWIDTH 7 0
BBX 7 13 0 -2
BITMAP
00
00
00
00
18
34
6E
76
66
66
66
66
3C
ENDCHAR
STARTCHAR GeUn
ENCODING 1405
SWIDTH 516 0
DWIDTH 7 0
BBX 7 13 0 -2
BITMAP
00
00
00
00
00
6C
7E
36
36
06
66
66
3C
ENDCHAR
STARTCHAR GePhar
ENCODING 1406
SWIDTH 516 0
DWIDTH 7 0
BBX 7 13 0 -2
BITMAP
00
00
00
00
00
2C
7E
56
76
2C
06
36
1C
ENDCHAR
STARTCHAR GeKhar
ENCODING 1407
SWIDTH 516 0
DWIDTH 7 0
BBX 7 13 0 -2
BITMAP
00
00
02
06
06
06
1E
36
26
06
66
66
3C
ENDCHAR
STARTCHAR GeGhan
ENCODING 1408
SWIDTH 516 0
DWIDTH 7 0
BBX 7 13 0 -2
BITMAP
00
00
00
00
00
24
7E
5A
4A
62
30
7C
46
ENDCHAR
STARTCHAR GeQar
ENCODING 1409
SWIDTH 516 0
DWIDTH 7 0
BBX 7 13 0 -2
BITMAP
00
00
00
00
00
66
66
66
3E
06
66
66
3C
ENDCHAR
STARTCHAR GeCan
ENCODING 1412
SWIDTH 516 0
DWIDTH 7 0
BBX 7 13 0 -2
BITMAP
00
00
00
00
00
28
6C
66
66
6C
66
66
3C
ENDCHAR
STARTCHAR GeCil
ENCODING 1414
SWIDTH 516 0
DWIDTH 7 0
BBX 7 13 0 -2
BITMAP
00
00
24
7E
5A
5A
40
7E
34
34
18
18
18
ENDCHAR
STARTCHAR GeChar
ENCODING 1415
SWIDTH 516 0
DWIDTH 7 0
BBX 7 13 0 -2
BITMAP
00
00
30
1C
0C
0C
3C
6E
3C
0C
6C
6C
38
ENDCHAR
STARTCHAR GeWe
ENCODING 1421
SWIDTH 516 0
DWIDTH 7 0
BBX 7 13 0 -2
BITMAP
00
00
00
00
00
3E
06
0C
18
06
66
66
3C
ENDCHAR
STARTCHAR GeHar
ENCODING 1422
SWIDTH 516 0
DWIDTH 7 0
BBX 7 13 0 -2
BITMAP
00
00
0C
18
18
0E
06
0C
18
06
66
66
3C
ENDCHAR
STARTCHAR GeFi
ENCODING 1424
SWIDTH 516 0
DWIDTH 7 0
BBX 7 13 0 -2
BITMAP
00
00
00
00
00
34
5E
5A
5A
5A
1C
18
30
ENDCHAR
STARTCHAR GeYn
ENCODING 1425
SWIDTH 516 0
DWIDTH 7 0
BBX 7 13 0 -2
BITMAP
00
00
00
00
00
3C
36
06
1C
30
66
66
3C
ENDCHAR
STARTCHAR GeElifi
ENCODING 1426
SWIDTH 516 0
DWIDTH 7 0
BBX 7 13 0 -2
BITMAP
00
00
00
00
00
66
66
66
7C
60
66
66
3C
ENDCHAR
STARTCHAR GeUo
ENCODING 1429
SWIDTH 516 0
DWIDTH 7 0
BBX 7 13 0 -2
BITMAP
00
00
00
00
00
36
7E
6C
6C
60
66
66
3C
ENDCHAR
STARTCHAR GeGanTrnd
ENCODING 1432
SWIDTH 516 0
DWIDTH 7 0
BBX 7 13 0 -2
BITMAP
00
00
00
00
00
3C
66
66
66
3C
18
1A
0E
ENDCHAR
STARTCHAR GeUnDrss
ENCODING 1435
SWIDTH 516 0
DWIDTH 7 0
BBX 7 13 0 -2
BITMAP
00
00
6C
6C
00
6C
7E
36
36
06
66
66
3C
ENDCHAR
STARTCHAR GeUnCircum
ENCODING 1437
SWIDTH 516 0
DWIDTH 7 0
BBX 7 13 0 -2
BITMAP
00
18
3C
24
00
6C
7E
36
36
06
66
66
3C
ENDCHAR
STARTCHAR GeEnMacron
ENCODING 1439
SWIDTH 516 0
DWIDTH 7 0
BBX 7 13 0 -2
BITMAP
00
00
3C
3C
00
3C
36
06
06
06
66
66
3C
ENDCHAR
STARTCHAR GeUnMacron
ENCODING 1442
SWIDTH 516 0
DWIDTH 7 0
BBX 7 13 0 -2
BITMAP
00
00
3C
3C
00
6C
7E
36
36
06
66
66
3C
ENDCHAR
STARTCHAR AmSmlEh
ENCODING 1489
SWIDTH 516 0
DWIDTH 7 0
BBX 7 13 0 -2
BITMAP
00
60
60
60
60
7E
60
60
60
60
3C
06
0C
ENDCHAR
STARTCHAR AmSmlYi
ENCODING 1503
SWIDTH 516 0
DWIDTH 7 0
BBX 7 13 0 -2
BITMAP
00
00
00
00
00
38
18
18
18
18
18
58
70
ENDCHAR
STARTCHAR AmSmlSha
ENCODING 1505
SWIDTH 516 0
DWIDTH 7 0
BBX 7 13 0 -2
BITMAP
00
00
00
00
00
3C
26
06
0C
18
30
70
3E
ENDCHAR
STARTCHAR AmSmlCha
ENCODING 1507
SWIDTH 516 0
DWIDTH 7 0
BBX 7 13 0 -2
BITMAP
00
00
00
00
00
30
38
18
10
20
60
70
3E
ENDCHAR
STARTCHAR AmSmlJheh
ENCODING 1509
SWIDTH 516 0
DWIDTH 7 0
BBX 7 13 0 -2
BITMAP
00
18
3C
4E
66
76
34
18
10
20
60
70
3E
ENDCHAR
STARTCHAR AmSmlCo
ENCODING 1515
SWIDTH 516 0
DWIDTH 7 0
BBX 7 13 0 -2
BITMAP
00
00
00
00
00
3E
66
66
66
3E
06
66
3C
ENDCHAR
STARTCHAR AmSmlKeh
ENCODING 1518
SWIDTH 516 0
DWIDTH 7 0
BBX 7 13 0 -2
BITMAP
00
00
00
00
00
3C
36
36
36
3C
30
7E
30
ENDCHAR
STARTCHAR GkCapIotTrndLbreve
ENCODING 1612
SWIDTH 516 0
DWIDTH 7 0
BBX 7 13 0 -2
BITMAP
00
00
7E
18
18
18
18
18
18
7E
00
2C
18
ENDCHAR
STARTCHAR GkCapUpsTrndLbreve
ENCODING 1613
SWIDTH 516 0
DWIDTH 7 0
BBX 7 13 0 -2
BITMAP
00
00
18
18
18
18
18
1C
2C
66
42
2C
18
ENDCHAR
STARTCHAR GkSmlIotTrndLbreve
ENCODING 1614
SWIDTH 516 0
DWIDTH 7 0
BBX 7 13 0 -2
BITMAP
00
00
00
00
38
6C
0C
0C
0C
0C
00
36
1C
ENDCHAR
STARTCHAR GkSmlUpsTrndLbreve
ENCODING 1615
SWIDTH 516 0
DWIDTH 7 0
BBX 7 13 0 -2
BITMAP
00
00
00
00
3C
66
66
66
66
32
00
6C
38
ENDCHAR
STARTCHAR ThYoYing
ENCODING 1917
SWIDTH 516 0
DWIDTH 7 0
BBX 7 13 0 -2
BITMAP
00
00
00
00
32
7A
5A
5A
5A
5E
4A
02
1C
ENDCHAR
STARTCHAR ThDoChada
ENCODING 1919
SWIDTH 516 0
DWIDTH 7 0
BBX 7 13 0 -2
BITMAP
00
00
00
00
3C
66
46
36
36
76
76
06
3C
ENDCHAR
STARTCHAR ThToPatak
ENCODING 1920
SWIDTH 516 0
DWIDTH 7 0
BBX 7 13 0 -2
BITMAP
00
00
00
00
3C
66
46
36
36
76
66
16
3E
ENDCHAR
STARTCHAR ThThoThan
ENCODING 1921
SWIDTH 516 0
DWIDTH 7 0
BBX 7 13 0 -2
BITMAP
00
00
00
00
7E
7E
04
36
36
0E
02
54
7E
ENDCHAR
STARTCHAR ThRu
ENCODING 1942
SWIDTH 516 0
DWIDTH 7 0
BBX 7 13 0 -2
BITMAP
00
00
00
00
3C
46
66
26
26
36
36
06
06
ENDCHAR
STARTCHAR ThLu
ENCODING 1944
SWIDTH 516 0
DWIDTH 7 0
BBX 7 13 0 -2
BITMAP
00
00
00
00
3C
66
46
36
36
76
76
06
06
ENDCHAR
STARTCHAR ThMaiyamok
ENCODING 1955
SWIDTH 516 0
DWIDTH 7 0
BBX 7 13 0 -2
BITMAP
00
00
00
00
2C
56
46
66
66
06
06
06
0C
ENDCHAR
STARTCHAR ThLakkhangyao
ENCODING 1956
SWIDTH 516 0
DWIDTH 7 0
BBX 7 13 0 -2
BITMAP
00
00
00
00
38
6C
6C
0C
0C
0C
0C
0C
0C
ENDCHAR
STARTCHAR ThSaraU
ENCODING 1978
SWIDTH 516 0
DWIDTH 7 0
BBX 7 13 0 -2
BITMAP
00
00
00
00
00
00
00
00
00
00
00
06
02
ENDCHAR
STARTCHAR ThSaraUu
ENCODING 1979
SWIDTH 516 0
DWIDTH 7 0
BBX 7 13 0 -2
BITMAP
00
00
00
00
00
00
00
00
00
00
00
1A
0E
ENDCHAR
STARTCHAR ThPhinthu
ENCODING 1980
SWIDTH 516 0
DWIDTH 7 0
BBX 7 13 0 -2
BITMAP
00
00
00
00
00
00
00
00
00
00
00
00
06
ENDCHAR
STARTCHAR ThSaraUD
ENCODING 1986
SWIDTH 516 0
DWIDTH 7 0
BBX 7 13 0 -2
BITMAP
00
00
00
00
00
00
00
00
00
00
00
06
02
ENDCHAR
STARTCHAR ThSaraUuD
ENCODING 1987
SWIDTH 516 0
DWIDTH 7 0
BBX 7 13 0 -2
BITMAP
00
00
00
00
00
00
00
00
00
00
00
1A
0E
ENDCHAR
STARTCHAR ThPhinthuD
ENCODING 1988
SWIDTH 516 0
DWIDTH 7 0
BBX 7 13 0 -2
BITMAP
00
00
00
00
00
00
00
00
00
00
00
00
06
ENDCHAR
STARTCHAR AccGraveAscii
ENCODING 2484
SWIDTH 516 0
DWIDTH 7 0
BBX 7 13 0 -2
BITMAP
00
30
30
18
08
00
00
00
00
00
00
00
00
ENDCHAR
STARTCHAR CombHbMeteg
ENCODING 2566
SWIDTH 516 0
DWIDTH 7 0
BBX 7 13 0 -2
BITMAP
00
00
00
00
00
00
00
00
00
00
10
10
10
ENDCHAR
STARTCHAR CombHbPatah
ENCODING 2567
SWIDTH 516 0
DWIDTH 7 0
BBX 7 13 0 -2
BITMAP
00
00
00
00
00
00
00
00
00
00
00
00
3C
ENDCHAR
STARTCHAR CombHbQamats
ENCODING 2568
SWIDTH 516 0
DWIDTH 7 0
BBX 7 13 0 -2
BITMAP
00
00
00
00
00
00
00
00
00
00
00
38
10
ENDCHAR
STARTCHAR CombHbSegol
ENCODING 2569
SWIDTH 516 0
DWIDTH 7 0
BBX 7 13 0 -2
BITMAP
00
00
00
00
00
00
00
00
00
00
00
66
18
ENDCHAR
STARTCHAR CombHbHatafQamats
ENCODING 2573
SWIDTH 516 0
DWIDTH 7 0
BBX 7 13 0 -2
BITMAP
00
00
00
00
00
00
00
00
00
00
06
70
26
ENDCHAR
STARTCHAR CombLdot
ENCODING 2631
SWIDTH 516 0
DWIDTH 7 0
BBX 7 13 0 -2
BITMAP
00
00
00
00
00
00
00
00
00
00
00
00
18
ENDCHAR
STARTCHAR CombLvline
ENCODING 2632
SWIDTH 516 0
DWIDTH 7 0
BBX 7 13 0 -2
BITMAP
00
00
00
00
00
00
00
00
00
00
00
18
18
ENDCHAR
STARTCHAR CombLdrss
ENCODING 2633
SWIDTH 516 0
DWIDTH 7 0
BBX 7 13 0 -2
BITMAP
00
00
00
00
00
00
00
00
00
00
00
00
6C
ENDCHAR
STARTCHAR CombLvline2
ENCODING 2634
SWIDTH 516 0
DWIDTH 7 0
BBX 7 13 0 -2
BITMAP
00
00
00
00
00
00
00
00
00
00
00
6C
6C
ENDCHAR
STARTCHAR CombLcircum
ENCODING 2637
SWIDTH 516 0
DWIDTH 7 0
BBX 7 13 0 -2
BITMAP
00
00
00
00
00
00
00
00
00
00
00
18
2C
ENDCHAR
STARTCHAR CombLcaron
ENCODING 2638
SWIDTH 516 0
DWIDTH 7 0
BBX 7 13 0 -2
BITMAP
00
00
00
00
00
00
00
00
00
00
00
2C
18
ENDCHAR
STARTCHAR CombLbreve
ENCODING 2639
SWIDTH 516 0
DWIDTH 7 0
BBX 7 13 0 -2
BITMAP
00
00
00
00
00
00
00
00
00
00
00
2C
18
ENDCHAR
STARTCHAR CombLinvbreve
ENCODING 2640
SWIDTH 516 0
DWIDTH 7 0
BBX 7 13 0 -2
BITMAP
00
00
00
00
00
00
00
00
00
00
00
18
2C
ENDCHAR
STARTCHAR CombLmacron
ENCODING 2641
SWIDTH 516 0
DWIDTH 7 0
BBX 7 13 0 -2
BITMAP
00
00
00
00
00
00
00
00
00
00
00
00
7E
ENDCHAR
STARTCHAR CombLtilde
ENCODING 2644
SWIDTH 516 0
DWIDTH 7 0
BBX 7 13 0 -2
BITMAP
00
00
00
00
00
00
00
00
00
00
00
36
5C
ENDCHAR
STARTCHAR PApostropheAscii
ENCODING 2681
SWIDTH 516 0
DWIDTH 7 0
BBX 7 13 0 -2
BITMAP
00
18
18
30
20
00
00
00
00
00
00
00
00
ENDCHAR
STARTCHAR PComma
ENCODING 2711
SWIDTH 516 0
DWIDTH 7 0
BBX 7 13 0 -2
BITMAP
00
00
00
00
00
00
00
00
00
18
18
30
20
ENDCHAR
STARTCHAR PSemicolon
ENCODING 2712
SWIDTH 516 0
DWIDTH 7 0
BBX 7 13 0 -2
BITMAP
00
00
00
00
00
18
18
00
00
18
18
30
20
ENDCHAR
STARTCHAR MArrowU
ENCODING 2955
SWIDTH 516 0
DWIDTH 7 0
BBX 7 13 0 -2
BITMAP
18
3C
7E
18
18
18
18
18
18
18
18
18
00
ENDCHAR
STARTCHAR MArrowD
ENCODING 2956
SWIDTH 516 0
DWIDTH 7 0
BBX 7 13 0 -2
BITMAP
18
18
18
18
18
18
18
18
18
7E
3C
18
00
ENDCHAR
STARTCHAR MArrowUD
ENCODING 2959
SWIDTH 516 0
DWIDTH 7 0
BBX 7 13 0 -2
BITMAP
18
3C
7E
18
18
18
18
18
18
7E
3C
18
00
ENDCHAR
STARTCHAR MArrowUDBase
ENCODING 2960
SWIDTH 516 0
DWIDTH 7 0
BBX 7 13 0 -2
BITMAP
18
3C
7E
18
18
18
18
7E
3C
18
7E
7E
00
ENDCHAR
STARTCHAR MArrowULeftD
ENCODING 2962
SWIDTH 516 0
DWIDTH 7 0
BBX 7 13 0 -2
BITMAP
6C
FC
FC
6C
6C
6C
6C
6C
6C
7E
7E
6C
00
ENDCHAR
STARTCHAR MArrowULeftU
ENCODING 2966
SWIDTH 516 0
DWIDTH 7 0
BBX 7 13 0 -2
BITMAP
6C
FE
FE
6C
6C
6C
6C
6C
6C
6C
6C
6C
00
ENDCHAR
STARTCHAR MArrowDLeftD
ENCODING 2967
SWIDTH 516 0
DWIDTH 7 0
BBX 7 13 0 -2
BITMAP
6C
6C
6C
6C
6C
6C
6C
6C
6C
FE
FE
6C
00
ENDCHAR
STARTCHAR MArrowUu
ENCODING 2970
SWIDTH 516 0
DWIDTH 7 0
BBX 7 13 0 -2
BITMAP
18
3C
7E
18
3C
7E
18
18
18
18
18
18
00
ENDCHAR
STARTCHAR MArrowDd
ENCODING 2971
SWIDTH 516 0
DWIDTH 7 0
BBX 7 13 0 -2
BITMAP
18
18
18
18
18
18
7E
3C
18
7E
3C
18
00
ENDCHAR
STARTCHAR MArrowBarU
ENCODING 2972
SWIDTH 516 0
DWIDTH 7 0
BBX 7 13 0 -2
BITMAP
18
3C
7E
18
18
18
18
18
18
18
7E
7E
00
ENDCHAR
STARTCHAR MArrowBarD
ENCODING 2973
SWIDTH 516 0
DWIDTH 7 0
BBX 7 13 0 -2
BITMAP
7E
7E
18
18
18
18
18
18
18
7E
3C
18
00
ENDCHAR
STARTCHAR MArrowLU
ENCODING 2978
SWIDTH 516 0
DWIDTH 7 0
BBX 7 13 0 -2
BITMAP
60
70
78
70
58
18
0C
0C
06
06
02
02
00
ENDCHAR
STARTCHAR MArrowRU
ENCODING 2979
SWIDTH 516 0
DWIDTH 7 0
BBX 7 13 0 -2
BITMAP
06
0E
1E
0E
1A
18
30
30
60
60
40
40
00
ENDCHAR
STARTCHAR MArrowLD
ENCODING 2980
SWIDTH 516 0
DWIDTH 7 0
BBX 7 13 0 -2
BITMAP
02
02
06
06
0C
0C
18
58
70
78
70
60
00
ENDCHAR
STARTCHAR MArrowRD
ENCODING 2981
SWIDTH 516 0
DWIDTH 7 0
BBX 7 13 0 -2
BITMAP
40
40
60
60
30
30
18
1A
0E
1E
0E
06
00
ENDCHAR
STARTCHAR MArrow2U
ENCODING 2998
SWIDTH 516 0
DWIDTH 7 0
BBX 7 13 0 -2
BITMAP
38
7C
EE
6C
6C
6C
6C
6C
6C
6C
6C
6C
00
ENDCHAR
STARTCHAR MArrow2D
ENCODING 2999
SWIDTH 516 0
DWIDTH 7 0
BBX 7 13 0 -2
BITMAP
6C
6C
6C
6C
6C
6C
6C
6C
6C
EE
7C
38
00
ENDCHAR
STARTCHAR MArrow2UD
ENCODING 3000
SWIDTH 516 0
DWIDTH 7 0
BBX 7 13 0 -2
BITMAP
38
7C
EE
6C
6C
6C
6C
6C
6C
EE
7C
38
00
ENDCHAR
STARTCHAR MHarpoonUl
ENCODING 3021
SWIDTH 516 0
DWIDTH 7 0
BBX 7 13 0 -2
BITMAP
18
38
78
18
18
18
18
18
18
18
18
18
00
ENDCHAR
STARTCHAR MHarpoonUr
ENCODING 3022
SWIDTH 516 0
DWIDTH 7 0
BBX 7 13 0 -2
BITMAP
18
1C
1E
18
18
18
18
18
18
18
18
18
00
ENDCHAR
STARTCHAR MHarpoonDl
ENCODING 3023
SWIDTH 516 0
DWIDTH 7 0
BBX 7 13 0 -2
BITMAP
18
18
18
18
18
18
18
18
18
78
38
18
00
ENDCHAR
STARTCHAR MHarpoonDr
ENCODING 3024
SWIDTH 516 0
DWIDTH 7 0
BBX 7 13 0 -2
BITMAP
18
18
18
18
18
18
18
18
18
1E
1C
18
00
ENDCHAR
STARTCHAR PCurlyBrackLTRB
ENCODING 3154
SWIDTH 516 0
DWIDTH 7 0
BBX 7 13 0 -2
BITMAP
0E
18
18
18
18
18
18
18
18
18
18
18
70
ENDCHAR
STARTCHAR PCurlyBrackLBRT
ENCODING 3155
SWIDTH 516 0
DWIDTH 7 0
BBX 7 13 0 -2
BITMAP
70
18
18
18
18
18
18
18
18
18
18
18
0E
ENDCHAR
STARTCHAR MSumT
ENCODING 3156
SWIDTH 516 0
DWIDTH 7 0
BBX 7 13 0 -2
BITMAP
00
7E
62
60
60
30
30
30
18
18
18
0C
0C
ENDCHAR
STARTCHAR MRootB
ENCODING 3158
SWIDTH 516 0
DWIDTH 7 0
BBX 7 13 0 -2
BITMAP
18
18
18
18
18
18
D8
D8
78
38
38
18
18
ENDCHAR
ENDFONT
