STARTFONT 2.1
COMMENT 
COMMENT Copyright (C) 2012-2025 Uwe Waldmann
COMMENT 
COMMENT Permission is hereby granted, free of charge, to any person obtaining
COMMENT a copy of this font software and associated files (the "Software"),
COMMENT to deal in the Software without restriction, including without
COMMENT limitation the rights to use, copy, modify, merge, publish,
COMMENT distribute, embed, sublicense, and/or sell copies of the Software,
COMMENT and to permit persons to whom the Software is furnished to do so,
COMMENT subject to the following conditions:
COMMENT 
COMMENT (1) The above copyright notice, this permission notice, and the
COMMENT     disclaimer below shall be included in all copies or substantial
COMMENT     portions of the Software.
COMMENT 
COMMENT (2) If the design of any glyphs in the fonts that are contained in the
COMMENT     Software or generated during the installation process is modified
COMMENT     or if additional glyphs are added to the fonts, the fonts
COMMENT     must be renamed. The new names may not contain the word "UW",
COMMENT     irrespective of capitalisation; the new names may contain the word
COMMENT     "ttyp0", irrespective of capitalisation, only if preceded by a
COMMENT     foundry name different from "UW".
COMMENT 
COMMENT THE SOFTWARE IS PROVIDED "AS IS", WITHOUT WARRANTY OF ANY KIND, EXPRESS
COMMENT OR IMPLIED, INCLUDING BUT NOT LIMITED TO THE WARRANTIES OF
COMMENT MERCHANTABILITY, FITNESS FOR A PARTICULAR PURPOSE AND NONINFRINGEMENT.
COMMENT IN NO EVENT SHALL THE AUTHORS OR COPYRIGHT HOLDERS BE LIABLE FOR ANY
COMMENT CLAIM, DAMAGES OR OTHER LIABILITY, WHETHER IN AN ACTION OF CONTRACT,
COMMENT TORT OR OTHERWISE, ARISING FROM, OUT OF OR IN CONNECTION WITH THE
COMMENT SOFTWARE OR THE USE OR OTHER DEALINGS IN THE SOFTWARE.
COMMENT 
FONT -UW-Ttyp0-Medium-R-Normal--15-140-75-75-C-80-UW-Fontspecific
SIZE 15 75 75
FONTBOUNDINGBOX 8 15 0 -3
STARTPROPERTIES 20
FONTNAME_REGISTRY ""
FOUNDRY "UW"
FAMILY_NAME "Ttyp0"
WEIGHT_NAME "Medium"
SLANT "R"
SETWIDTH_NAME "Normal"
ADD_STYLE_NAME ""
PIXEL_SIZE 15
POINT_SIZE 140
RESOLUTION_X 75
RESOLUTION_Y 75
SPACING "C"
AVERAGE_WIDTH 80
CHARSET_REGISTRY "UW"
CHARSET_ENCODING "Fontspecific"
DEFAULT_CHAR 0
FONT_DESCENT 3
FONT_ASCENT 12
COPYRIGHT "Copyright (C) 2012-2025 Uwe Waldmann"
_GBDFED_INFO "Edited with gbdfed 1.6."
ENDPROPERTIES
CHARS 241
STARTCHAR LtCapALdot
ENCODING 780
SWIDTH 512 0
DWIDTH 8 0
BBX 8 15 0 -3
BITMAP
00
00
18
18
24
24
42
42
7E
42
42
42
00
08
08
ENDCHAR
STARTCHAR LtCapBLdot
ENCODING 781
SWIDTH 512 0
DWIDTH 8 0
BBX 8 15 0 -3
BITMAP
00
00
7C
42
42
42
7C
42
42
42
42
7C
00
10
10
ENDCHAR
STARTCHAR LtCapCLdot
ENCODING 782
SWIDTH 512 0
DWIDTH 8 0
BBX 8 15 0 -3
BITMAP
00
00
1C
22
40
40
40
40
40
40
22
1C
00
08
08
ENDCHAR
STARTCHAR LtCapDLdot
ENCODING 783
SWIDTH 512 0
DWIDTH 8 0
BBX 8 15 0 -3
BITMAP
00
00
78
44
42
42
42
42
42
42
44
78
00
10
10
ENDCHAR
STARTCHAR LtCapELdot
ENCODING 784
SWIDTH 512 0
DWIDTH 8 0
BBX 8 15 0 -3
BITMAP
00
00
7E
40
40
40
78
40
40
40
40
7E
00
10
10
ENDCHAR
STARTCHAR LtCapHLdot
ENCODING 785
SWIDTH 512 0
DWIDTH 8 0
BBX 8 15 0 -3
BITMAP
00
00
42
42
42
42
7E
42
42
42
42
42
00
10
10
ENDCHAR
STARTCHAR LtCapILdot
ENCODING 786
SWIDTH 512 0
DWIDTH 8 0
BBX 8 15 0 -3
BITMAP
00
00
3E
08
08
08
08
08
08
08
08
3E
00
08
08
ENDCHAR
STARTCHAR LtCapKLdot
ENCODING 787
SWIDTH 512 0
DWIDTH 8 0
BBX 8 15 0 -3
BITMAP
00
00
42
42
44
48
50
70
48
44
42
42
00
10
10
ENDCHAR
STARTCHAR LtCapLLdot
ENCODING 788
SWIDTH 512 0
DWIDTH 8 0
BBX 8 15 0 -3
BITMAP
00
00
40
40
40
40
40
40
40
40
40
7E
00
10
10
ENDCHAR
STARTCHAR LtCapMLdot
ENCODING 789
SWIDTH 512 0
DWIDTH 8 0
BBX 8 15 0 -3
BITMAP
00
00
41
41
63
55
55
49
49
41
41
41
00
08
08
ENDCHAR
STARTCHAR LtCapNLdot
ENCODING 790
SWIDTH 512 0
DWIDTH 8 0
BBX 8 15 0 -3
BITMAP
00
00
42
42
62
52
52
4A
4A
46
42
42
00
10
10
ENDCHAR
STARTCHAR LtCapOLdot
ENCODING 791
SWIDTH 512 0
DWIDTH 8 0
BBX 8 15 0 -3
BITMAP
00
00
3C
42
42
42
42
42
42
42
42
3C
00
10
10
ENDCHAR
STARTCHAR LtCapPLdot
ENCODING 792
SWIDTH 512 0
DWIDTH 8 0
BBX 8 15 0 -3
BITMAP
00
00
7C
42
42
42
42
7C
40
40
40
40
00
40
40
ENDCHAR
STARTCHAR LtCapQLdot
ENCODING 793
SWIDTH 512 0
DWIDTH 8 0
BBX 8 15 0 -3
BITMAP
00
00
3C
42
42
42
42
42
42
4A
46
3C
03
08
08
ENDCHAR
STARTCHAR LtCapRLdot
ENCODING 794
SWIDTH 512 0
DWIDTH 8 0
BBX 8 15 0 -3
BITMAP
00
00
7C
42
42
42
7C
48
44
44
42
42
00
10
10
ENDCHAR
STARTCHAR LtCapSLdot
ENCODING 795
SWIDTH 512 0
DWIDTH 8 0
BBX 8 15 0 -3
BITMAP
00
00
3C
42
40
40
30
0C
02
02
42
3C
00
10
10
ENDCHAR
STARTCHAR LtCapTLdot
ENCODING 796
SWIDTH 512 0
DWIDTH 8 0
BBX 8 15 0 -3
BITMAP
00
00
7F
08
08
08
08
08
08
08
08
08
00
08
08
ENDCHAR
STARTCHAR LtCapULdot
ENCODING 797
SWIDTH 512 0
DWIDTH 8 0
BBX 8 15 0 -3
BITMAP
00
00
42
42
42
42
42
42
42
42
42
3C
00
10
10
ENDCHAR
STARTCHAR LtCapVLdot
ENCODING 798
SWIDTH 512 0
DWIDTH 8 0
BBX 8 15 0 -3
BITMAP
00
00
41
41
42
22
22
24
14
14
18
08
00
08
08
ENDCHAR
STARTCHAR LtCapWLdot
ENCODING 799
SWIDTH 512 0
DWIDTH 8 0
BBX 8 15 0 -3
BITMAP
00
00
41
41
49
49
49
55
55
22
22
22
00
08
08
ENDCHAR
STARTCHAR LtCapYLdot
ENCODING 800
SWIDTH 512 0
DWIDTH 8 0
BBX 8 15 0 -3
BITMAP
00
00
41
22
22
14
14
08
08
08
08
08
00
08
08
ENDCHAR
STARTCHAR LtCapZLdot
ENCODING 801
SWIDTH 512 0
DWIDTH 8 0
BBX 8 15 0 -3
BITMAP
00
00
7E
02
04
08
08
10
20
20
40
7E
00
10
10
ENDCHAR
STARTCHAR LtSmlALdot
ENCODING 802
SWIDTH 512 0
DWIDTH 8 0
BBX 8 15 0 -3
BITMAP
00
00
00
00
00
3C
02
02
3E
42
46
3A
00
10
10
ENDCHAR
STARTCHAR LtSmlBLdot
ENCODING 803
SWIDTH 512 0
DWIDTH 8 0
BBX 8 15 0 -3
BITMAP
00
00
40
40
40
5C
62
42
42
42
62
5C
00
08
08
ENDCHAR
STARTCHAR LtSmlCLdot
ENCODING 804
SWIDTH 512 0
DWIDTH 8 0
BBX 8 15 0 -3
BITMAP
00
00
00
00
00
3C
42
40
40
40
42
3C
00
08
08
ENDCHAR
STARTCHAR LtSmlDLdot
ENCODING 805
SWIDTH 512 0
DWIDTH 8 0
BBX 8 15 0 -3
BITMAP
00
00
02
02
02
3A
46
42
42
42
46
3A
00
10
10
ENDCHAR
STARTCHAR LtSmlELdot
ENCODING 806
SWIDTH 512 0
DWIDTH 8 0
BBX 8 15 0 -3
BITMAP
00
00
00
00
00
3C
42
42
7E
40
40
3C
00
10
10
ENDCHAR
STARTCHAR LtSmlHLdot
ENCODING 807
SWIDTH 512 0
DWIDTH 8 0
BBX 8 15 0 -3
BITMAP
00
00
40
40
40
5C
62
42
42
42
42
42
00
10
10
ENDCHAR
STARTCHAR LtSmlILdot
ENCODING 808
SWIDTH 512 0
DWIDTH 8 0
BBX 8 15 0 -3
BITMAP
00
00
08
08
00
18
08
08
08
08
08
3E
00
08
08
ENDCHAR
STARTCHAR LtSmlKLdot
ENCODING 809
SWIDTH 512 0
DWIDTH 8 0
BBX 8 15 0 -3
BITMAP
00
00
40
40
40
42
44
48
70
48
44
42
00
10
10
ENDCHAR
STARTCHAR LtSmlLLdot
ENCODING 810
SWIDTH 512 0
DWIDTH 8 0
BBX 8 15 0 -3
BITMAP
00
00
18
08
08
08
08
08
08
08
08
3E
00
08
08
ENDCHAR
STARTCHAR LtSmlMLdot
ENCODING 811
SWIDTH 512 0
DWIDTH 8 0
BBX 8 15 0 -3
BITMAP
00
00
00
00
00
76
49
49
49
49
49
49
00
08
08
ENDCHAR
STARTCHAR LtSmlNLdot
ENCODING 812
SWIDTH 512 0
DWIDTH 8 0
BBX 8 15 0 -3
BITMAP
00
00
00
00
00
5C
62
42
42
42
42
42
00
10
10
ENDCHAR
STARTCHAR LtSmlOLdot
ENCODING 813
SWIDTH 512 0
DWIDTH 8 0
BBX 8 15 0 -3
BITMAP
00
00
00
00
00
3C
42
42
42
42
42
3C
00
10
10
ENDCHAR
STARTCHAR LtSmlPLdot
ENCODING 814
SWIDTH 512 0
DWIDTH 8 0
BBX 8 15 0 -3
BITMAP
00
00
00
00
00
5C
62
42
42
42
62
5C
40
48
48
ENDCHAR
STARTCHAR LtSmlQLdot
ENCODING 815
SWIDTH 512 0
DWIDTH 8 0
BBX 8 15 0 -3
BITMAP
00
00
00
00
00
3A
46
42
42
42
46
3A
02
12
12
ENDCHAR
STARTCHAR LtSmlRLdot
ENCODING 816
SWIDTH 512 0
DWIDTH 8 0
BBX 8 15 0 -3
BITMAP
00
00
00
00
00
6E
32
20
20
20
20
20
00
20
20
ENDCHAR
STARTCHAR LtSmlSLdot
ENCODING 817
SWIDTH 512 0
DWIDTH 8 0
BBX 8 15 0 -3
BITMAP
00
00
00
00
00
3C
42
40
3C
02
42
3C
00
10
10
ENDCHAR
STARTCHAR LtSmlTLdot
ENCODING 818
SWIDTH 512 0
DWIDTH 8 0
BBX 8 15 0 -3
BITMAP
00
00
00
10
10
7C
10
10
10
10
12
0C
00
08
08
ENDCHAR
STARTCHAR LtSmlULdot
ENCODING 819
SWIDTH 512 0
DWIDTH 8 0
BBX 8 15 0 -3
BITMAP
00
00
00
00
00
42
42
42
42
42
46
3A
00
10
10
ENDCHAR
STARTCHAR LtSmlVLdot
ENCODING 820
SWIDTH 512 0
DWIDTH 8 0
BBX 8 15 0 -3
BITMAP
00
00
00
00
00
42
42
42
24
24
18
18
00
08
08
ENDCHAR
STARTCHAR LtSmlWLdot
ENCODING 821
SWIDTH 512 0
DWIDTH 8 0
BBX 8 15 0 -3
BITMAP
00
00
00
00
00
41
49
49
49
36
22
22
00
08
08
ENDCHAR
STARTCHAR LtSmlYLdot
ENCODING 822
SWIDTH 512 0
DWIDTH 8 0
BBX 8 15 0 -3
BITMAP
00
00
00
00
00
42
42
22
24
14
14
08
08
52
22
ENDCHAR
STARTCHAR LtSmlZLdot
ENCODING 823
SWIDTH 512 0
DWIDTH 8 0
BBX 8 15 0 -3
BITMAP
00
00
00
00
00
7E
04
08
10
20
40
7E
00
10
10
ENDCHAR
STARTCHAR LtCapOHornLdot
ENCODING 824
SWIDTH 512 0
DWIDTH 8 0
BBX 8 15 0 -3
BITMAP
03
01
3E
42
42
42
42
42
42
42
42
3C
00
10
10
ENDCHAR
STARTCHAR LtCapUHornLdot
ENCODING 825
SWIDTH 512 0
DWIDTH 8 0
BBX 8 15 0 -3
BITMAP
03
01
42
42
42
42
42
42
42
42
42
3C
00
10
10
ENDCHAR
STARTCHAR LtSmlOHornLdot
ENCODING 826
SWIDTH 512 0
DWIDTH 8 0
BBX 8 15 0 -3
BITMAP
00
00
00
03
01
3E
42
42
42
42
42
3C
00
10
10
ENDCHAR
STARTCHAR LtSmlUHornLdot
ENCODING 827
SWIDTH 512 0
DWIDTH 8 0
BBX 8 15 0 -3
BITMAP
00
00
00
03
01
42
42
42
42
42
46
3A
00
10
10
ENDCHAR
STARTCHAR LtCapSDotLdot
ENCODING 828
SWIDTH 512 0
DWIDTH 8 0
BBX 8 15 0 -3
BITMAP
08
08
00
3C
42
40
20
18
04
02
42
3C
00
10
10
ENDCHAR
STARTCHAR LtSmlSDotLdot
ENCODING 829
SWIDTH 512 0
DWIDTH 8 0
BBX 8 15 0 -3
BITMAP
00
00
08
08
00
3C
42
40
3C
02
42
3C
00
10
10
ENDCHAR
STARTCHAR LtCapLMacronLdot
ENCODING 830
SWIDTH 512 0
DWIDTH 8 0
BBX 8 15 0 -3
BITMAP
3C
00
40
40
40
40
40
40
40
40
40
7E
00
10
10
ENDCHAR
STARTCHAR LtCapRMacronLdot
ENCODING 831
SWIDTH 512 0
DWIDTH 8 0
BBX 8 15 0 -3
BITMAP
3C
00
7C
42
42
42
7C
48
44
44
42
42
00
10
10
ENDCHAR
STARTCHAR LtSmlLMacronLdot
ENCODING 832
SWIDTH 512 0
DWIDTH 8 0
BBX 8 15 0 -3
BITMAP
3C
00
18
08
08
08
08
08
08
08
08
3E
00
08
08
ENDCHAR
STARTCHAR LtSmlRMacronLdot
ENCODING 833
SWIDTH 512 0
DWIDTH 8 0
BBX 8 15 0 -3
BITMAP
00
00
3C
00
00
6E
32
20
20
20
20
20
00
20
20
ENDCHAR
STARTCHAR LtCapEAcuteLdot
ENCODING 834
SWIDTH 512 0
DWIDTH 8 0
BBX 8 15 0 -3
BITMAP
04
18
00
7E
40
40
40
78
40
40
40
7E
00
10
10
ENDCHAR
STARTCHAR LtCapOAcuteLdot
ENCODING 835
SWIDTH 512 0
DWIDTH 8 0
BBX 8 15 0 -3
BITMAP
04
18
00
3C
42
42
42
42
42
42
42
3C
00
10
10
ENDCHAR
STARTCHAR LtCapRAcuteLdot
ENCODING 836
SWIDTH 512 0
DWIDTH 8 0
BBX 8 15 0 -3
BITMAP
04
18
00
7C
42
42
42
7C
48
44
42
42
00
10
10
ENDCHAR
STARTCHAR LtSmlEAcuteLdot
ENCODING 837
SWIDTH 512 0
DWIDTH 8 0
BBX 8 15 0 -3
BITMAP
00
08
08
10
00
3C
42
42
7E
40
40
3C
00
10
10
ENDCHAR
STARTCHAR LtSmlOAcuteLdot
ENCODING 838
SWIDTH 512 0
DWIDTH 8 0
BBX 8 15 0 -3
BITMAP
00
08
08
10
00
3C
42
42
42
42
42
3C
00
10
10
ENDCHAR
STARTCHAR LtSmlRAcuteLdot
ENCODING 839
SWIDTH 512 0
DWIDTH 8 0
BBX 8 15 0 -3
BITMAP
00
08
08
10
00
6E
32
20
20
20
20
20
00
20
20
ENDCHAR
STARTCHAR LtSmlRMacronAcuteLdot
ENCODING 840
SWIDTH 512 0
DWIDTH 8 0
BBX 8 15 0 -3
BITMAP
04
18
00
3C
00
6E
32
20
20
20
20
20
00
20
20
ENDCHAR
STARTCHAR LtCapEGraveLdot
ENCODING 841
SWIDTH 512 0
DWIDTH 8 0
BBX 8 15 0 -3
BITMAP
20
18
00
7E
40
40
40
78
40
40
40
7E
00
10
10
ENDCHAR
STARTCHAR LtCapOGraveLdot
ENCODING 842
SWIDTH 512 0
DWIDTH 8 0
BBX 8 15 0 -3
BITMAP
20
18
00
3C
42
42
42
42
42
42
42
3C
00
10
10
ENDCHAR
STARTCHAR LtCapRGraveLdot
ENCODING 843
SWIDTH 512 0
DWIDTH 8 0
BBX 8 15 0 -3
BITMAP
20
18
00
7C
42
42
42
7C
48
44
42
42
00
10
10
ENDCHAR
STARTCHAR LtSmlEGraveLdot
ENCODING 844
SWIDTH 512 0
DWIDTH 8 0
BBX 8 15 0 -3
BITMAP
00
10
10
08
00
3C
42
42
7E
40
40
3C
00
10
10
ENDCHAR
STARTCHAR LtSmlOGraveLdot
ENCODING 845
SWIDTH 512 0
DWIDTH 8 0
BBX 8 15 0 -3
BITMAP
00
10
10
08
00
3C
42
42
42
42
42
3C
00
10
10
ENDCHAR
STARTCHAR LtSmlRGraveLdot
ENCODING 846
SWIDTH 512 0
DWIDTH 8 0
BBX 8 15 0 -3
BITMAP
00
10
10
08
00
6E
32
20
20
20
20
20
00
20
20
ENDCHAR
STARTCHAR LtCapACircumLdot
ENCODING 847
SWIDTH 512 0
DWIDTH 8 0
BBX 8 15 0 -3
BITMAP
18
24
00
18
18
24
24
42
7E
42
42
42
00
08
08
ENDCHAR
STARTCHAR LtCapECircumLdot
ENCODING 848
SWIDTH 512 0
DWIDTH 8 0
BBX 8 15 0 -3
BITMAP
18
24
00
7E
40
40
40
78
40
40
40
7E
00
10
10
ENDCHAR
STARTCHAR LtCapOCircumLdot
ENCODING 849
SWIDTH 512 0
DWIDTH 8 0
BBX 8 15 0 -3
BITMAP
18
24
00
3C
42
42
42
42
42
42
42
3C
00
10
10
ENDCHAR
STARTCHAR LtSmlACircumLdot
ENCODING 850
SWIDTH 512 0
DWIDTH 8 0
BBX 8 15 0 -3
BITMAP
00
00
18
24
00
3C
02
02
3E
42
46
3A
00
10
10
ENDCHAR
STARTCHAR LtSmlECircumLdot
ENCODING 851
SWIDTH 512 0
DWIDTH 8 0
BBX 8 15 0 -3
BITMAP
00
00
18
24
00
3C
42
42
7E
40
40
3C
00
10
10
ENDCHAR
STARTCHAR LtSmlOCircumLdot
ENCODING 852
SWIDTH 512 0
DWIDTH 8 0
BBX 8 15 0 -3
BITMAP
00
00
18
24
00
3C
42
42
42
42
42
3C
00
10
10
ENDCHAR
STARTCHAR LtCapCCaronLdot
ENCODING 853
SWIDTH 512 0
DWIDTH 8 0
BBX 8 15 0 -3
BITMAP
12
0C
00
1C
22
40
40
40
40
40
22
1C
00
08
08
ENDCHAR
STARTCHAR LtSmlCCaronLdot
ENCODING 854
SWIDTH 512 0
DWIDTH 8 0
BBX 8 15 0 -3
BITMAP
00
00
24
18
00
3C
42
40
40
40
42
3C
00
08
08
ENDCHAR
STARTCHAR LtCapABreveLdot
ENCODING 855
SWIDTH 512 0
DWIDTH 8 0
BBX 8 15 0 -3
BITMAP
24
18
00
18
18
24
24
42
7E
42
42
42
00
08
08
ENDCHAR
STARTCHAR LtSmlABreveLdot
ENCODING 856
SWIDTH 512 0
DWIDTH 8 0
BBX 8 15 0 -3
BITMAP
00
00
24
18
00
3C
02
02
3E
42
46
3A
00
10
10
ENDCHAR
STARTCHAR LtSmlRLvline
ENCODING 860
SWIDTH 512 0
DWIDTH 8 0
BBX 8 15 0 -3
BITMAP
00
00
00
00
00
6E
32
20
20
20
20
20
10
10
10
ENDCHAR
STARTCHAR LtCapALring
ENCODING 862
SWIDTH 512 0
DWIDTH 8 0
BBX 8 15 0 -3
BITMAP
00
00
18
18
24
24
42
42
7E
42
42
42
08
14
08
ENDCHAR
STARTCHAR LtCapRLring
ENCODING 863
SWIDTH 512 0
DWIDTH 8 0
BBX 8 15 0 -3
BITMAP
00
00
7C
42
42
42
7C
48
44
44
42
42
10
28
10
ENDCHAR
STARTCHAR LtSmlALring
ENCODING 864
SWIDTH 512 0
DWIDTH 8 0
BBX 8 15 0 -3
BITMAP
00
00
00
00
00
3C
02
02
3E
42
46
3A
08
14
08
ENDCHAR
STARTCHAR LtSmlLLring
ENCODING 865
SWIDTH 512 0
DWIDTH 8 0
BBX 8 15 0 -3
BITMAP
00
00
18
08
08
08
08
08
08
08
08
3E
08
14
08
ENDCHAR
STARTCHAR LtSmlRLring
ENCODING 866
SWIDTH 512 0
DWIDTH 8 0
BBX 8 15 0 -3
BITMAP
00
00
00
00
00
6E
32
20
20
20
20
20
20
50
20
ENDCHAR
STARTCHAR LtSmlLMacronLring
ENCODING 867
SWIDTH 512 0
DWIDTH 8 0
BBX 8 15 0 -3
BITMAP
3C
00
18
08
08
08
08
08
08
08
08
3E
08
14
08
ENDCHAR
STARTCHAR LtSmlRMacronLring
ENCODING 868
SWIDTH 512 0
DWIDTH 8 0
BBX 8 15 0 -3
BITMAP
00
00
3C
00
00
6E
32
20
20
20
20
20
20
50
20
ENDCHAR
STARTCHAR LtSmlRAcuteLring
ENCODING 869
SWIDTH 512 0
DWIDTH 8 0
BBX 8 15 0 -3
BITMAP
00
08
08
10
00
6E
32
20
20
20
20
20
20
50
20
ENDCHAR
STARTCHAR LtSmlRMacronAcuteLring
ENCODING 870
SWIDTH 512 0
DWIDTH 8 0
BBX 8 15 0 -3
BITMAP
04
18
00
3C
00
6E
32
20
20
20
20
20
20
50
20
ENDCHAR
STARTCHAR LtSmlRGraveLring
ENCODING 871
SWIDTH 512 0
DWIDTH 8 0
BBX 8 15 0 -3
BITMAP
00
10
10
08
00
6E
32
20
20
20
20
20
20
50
20
ENDCHAR
STARTCHAR LtCapULdrss
ENCODING 872
SWIDTH 512 0
DWIDTH 8 0
BBX 8 15 0 -3
BITMAP
00
00
42
42
42
42
42
42
42
42
42
3C
00
24
24
ENDCHAR
STARTCHAR LtSmlULdrss
ENCODING 873
SWIDTH 512 0
DWIDTH 8 0
BBX 8 15 0 -3
BITMAP
00
00
00
00
00
42
42
42
42
42
46
3A
00
24
24
ENDCHAR
STARTCHAR LtCapBLmacron
ENCODING 874
SWIDTH 512 0
DWIDTH 8 0
BBX 8 15 0 -3
BITMAP
00
00
7C
42
42
42
7C
42
42
42
42
7C
00
00
3C
ENDCHAR
STARTCHAR LtCapDLmacron
ENCODING 875
SWIDTH 512 0
DWIDTH 8 0
BBX 8 15 0 -3
BITMAP
00
00
78
44
42
42
42
42
42
42
44
78
00
00
7C
ENDCHAR
STARTCHAR LtCapELmacron
ENCODING 876
SWIDTH 512 0
DWIDTH 8 0
BBX 8 15 0 -3
BITMAP
00
00
7E
40
40
40
78
40
40
40
40
7E
00
00
3C
ENDCHAR
STARTCHAR LtCapHLmacron
ENCODING 877
SWIDTH 512 0
DWIDTH 8 0
BBX 8 15 0 -3
BITMAP
00
00
42
42
42
42
7E
42
42
42
42
42
00
00
3C
ENDCHAR
STARTCHAR LtCapKLmacron
ENCODING 878
SWIDTH 512 0
DWIDTH 8 0
BBX 8 15 0 -3
BITMAP
00
00
42
42
44
48
50
70
48
44
42
42
00
00
3C
ENDCHAR
STARTCHAR LtCapLLmacron
ENCODING 879
SWIDTH 512 0
DWIDTH 8 0
BBX 8 15 0 -3
BITMAP
00
00
40
40
40
40
40
40
40
40
40
7E
00
00
3C
ENDCHAR
STARTCHAR LtCapNLmacron
ENCODING 880
SWIDTH 512 0
DWIDTH 8 0
BBX 8 15 0 -3
BITMAP
00
00
42
42
62
52
52
4A
4A
46
42
42
00
00
3C
ENDCHAR
STARTCHAR LtCapOLmacron
ENCODING 881
SWIDTH 512 0
DWIDTH 8 0
BBX 8 15 0 -3
BITMAP
00
00
3C
42
42
42
42
42
42
42
42
3C
00
00
3C
ENDCHAR
STARTCHAR LtCapRLmacron
ENCODING 882
SWIDTH 512 0
DWIDTH 8 0
BBX 8 15 0 -3
BITMAP
00
00
7C
42
42
42
7C
48
44
44
42
42
00
00
3C
ENDCHAR
STARTCHAR LtCapTLmacron
ENCODING 883
SWIDTH 512 0
DWIDTH 8 0
BBX 8 15 0 -3
BITMAP
00
00
7F
08
08
08
08
08
08
08
08
08
00
00
3E
ENDCHAR
STARTCHAR LtCapZLmacron
ENCODING 884
SWIDTH 512 0
DWIDTH 8 0
BBX 8 15 0 -3
BITMAP
00
00
7E
02
04
08
08
10
20
20
40
7E
00
00
3C
ENDCHAR
STARTCHAR LtSmlBLmacron
ENCODING 885
SWIDTH 512 0
DWIDTH 8 0
BBX 8 15 0 -3
BITMAP
00
00
40
40
40
5C
62
42
42
42
62
5C
00
00
3C
ENDCHAR
STARTCHAR LtSmlDLmacron
ENCODING 886
SWIDTH 512 0
DWIDTH 8 0
BBX 8 15 0 -3
BITMAP
00
00
02
02
02
3A
46
42
42
42
46
3A
00
00
3C
ENDCHAR
STARTCHAR LtSmlELmacron
ENCODING 887
SWIDTH 512 0
DWIDTH 8 0
BBX 8 15 0 -3
BITMAP
00
00
00
00
00
3C
42
42
7E
40
40
3C
00
00
3C
ENDCHAR
STARTCHAR LtSmlHLmacron
ENCODING 888
SWIDTH 512 0
DWIDTH 8 0
BBX 8 15 0 -3
BITMAP
00
00
40
40
40
5C
62
42
42
42
42
42
00
00
3C
ENDCHAR
STARTCHAR LtSmlKLmacron
ENCODING 889
SWIDTH 512 0
DWIDTH 8 0
BBX 8 15 0 -3
BITMAP
00
00
40
40
40
42
44
48
70
48
44
42
00
00
3C
ENDCHAR
STARTCHAR LtSmlLLmacron
ENCODING 890
SWIDTH 512 0
DWIDTH 8 0
BBX 8 15 0 -3
BITMAP
00
00
18
08
08
08
08
08
08
08
08
3E
00
00
3C
ENDCHAR
STARTCHAR LtSmlNLmacron
ENCODING 891
SWIDTH 512 0
DWIDTH 8 0
BBX 8 15 0 -3
BITMAP
00
00
00
00
00
5C
62
42
42
42
42
42
00
00
3C
ENDCHAR
STARTCHAR LtSmlOLmacron
ENCODING 892
SWIDTH 512 0
DWIDTH 8 0
BBX 8 15 0 -3
BITMAP
00
00
00
00
00
3C
42
42
42
42
42
3C
00
00
3C
ENDCHAR
STARTCHAR LtSmlRLmacron
ENCODING 893
SWIDTH 512 0
DWIDTH 8 0
BBX 8 15 0 -3
BITMAP
00
00
00
00
00
6E
32
20
20
20
20
20
00
00
3C
ENDCHAR
STARTCHAR LtSmlTLmacron
ENCODING 894
SWIDTH 512 0
DWIDTH 8 0
BBX 8 15 0 -3
BITMAP
00
00
00
10
10
7C
10
10
10
10
12
0C
00
00
1E
ENDCHAR
STARTCHAR LtSmlZLmacron
ENCODING 895
SWIDTH 512 0
DWIDTH 8 0
BBX 8 15 0 -3
BITMAP
00
00
00
00
00
7E
04
08
10
20
40
7E
00
00
3C
ENDCHAR
STARTCHAR LtCapGHLmacron
ENCODING 896
SWIDTH 512 0
DWIDTH 8 0
BBX 8 15 0 -3
BITMAP
00
00
35
45
45
45
47
55
55
55
55
35
00
00
3E
ENDCHAR
STARTCHAR LtCapKHLmacron
ENCODING 897
SWIDTH 512 0
DWIDTH 8 0
BBX 8 15 0 -3
BITMAP
00
00
55
55
55
55
67
65
55
55
55
55
00
00
3E
ENDCHAR
STARTCHAR LtMixGHLmacron
ENCODING 898
SWIDTH 512 0
DWIDTH 8 0
BBX 8 15 0 -3
BITMAP
00
00
34
44
44
47
45
55
55
55
55
35
00
00
3E
ENDCHAR
STARTCHAR LtMixKHLmacron
ENCODING 899
SWIDTH 512 0
DWIDTH 8 0
BBX 8 15 0 -3
BITMAP
00
00
54
54
54
57
65
65
55
55
55
55
00
00
3E
ENDCHAR
STARTCHAR LtSmlGHLmacron
ENCODING 900
SWIDTH 512 0
DWIDTH 8 0
BBX 8 15 0 -3
BITMAP
00
00
04
04
04
27
55
55
55
25
45
35
48
78
3E
ENDCHAR
STARTCHAR LtSmlKHLmacron
ENCODING 901
SWIDTH 512 0
DWIDTH 8 0
BBX 8 15 0 -3
BITMAP
00
00
44
44
44
57
55
65
65
55
55
55
00
00
3E
ENDCHAR
STARTCHAR LtCapDLcircum
ENCODING 902
SWIDTH 512 0
DWIDTH 8 0
BBX 8 15 0 -3
BITMAP
00
00
78
44
42
42
42
42
42
42
44
78
00
18
24
ENDCHAR
STARTCHAR LtCapELcircum
ENCODING 903
SWIDTH 512 0
DWIDTH 8 0
BBX 8 15 0 -3
BITMAP
00
00
7E
40
40
40
78
40
40
40
40
7E
00
18
24
ENDCHAR
STARTCHAR LtCapLLcircum
ENCODING 904
SWIDTH 512 0
DWIDTH 8 0
BBX 8 15 0 -3
BITMAP
00
00
40
40
40
40
40
40
40
40
40
7E
00
18
24
ENDCHAR
STARTCHAR LtCapNLcircum
ENCODING 905
SWIDTH 512 0
DWIDTH 8 0
BBX 8 15 0 -3
BITMAP
00
00
42
42
62
52
52
4A
4A
46
42
42
00
18
24
ENDCHAR
STARTCHAR LtCapTLcircum
ENCODING 906
SWIDTH 512 0
DWIDTH 8 0
BBX 8 15 0 -3
BITMAP
00
00
7F
08
08
08
08
08
08
08
08
08
00
18
24
ENDCHAR
STARTCHAR LtCapULcircum
ENCODING 907
SWIDTH 512 0
DWIDTH 8 0
BBX 8 15 0 -3
BITMAP
00
00
42
42
42
42
42
42
42
42
42
3C
00
18
24
ENDCHAR
STARTCHAR LtSmlDLcircum
ENCODING 908
SWIDTH 512 0
DWIDTH 8 0
BBX 8 15 0 -3
BITMAP
00
00
02
02
02
3A
46
42
42
42
46
3A
00
18
24
ENDCHAR
STARTCHAR LtSmlELcircum
ENCODING 909
SWIDTH 512 0
DWIDTH 8 0
BBX 8 15 0 -3
BITMAP
00
00
00
00
00
3C
42
42
7E
40
40
3C
00
18
24
ENDCHAR
STARTCHAR LtSmlLLcircum
ENCODING 910
SWIDTH 512 0
DWIDTH 8 0
BBX 8 15 0 -3
BITMAP
00
00
18
08
08
08
08
08
08
08
08
3E
00
18
24
ENDCHAR
STARTCHAR LtSmlNLcircum
ENCODING 911
SWIDTH 512 0
DWIDTH 8 0
BBX 8 15 0 -3
BITMAP
00
00
00
00
00
5C
62
42
42
42
42
42
00
18
24
ENDCHAR
STARTCHAR LtSmlTLcircum
ENCODING 912
SWIDTH 512 0
DWIDTH 8 0
BBX 8 15 0 -3
BITMAP
00
00
00
10
10
7C
10
10
10
10
12
0C
00
0C
12
ENDCHAR
STARTCHAR LtSmlULcircum
ENCODING 913
SWIDTH 512 0
DWIDTH 8 0
BBX 8 15 0 -3
BITMAP
00
00
00
00
00
42
42
42
42
42
46
3A
00
18
24
ENDCHAR
STARTCHAR LtCapHLbreve
ENCODING 914
SWIDTH 512 0
DWIDTH 8 0
BBX 8 15 0 -3
BITMAP
00
00
42
42
42
42
7E
42
42
42
42
42
00
24
18
ENDCHAR
STARTCHAR LtSmlHLbreve
ENCODING 915
SWIDTH 512 0
DWIDTH 8 0
BBX 8 15 0 -3
BITMAP
00
00
40
40
40
5C
62
42
42
42
42
42
00
24
18
ENDCHAR
STARTCHAR LtSmlILinvbreve
ENCODING 916
SWIDTH 512 0
DWIDTH 8 0
BBX 8 15 0 -3
BITMAP
00
00
08
08
00
18
08
08
08
08
08
3E
00
1C
22
ENDCHAR
STARTCHAR LtSmlOLinvbreve
ENCODING 917
SWIDTH 512 0
DWIDTH 8 0
BBX 8 15 0 -3
BITMAP
00
00
00
00
00
3C
42
42
42
42
42
3C
00
18
24
ENDCHAR
STARTCHAR LtSmlULinvbreve
ENCODING 918
SWIDTH 512 0
DWIDTH 8 0
BBX 8 15 0 -3
BITMAP
00
00
00
00
00
42
42
42
42
42
46
3A
00
18
24
ENDCHAR
STARTCHAR LtSmlATrndLinvbreve
ENCODING 919
SWIDTH 512 0
DWIDTH 8 0
BBX 8 15 0 -3
BITMAP
00
00
00
00
00
DC
62
44
78
40
44
3C
00
18
24
ENDCHAR
STARTCHAR LtCapELtilde
ENCODING 920
SWIDTH 512 0
DWIDTH 8 0
BBX 8 15 0 -3
BITMAP
00
00
7E
40
40
40
78
40
40
40
40
7E
00
32
4C
ENDCHAR
STARTCHAR LtCapILtilde
ENCODING 921
SWIDTH 512 0
DWIDTH 8 0
BBX 8 15 0 -3
BITMAP
00
00
3E
08
08
08
08
08
08
08
08
3E
00
12
2C
ENDCHAR
STARTCHAR LtCapULtilde
ENCODING 922
SWIDTH 512 0
DWIDTH 8 0
BBX 8 15 0 -3
BITMAP
00
00
42
42
42
42
42
42
42
42
42
3C
00
32
4C
ENDCHAR
STARTCHAR LtSmlELtilde
ENCODING 923
SWIDTH 512 0
DWIDTH 8 0
BBX 8 15 0 -3
BITMAP
00
00
00
00
00
3C
42
42
7E
40
40
3C
00
32
4C
ENDCHAR
STARTCHAR LtSmlILtilde
ENCODING 924
SWIDTH 512 0
DWIDTH 8 0
BBX 8 15 0 -3
BITMAP
00
00
08
08
00
18
08
08
08
08
08
3E
00
12
2C
ENDCHAR
STARTCHAR LtSmlULtilde
ENCODING 925
SWIDTH 512 0
DWIDTH 8 0
BBX 8 15 0 -3
BITMAP
00
00
00
00
00
42
42
42
42
42
46
3A
00
32
4C
ENDCHAR
STARTCHAR HbAlefPatah
ENCODING 1355
SWIDTH 512 0
DWIDTH 8 0
BBX 8 15 0 -3
BITMAP
00
00
00
00
44
42
24
34
48
44
42
62
00
3C
00
ENDCHAR
STARTCHAR HbAlefQamats
ENCODING 1357
SWIDTH 512 0
DWIDTH 8 0
BBX 8 15 0 -3
BITMAP
00
00
00
00
44
42
24
34
48
44
42
62
00
38
10
ENDCHAR
STARTCHAR GeGan
ENCODING 1388
SWIDTH 512 0
DWIDTH 8 0
BBX 8 15 0 -3
BITMAP
00
00
00
00
00
00
30
48
08
3C
42
42
42
42
3C
ENDCHAR
STARTCHAR GeDon
ENCODING 1389
SWIDTH 512 0
DWIDTH 8 0
BBX 8 15 0 -3
BITMAP
00
00
00
00
00
00
3C
42
42
42
42
3C
20
78
06
ENDCHAR
STARTCHAR GeEn
ENCODING 1390
SWIDTH 512 0
DWIDTH 8 0
BBX 8 15 0 -3
BITMAP
00
00
00
00
00
00
1C
22
22
02
02
02
42
42
3C
ENDCHAR
STARTCHAR GeVin
ENCODING 1391
SWIDTH 512 0
DWIDTH 8 0
BBX 8 15 0 -3
BITMAP
00
00
00
00
00
00
1C
22
22
02
0C
02
42
42
3C
ENDCHAR
STARTCHAR GeKan
ENCODING 1395
SWIDTH 512 0
DWIDTH 8 0
BBX 8 15 0 -3
BITMAP
00
00
00
00
00
00
02
02
02
1C
02
02
42
42
3C
ENDCHAR
STARTCHAR GeLas
ENCODING 1396
SWIDTH 512 0
DWIDTH 8 0
BBX 8 15 0 -3
BITMAP
00
00
00
00
00
00
3C
42
42
42
42
20
30
4C
02
ENDCHAR
STARTCHAR GeZhar
ENCODING 1401
SWIDTH 512 0
DWIDTH 8 0
BBX 8 15 0 -3
BITMAP
00
00
00
00
00
00
06
1A
4A
4A
32
02
22
22
1C
ENDCHAR
STARTCHAR GeTar
ENCODING 1404
SWIDTH 512 0
DWIDTH 8 0
BBX 8 15 0 -3
BITMAP
00
00
00
00
00
08
14
1C
2A
41
41
41
41
22
1C
ENDCHAR
STARTCHAR GeUn
ENCODING 1405
SWIDTH 512 0
DWIDTH 8 0
BBX 8 15 0 -3
BITMAP
00
00
00
00
00
00
4C
72
12
12
02
02
42
42
3C
ENDCHAR
STARTCHAR GePhar
ENCODING 1406
SWIDTH 512 0
DWIDTH 8 0
BBX 8 15 0 -3
BITMAP
00
00
00
00
00
00
36
49
49
49
49
32
01
11
0E
ENDCHAR
STARTCHAR GeKhar
ENCODING 1407
SWIDTH 512 0
DWIDTH 8 0
BBX 8 15 0 -3
BITMAP
00
00
02
06
02
02
02
1E
22
02
02
02
42
42
3C
ENDCHAR
STARTCHAR GeGhan
ENCODING 1408
SWIDTH 512 0
DWIDTH 8 0
BBX 8 15 0 -3
BITMAP
00
00
00
00
00
00
36
49
49
49
49
41
30
4C
02
ENDCHAR
STARTCHAR GeQar
ENCODING 1409
SWIDTH 512 0
DWIDTH 8 0
BBX 8 15 0 -3
BITMAP
00
00
00
00
00
00
42
42
42
26
1A
02
42
42
3C
ENDCHAR
STARTCHAR GeCan
ENCODING 1412
SWIDTH 512 0
DWIDTH 8 0
BBX 8 15 0 -3
BITMAP
00
00
00
00
00
00
24
42
41
41
46
41
41
22
1C
ENDCHAR
STARTCHAR GeCil
ENCODING 1414
SWIDTH 512 0
DWIDTH 8 0
BBX 8 15 0 -3
BITMAP
00
00
36
49
49
40
40
3E
22
22
14
14
08
08
08
ENDCHAR
STARTCHAR GeChar
ENCODING 1415
SWIDTH 512 0
DWIDTH 8 0
BBX 8 15 0 -3
BITMAP
00
00
10
10
08
04
04
36
4C
36
04
04
44
44
38
ENDCHAR
STARTCHAR GeWe
ENCODING 1421
SWIDTH 512 0
DWIDTH 8 0
BBX 8 15 0 -3
BITMAP
00
00
00
00
00
00
3E
22
04
08
1C
02
42
42
3C
ENDCHAR
STARTCHAR GeHar
ENCODING 1422
SWIDTH 512 0
DWIDTH 8 0
BBX 8 15 0 -3
BITMAP
00
00
08
10
10
10
0E
02
04
08
1C
02
42
42
3C
ENDCHAR
STARTCHAR GeFi
ENCODING 1424
SWIDTH 512 0
DWIDTH 8 0
BBX 8 15 0 -3
BITMAP
00
00
00
00
00
00
36
49
49
49
49
2E
08
08
30
ENDCHAR
STARTCHAR GeYn
ENCODING 1425
SWIDTH 512 0
DWIDTH 8 0
BBX 8 15 0 -3
BITMAP
00
00
00
00
00
00
3C
42
42
0C
30
40
42
42
3C
ENDCHAR
STARTCHAR GeElifi
ENCODING 1426
SWIDTH 512 0
DWIDTH 8 0
BBX 8 15 0 -3
BITMAP
00
00
00
00
00
00
42
42
42
64
58
40
42
42
3C
ENDCHAR
STARTCHAR GeUo
ENCODING 1429
SWIDTH 512 0
DWIDTH 8 0
BBX 8 15 0 -3
BITMAP
00
00
00
00
00
00
32
4E
48
48
40
40
42
42
3C
ENDCHAR
STARTCHAR GeGanTrnd
ENCODING 1432
SWIDTH 512 0
DWIDTH 8 0
BBX 8 15 0 -3
BITMAP
00
00
00
00
00
00
3C
42
42
42
42
3C
10
12
0C
ENDCHAR
STARTCHAR GeUnDrss
ENCODING 1435
SWIDTH 512 0
DWIDTH 8 0
BBX 8 15 0 -3
BITMAP
00
00
00
24
24
00
4C
72
12
12
02
02
42
42
3C
ENDCHAR
STARTCHAR GeUnCircum
ENCODING 1437
SWIDTH 512 0
DWIDTH 8 0
BBX 8 15 0 -3
BITMAP
00
00
00
18
24
00
4C
72
12
12
02
02
42
42
3C
ENDCHAR
STARTCHAR GeEnMacron
ENCODING 1439
SWIDTH 512 0
DWIDTH 8 0
BBX 8 15 0 -3
BITMAP
00
00
00
3C
00
00
1C
22
22
02
02
02
42
42
3C
ENDCHAR
STARTCHAR GeUnMacron
ENCODING 1442
SWIDTH 512 0
DWIDTH 8 0
BBX 8 15 0 -3
BITMAP
00
00
00
3C
00
00
4C
72
12
12
02
02
42
42
3C
ENDCHAR
STARTCHAR AmSmlEh
ENCODING 1489
SWIDTH 512 0
DWIDTH 8 0
BBX 8 15 0 -3
BITMAP
00
00
20
20
20
20
3E
20
20
20
20
1C
02
04
00
ENDCHAR
STARTCHAR AmSmlYi
ENCODING 1503
SWIDTH 512 0
DWIDTH 8 0
BBX 8 15 0 -3
BITMAP
00
00
00
00
00
00
18
08
08
08
08
08
08
08
70
ENDCHAR
STARTCHAR AmSmlSha
ENCODING 1505
SWIDTH 512 0
DWIDTH 8 0
BBX 8 15 0 -3
BITMAP
00
00
00
00
00
00
1C
22
02
04
08
10
20
20
1E
ENDCHAR
STARTCHAR AmSmlCha
ENCODING 1507
SWIDTH 512 0
DWIDTH 8 0
BBX 8 15 0 -3
BITMAP
00
00
00
00
00
00
08
10
08
04
08
10
20
20
1E
ENDCHAR
STARTCHAR AmSmlJheh
ENCODING 1509
SWIDTH 512 0
DWIDTH 8 0
BBX 8 15 0 -3
BITMAP
00
00
08
14
22
22
22
22
14
08
08
10
20
20
1E
ENDCHAR
STARTCHAR AmSmlCo
ENCODING 1515
SWIDTH 512 0
DWIDTH 8 0
BBX 8 15 0 -3
BITMAP
00
00
00
00
00
00
1E
22
22
22
22
1E
02
22
1C
ENDCHAR
STARTCHAR AmSmlKeh
ENCODING 1518
SWIDTH 512 0
DWIDTH 8 0
BBX 8 15 0 -3
BITMAP
00
00
00
00
00
00
3C
22
22
22
22
3C
20
7E
20
ENDCHAR
STARTCHAR GkCapIotTrndLbreve
ENCODING 1612
SWIDTH 512 0
DWIDTH 8 0
BBX 8 15 0 -3
BITMAP
00
00
3E
08
08
08
08
08
08
08
08
3E
00
22
1C
ENDCHAR
STARTCHAR GkCapUpsTrndLbreve
ENCODING 1613
SWIDTH 512 0
DWIDTH 8 0
BBX 8 15 0 -3
BITMAP
00
00
08
08
08
08
08
14
14
22
22
41
00
22
1C
ENDCHAR
STARTCHAR GkSmlIotTrndLbreve
ENCODING 1614
SWIDTH 512 0
DWIDTH 8 0
BBX 8 15 0 -3
BITMAP
00
00
00
00
00
30
48
08
08
08
08
08
00
22
1C
ENDCHAR
STARTCHAR GkSmlUpsTrndLbreve
ENCODING 1615
SWIDTH 512 0
DWIDTH 8 0
BBX 8 15 0 -3
BITMAP
00
00
00
00
00
3C
42
42
42
42
42
42
00
22
1C
ENDCHAR
STARTCHAR ThYoYing
ENCODING 1917
SWIDTH 512 0
DWIDTH 8 0
BBX 8 15 0 -3
BITMAP
00
00
00
00
00
32
4A
4A
4A
4A
4A
44
00
12
0C
ENDCHAR
STARTCHAR ThDoChada
ENCODING 1919
SWIDTH 512 0
DWIDTH 8 0
BBX 8 15 0 -3
BITMAP
00
00
00
00
00
3C
42
62
22
22
62
62
02
02
1C
ENDCHAR
STARTCHAR ThToPatak
ENCODING 1920
SWIDTH 512 0
DWIDTH 8 0
BBX 8 15 0 -3
BITMAP
00
00
00
00
00
3C
42
62
22
22
62
62
02
2A
3C
ENDCHAR
STARTCHAR ThThoThan
ENCODING 1921
SWIDTH 512 0
DWIDTH 8 0
BBX 8 15 0 -3
BITMAP
00
00
00
00
00
7E
04
02
1A
1A
06
02
00
2A
3C
ENDCHAR
STARTCHAR ThRu
ENCODING 1942
SWIDTH 512 0
DWIDTH 8 0
BBX 8 15 0 -3
BITMAP
00
00
00
00
00
3C
42
62
22
22
32
32
02
02
02
ENDCHAR
STARTCHAR ThLu
ENCODING 1944
SWIDTH 512 0
DWIDTH 8 0
BBX 8 15 0 -3
BITMAP
00
00
00
00
00
3C
42
62
22
22
62
62
02
02
02
ENDCHAR
STARTCHAR ThMaiyamok
ENCODING 1955
SWIDTH 512 0
DWIDTH 8 0
BBX 8 15 0 -3
BITMAP
00
00
00
00
00
34
4A
62
62
02
02
02
02
02
04
ENDCHAR
STARTCHAR ThLakkhangyao
ENCODING 1956
SWIDTH 512 0
DWIDTH 8 0
BBX 8 15 0 -3
BITMAP
00
00
00
00
00
1C
22
22
02
02
02
02
02
02
02
ENDCHAR
STARTCHAR ThSaraU
ENCODING 1978
SWIDTH 512 0
DWIDTH 8 0
BBX 8 15 0 -3
BITMAP
00
00
00
00
00
00
00
00
00
00
00
00
00
06
02
ENDCHAR
STARTCHAR ThSaraUu
ENCODING 1979
SWIDTH 512 0
DWIDTH 8 0
BBX 8 15 0 -3
BITMAP
00
00
00
00
00
00
00
00
00
00
00
00
00
1A
0E
ENDCHAR
STARTCHAR ThPhinthu
ENCODING 1980
SWIDTH 512 0
DWIDTH 8 0
BBX 8 15 0 -3
BITMAP
00
00
00
00
00
00
00
00
00
00
00
00
00
06
06
ENDCHAR
STARTCHAR ThSaraUD
ENCODING 1986
SWIDTH 512 0
DWIDTH 8 0
BBX 8 15 0 -3
BITMAP
00
00
00
00
00
00
00
00
00
00
00
00
00
06
02
ENDCHAR
STARTCHAR ThSaraUuD
ENCODING 1987
SWIDTH 512 0
DWIDTH 8 0
BBX 8 15 0 -3
BITMAP
00
00
00
00
00
00
00
00
00
00
00
00
00
1A
0E
ENDCHAR
STARTCHAR ThPhinthuD
ENCODING 1988
SWIDTH 512 0
DWIDTH 8 0
BBX 8 15 0 -3
BITMAP
00
00
00
00
00
00
00
00
00
00
00
00
00
06
06
ENDCHAR
STARTCHAR AccGraveAscii
ENCODING 2484
SWIDTH 512 0
DWIDTH 8 0
BBX 8 15 0 -3
BITMAP
00
18
18
08
04
00
00
00
00
00
00
00
00
00
00
ENDCHAR
STARTCHAR CombHbMeteg
ENCODING 2566
SWIDTH 512 0
DWIDTH 8 0
BBX 8 15 0 -3
BITMAP
00
00
00
00
00
00
00
00
00
00
00
00
10
10
10
ENDCHAR
STARTCHAR CombHbPatah
ENCODING 2567
SWIDTH 512 0
DWIDTH 8 0
BBX 8 15 0 -3
BITMAP
00
00
00
00
00
00
00
00
00
00
00
00
00
7C
00
ENDCHAR
STARTCHAR CombHbQamats
ENCODING 2568
SWIDTH 512 0
DWIDTH 8 0
BBX 8 15 0 -3
BITMAP
00
00
00
00
00
00
00
00
00
00
00
00
00
38
10
ENDCHAR
STARTCHAR CombHbSegol
ENCODING 2569
SWIDTH 512 0
DWIDTH 8 0
BBX 8 15 0 -3
BITMAP
00
00
00
00
00
00
00
00
00
00
00
00
00
66
18
ENDCHAR
STARTCHAR CombHbHatafQamats
ENCODING 2573
SWIDTH 512 0
DWIDTH 8 0
BBX 8 15 0 -3
BITMAP
00
00
00
00
00
00
00
00
00
00
00
00
06
70
26
ENDCHAR
STARTCHAR CombLdot
ENCODING 2631
SWIDTH 512 0
DWIDTH 8 0
BBX 8 15 0 -3
BITMAP
00
00
00
00
00
00
00
00
00
00
00
00
00
08
08
ENDCHAR
STARTCHAR CombLvline
ENCODING 2632
SWIDTH 512 0
DWIDTH 8 0
BBX 8 15 0 -3
BITMAP
00
00
00
00
00
00
00
00
00
00
00
00
08
08
08
ENDCHAR
STARTCHAR CombLdrss
ENCODING 2633
SWIDTH 512 0
DWIDTH 8 0
BBX 8 15 0 -3
BITMAP
00
00
00
00
00
00
00
00
00
00
00
00
00
24
24
ENDCHAR
STARTCHAR CombLvline2
ENCODING 2634
SWIDTH 512 0
DWIDTH 8 0
BBX 8 15 0 -3
BITMAP
00
00
00
00
00
00
00
00
00
00
00
00
24
24
24
ENDCHAR
STARTCHAR CombLcircum
ENCODING 2637
SWIDTH 512 0
DWIDTH 8 0
BBX 8 15 0 -3
BITMAP
00
00
00
00
00
00
00
00
00
00
00
00
00
18
24
ENDCHAR
STARTCHAR CombLcaron
ENCODING 2638
SWIDTH 512 0
DWIDTH 8 0
BBX 8 15 0 -3
BITMAP
00
00
00
00
00
00
00
00
00
00
00
00
00
24
18
ENDCHAR
STARTCHAR CombLbreve
ENCODING 2639
SWIDTH 512 0
DWIDTH 8 0
BBX 8 15 0 -3
BITMAP
00
00
00
00
00
00
00
00
00
00
00
00
00
24
18
ENDCHAR
STARTCHAR CombLinvbreve
ENCODING 2640
SWIDTH 512 0
DWIDTH 8 0
BBX 8 15 0 -3
BITMAP
00
00
00
00
00
00
00
00
00
00
00
00
00
18
24
ENDCHAR
STARTCHAR CombLmacron
ENCODING 2641
SWIDTH 512 0
DWIDTH 8 0
BBX 8 15 0 -3
BITMAP
00
00
00
00
00
00
00
00
00
00
00
00
00
00
3C
ENDCHAR
STARTCHAR CombLtilde
ENCODING 2644
SWIDTH 512 0
DWIDTH 8 0
BBX 8 15 0 -3
BITMAP
00
00
00
00
00
00
00
00
00
00
00
00
00
32
4C
ENDCHAR
STARTCHAR PApostropheAscii
ENCODING 2681
SWIDTH 512 0
DWIDTH 8 0
BBX 8 15 0 -3
BITMAP
00
18
18
10
20
00
00
00
00
00
00
00
00
00
00
ENDCHAR
STARTCHAR PComma
ENCODING 2711
SWIDTH 512 0
DWIDTH 8 0
BBX 8 15 0 -3
BITMAP
00
00
00
00
00
00
00
00
00
00
18
18
10
20
00
ENDCHAR
STARTCHAR PSemicolon
ENCODING 2712
SWIDTH 512 0
DWIDTH 8 0
BBX 8 15 0 -3
BITMAP
00
00
00
00
00
00
18
18
00
00
18
18
10
20
00
ENDCHAR
STARTCHAR MArrowU
ENCODING 2955
SWIDTH 512 0
DWIDTH 8 0
BBX 8 15 0 -3
BITMAP
00
08
1C
2A
08
08
08
08
08
08
08
08
08
08
00
ENDCHAR
STARTCHAR MArrowD
ENCODING 2956
SWIDTH 512 0
DWIDTH 8 0
BBX 8 15 0 -3
BITMAP
00
08
08
08
08
08
08
08
08
08
08
2A
1C
08
00
ENDCHAR
STARTCHAR MArrowUD
ENCODING 2959
SWIDTH 512 0
DWIDTH 8 0
BBX 8 15 0 -3
BITMAP
00
08
1C
2A
08
08
08
08
08
08
08
2A
1C
08
00
ENDCHAR
STARTCHAR MArrowUDBase
ENCODING 2960
SWIDTH 512 0
DWIDTH 8 0
BBX 8 15 0 -3
BITMAP
00
08
1C
2A
08
08
08
08
08
08
2A
1C
08
3E
00
ENDCHAR
STARTCHAR MArrowULeftD
ENCODING 2962
SWIDTH 512 0
DWIDTH 8 0
BBX 8 15 0 -3
BITMAP
00
24
74
A4
24
24
24
24
24
24
24
25
2E
24
00
ENDCHAR
STARTCHAR MArrowULeftU
ENCODING 2966
SWIDTH 512 0
DWIDTH 8 0
BBX 8 15 0 -3
BITMAP
00
24
7E
A5
24
24
24
24
24
24
24
24
24
24
00
ENDCHAR
STARTCHAR MArrowDLeftD
ENCODING 2967
SWIDTH 512 0
DWIDTH 8 0
BBX 8 15 0 -3
BITMAP
00
24
24
24
24
24
24
24
24
24
24
A5
7E
24
00
ENDCHAR
STARTCHAR MArrowUu
ENCODING 2970
SWIDTH 512 0
DWIDTH 8 0
BBX 8 15 0 -3
BITMAP
00
08
1C
2A
08
1C
2A
08
08
08
08
08
08
08
00
ENDCHAR
STARTCHAR MArrowDd
ENCODING 2971
SWIDTH 512 0
DWIDTH 8 0
BBX 8 15 0 -3
BITMAP
00
08
08
08
08
08
08
08
2A
1C
08
2A
1C
08
00
ENDCHAR
STARTCHAR MArrowBarU
ENCODING 2972
SWIDTH 512 0
DWIDTH 8 0
BBX 8 15 0 -3
BITMAP
00
08
1C
2A
08
08
08
08
08
08
08
08
08
3E
00
ENDCHAR
STARTCHAR MArrowBarD
ENCODING 2973
SWIDTH 512 0
DWIDTH 8 0
BBX 8 15 0 -3
BITMAP
00
3E
08
08
08
08
08
08
08
08
08
2A
1C
08
00
ENDCHAR
STARTCHAR MArrowLU
ENCODING 2978
SWIDTH 512 0
DWIDTH 8 0
BBX 8 15 0 -3
BITMAP
00
40
70
68
50
50
08
08
04
04
02
02
01
01
00
ENDCHAR
STARTCHAR MArrowRU
ENCODING 2979
SWIDTH 512 0
DWIDTH 8 0
BBX 8 15 0 -3
BITMAP
00
01
07
0B
05
05
08
08
10
10
20
20
40
40
00
ENDCHAR
STARTCHAR MArrowLD
ENCODING 2980
SWIDTH 512 0
DWIDTH 8 0
BBX 8 15 0 -3
BITMAP
00
01
01
02
02
04
04
08
08
50
50
68
70
40
00
ENDCHAR
STARTCHAR MArrowRD
ENCODING 2981
SWIDTH 512 0
DWIDTH 8 0
BBX 8 15 0 -3
BITMAP
00
40
40
20
20
10
10
08
08
05
05
0B
07
01
00
ENDCHAR
STARTCHAR MArrow2U
ENCODING 2998
SWIDTH 512 0
DWIDTH 8 0
BBX 8 15 0 -3
BITMAP
00
08
1C
36
55
14
14
14
14
14
14
14
14
14
00
ENDCHAR
STARTCHAR MArrow2D
ENCODING 2999
SWIDTH 512 0
DWIDTH 8 0
BBX 8 15 0 -3
BITMAP
00
14
14
14
14
14
14
14
14
14
55
36
1C
08
00
ENDCHAR
STARTCHAR MArrow2UD
ENCODING 3000
SWIDTH 512 0
DWIDTH 8 0
BBX 8 15 0 -3
BITMAP
00
08
1C
36
55
14
14
14
14
14
55
36
1C
08
00
ENDCHAR
STARTCHAR MHarpoonUl
ENCODING 3021
SWIDTH 512 0
DWIDTH 8 0
BBX 8 15 0 -3
BITMAP
00
08
18
28
08
08
08
08
08
08
08
08
08
08
00
ENDCHAR
STARTCHAR MHarpoonUr
ENCODING 3022
SWIDTH 512 0
DWIDTH 8 0
BBX 8 15 0 -3
BITMAP
00
08
0C
0A
08
08
08
08
08
08
08
08
08
08
00
ENDCHAR
STARTCHAR MHarpoonDl
ENCODING 3023
SWIDTH 512 0
DWIDTH 8 0
BBX 8 15 0 -3
BITMAP
00
08
08
08
08
08
08
08
08
08
08
28
18
08
00
ENDCHAR
STARTCHAR MHarpoonDr
ENCODING 3024
SWIDTH 512 0
DWIDTH 8 0
BBX 8 15 0 -3
BITMAP
00
08
08
08
08
08
08
08
08
08
08
0A
0C
08
00
ENDCHAR
STARTCHAR PCurlyBrackLTRB
ENCODING 3154
SWIDTH 512 0
DWIDTH 8 0
BBX 8 15 0 -3
BITMAP
03
04
08
08
08
08
08
08
08
08
08
08
08
10
60
ENDCHAR
STARTCHAR PCurlyBrackLBRT
ENCODING 3155
SWIDTH 512 0
DWIDTH 8 0
BBX 8 15 0 -3
BITMAP
60
10
08
08
08
08
08
08
08
08
08
08
08
04
03
ENDCHAR
STARTCHAR MSumT
ENCODING 3156
SWIDTH 512 0
DWIDTH 8 0
BBX 8 15 0 -3
BITMAP
00
7F
40
40
20
20
20
10
10
10
08
08
08
04
04
ENDCHAR
STARTCHAR MRootB
ENCODING 3158
SWIDTH 512 0
DWIDTH 8 0
BBX 8 15 0 -3
BITMAP
08
08
08
08
08
08
08
C8
48
28
28
18
18
08
08
ENDCHAR
ENDFONT
