STARTFONT 2.1
COMMENT 
COMMENT Copyright (C) 2012-2025 Uwe Waldmann
COMMENT 
COMMENT Permission is hereby granted, free of charge, to any person obtaining
COMMENT a copy of this font software and associated files (the "Software"),
COMMENT to deal in the Software without restriction, including without
COMMENT limitation the rights to use, copy, modify, merge, publish,
COMMENT distribute, embed, sublicense, and/or sell copies of the Software,
COMMENT and to permit persons to whom the Software is furnished to do so,
COMMENT subject to the following conditions:
COMMENT 
COMMENT (1) The above copyright notice, this permission notice, and the
COMMENT     disclaimer below shall be included in all copies or substantial
COMMENT     portions of the Software.
COMMENT 
COMMENT (2) If the design of any glyphs in the fonts that are contained in the
COMMENT     Software or generated during the installation process is modified
COMMENT     or if additional glyphs are added to the fonts, the fonts
COMMENT     must be renamed. The new names may not contain the word "UW",
COMMENT     irrespective of capitalisation; the new names may contain the word
COMMENT     "ttyp0", irrespective of capitalisation, only if preceded by a
COMMENT     foundry name different from "UW".
COMMENT 
COMMENT THE SOFTWARE IS PROVIDED "AS IS", WITHOUT WARRANTY OF ANY KIND, EXPRESS
COMMENT OR IMPLIED, INCLUDING BUT NOT LIMITED TO THE WARRANTIES OF
COMMENT MERCHANTABILITY, FITNESS FOR A PARTICULAR PURPOSE AND NONINFRINGEMENT.
COMMENT IN NO EVENT SHALL THE AUTHORS OR COPYRIGHT HOLDERS BE LIABLE FOR ANY
COMMENT CLAIM, DAMAGES OR OTHER LIABILITY, WHETHER IN AN ACTION OF CONTRACT,
COMMENT TORT OR OTHERWISE, ARISING FROM, OUT OF OR IN CONNECTION WITH THE
COMMENT SOFTWARE OR THE USE OR OTHER DEALINGS IN THE SOFTWARE.
COMMENT 
FONT -UW-Ttyp0-Bold-R-Normal--15-140-75-75-C-80-UW-Fontspecific
SIZE 15 75 75
FONTBOUNDINGBOX 8 15 0 -3
STARTPROPERTIES 20
FONTNAME_REGISTRY ""
FOUNDRY "UW"
FAMILY_NAME "Ttyp0"
WEIGHT_NAME "Bold"
SLANT "R"
SETWIDTH_NAME "Normal"
ADD_STYLE_NAME ""
PIXEL_SIZE 15
POINT_SIZE 140
RESOLUTION_X 75
RESOLUTION_Y 75
SPACING "C"
AVERAGE_WIDTH 80
CHARSET_REGISTRY "UW"
CHARSET_ENCODING "Fontspecific"
DEFAULT_CHAR 0
FONT_DESCENT 3
FONT_ASCENT 12
COPYRIGHT "Copyright (C) 2012-2025 Uwe Waldmann"
_GBDFED_INFO "Edited with gbdfed 1.6."
ENDPROPERTIES
CHARS 241
STARTCHAR LtCapALdot
ENCODING 780
SWIDTH 512 0
DWIDTH 8 0
BBX 8 15 0 -3
BITMAP
00
00
10
30
38
38
58
4C
7C
CC
86
86
00
30
30
ENDCHAR
STARTCHAR LtCapBLdot
ENCODING 781
SWIDTH 512 0
DWIDTH 8 0
BBX 8 15 0 -3
BITMAP
00
00
FC
C6
C6
C6
FC
C6
C6
C6
C6
FC
00
30
30
ENDCHAR
STARTCHAR LtCapCLdot
ENCODING 782
SWIDTH 512 0
DWIDTH 8 0
BBX 8 15 0 -3
BITMAP
00
00
3C
66
C0
C0
C0
C0
C0
C0
66
3C
00
18
18
ENDCHAR
STARTCHAR LtCapDLdot
ENCODING 783
SWIDTH 512 0
DWIDTH 8 0
BBX 8 15 0 -3
BITMAP
00
00
F8
CC
C6
C6
C6
C6
C6
C6
CC
F8
00
30
30
ENDCHAR
STARTCHAR LtCapELdot
ENCODING 784
SWIDTH 512 0
DWIDTH 8 0
BBX 8 15 0 -3
BITMAP
00
00
FE
C2
C2
C8
F8
C8
C0
C2
C2
FE
00
30
30
ENDCHAR
STARTCHAR LtCapHLdot
ENCODING 785
SWIDTH 512 0
DWIDTH 8 0
BBX 8 15 0 -3
BITMAP
00
00
C6
C6
C6
C6
FE
C6
C6
C6
C6
C6
00
30
30
ENDCHAR
STARTCHAR LtCapILdot
ENCODING 786
SWIDTH 512 0
DWIDTH 8 0
BBX 8 15 0 -3
BITMAP
00
00
7E
18
18
18
18
18
18
18
18
7E
00
18
18
ENDCHAR
STARTCHAR LtCapKLdot
ENCODING 787
SWIDTH 512 0
DWIDTH 8 0
BBX 8 15 0 -3
BITMAP
00
00
C6
C4
CC
C8
D8
F8
CC
CC
C6
C6
00
30
30
ENDCHAR
STARTCHAR LtCapLLdot
ENCODING 788
SWIDTH 512 0
DWIDTH 8 0
BBX 8 15 0 -3
BITMAP
00
00
C0
C0
C0
C0
C0
C0
C0
C2
C2
FE
00
30
30
ENDCHAR
STARTCHAR LtCapMLdot
ENCODING 789
SWIDTH 512 0
DWIDTH 8 0
BBX 8 15 0 -3
BITMAP
00
00
C6
C6
EE
EE
FE
B6
B6
86
86
86
00
30
30
ENDCHAR
STARTCHAR LtCapNLdot
ENCODING 790
SWIDTH 512 0
DWIDTH 8 0
BBX 8 15 0 -3
BITMAP
00
00
C2
E2
E2
B2
B2
9A
9A
8E
8E
86
00
30
30
ENDCHAR
STARTCHAR LtCapOLdot
ENCODING 791
SWIDTH 512 0
DWIDTH 8 0
BBX 8 15 0 -3
BITMAP
00
00
7C
C6
C6
C6
C6
C6
C6
C6
C6
7C
00
30
30
ENDCHAR
STARTCHAR LtCapPLdot
ENCODING 792
SWIDTH 512 0
DWIDTH 8 0
BBX 8 15 0 -3
BITMAP
00
00
FC
C6
C6
C6
C6
FC
C0
C0
C0
C0
00
C0
C0
ENDCHAR
STARTCHAR LtCapQLdot
ENCODING 793
SWIDTH 512 0
DWIDTH 8 0
BBX 8 15 0 -3
BITMAP
00
00
7C
C6
C6
C6
C6
C6
C6
F6
DE
7C
06
32
30
ENDCHAR
STARTCHAR LtCapRLdot
ENCODING 794
SWIDTH 512 0
DWIDTH 8 0
BBX 8 15 0 -3
BITMAP
00
00
FC
C6
C6
C6
FC
D8
CC
CC
C6
C6
00
30
30
ENDCHAR
STARTCHAR LtCapSLdot
ENCODING 795
SWIDTH 512 0
DWIDTH 8 0
BBX 8 15 0 -3
BITMAP
00
00
7C
C6
C0
E0
78
1C
06
06
C6
7C
00
30
30
ENDCHAR
STARTCHAR LtCapTLdot
ENCODING 796
SWIDTH 512 0
DWIDTH 8 0
BBX 8 15 0 -3
BITMAP
00
00
FF
DB
18
18
18
18
18
18
18
18
00
18
18
ENDCHAR
STARTCHAR LtCapULdot
ENCODING 797
SWIDTH 512 0
DWIDTH 8 0
BBX 8 15 0 -3
BITMAP
00
00
C6
C6
C6
C6
C6
C6
C6
C6
C6
7C
00
30
30
ENDCHAR
STARTCHAR LtCapVLdot
ENCODING 798
SWIDTH 512 0
DWIDTH 8 0
BBX 8 15 0 -3
BITMAP
00
00
C2
C2
66
64
64
34
38
38
18
10
00
18
18
ENDCHAR
STARTCHAR LtCapWLdot
ENCODING 799
SWIDTH 512 0
DWIDTH 8 0
BBX 8 15 0 -3
BITMAP
00
00
C2
C2
C2
DA
DA
DA
FE
6C
6C
6C
00
18
18
ENDCHAR
STARTCHAR LtCapYLdot
ENCODING 800
SWIDTH 512 0
DWIDTH 8 0
BBX 8 15 0 -3
BITMAP
00
00
C3
62
64
34
38
18
18
18
18
18
00
18
18
ENDCHAR
STARTCHAR LtCapZLdot
ENCODING 801
SWIDTH 512 0
DWIDTH 8 0
BBX 8 15 0 -3
BITMAP
00
00
FE
86
8C
1C
18
30
70
62
C2
FE
00
30
30
ENDCHAR
STARTCHAR LtSmlALdot
ENCODING 802
SWIDTH 512 0
DWIDTH 8 0
BBX 8 15 0 -3
BITMAP
00
00
00
00
00
7C
66
06
7E
C6
CE
76
00
30
30
ENDCHAR
STARTCHAR LtSmlBLdot
ENCODING 803
SWIDTH 512 0
DWIDTH 8 0
BBX 8 15 0 -3
BITMAP
00
00
C0
C0
C0
DC
E6
C6
C6
C6
E6
DC
00
18
18
ENDCHAR
STARTCHAR LtSmlCLdot
ENCODING 804
SWIDTH 512 0
DWIDTH 8 0
BBX 8 15 0 -3
BITMAP
00
00
00
00
00
3C
66
C0
C0
C0
66
3C
00
18
18
ENDCHAR
STARTCHAR LtSmlDLdot
ENCODING 805
SWIDTH 512 0
DWIDTH 8 0
BBX 8 15 0 -3
BITMAP
00
00
06
06
06
76
CE
C6
C6
C6
CE
76
00
30
30
ENDCHAR
STARTCHAR LtSmlELdot
ENCODING 806
SWIDTH 512 0
DWIDTH 8 0
BBX 8 15 0 -3
BITMAP
00
00
00
00
00
3C
66
C6
FE
C0
66
3C
00
18
18
ENDCHAR
STARTCHAR LtSmlHLdot
ENCODING 807
SWIDTH 512 0
DWIDTH 8 0
BBX 8 15 0 -3
BITMAP
00
00
C0
C0
C0
DC
E6
C6
C6
C6
C6
C6
00
30
30
ENDCHAR
STARTCHAR LtSmlILdot
ENCODING 808
SWIDTH 512 0
DWIDTH 8 0
BBX 8 15 0 -3
BITMAP
00
00
18
18
00
38
18
18
18
18
18
7E
00
18
18
ENDCHAR
STARTCHAR LtSmlKLdot
ENCODING 809
SWIDTH 512 0
DWIDTH 8 0
BBX 8 15 0 -3
BITMAP
00
00
C0
C0
C0
C6
CC
D0
F8
CC
C6
C6
00
30
30
ENDCHAR
STARTCHAR LtSmlLLdot
ENCODING 810
SWIDTH 512 0
DWIDTH 8 0
BBX 8 15 0 -3
BITMAP
00
00
38
18
18
18
18
18
18
18
18
7E
00
18
18
ENDCHAR
STARTCHAR LtSmlMLdot
ENCODING 811
SWIDTH 512 0
DWIDTH 8 0
BBX 8 15 0 -3
BITMAP
00
00
00
00
00
AC
FE
D6
D6
D6
D6
D6
00
30
30
ENDCHAR
STARTCHAR LtSmlNLdot
ENCODING 812
SWIDTH 512 0
DWIDTH 8 0
BBX 8 15 0 -3
BITMAP
00
00
00
00
00
DC
E6
C6
C6
C6
C6
C6
00
30
30
ENDCHAR
STARTCHAR LtSmlOLdot
ENCODING 813
SWIDTH 512 0
DWIDTH 8 0
BBX 8 15 0 -3
BITMAP
00
00
00
00
00
7C
C6
C6
C6
C6
C6
7C
00
30
30
ENDCHAR
STARTCHAR LtSmlPLdot
ENCODING 814
SWIDTH 512 0
DWIDTH 8 0
BBX 8 15 0 -3
BITMAP
00
00
00
00
00
DC
E6
C6
C6
C6
E6
DC
C0
D8
D8
ENDCHAR
STARTCHAR LtSmlQLdot
ENCODING 815
SWIDTH 512 0
DWIDTH 8 0
BBX 8 15 0 -3
BITMAP
00
00
00
00
00
76
CE
C6
C6
C6
CE
76
06
36
36
ENDCHAR
STARTCHAR LtSmlRLdot
ENCODING 816
SWIDTH 512 0
DWIDTH 8 0
BBX 8 15 0 -3
BITMAP
00
00
00
00
00
EE
76
60
60
60
60
60
00
60
60
ENDCHAR
STARTCHAR LtSmlSLdot
ENCODING 817
SWIDTH 512 0
DWIDTH 8 0
BBX 8 15 0 -3
BITMAP
00
00
00
00
00
7C
C6
C0
7C
06
C6
7C
00
30
30
ENDCHAR
STARTCHAR LtSmlTLdot
ENCODING 818
SWIDTH 512 0
DWIDTH 8 0
BBX 8 15 0 -3
BITMAP
00
00
00
30
30
FC
30
30
30
30
36
1C
00
18
18
ENDCHAR
STARTCHAR LtSmlULdot
ENCODING 819
SWIDTH 512 0
DWIDTH 8 0
BBX 8 15 0 -3
BITMAP
00
00
00
00
00
C6
C6
C6
C6
C6
CE
76
00
30
30
ENDCHAR
STARTCHAR LtSmlVLdot
ENCODING 820
SWIDTH 512 0
DWIDTH 8 0
BBX 8 15 0 -3
BITMAP
00
00
00
00
00
C2
C6
64
64
38
38
10
00
18
18
ENDCHAR
STARTCHAR LtSmlWLdot
ENCODING 821
SWIDTH 512 0
DWIDTH 8 0
BBX 8 15 0 -3
BITMAP
00
00
00
00
00
C2
DA
DA
DA
7C
6C
6C
00
18
18
ENDCHAR
STARTCHAR LtSmlYLdot
ENCODING 822
SWIDTH 512 0
DWIDTH 8 0
BBX 8 15 0 -3
BITMAP
00
00
00
00
00
C2
C6
64
64
3C
38
18
10
D6
E6
ENDCHAR
STARTCHAR LtSmlZLdot
ENCODING 823
SWIDTH 512 0
DWIDTH 8 0
BBX 8 15 0 -3
BITMAP
00
00
00
00
00
FE
8E
0C
38
60
E2
FE
00
30
30
ENDCHAR
STARTCHAR LtCapOHornLdot
ENCODING 824
SWIDTH 512 0
DWIDTH 8 0
BBX 8 15 0 -3
BITMAP
07
03
7E
C6
C6
C6
C6
C6
C6
C6
C6
7C
00
30
30
ENDCHAR
STARTCHAR LtCapUHornLdot
ENCODING 825
SWIDTH 512 0
DWIDTH 8 0
BBX 8 15 0 -3
BITMAP
07
03
C6
C6
C6
C6
C6
C6
C6
C6
C6
7C
00
30
30
ENDCHAR
STARTCHAR LtSmlOHornLdot
ENCODING 826
SWIDTH 512 0
DWIDTH 8 0
BBX 8 15 0 -3
BITMAP
00
00
00
07
03
7E
C6
C6
C6
C6
C6
7C
00
30
30
ENDCHAR
STARTCHAR LtSmlUHornLdot
ENCODING 827
SWIDTH 512 0
DWIDTH 8 0
BBX 8 15 0 -3
BITMAP
00
00
00
07
03
C6
C6
C6
C6
C6
CE
76
00
30
30
ENDCHAR
STARTCHAR LtCapSDotLdot
ENCODING 828
SWIDTH 512 0
DWIDTH 8 0
BBX 8 15 0 -3
BITMAP
18
18
00
7C
C6
C0
70
3C
0E
06
C6
7C
00
30
30
ENDCHAR
STARTCHAR LtSmlSDotLdot
ENCODING 829
SWIDTH 512 0
DWIDTH 8 0
BBX 8 15 0 -3
BITMAP
00
00
18
18
00
7C
C6
C0
7C
06
C6
7C
00
30
30
ENDCHAR
STARTCHAR LtCapLMacronLdot
ENCODING 830
SWIDTH 512 0
DWIDTH 8 0
BBX 8 15 0 -3
BITMAP
7C
7C
00
C0
C0
C0
C0
C0
C0
C2
C2
FE
00
30
30
ENDCHAR
STARTCHAR LtCapRMacronLdot
ENCODING 831
SWIDTH 512 0
DWIDTH 8 0
BBX 8 15 0 -3
BITMAP
7C
7C
00
FC
C6
C6
C6
FC
D8
CC
C6
C6
00
30
30
ENDCHAR
STARTCHAR LtSmlLMacronLdot
ENCODING 832
SWIDTH 512 0
DWIDTH 8 0
BBX 8 15 0 -3
BITMAP
3C
3C
00
38
18
18
18
18
18
18
18
7E
00
18
18
ENDCHAR
STARTCHAR LtSmlRMacronLdot
ENCODING 833
SWIDTH 512 0
DWIDTH 8 0
BBX 8 15 0 -3
BITMAP
00
00
7C
7C
00
EE
76
60
60
60
60
60
00
60
60
ENDCHAR
STARTCHAR LtCapEAcuteLdot
ENCODING 834
SWIDTH 512 0
DWIDTH 8 0
BBX 8 15 0 -3
BITMAP
0C
18
10
FE
C2
C2
C8
F8
C8
C2
C2
FE
00
30
30
ENDCHAR
STARTCHAR LtCapOAcuteLdot
ENCODING 835
SWIDTH 512 0
DWIDTH 8 0
BBX 8 15 0 -3
BITMAP
0C
18
10
7C
C6
C6
C6
C6
C6
C6
C6
7C
00
30
30
ENDCHAR
STARTCHAR LtCapRAcuteLdot
ENCODING 836
SWIDTH 512 0
DWIDTH 8 0
BBX 8 15 0 -3
BITMAP
0C
18
10
FC
C6
C6
C6
FC
D8
CC
C6
C6
00
30
30
ENDCHAR
STARTCHAR LtSmlEAcuteLdot
ENCODING 837
SWIDTH 512 0
DWIDTH 8 0
BBX 8 15 0 -3
BITMAP
00
0C
18
10
00
3C
66
C6
FE
C0
66
3C
00
18
18
ENDCHAR
STARTCHAR LtSmlOAcuteLdot
ENCODING 838
SWIDTH 512 0
DWIDTH 8 0
BBX 8 15 0 -3
BITMAP
00
0C
18
10
00
7C
C6
C6
C6
C6
C6
7C
00
30
30
ENDCHAR
STARTCHAR LtSmlRAcuteLdot
ENCODING 839
SWIDTH 512 0
DWIDTH 8 0
BBX 8 15 0 -3
BITMAP
00
0C
18
10
00
EE
76
60
60
60
60
60
00
60
60
ENDCHAR
STARTCHAR LtSmlRMacronAcuteLdot
ENCODING 840
SWIDTH 512 0
DWIDTH 8 0
BBX 8 15 0 -3
BITMAP
0C
18
10
7C
00
EE
76
60
60
60
60
60
00
60
60
ENDCHAR
STARTCHAR LtCapEGraveLdot
ENCODING 841
SWIDTH 512 0
DWIDTH 8 0
BBX 8 15 0 -3
BITMAP
60
30
10
FE
C2
C2
C8
F8
C8
C2
C2
FE
00
30
30
ENDCHAR
STARTCHAR LtCapOGraveLdot
ENCODING 842
SWIDTH 512 0
DWIDTH 8 0
BBX 8 15 0 -3
BITMAP
60
30
10
7C
C6
C6
C6
C6
C6
C6
C6
7C
00
30
30
ENDCHAR
STARTCHAR LtCapRGraveLdot
ENCODING 843
SWIDTH 512 0
DWIDTH 8 0
BBX 8 15 0 -3
BITMAP
60
30
10
FC
C6
C6
C6
FC
D8
CC
C6
C6
00
30
30
ENDCHAR
STARTCHAR LtSmlEGraveLdot
ENCODING 844
SWIDTH 512 0
DWIDTH 8 0
BBX 8 15 0 -3
BITMAP
00
30
18
08
00
3C
66
C6
FE
C0
66
3C
00
18
18
ENDCHAR
STARTCHAR LtSmlOGraveLdot
ENCODING 845
SWIDTH 512 0
DWIDTH 8 0
BBX 8 15 0 -3
BITMAP
00
60
30
10
00
7C
C6
C6
C6
C6
C6
7C
00
30
30
ENDCHAR
STARTCHAR LtSmlRGraveLdot
ENCODING 846
SWIDTH 512 0
DWIDTH 8 0
BBX 8 15 0 -3
BITMAP
00
60
30
10
00
EE
76
60
60
60
60
60
00
60
60
ENDCHAR
STARTCHAR LtCapACircumLdot
ENCODING 847
SWIDTH 512 0
DWIDTH 8 0
BBX 8 15 0 -3
BITMAP
38
6C
00
30
38
38
58
4C
7C
CC
86
86
00
30
30
ENDCHAR
STARTCHAR LtCapECircumLdot
ENCODING 848
SWIDTH 512 0
DWIDTH 8 0
BBX 8 15 0 -3
BITMAP
38
6C
00
FE
C2
C2
C8
F8
C8
C2
C2
FE
00
30
30
ENDCHAR
STARTCHAR LtCapOCircumLdot
ENCODING 849
SWIDTH 512 0
DWIDTH 8 0
BBX 8 15 0 -3
BITMAP
38
6C
00
7C
C6
C6
C6
C6
C6
C6
C6
7C
00
30
30
ENDCHAR
STARTCHAR LtSmlACircumLdot
ENCODING 850
SWIDTH 512 0
DWIDTH 8 0
BBX 8 15 0 -3
BITMAP
00
18
3C
24
00
7C
66
06
7E
C6
CE
76
00
30
30
ENDCHAR
STARTCHAR LtSmlECircumLdot
ENCODING 851
SWIDTH 512 0
DWIDTH 8 0
BBX 8 15 0 -3
BITMAP
00
18
3C
24
00
3C
66
C6
FE
C0
66
3C
00
18
18
ENDCHAR
STARTCHAR LtSmlOCircumLdot
ENCODING 852
SWIDTH 512 0
DWIDTH 8 0
BBX 8 15 0 -3
BITMAP
00
10
38
6C
00
7C
C6
C6
C6
C6
C6
7C
00
30
30
ENDCHAR
STARTCHAR LtCapCCaronLdot
ENCODING 853
SWIDTH 512 0
DWIDTH 8 0
BBX 8 15 0 -3
BITMAP
36
1C
00
3C
66
C0
C0
C0
C0
C0
66
3C
00
18
18
ENDCHAR
STARTCHAR LtSmlCCaronLdot
ENCODING 854
SWIDTH 512 0
DWIDTH 8 0
BBX 8 15 0 -3
BITMAP
00
24
3C
18
00
3C
66
C0
C0
C0
66
3C
00
18
18
ENDCHAR
STARTCHAR LtCapABreveLdot
ENCODING 855
SWIDTH 512 0
DWIDTH 8 0
BBX 8 15 0 -3
BITMAP
CC
78
00
30
38
38
58
4C
7C
CC
86
86
00
30
30
ENDCHAR
STARTCHAR LtSmlABreveLdot
ENCODING 856
SWIDTH 512 0
DWIDTH 8 0
BBX 8 15 0 -3
BITMAP
00
00
CC
78
00
7C
66
06
7E
C6
CE
76
00
30
30
ENDCHAR
STARTCHAR LtSmlRLvline
ENCODING 860
SWIDTH 512 0
DWIDTH 8 0
BBX 8 15 0 -3
BITMAP
00
00
00
00
00
EE
76
60
60
60
60
60
30
30
30
ENDCHAR
STARTCHAR LtCapALring
ENCODING 862
SWIDTH 512 0
DWIDTH 8 0
BBX 8 15 0 -3
BITMAP
00
00
10
30
38
38
58
4C
7C
CC
86
86
30
68
30
ENDCHAR
STARTCHAR LtCapRLring
ENCODING 863
SWIDTH 512 0
DWIDTH 8 0
BBX 8 15 0 -3
BITMAP
00
00
FC
C6
C6
C6
FC
D8
CC
CC
C6
C6
30
68
30
ENDCHAR
STARTCHAR LtSmlALring
ENCODING 864
SWIDTH 512 0
DWIDTH 8 0
BBX 8 15 0 -3
BITMAP
00
00
00
00
00
7C
66
06
7E
C6
CE
76
18
34
18
ENDCHAR
STARTCHAR LtSmlLLring
ENCODING 865
SWIDTH 512 0
DWIDTH 8 0
BBX 8 15 0 -3
BITMAP
00
00
38
18
18
18
18
18
18
18
18
7E
18
34
18
ENDCHAR
STARTCHAR LtSmlRLring
ENCODING 866
SWIDTH 512 0
DWIDTH 8 0
BBX 8 15 0 -3
BITMAP
00
00
00
00
00
EE
76
60
60
60
60
60
60
D0
60
ENDCHAR
STARTCHAR LtSmlLMacronLring
ENCODING 867
SWIDTH 512 0
DWIDTH 8 0
BBX 8 15 0 -3
BITMAP
3C
3C
00
38
18
18
18
18
18
18
18
7E
18
34
18
ENDCHAR
STARTCHAR LtSmlRMacronLring
ENCODING 868
SWIDTH 512 0
DWIDTH 8 0
BBX 8 15 0 -3
BITMAP
00
00
7C
7C
00
EE
76
60
60
60
60
60
60
D0
60
ENDCHAR
STARTCHAR LtSmlRAcuteLring
ENCODING 869
SWIDTH 512 0
DWIDTH 8 0
BBX 8 15 0 -3
BITMAP
00
0C
18
10
00
EE
76
60
60
60
60
60
60
D0
60
ENDCHAR
STARTCHAR LtSmlRMacronAcuteLring
ENCODING 870
SWIDTH 512 0
DWIDTH 8 0
BBX 8 15 0 -3
BITMAP
0C
18
10
7C
00
EE
76
60
60
60
60
60
60
D0
60
ENDCHAR
STARTCHAR LtSmlRGraveLring
ENCODING 871
SWIDTH 512 0
DWIDTH 8 0
BBX 8 15 0 -3
BITMAP
00
60
30
10
00
EE
76
60
60
60
60
60
60
D0
60
ENDCHAR
STARTCHAR LtCapULdrss
ENCODING 872
SWIDTH 512 0
DWIDTH 8 0
BBX 8 15 0 -3
BITMAP
00
00
C6
C6
C6
C6
C6
C6
C6
C6
C6
7C
00
6C
6C
ENDCHAR
STARTCHAR LtSmlULdrss
ENCODING 873
SWIDTH 512 0
DWIDTH 8 0
BBX 8 15 0 -3
BITMAP
00
00
00
00
00
C6
C6
C6
C6
C6
CE
76
00
6C
6C
ENDCHAR
STARTCHAR LtCapBLmacron
ENCODING 874
SWIDTH 512 0
DWIDTH 8 0
BBX 8 15 0 -3
BITMAP
00
00
FC
C6
C6
C6
FC
C6
C6
C6
C6
FC
00
7C
7C
ENDCHAR
STARTCHAR LtCapDLmacron
ENCODING 875
SWIDTH 512 0
DWIDTH 8 0
BBX 8 15 0 -3
BITMAP
00
00
F8
CC
C6
C6
C6
C6
C6
C6
CC
F8
00
7C
7C
ENDCHAR
STARTCHAR LtCapELmacron
ENCODING 876
SWIDTH 512 0
DWIDTH 8 0
BBX 8 15 0 -3
BITMAP
00
00
FE
C2
C2
C8
F8
C8
C0
C2
C2
FE
00
7C
7C
ENDCHAR
STARTCHAR LtCapHLmacron
ENCODING 877
SWIDTH 512 0
DWIDTH 8 0
BBX 8 15 0 -3
BITMAP
00
00
C6
C6
C6
C6
FE
C6
C6
C6
C6
C6
00
7C
7C
ENDCHAR
STARTCHAR LtCapKLmacron
ENCODING 878
SWIDTH 512 0
DWIDTH 8 0
BBX 8 15 0 -3
BITMAP
00
00
C6
C4
CC
C8
D8
F8
CC
CC
C6
C6
00
7C
7C
ENDCHAR
STARTCHAR LtCapLLmacron
ENCODING 879
SWIDTH 512 0
DWIDTH 8 0
BBX 8 15 0 -3
BITMAP
00
00
C0
C0
C0
C0
C0
C0
C0
C2
C2
FE
00
7C
7C
ENDCHAR
STARTCHAR LtCapNLmacron
ENCODING 880
SWIDTH 512 0
DWIDTH 8 0
BBX 8 15 0 -3
BITMAP
00
00
C2
E2
E2
B2
B2
9A
9A
8E
8E
86
00
7C
7C
ENDCHAR
STARTCHAR LtCapOLmacron
ENCODING 881
SWIDTH 512 0
DWIDTH 8 0
BBX 8 15 0 -3
BITMAP
00
00
7C
C6
C6
C6
C6
C6
C6
C6
C6
7C
00
7C
7C
ENDCHAR
STARTCHAR LtCapRLmacron
ENCODING 882
SWIDTH 512 0
DWIDTH 8 0
BBX 8 15 0 -3
BITMAP
00
00
FC
C6
C6
C6
FC
D8
CC
CC
C6
C6
00
7C
7C
ENDCHAR
STARTCHAR LtCapTLmacron
ENCODING 883
SWIDTH 512 0
DWIDTH 8 0
BBX 8 15 0 -3
BITMAP
00
00
FF
DB
18
18
18
18
18
18
18
18
00
3C
3C
ENDCHAR
STARTCHAR LtCapZLmacron
ENCODING 884
SWIDTH 512 0
DWIDTH 8 0
BBX 8 15 0 -3
BITMAP
00
00
FE
86
8C
1C
18
30
70
62
C2
FE
00
7C
7C
ENDCHAR
STARTCHAR LtSmlBLmacron
ENCODING 885
SWIDTH 512 0
DWIDTH 8 0
BBX 8 15 0 -3
BITMAP
00
00
C0
C0
C0
DC
E6
C6
C6
C6
E6
DC
00
7C
7C
ENDCHAR
STARTCHAR LtSmlDLmacron
ENCODING 886
SWIDTH 512 0
DWIDTH 8 0
BBX 8 15 0 -3
BITMAP
00
00
06
06
06
76
CE
C6
C6
C6
CE
76
00
7C
7C
ENDCHAR
STARTCHAR LtSmlELmacron
ENCODING 887
SWIDTH 512 0
DWIDTH 8 0
BBX 8 15 0 -3
BITMAP
00
00
00
00
00
3C
66
C6
FE
C0
66
3C
00
7C
7C
ENDCHAR
STARTCHAR LtSmlHLmacron
ENCODING 888
SWIDTH 512 0
DWIDTH 8 0
BBX 8 15 0 -3
BITMAP
00
00
C0
C0
C0
DC
E6
C6
C6
C6
C6
C6
00
7C
7C
ENDCHAR
STARTCHAR LtSmlKLmacron
ENCODING 889
SWIDTH 512 0
DWIDTH 8 0
BBX 8 15 0 -3
BITMAP
00
00
C0
C0
C0
C6
CC
D0
F8
CC
C6
C6
00
7C
7C
ENDCHAR
STARTCHAR LtSmlLLmacron
ENCODING 890
SWIDTH 512 0
DWIDTH 8 0
BBX 8 15 0 -3
BITMAP
00
00
38
18
18
18
18
18
18
18
18
7E
00
3C
3C
ENDCHAR
STARTCHAR LtSmlNLmacron
ENCODING 891
SWIDTH 512 0
DWIDTH 8 0
BBX 8 15 0 -3
BITMAP
00
00
00
00
00
DC
E6
C6
C6
C6
C6
C6
00
7C
7C
ENDCHAR
STARTCHAR LtSmlOLmacron
ENCODING 892
SWIDTH 512 0
DWIDTH 8 0
BBX 8 15 0 -3
BITMAP
00
00
00
00
00
7C
C6
C6
C6
C6
C6
7C
00
7C
7C
ENDCHAR
STARTCHAR LtSmlRLmacron
ENCODING 893
SWIDTH 512 0
DWIDTH 8 0
BBX 8 15 0 -3
BITMAP
00
00
00
00
00
EE
76
60
60
60
60
60
00
78
78
ENDCHAR
STARTCHAR LtSmlTLmacron
ENCODING 894
SWIDTH 512 0
DWIDTH 8 0
BBX 8 15 0 -3
BITMAP
00
00
00
30
30
FC
30
30
30
30
36
1C
00
3C
3C
ENDCHAR
STARTCHAR LtSmlZLmacron
ENCODING 895
SWIDTH 512 0
DWIDTH 8 0
BBX 8 15 0 -3
BITMAP
00
00
00
00
00
FE
8E
0C
38
60
E2
FE
00
7C
7C
ENDCHAR
STARTCHAR LtCapGHLmacron
ENCODING 896
SWIDTH 512 0
DWIDTH 8 0
BBX 8 15 0 -3
BITMAP
00
00
6A
EA
8A
8A
8E
AA
AA
AA
EA
6A
00
7C
7C
ENDCHAR
STARTCHAR LtCapKHLmacron
ENCODING 897
SWIDTH 512 0
DWIDTH 8 0
BBX 8 15 0 -3
BITMAP
00
00
AA
AA
AA
EA
CE
EA
EA
AA
AA
AA
00
7C
7C
ENDCHAR
STARTCHAR LtMixGHLmacron
ENCODING 898
SWIDTH 512 0
DWIDTH 8 0
BBX 8 15 0 -3
BITMAP
00
00
68
E8
88
8E
8E
AA
AA
AA
EA
6A
00
7C
7C
ENDCHAR
STARTCHAR LtMixKHLmacron
ENCODING 899
SWIDTH 512 0
DWIDTH 8 0
BBX 8 15 0 -3
BITMAP
00
00
A8
A8
A8
EE
CE
EA
EA
AA
AA
AA
00
7C
7C
ENDCHAR
STARTCHAR LtSmlGHLmacron
ENCODING 900
SWIDTH 512 0
DWIDTH 8 0
BBX 8 15 0 -3
BITMAP
00
00
08
08
08
6E
AE
AA
AA
6A
CA
6A
D0
FC
7C
ENDCHAR
STARTCHAR LtSmlKHLmacron
ENCODING 901
SWIDTH 512 0
DWIDTH 8 0
BBX 8 15 0 -3
BITMAP
00
00
88
88
88
AE
AE
CA
EA
EA
AA
AA
00
7C
7C
ENDCHAR
STARTCHAR LtCapDLcircum
ENCODING 902
SWIDTH 512 0
DWIDTH 8 0
BBX 8 15 0 -3
BITMAP
00
00
F8
CC
C6
C6
C6
C6
C6
C6
CC
F8
00
38
6C
ENDCHAR
STARTCHAR LtCapELcircum
ENCODING 903
SWIDTH 512 0
DWIDTH 8 0
BBX 8 15 0 -3
BITMAP
00
00
FE
C2
C2
C8
F8
C8
C0
C2
C2
FE
00
38
6C
ENDCHAR
STARTCHAR LtCapLLcircum
ENCODING 904
SWIDTH 512 0
DWIDTH 8 0
BBX 8 15 0 -3
BITMAP
00
00
C0
C0
C0
C0
C0
C0
C0
C2
C2
FE
00
38
6C
ENDCHAR
STARTCHAR LtCapNLcircum
ENCODING 905
SWIDTH 512 0
DWIDTH 8 0
BBX 8 15 0 -3
BITMAP
00
00
C2
E2
E2
B2
B2
9A
9A
8E
8E
86
00
38
6C
ENDCHAR
STARTCHAR LtCapTLcircum
ENCODING 906
SWIDTH 512 0
DWIDTH 8 0
BBX 8 15 0 -3
BITMAP
00
00
FF
DB
18
18
18
18
18
18
18
18
00
1C
36
ENDCHAR
STARTCHAR LtCapULcircum
ENCODING 907
SWIDTH 512 0
DWIDTH 8 0
BBX 8 15 0 -3
BITMAP
00
00
C6
C6
C6
C6
C6
C6
C6
C6
C6
7C
00
38
6C
ENDCHAR
STARTCHAR LtSmlDLcircum
ENCODING 908
SWIDTH 512 0
DWIDTH 8 0
BBX 8 15 0 -3
BITMAP
00
00
06
06
06
76
CE
C6
C6
C6
CE
76
00
38
6C
ENDCHAR
STARTCHAR LtSmlELcircum
ENCODING 909
SWIDTH 512 0
DWIDTH 8 0
BBX 8 15 0 -3
BITMAP
00
00
00
00
00
3C
66
C6
FE
C0
66
3C
00
38
6C
ENDCHAR
STARTCHAR LtSmlLLcircum
ENCODING 910
SWIDTH 512 0
DWIDTH 8 0
BBX 8 15 0 -3
BITMAP
00
00
38
18
18
18
18
18
18
18
18
7E
00
38
6C
ENDCHAR
STARTCHAR LtSmlNLcircum
ENCODING 911
SWIDTH 512 0
DWIDTH 8 0
BBX 8 15 0 -3
BITMAP
00
00
00
00
00
DC
E6
C6
C6
C6
C6
C6
00
38
6C
ENDCHAR
STARTCHAR LtSmlTLcircum
ENCODING 912
SWIDTH 512 0
DWIDTH 8 0
BBX 8 15 0 -3
BITMAP
00
00
00
30
30
FC
30
30
30
30
36
1C
00
1C
36
ENDCHAR
STARTCHAR LtSmlULcircum
ENCODING 913
SWIDTH 512 0
DWIDTH 8 0
BBX 8 15 0 -3
BITMAP
00
00
00
00
00
C6
C6
C6
C6
C6
CE
76
00
38
6C
ENDCHAR
STARTCHAR LtCapHLbreve
ENCODING 914
SWIDTH 512 0
DWIDTH 8 0
BBX 8 15 0 -3
BITMAP
00
00
C6
C6
C6
C6
FE
C6
C6
C6
C6
C6
00
66
3C
ENDCHAR
STARTCHAR LtSmlHLbreve
ENCODING 915
SWIDTH 512 0
DWIDTH 8 0
BBX 8 15 0 -3
BITMAP
00
00
C0
C0
C0
DC
E6
C6
C6
C6
C6
C6
00
66
3C
ENDCHAR
STARTCHAR LtSmlILinvbreve
ENCODING 916
SWIDTH 512 0
DWIDTH 8 0
BBX 8 15 0 -3
BITMAP
00
00
18
18
00
38
18
18
18
18
18
7E
00
3C
66
ENDCHAR
STARTCHAR LtSmlOLinvbreve
ENCODING 917
SWIDTH 512 0
DWIDTH 8 0
BBX 8 15 0 -3
BITMAP
00
00
00
00
00
7C
C6
C6
C6
C6
C6
7C
00
3C
66
ENDCHAR
STARTCHAR LtSmlULinvbreve
ENCODING 918
SWIDTH 512 0
DWIDTH 8 0
BBX 8 15 0 -3
BITMAP
00
00
00
00
00
C6
C6
C6
C6
C6
CE
76
00
3C
66
ENDCHAR
STARTCHAR LtSmlATrndLinvbreve
ENCODING 919
SWIDTH 512 0
DWIDTH 8 0
BBX 8 15 0 -3
BITMAP
00
00
00
00
00
DC
E6
C6
FC
C0
CC
7C
00
3C
66
ENDCHAR
STARTCHAR LtCapELtilde
ENCODING 920
SWIDTH 512 0
DWIDTH 8 0
BBX 8 15 0 -3
BITMAP
00
00
FE
C2
C2
C8
F8
C8
C0
C2
C2
FE
00
36
5C
ENDCHAR
STARTCHAR LtCapILtilde
ENCODING 921
SWIDTH 512 0
DWIDTH 8 0
BBX 8 15 0 -3
BITMAP
00
00
7E
18
18
18
18
18
18
18
18
7E
00
36
5C
ENDCHAR
STARTCHAR LtCapULtilde
ENCODING 922
SWIDTH 512 0
DWIDTH 8 0
BBX 8 15 0 -3
BITMAP
00
00
C6
C6
C6
C6
C6
C6
C6
C6
C6
7C
00
36
5C
ENDCHAR
STARTCHAR LtSmlELtilde
ENCODING 923
SWIDTH 512 0
DWIDTH 8 0
BBX 8 15 0 -3
BITMAP
00
00
00
00
00
3C
66
C6
FE
C0
66
3C
00
36
5C
ENDCHAR
STARTCHAR LtSmlILtilde
ENCODING 924
SWIDTH 512 0
DWIDTH 8 0
BBX 8 15 0 -3
BITMAP
00
00
18
18
00
38
18
18
18
18
18
7E
00
36
5C
ENDCHAR
STARTCHAR LtSmlULtilde
ENCODING 925
SWIDTH 512 0
DWIDTH 8 0
BBX 8 15 0 -3
BITMAP
00
00
00
00
00
C6
C6
C6
C6
C6
CE
76
00
36
5C
ENDCHAR
STARTCHAR HbAlefPatah
ENCODING 1355
SWIDTH 512 0
DWIDTH 8 0
BBX 8 15 0 -3
BITMAP
00
00
00
00
8C
CE
E6
7C
DC
CE
E6
E2
00
7C
00
ENDCHAR
STARTCHAR HbAlefQamats
ENCODING 1357
SWIDTH 512 0
DWIDTH 8 0
BBX 8 15 0 -3
BITMAP
00
00
00
00
8C
CE
E6
7C
DC
CE
E6
E2
00
7E
18
ENDCHAR
STARTCHAR GeGan
ENCODING 1388
SWIDTH 512 0
DWIDTH 8 0
BBX 8 15 0 -3
BITMAP
00
00
00
00
00
00
F0
98
18
7C
C6
C6
C6
C6
7C
ENDCHAR
STARTCHAR GeDon
ENCODING 1389
SWIDTH 512 0
DWIDTH 8 0
BBX 8 15 0 -3
BITMAP
00
00
00
00
00
00
7C
C6
C6
C6
C6
7C
60
FC
86
ENDCHAR
STARTCHAR GeEn
ENCODING 1390
SWIDTH 512 0
DWIDTH 8 0
BBX 8 15 0 -3
BITMAP
00
00
00
00
00
00
3C
66
66
06
06
06
C6
C6
7C
ENDCHAR
STARTCHAR GeVin
ENCODING 1391
SWIDTH 512 0
DWIDTH 8 0
BBX 8 15 0 -3
BITMAP
00
00
00
00
00
00
3C
66
66
0C
1C
06
C6
C6
7C
ENDCHAR
STARTCHAR GeKan
ENCODING 1395
SWIDTH 512 0
DWIDTH 8 0
BBX 8 15 0 -3
BITMAP
00
00
00
00
00
00
04
06
06
1C
0E
06
C6
C6
7C
ENDCHAR
STARTCHAR GeLas
ENCODING 1396
SWIDTH 512 0
DWIDTH 8 0
BBX 8 15 0 -3
BITMAP
00
00
00
00
00
00
7C
C6
C6
C6
C4
60
78
CC
06
ENDCHAR
STARTCHAR GeZhar
ENCODING 1401
SWIDTH 512 0
DWIDTH 8 0
BBX 8 15 0 -3
BITMAP
00
00
00
00
00
00
06
3E
9E
D6
76
06
66
66
3C
ENDCHAR
STARTCHAR GeTar
ENCODING 1404
SWIDTH 512 0
DWIDTH 8 0
BBX 8 15 0 -3
BITMAP
00
00
00
00
00
10
28
38
6C
D6
C6
C6
C6
6C
38
ENDCHAR
STARTCHAR GeUn
ENCODING 1405
SWIDTH 512 0
DWIDTH 8 0
BBX 8 15 0 -3
BITMAP
00
00
00
00
00
00
DC
F6
36
36
06
06
C6
C6
7C
ENDCHAR
STARTCHAR GePhar
ENCODING 1406
SWIDTH 512 0
DWIDTH 8 0
BBX 8 15 0 -3
BITMAP
00
00
00
00
00
00
6C
FE
92
92
F6
6C
06
66
3C
ENDCHAR
STARTCHAR GeKhar
ENCODING 1407
SWIDTH 512 0
DWIDTH 8 0
BBX 8 15 0 -3
BITMAP
00
00
02
06
06
06
06
1E
7E
46
06
06
C6
C6
7C
ENDCHAR
STARTCHAR GeGhan
ENCODING 1408
SWIDTH 512 0
DWIDTH 8 0
BBX 8 15 0 -3
BITMAP
00
00
00
00
00
00
6C
D6
D6
D6
C6
C4
70
CC
06
ENDCHAR
STARTCHAR GeQar
ENCODING 1409
SWIDTH 512 0
DWIDTH 8 0
BBX 8 15 0 -3
BITMAP
00
00
00
00
00
00
46
C6
C6
4E
3E
06
C6
C6
7C
ENDCHAR
STARTCHAR GeCan
ENCODING 1412
SWIDTH 512 0
DWIDTH 8 0
BBX 8 15 0 -3
BITMAP
00
00
00
00
00
00
68
CC
C6
C6
CC
C6
C6
C6
7C
ENDCHAR
STARTCHAR GeCil
ENCODING 1414
SWIDTH 512 0
DWIDTH 8 0
BBX 8 15 0 -3
BITMAP
00
00
6C
FE
D6
C4
C0
7E
66
64
34
34
38
18
18
ENDCHAR
STARTCHAR GeChar
ENCODING 1415
SWIDTH 512 0
DWIDTH 8 0
BBX 8 15 0 -3
BITMAP
00
00
30
30
18
0C
0C
6E
DC
6E
0C
0C
CC
CC
78
ENDCHAR
STARTCHAR GeWe
ENCODING 1421
SWIDTH 512 0
DWIDTH 8 0
BBX 8 15 0 -3
BITMAP
00
00
00
00
00
00
7E
46
0C
18
3C
06
C6
C6
7C
ENDCHAR
STARTCHAR GeHar
ENCODING 1422
SWIDTH 512 0
DWIDTH 8 0
BBX 8 15 0 -3
BITMAP
00
00
18
30
30
30
1E
06
0C
18
3C
06
C6
C6
7C
ENDCHAR
STARTCHAR GeFi
ENCODING 1424
SWIDTH 512 0
DWIDTH 8 0
BBX 8 15 0 -3
BITMAP
00
00
00
00
00
00
6C
FE
D6
D6
D6
5C
10
30
60
ENDCHAR
STARTCHAR GeYn
ENCODING 1425
SWIDTH 512 0
DWIDTH 8 0
BBX 8 15 0 -3
BITMAP
00
00
00
00
00
00
7C
C6
C6
0C
38
60
C6
C6
7C
ENDCHAR
STARTCHAR GeElifi
ENCODING 1426
SWIDTH 512 0
DWIDTH 8 0
BBX 8 15 0 -3
BITMAP
00
00
00
00
00
00
C4
C6
C6
E4
F8
C0
C6
C6
7C
ENDCHAR
STARTCHAR GeUo
ENCODING 1429
SWIDTH 512 0
DWIDTH 8 0
BBX 8 15 0 -3
BITMAP
00
00
00
00
00
00
76
DE
D8
D8
C0
C0
C6
C6
7C
ENDCHAR
STARTCHAR GeGanTrnd
ENCODING 1432
SWIDTH 512 0
DWIDTH 8 0
BBX 8 15 0 -3
BITMAP
00
00
00
00
00
00
7C
C6
C6
C6
C6
7C
30
32
1E
ENDCHAR
STARTCHAR GeUnDrss
ENCODING 1435
SWIDTH 512 0
DWIDTH 8 0
BBX 8 15 0 -3
BITMAP
00
00
00
6C
6C
00
DC
F6
36
36
06
06
C6
C6
7C
ENDCHAR
STARTCHAR GeUnCircum
ENCODING 1437
SWIDTH 512 0
DWIDTH 8 0
BBX 8 15 0 -3
BITMAP
00
00
30
78
48
00
DC
F6
36
36
06
06
C6
C6
7C
ENDCHAR
STARTCHAR GeEnMacron
ENCODING 1439
SWIDTH 512 0
DWIDTH 8 0
BBX 8 15 0 -3
BITMAP
00
00
00
3C
3C
00
3C
66
66
06
06
06
C6
C6
7C
ENDCHAR
STARTCHAR GeUnMacron
ENCODING 1442
SWIDTH 512 0
DWIDTH 8 0
BBX 8 15 0 -3
BITMAP
00
00
00
3C
3C
00
DC
F6
36
36
06
06
C6
C6
7C
ENDCHAR
STARTCHAR AmSmlEh
ENCODING 1489
SWIDTH 512 0
DWIDTH 8 0
BBX 8 15 0 -3
BITMAP
00
00
C0
C0
C0
C0
FC
C0
C0
C0
C0
78
0C
18
00
ENDCHAR
STARTCHAR AmSmlYi
ENCODING 1503
SWIDTH 512 0
DWIDTH 8 0
BBX 8 15 0 -3
BITMAP
00
00
00
00
00
00
70
30
30
30
30
30
30
B0
E0
ENDCHAR
STARTCHAR AmSmlSha
ENCODING 1505
SWIDTH 512 0
DWIDTH 8 0
BBX 8 15 0 -3
BITMAP
00
00
00
00
00
00
38
4C
0C
18
30
60
C0
E0
7C
ENDCHAR
STARTCHAR AmSmlCha
ENCODING 1507
SWIDTH 512 0
DWIDTH 8 0
BBX 8 15 0 -3
BITMAP
00
00
00
00
00
00
30
70
38
10
20
60
C0
E0
7C
ENDCHAR
STARTCHAR AmSmlJheh
ENCODING 1509
SWIDTH 512 0
DWIDTH 8 0
BBX 8 15 0 -3
BITMAP
00
00
30
78
9C
CC
CC
EC
68
70
20
60
C0
E0
7C
ENDCHAR
STARTCHAR AmSmlCo
ENCODING 1515
SWIDTH 512 0
DWIDTH 8 0
BBX 8 15 0 -3
BITMAP
00
00
00
00
00
00
7C
CC
CC
CC
CC
7C
0C
CC
78
ENDCHAR
STARTCHAR AmSmlKeh
ENCODING 1518
SWIDTH 512 0
DWIDTH 8 0
BBX 8 15 0 -3
BITMAP
00
00
00
00
00
00
F8
CC
CC
CC
CC
F8
C0
FC
C0
ENDCHAR
STARTCHAR GkCapIotTrndLbreve
ENCODING 1612
SWIDTH 512 0
DWIDTH 8 0
BBX 8 15 0 -3
BITMAP
00
00
7E
18
18
18
18
18
18
18
18
7E
00
66
3C
ENDCHAR
STARTCHAR GkCapUpsTrndLbreve
ENCODING 1613
SWIDTH 512 0
DWIDTH 8 0
BBX 8 15 0 -3
BITMAP
00
00
18
18
18
18
18
1C
2C
26
46
C2
00
66
3C
ENDCHAR
STARTCHAR GkSmlIotTrndLbreve
ENCODING 1614
SWIDTH 512 0
DWIDTH 8 0
BBX 8 15 0 -3
BITMAP
00
00
00
00
00
38
6C
0C
0C
0C
0C
0C
00
36
1C
ENDCHAR
STARTCHAR GkSmlUpsTrndLbreve
ENCODING 1615
SWIDTH 512 0
DWIDTH 8 0
BBX 8 15 0 -3
BITMAP
00
00
00
00
00
78
CC
8C
8C
CC
CE
46
00
66
3C
ENDCHAR
STARTCHAR ThYoYing
ENCODING 1917
SWIDTH 512 0
DWIDTH 8 0
BBX 8 15 0 -3
BITMAP
00
00
00
00
00
66
F6
D6
D6
D6
DE
CC
00
1A
0C
ENDCHAR
STARTCHAR ThDoChada
ENCODING 1919
SWIDTH 512 0
DWIDTH 8 0
BBX 8 15 0 -3
BITMAP
00
00
00
00
00
7C
C6
86
66
66
E6
E6
06
26
3C
ENDCHAR
STARTCHAR ThToPatak
ENCODING 1920
SWIDTH 512 0
DWIDTH 8 0
BBX 8 15 0 -3
BITMAP
00
00
00
00
00
7C
C6
86
66
66
E6
E6
06
56
7C
ENDCHAR
STARTCHAR ThThoThan
ENCODING 1921
SWIDTH 512 0
DWIDTH 8 0
BBX 8 15 0 -3
BITMAP
00
00
00
00
00
FE
FE
0C
36
36
0E
06
00
56
7C
ENDCHAR
STARTCHAR ThRu
ENCODING 1942
SWIDTH 512 0
DWIDTH 8 0
BBX 8 15 0 -3
BITMAP
00
00
00
00
00
7C
C6
86
66
66
76
76
06
06
06
ENDCHAR
STARTCHAR ThLu
ENCODING 1944
SWIDTH 512 0
DWIDTH 8 0
BBX 8 15 0 -3
BITMAP
00
00
00
00
00
7C
C6
86
66
66
E6
E6
06
06
06
ENDCHAR
STARTCHAR ThMaiyamok
ENCODING 1955
SWIDTH 512 0
DWIDTH 8 0
BBX 8 15 0 -3
BITMAP
00
00
00
00
00
6C
FE
96
C6
C6
06
06
06
06
0C
ENDCHAR
STARTCHAR ThLakkhangyao
ENCODING 1956
SWIDTH 512 0
DWIDTH 8 0
BBX 8 15 0 -3
BITMAP
00
00
00
00
00
3C
66
66
06
06
06
06
06
06
06
ENDCHAR
STARTCHAR ThSaraU
ENCODING 1978
SWIDTH 512 0
DWIDTH 8 0
BBX 8 15 0 -3
BITMAP
00
00
00
00
00
00
00
00
00
00
00
00
00
06
02
ENDCHAR
STARTCHAR ThSaraUu
ENCODING 1979
SWIDTH 512 0
DWIDTH 8 0
BBX 8 15 0 -3
BITMAP
00
00
00
00
00
00
00
00
00
00
00
00
00
1A
0E
ENDCHAR
STARTCHAR ThPhinthu
ENCODING 1980
SWIDTH 512 0
DWIDTH 8 0
BBX 8 15 0 -3
BITMAP
00
00
00
00
00
00
00
00
00
00
00
00
00
06
06
ENDCHAR
STARTCHAR ThSaraUD
ENCODING 1986
SWIDTH 512 0
DWIDTH 8 0
BBX 8 15 0 -3
BITMAP
00
00
00
00
00
00
00
00
00
00
00
00
00
06
02
ENDCHAR
STARTCHAR ThSaraUuD
ENCODING 1987
SWIDTH 512 0
DWIDTH 8 0
BBX 8 15 0 -3
BITMAP
00
00
00
00
00
00
00
00
00
00
00
00
00
1A
0E
ENDCHAR
STARTCHAR ThPhinthuD
ENCODING 1988
SWIDTH 512 0
DWIDTH 8 0
BBX 8 15 0 -3
BITMAP
00
00
00
00
00
00
00
00
00
00
00
00
00
06
06
ENDCHAR
STARTCHAR AccGraveAscii
ENCODING 2484
SWIDTH 512 0
DWIDTH 8 0
BBX 8 15 0 -3
BITMAP
00
30
30
30
18
08
00
00
00
00
00
00
00
00
00
ENDCHAR
STARTCHAR CombHbMeteg
ENCODING 2566
SWIDTH 512 0
DWIDTH 8 0
BBX 8 15 0 -3
BITMAP
00
00
00
00
00
00
00
00
00
00
00
00
10
10
10
ENDCHAR
STARTCHAR CombHbPatah
ENCODING 2567
SWIDTH 512 0
DWIDTH 8 0
BBX 8 15 0 -3
BITMAP
00
00
00
00
00
00
00
00
00
00
00
00
00
7C
00
ENDCHAR
STARTCHAR CombHbQamats
ENCODING 2568
SWIDTH 512 0
DWIDTH 8 0
BBX 8 15 0 -3
BITMAP
00
00
00
00
00
00
00
00
00
00
00
00
00
7E
18
ENDCHAR
STARTCHAR CombHbSegol
ENCODING 2569
SWIDTH 512 0
DWIDTH 8 0
BBX 8 15 0 -3
BITMAP
00
00
00
00
00
00
00
00
00
00
00
00
00
66
18
ENDCHAR
STARTCHAR CombHbHatafQamats
ENCODING 2573
SWIDTH 512 0
DWIDTH 8 0
BBX 8 15 0 -3
BITMAP
00
00
00
00
00
00
00
00
00
00
00
00
06
F0
66
ENDCHAR
STARTCHAR CombLdot
ENCODING 2631
SWIDTH 512 0
DWIDTH 8 0
BBX 8 15 0 -3
BITMAP
00
00
00
00
00
00
00
00
00
00
00
00
00
18
18
ENDCHAR
STARTCHAR CombLvline
ENCODING 2632
SWIDTH 512 0
DWIDTH 8 0
BBX 8 15 0 -3
BITMAP
00
00
00
00
00
00
00
00
00
00
00
00
18
18
18
ENDCHAR
STARTCHAR CombLdrss
ENCODING 2633
SWIDTH 512 0
DWIDTH 8 0
BBX 8 15 0 -3
BITMAP
00
00
00
00
00
00
00
00
00
00
00
00
00
6C
6C
ENDCHAR
STARTCHAR CombLvline2
ENCODING 2634
SWIDTH 512 0
DWIDTH 8 0
BBX 8 15 0 -3
BITMAP
00
00
00
00
00
00
00
00
00
00
00
00
6C
6C
6C
ENDCHAR
STARTCHAR CombLcircum
ENCODING 2637
SWIDTH 512 0
DWIDTH 8 0
BBX 8 15 0 -3
BITMAP
00
00
00
00
00
00
00
00
00
00
00
00
00
38
6C
ENDCHAR
STARTCHAR CombLcaron
ENCODING 2638
SWIDTH 512 0
DWIDTH 8 0
BBX 8 15 0 -3
BITMAP
00
00
00
00
00
00
00
00
00
00
00
00
00
6C
38
ENDCHAR
STARTCHAR CombLbreve
ENCODING 2639
SWIDTH 512 0
DWIDTH 8 0
BBX 8 15 0 -3
BITMAP
00
00
00
00
00
00
00
00
00
00
00
00
00
66
3C
ENDCHAR
STARTCHAR CombLinvbreve
ENCODING 2640
SWIDTH 512 0
DWIDTH 8 0
BBX 8 15 0 -3
BITMAP
00
00
00
00
00
00
00
00
00
00
00
00
00
3C
66
ENDCHAR
STARTCHAR CombLmacron
ENCODING 2641
SWIDTH 512 0
DWIDTH 8 0
BBX 8 15 0 -3
BITMAP
00
00
00
00
00
00
00
00
00
00
00
00
00
7C
7C
ENDCHAR
STARTCHAR CombLtilde
ENCODING 2644
SWIDTH 512 0
DWIDTH 8 0
BBX 8 15 0 -3
BITMAP
00
00
00
00
00
00
00
00
00
00
00
00
00
36
5C
ENDCHAR
STARTCHAR PApostropheAscii
ENCODING 2681
SWIDTH 512 0
DWIDTH 8 0
BBX 8 15 0 -3
BITMAP
00
18
18
18
30
20
00
00
00
00
00
00
00
00
00
ENDCHAR
STARTCHAR PComma
ENCODING 2711
SWIDTH 512 0
DWIDTH 8 0
BBX 8 15 0 -3
BITMAP
00
00
00
00
00
00
00
00
00
18
18
18
30
20
00
ENDCHAR
STARTCHAR PSemicolon
ENCODING 2712
SWIDTH 512 0
DWIDTH 8 0
BBX 8 15 0 -3
BITMAP
00
00
00
00
00
18
18
18
00
18
18
18
30
20
00
ENDCHAR
STARTCHAR MArrowU
ENCODING 2955
SWIDTH 512 0
DWIDTH 8 0
BBX 8 15 0 -3
BITMAP
00
18
3C
7E
18
18
18
18
18
18
18
18
18
18
00
ENDCHAR
STARTCHAR MArrowD
ENCODING 2956
SWIDTH 512 0
DWIDTH 8 0
BBX 8 15 0 -3
BITMAP
00
18
18
18
18
18
18
18
18
18
18
7E
3C
18
00
ENDCHAR
STARTCHAR MArrowUD
ENCODING 2959
SWIDTH 512 0
DWIDTH 8 0
BBX 8 15 0 -3
BITMAP
00
18
3C
7E
18
18
18
18
18
18
18
7E
3C
18
00
ENDCHAR
STARTCHAR MArrowUDBase
ENCODING 2960
SWIDTH 512 0
DWIDTH 8 0
BBX 8 15 0 -3
BITMAP
00
18
3C
7E
18
18
18
18
18
7E
3C
18
7E
7E
00
ENDCHAR
STARTCHAR MArrowULeftD
ENCODING 2962
SWIDTH 512 0
DWIDTH 8 0
BBX 8 15 0 -3
BITMAP
00
66
F6
FE
66
66
66
66
66
66
66
7F
6F
66
00
ENDCHAR
STARTCHAR MArrowULeftU
ENCODING 2966
SWIDTH 512 0
DWIDTH 8 0
BBX 8 15 0 -3
BITMAP
00
66
FF
FF
66
66
66
66
66
66
66
66
66
66
00
ENDCHAR
STARTCHAR MArrowDLeftD
ENCODING 2967
SWIDTH 512 0
DWIDTH 8 0
BBX 8 15 0 -3
BITMAP
00
66
66
66
66
66
66
66
66
66
66
FF
FF
66
00
ENDCHAR
STARTCHAR MArrowUu
ENCODING 2970
SWIDTH 512 0
DWIDTH 8 0
BBX 8 15 0 -3
BITMAP
00
18
3C
7E
18
3C
7E
18
18
18
18
18
18
18
00
ENDCHAR
STARTCHAR MArrowDd
ENCODING 2971
SWIDTH 512 0
DWIDTH 8 0
BBX 8 15 0 -3
BITMAP
00
18
18
18
18
18
18
18
7E
3C
18
7E
3C
18
00
ENDCHAR
STARTCHAR MArrowBarU
ENCODING 2972
SWIDTH 512 0
DWIDTH 8 0
BBX 8 15 0 -3
BITMAP
00
18
3C
7E
18
18
18
18
18
18
18
18
7E
7E
00
ENDCHAR
STARTCHAR MArrowBarD
ENCODING 2973
SWIDTH 512 0
DWIDTH 8 0
BBX 8 15 0 -3
BITMAP
00
7E
7E
18
18
18
18
18
18
18
18
7E
3C
18
00
ENDCHAR
STARTCHAR MArrowLU
ENCODING 2978
SWIDTH 512 0
DWIDTH 8 0
BBX 8 15 0 -3
BITMAP
00
C0
E0
F0
E0
B0
30
18
18
0C
0C
06
06
02
00
ENDCHAR
STARTCHAR MArrowRU
ENCODING 2979
SWIDTH 512 0
DWIDTH 8 0
BBX 8 15 0 -3
BITMAP
00
06
0E
1E
0E
1A
18
30
30
60
60
C0
C0
80
00
ENDCHAR
STARTCHAR MArrowLD
ENCODING 2980
SWIDTH 512 0
DWIDTH 8 0
BBX 8 15 0 -3
BITMAP
00
02
06
06
0C
0C
18
18
30
B0
E0
F0
E0
C0
00
ENDCHAR
STARTCHAR MArrowRD
ENCODING 2981
SWIDTH 512 0
DWIDTH 8 0
BBX 8 15 0 -3
BITMAP
00
80
C0
C0
60
60
30
30
18
1A
0E
1E
0E
06
00
ENDCHAR
STARTCHAR MArrow2U
ENCODING 2998
SWIDTH 512 0
DWIDTH 8 0
BBX 8 15 0 -3
BITMAP
00
10
38
7C
EE
6C
6C
6C
6C
6C
6C
6C
6C
6C
00
ENDCHAR
STARTCHAR MArrow2D
ENCODING 2999
SWIDTH 512 0
DWIDTH 8 0
BBX 8 15 0 -3
BITMAP
00
6C
6C
6C
6C
6C
6C
6C
6C
6C
EE
7C
38
10
00
ENDCHAR
STARTCHAR MArrow2UD
ENCODING 3000
SWIDTH 512 0
DWIDTH 8 0
BBX 8 15 0 -3
BITMAP
00
10
38
7C
EE
6C
6C
6C
6C
6C
EE
7C
38
10
00
ENDCHAR
STARTCHAR MHarpoonUl
ENCODING 3021
SWIDTH 512 0
DWIDTH 8 0
BBX 8 15 0 -3
BITMAP
00
18
38
78
18
18
18
18
18
18
18
18
18
18
00
ENDCHAR
STARTCHAR MHarpoonUr
ENCODING 3022
SWIDTH 512 0
DWIDTH 8 0
BBX 8 15 0 -3
BITMAP
00
18
1C
1E
18
18
18
18
18
18
18
18
18
18
00
ENDCHAR
STARTCHAR MHarpoonDl
ENCODING 3023
SWIDTH 512 0
DWIDTH 8 0
BBX 8 15 0 -3
BITMAP
00
18
18
18
18
18
18
18
18
18
18
78
38
18
00
ENDCHAR
STARTCHAR MHarpoonDr
ENCODING 3024
SWIDTH 512 0
DWIDTH 8 0
BBX 8 15 0 -3
BITMAP
00
18
18
18
18
18
18
18
18
18
18
1E
1C
18
00
ENDCHAR
STARTCHAR PCurlyBrackLTRB
ENCODING 3154
SWIDTH 512 0
DWIDTH 8 0
BBX 8 15 0 -3
BITMAP
06
0C
18
18
18
18
18
18
18
18
18
18
18
30
60
ENDCHAR
STARTCHAR PCurlyBrackLBRT
ENCODING 3155
SWIDTH 512 0
DWIDTH 8 0
BBX 8 15 0 -3
BITMAP
60
30
18
18
18
18
18
18
18
18
18
18
18
0C
06
ENDCHAR
STARTCHAR MSumT
ENCODING 3156
SWIDTH 512 0
DWIDTH 8 0
BBX 8 15 0 -3
BITMAP
00
FE
C2
C2
C0
60
60
60
30
30
30
30
18
18
18
ENDCHAR
STARTCHAR MRootB
ENCODING 3158
SWIDTH 512 0
DWIDTH 8 0
BBX 8 15 0 -3
BITMAP
18
18
18
18
18
18
D8
D8
58
78
38
38
38
18
18
ENDCHAR
ENDFONT
