STARTFONT 2.1
COMMENT 
COMMENT Copyright (C) 2012-2025 Uwe Waldmann
COMMENT 
COMMENT Permission is hereby granted, free of charge, to any person obtaining
COMMENT a copy of this font software and associated files (the "Software"),
COMMENT to deal in the Software without restriction, including without
COMMENT limitation the rights to use, copy, modify, merge, publish,
COMMENT distribute, embed, sublicense, and/or sell copies of the Software,
COMMENT and to permit persons to whom the Software is furnished to do so,
COMMENT subject to the following conditions:
COMMENT 
COMMENT (1) The above copyright notice, this permission notice, and the
COMMENT     disclaimer below shall be included in all copies or substantial
COMMENT     portions of the Software.
COMMENT 
COMMENT (2) If the design of any glyphs in the fonts that are contained in the
COMMENT     Software or generated during the installation process is modified
COMMENT     or if additional glyphs are added to the fonts, the fonts
COMMENT     must be renamed. The new names may not contain the word "UW",
COMMENT     irrespective of capitalisation; the new names may contain the word
COMMENT     "ttyp0", irrespective of capitalisation, only if preceded by a
COMMENT     foundry name different from "UW".
COMMENT 
COMMENT THE SOFTWARE IS PROVIDED "AS IS", WITHOUT WARRANTY OF ANY KIND, EXPRESS
COMMENT OR IMPLIED, INCLUDING BUT NOT LIMITED TO THE WARRANTIES OF
COMMENT MERCHANTABILITY, FITNESS FOR A PARTICULAR PURPOSE AND NONINFRINGEMENT.
COMMENT IN NO EVENT SHALL THE AUTHORS OR COPYRIGHT HOLDERS BE LIABLE FOR ANY
COMMENT CLAIM, DAMAGES OR OTHER LIABILITY, WHETHER IN AN ACTION OF CONTRACT,
COMMENT TORT OR OTHERWISE, ARISING FROM, OUT OF OR IN CONNECTION WITH THE
COMMENT SOFTWARE OR THE USE OR OTHER DEALINGS IN THE SOFTWARE.
COMMENT 
FONT -UW-Ttyp0-Medium-R-Normal--17-160-75-75-C-90-UW-Fontspecific
SIZE 17 75 75
FONTBOUNDINGBOX 9 17 0 -3
STARTPROPERTIES 20
FONTNAME_REGISTRY ""
FOUNDRY "UW"
FAMILY_NAME "Ttyp0"
WEIGHT_NAME "Medium"
SLANT "R"
SETWIDTH_NAME "Normal"
ADD_STYLE_NAME ""
PIXEL_SIZE 17
POINT_SIZE 160
RESOLUTION_X 75
RESOLUTION_Y 75
SPACING "C"
AVERAGE_WIDTH 90
CHARSET_REGISTRY "UW"
CHARSET_ENCODING "Fontspecific"
DEFAULT_CHAR 0
FONT_DESCENT 3
FONT_ASCENT 14
COPYRIGHT "Copyright (C) 2012-2025 Uwe Waldmann"
_GBDFED_INFO "Edited with gbdfed 1.6."
ENDPROPERTIES
CHARS 241
STARTCHAR LtCapALdot
ENCODING 780
SWIDTH 508 0
DWIDTH 9 0
BBX 9 17 0 -3
BITMAP
0000
0000
0000
0800
0800
0800
1400
1400
2200
2200
3E00
4100
4100
4100
0000
0800
0800
ENDCHAR
STARTCHAR LtCapBLdot
ENCODING 781
SWIDTH 508 0
DWIDTH 9 0
BBX 9 17 0 -3
BITMAP
0000
0000
0000
7C00
4200
4200
4200
4400
7C00
4200
4200
4200
4200
7C00
0000
1000
1000
ENDCHAR
STARTCHAR LtCapCLdot
ENCODING 782
SWIDTH 508 0
DWIDTH 9 0
BBX 9 17 0 -3
BITMAP
0000
0000
0000
1C00
2200
4000
4000
4000
4000
4000
4000
4000
2200
1C00
0000
0800
0800
ENDCHAR
STARTCHAR LtCapDLdot
ENCODING 783
SWIDTH 508 0
DWIDTH 9 0
BBX 9 17 0 -3
BITMAP
0000
0000
0000
7800
4400
4200
4200
4200
4200
4200
4200
4200
4400
7800
0000
1000
1000
ENDCHAR
STARTCHAR LtCapELdot
ENCODING 784
SWIDTH 508 0
DWIDTH 9 0
BBX 9 17 0 -3
BITMAP
0000
0000
0000
7E00
4000
4000
4000
4000
7800
4000
4000
4000
4000
7E00
0000
1000
1000
ENDCHAR
STARTCHAR LtCapHLdot
ENCODING 785
SWIDTH 508 0
DWIDTH 9 0
BBX 9 17 0 -3
BITMAP
0000
0000
0000
4200
4200
4200
4200
4200
7E00
4200
4200
4200
4200
4200
0000
1000
1000
ENDCHAR
STARTCHAR LtCapILdot
ENCODING 786
SWIDTH 508 0
DWIDTH 9 0
BBX 9 17 0 -3
BITMAP
0000
0000
0000
3E00
0800
0800
0800
0800
0800
0800
0800
0800
0800
3E00
0000
0800
0800
ENDCHAR
STARTCHAR LtCapKLdot
ENCODING 787
SWIDTH 508 0
DWIDTH 9 0
BBX 9 17 0 -3
BITMAP
0000
0000
0000
4200
4200
4400
4400
4800
5000
6800
4400
4400
4200
4200
0000
1000
1000
ENDCHAR
STARTCHAR LtCapLLdot
ENCODING 788
SWIDTH 508 0
DWIDTH 9 0
BBX 9 17 0 -3
BITMAP
0000
0000
0000
4000
4000
4000
4000
4000
4000
4000
4000
4000
4000
7E00
0000
1000
1000
ENDCHAR
STARTCHAR LtCapMLdot
ENCODING 789
SWIDTH 508 0
DWIDTH 9 0
BBX 9 17 0 -3
BITMAP
0000
0000
0000
4100
4100
6300
6300
5500
5500
4900
4900
4100
4100
4100
0000
0800
0800
ENDCHAR
STARTCHAR LtCapNLdot
ENCODING 790
SWIDTH 508 0
DWIDTH 9 0
BBX 9 17 0 -3
BITMAP
0000
0000
0000
4200
4200
6200
6200
5200
4A00
4A00
4600
4600
4200
4200
0000
1000
1000
ENDCHAR
STARTCHAR LtCapOLdot
ENCODING 791
SWIDTH 508 0
DWIDTH 9 0
BBX 9 17 0 -3
BITMAP
0000
0000
0000
3C00
4200
4200
4200
4200
4200
4200
4200
4200
4200
3C00
0000
0800
0800
ENDCHAR
STARTCHAR LtCapPLdot
ENCODING 792
SWIDTH 508 0
DWIDTH 9 0
BBX 9 17 0 -3
BITMAP
0000
0000
0000
7C00
4200
4200
4200
4200
7C00
4000
4000
4000
4000
4000
0000
4000
4000
ENDCHAR
STARTCHAR LtCapQLdot
ENCODING 793
SWIDTH 508 0
DWIDTH 9 0
BBX 9 17 0 -3
BITMAP
0000
0000
0000
3C00
4200
4200
4200
4200
4200
4200
4A00
4A00
4600
3E00
0100
0800
0800
ENDCHAR
STARTCHAR LtCapRLdot
ENCODING 794
SWIDTH 508 0
DWIDTH 9 0
BBX 9 17 0 -3
BITMAP
0000
0000
0000
7C00
4200
4200
4200
4200
7C00
4800
4400
4400
4200
4200
0000
1000
1000
ENDCHAR
STARTCHAR LtCapSLdot
ENCODING 795
SWIDTH 508 0
DWIDTH 9 0
BBX 9 17 0 -3
BITMAP
0000
0000
0000
3C00
4200
4000
4000
2000
1800
0400
0200
0200
4200
3C00
0000
1000
1000
ENDCHAR
STARTCHAR LtCapTLdot
ENCODING 796
SWIDTH 508 0
DWIDTH 9 0
BBX 9 17 0 -3
BITMAP
0000
0000
0000
7F00
0800
0800
0800
0800
0800
0800
0800
0800
0800
0800
0000
0800
0800
ENDCHAR
STARTCHAR LtCapULdot
ENCODING 797
SWIDTH 508 0
DWIDTH 9 0
BBX 9 17 0 -3
BITMAP
0000
0000
0000
4200
4200
4200
4200
4200
4200
4200
4200
4200
4200
3C00
0000
0800
0800
ENDCHAR
STARTCHAR LtCapVLdot
ENCODING 798
SWIDTH 508 0
DWIDTH 9 0
BBX 9 17 0 -3
BITMAP
0000
0000
0000
4100
4100
4100
2200
2200
2200
1400
1400
0800
0800
0800
0000
0800
0800
ENDCHAR
STARTCHAR LtCapWLdot
ENCODING 799
SWIDTH 508 0
DWIDTH 9 0
BBX 9 17 0 -3
BITMAP
0000
0000
0000
4100
4100
4100
4900
4900
4900
5500
5500
2200
2200
2200
0000
0800
0800
ENDCHAR
STARTCHAR LtCapYLdot
ENCODING 800
SWIDTH 508 0
DWIDTH 9 0
BBX 9 17 0 -3
BITMAP
0000
0000
0000
4100
4100
2200
2200
1400
1400
0800
0800
0800
0800
0800
0000
0800
0800
ENDCHAR
STARTCHAR LtCapZLdot
ENCODING 801
SWIDTH 508 0
DWIDTH 9 0
BBX 9 17 0 -3
BITMAP
0000
0000
0000
7E00
0200
0400
0400
0800
1000
1000
2000
4000
4000
7E00
0000
1000
1000
ENDCHAR
STARTCHAR LtSmlALdot
ENCODING 802
SWIDTH 508 0
DWIDTH 9 0
BBX 9 17 0 -3
BITMAP
0000
0000
0000
0000
0000
0000
3C00
0200
0200
3E00
4200
4200
4600
3A00
0000
0800
0800
ENDCHAR
STARTCHAR LtSmlBLdot
ENCODING 803
SWIDTH 508 0
DWIDTH 9 0
BBX 9 17 0 -3
BITMAP
0000
0000
0000
4000
4000
4000
5C00
6200
4200
4200
4200
4200
6200
5C00
0000
1000
1000
ENDCHAR
STARTCHAR LtSmlCLdot
ENCODING 804
SWIDTH 508 0
DWIDTH 9 0
BBX 9 17 0 -3
BITMAP
0000
0000
0000
0000
0000
0000
1C00
2200
4000
4000
4000
4000
2200
1C00
0000
0800
0800
ENDCHAR
STARTCHAR LtSmlDLdot
ENCODING 805
SWIDTH 508 0
DWIDTH 9 0
BBX 9 17 0 -3
BITMAP
0000
0000
0000
0200
0200
0200
3A00
4600
4200
4200
4200
4200
4600
3A00
0000
0800
0800
ENDCHAR
STARTCHAR LtSmlELdot
ENCODING 806
SWIDTH 508 0
DWIDTH 9 0
BBX 9 17 0 -3
BITMAP
0000
0000
0000
0000
0000
0000
1C00
2200
4200
7E00
4000
4000
2200
1C00
0000
0800
0800
ENDCHAR
STARTCHAR LtSmlHLdot
ENCODING 807
SWIDTH 508 0
DWIDTH 9 0
BBX 9 17 0 -3
BITMAP
0000
0000
0000
4000
4000
4000
5C00
6200
4200
4200
4200
4200
4200
4200
0000
1000
1000
ENDCHAR
STARTCHAR LtSmlILdot
ENCODING 808
SWIDTH 508 0
DWIDTH 9 0
BBX 9 17 0 -3
BITMAP
0000
0000
0800
0800
0000
0000
1800
0800
0800
0800
0800
0800
0800
3E00
0000
0800
0800
ENDCHAR
STARTCHAR LtSmlKLdot
ENCODING 809
SWIDTH 508 0
DWIDTH 9 0
BBX 9 17 0 -3
BITMAP
0000
0000
0000
4000
4000
4000
4200
4400
4800
5000
7000
4800
4400
4200
0000
1000
1000
ENDCHAR
STARTCHAR LtSmlLLdot
ENCODING 810
SWIDTH 508 0
DWIDTH 9 0
BBX 9 17 0 -3
BITMAP
0000
0000
0000
1800
0800
0800
0800
0800
0800
0800
0800
0800
0800
3E00
0000
0800
0800
ENDCHAR
STARTCHAR LtSmlMLdot
ENCODING 811
SWIDTH 508 0
DWIDTH 9 0
BBX 9 17 0 -3
BITMAP
0000
0000
0000
0000
0000
0000
7600
4900
4900
4900
4900
4900
4900
4900
0000
0800
0800
ENDCHAR
STARTCHAR LtSmlNLdot
ENCODING 812
SWIDTH 508 0
DWIDTH 9 0
BBX 9 17 0 -3
BITMAP
0000
0000
0000
0000
0000
0000
5C00
6200
4200
4200
4200
4200
4200
4200
0000
1000
1000
ENDCHAR
STARTCHAR LtSmlOLdot
ENCODING 813
SWIDTH 508 0
DWIDTH 9 0
BBX 9 17 0 -3
BITMAP
0000
0000
0000
0000
0000
0000
3C00
4200
4200
4200
4200
4200
4200
3C00
0000
0800
0800
ENDCHAR
STARTCHAR LtSmlPLdot
ENCODING 814
SWIDTH 508 0
DWIDTH 9 0
BBX 9 17 0 -3
BITMAP
0000
0000
0000
0000
0000
0000
5C00
6200
4200
4200
4200
4200
6200
5C00
4000
4800
4800
ENDCHAR
STARTCHAR LtSmlQLdot
ENCODING 815
SWIDTH 508 0
DWIDTH 9 0
BBX 9 17 0 -3
BITMAP
0000
0000
0000
0000
0000
0000
3A00
4600
4200
4200
4200
4200
4600
3A00
0200
1200
1200
ENDCHAR
STARTCHAR LtSmlRLdot
ENCODING 816
SWIDTH 508 0
DWIDTH 9 0
BBX 9 17 0 -3
BITMAP
0000
0000
0000
0000
0000
0000
6E00
3200
2000
2000
2000
2000
2000
2000
0000
2000
2000
ENDCHAR
STARTCHAR LtSmlSLdot
ENCODING 817
SWIDTH 508 0
DWIDTH 9 0
BBX 9 17 0 -3
BITMAP
0000
0000
0000
0000
0000
0000
3C00
4200
4000
3000
0C00
0200
4200
3C00
0000
1000
1000
ENDCHAR
STARTCHAR LtSmlTLdot
ENCODING 818
SWIDTH 508 0
DWIDTH 9 0
BBX 9 17 0 -3
BITMAP
0000
0000
0000
0000
1000
1000
7C00
1000
1000
1000
1000
1000
1200
0C00
0000
0800
0800
ENDCHAR
STARTCHAR LtSmlULdot
ENCODING 819
SWIDTH 508 0
DWIDTH 9 0
BBX 9 17 0 -3
BITMAP
0000
0000
0000
0000
0000
0000
4200
4200
4200
4200
4200
4200
4600
3A00
0000
0800
0800
ENDCHAR
STARTCHAR LtSmlVLdot
ENCODING 820
SWIDTH 508 0
DWIDTH 9 0
BBX 9 17 0 -3
BITMAP
0000
0000
0000
0000
0000
0000
4100
4100
2200
2200
1400
1400
0800
0800
0000
0800
0800
ENDCHAR
STARTCHAR LtSmlWLdot
ENCODING 821
SWIDTH 508 0
DWIDTH 9 0
BBX 9 17 0 -3
BITMAP
0000
0000
0000
0000
0000
0000
4100
4100
4900
4900
4900
3600
2200
2200
0000
0800
0800
ENDCHAR
STARTCHAR LtSmlYLdot
ENCODING 822
SWIDTH 508 0
DWIDTH 9 0
BBX 9 17 0 -3
BITMAP
0000
0000
0000
0000
0000
0000
4200
4200
4200
2400
2400
1400
1800
0800
1000
5400
2400
ENDCHAR
STARTCHAR LtSmlZLdot
ENCODING 823
SWIDTH 508 0
DWIDTH 9 0
BBX 9 17 0 -3
BITMAP
0000
0000
0000
0000
0000
0000
7E00
0200
0400
0800
1000
2000
4000
7E00
0000
1000
1000
ENDCHAR
STARTCHAR LtCapOHornLdot
ENCODING 824
SWIDTH 508 0
DWIDTH 9 0
BBX 9 17 0 -3
BITMAP
0000
0180
0080
3D00
4200
4200
4200
4200
4200
4200
4200
4200
4200
3C00
0000
0800
0800
ENDCHAR
STARTCHAR LtCapUHornLdot
ENCODING 825
SWIDTH 508 0
DWIDTH 9 0
BBX 9 17 0 -3
BITMAP
0000
0180
0080
4300
4200
4200
4200
4200
4200
4200
4200
4200
4200
3C00
0000
0800
0800
ENDCHAR
STARTCHAR LtSmlOHornLdot
ENCODING 826
SWIDTH 508 0
DWIDTH 9 0
BBX 9 17 0 -3
BITMAP
0000
0000
0000
0000
0300
0100
3E00
4200
4200
4200
4200
4200
4200
3C00
0000
0800
0800
ENDCHAR
STARTCHAR LtSmlUHornLdot
ENCODING 827
SWIDTH 508 0
DWIDTH 9 0
BBX 9 17 0 -3
BITMAP
0000
0000
0000
0000
0300
0100
4200
4200
4200
4200
4200
4200
4600
3A00
0000
0800
0800
ENDCHAR
STARTCHAR LtCapSDotLdot
ENCODING 828
SWIDTH 508 0
DWIDTH 9 0
BBX 9 17 0 -3
BITMAP
0800
0800
0000
3C00
4200
4000
4000
2000
1800
0400
0200
0200
4200
3C00
0000
1000
1000
ENDCHAR
STARTCHAR LtSmlSDotLdot
ENCODING 829
SWIDTH 508 0
DWIDTH 9 0
BBX 9 17 0 -3
BITMAP
0000
0000
0800
0800
0000
0000
3C00
4200
4000
3000
0C00
0200
4200
3C00
0000
0800
0800
ENDCHAR
STARTCHAR LtCapLMacronLdot
ENCODING 830
SWIDTH 508 0
DWIDTH 9 0
BBX 9 17 0 -3
BITMAP
3C00
0000
0000
4000
4000
4000
4000
4000
4000
4000
4000
4000
4000
7E00
0000
1000
1000
ENDCHAR
STARTCHAR LtCapRMacronLdot
ENCODING 831
SWIDTH 508 0
DWIDTH 9 0
BBX 9 17 0 -3
BITMAP
3C00
0000
0000
7C00
4200
4200
4200
4200
7C00
4800
4400
4400
4200
4200
0000
1000
1000
ENDCHAR
STARTCHAR LtSmlLMacronLdot
ENCODING 832
SWIDTH 508 0
DWIDTH 9 0
BBX 9 17 0 -3
BITMAP
3E00
0000
0000
1800
0800
0800
0800
0800
0800
0800
0800
0800
0800
3E00
0000
0800
0800
ENDCHAR
STARTCHAR LtSmlRMacronLdot
ENCODING 833
SWIDTH 508 0
DWIDTH 9 0
BBX 9 17 0 -3
BITMAP
0000
0000
0000
3C00
0000
0000
6E00
3200
2000
2000
2000
2000
2000
2000
0000
2000
2000
ENDCHAR
STARTCHAR LtCapEAcuteLdot
ENCODING 834
SWIDTH 508 0
DWIDTH 9 0
BBX 9 17 0 -3
BITMAP
0400
1800
0000
7E00
4000
4000
4000
4000
7800
4000
4000
4000
4000
7E00
0000
1000
1000
ENDCHAR
STARTCHAR LtCapOAcuteLdot
ENCODING 835
SWIDTH 508 0
DWIDTH 9 0
BBX 9 17 0 -3
BITMAP
0400
1800
0000
3C00
4200
4200
4200
4200
4200
4200
4200
4200
4200
3C00
0000
0800
0800
ENDCHAR
STARTCHAR LtCapRAcuteLdot
ENCODING 836
SWIDTH 508 0
DWIDTH 9 0
BBX 9 17 0 -3
BITMAP
0400
1800
0000
7C00
4200
4200
4200
4200
7C00
4800
4400
4400
4200
4200
0000
1000
1000
ENDCHAR
STARTCHAR LtSmlEAcuteLdot
ENCODING 837
SWIDTH 508 0
DWIDTH 9 0
BBX 9 17 0 -3
BITMAP
0000
0000
0400
0400
0800
0000
1C00
2200
4200
7E00
4000
4000
2200
1C00
0000
0800
0800
ENDCHAR
STARTCHAR LtSmlOAcuteLdot
ENCODING 838
SWIDTH 508 0
DWIDTH 9 0
BBX 9 17 0 -3
BITMAP
0000
0000
0800
0800
1000
0000
3C00
4200
4200
4200
4200
4200
4200
3C00
0000
0800
0800
ENDCHAR
STARTCHAR LtSmlRAcuteLdot
ENCODING 839
SWIDTH 508 0
DWIDTH 9 0
BBX 9 17 0 -3
BITMAP
0000
0000
0800
0800
1000
0000
6E00
3200
2000
2000
2000
2000
2000
2000
0000
2000
2000
ENDCHAR
STARTCHAR LtSmlRMacronAcuteLdot
ENCODING 840
SWIDTH 508 0
DWIDTH 9 0
BBX 9 17 0 -3
BITMAP
0800
0800
1000
0000
3C00
0000
6E00
3200
2000
2000
2000
2000
2000
2000
0000
2000
2000
ENDCHAR
STARTCHAR LtCapEGraveLdot
ENCODING 841
SWIDTH 508 0
DWIDTH 9 0
BBX 9 17 0 -3
BITMAP
2000
1800
0000
7E00
4000
4000
4000
4000
7800
4000
4000
4000
4000
7E00
0000
1000
1000
ENDCHAR
STARTCHAR LtCapOGraveLdot
ENCODING 842
SWIDTH 508 0
DWIDTH 9 0
BBX 9 17 0 -3
BITMAP
2000
1800
0000
3C00
4200
4200
4200
4200
4200
4200
4200
4200
4200
3C00
0000
0800
0800
ENDCHAR
STARTCHAR LtCapRGraveLdot
ENCODING 843
SWIDTH 508 0
DWIDTH 9 0
BBX 9 17 0 -3
BITMAP
2000
1800
0000
7C00
4200
4200
4200
4200
7C00
4800
4400
4400
4200
4200
0000
1000
1000
ENDCHAR
STARTCHAR LtSmlEGraveLdot
ENCODING 844
SWIDTH 508 0
DWIDTH 9 0
BBX 9 17 0 -3
BITMAP
0000
0000
1000
1000
0800
0000
1C00
2200
4200
7E00
4000
4000
2200
1C00
0000
0800
0800
ENDCHAR
STARTCHAR LtSmlOGraveLdot
ENCODING 845
SWIDTH 508 0
DWIDTH 9 0
BBX 9 17 0 -3
BITMAP
0000
0000
1000
1000
0800
0000
3C00
4200
4200
4200
4200
4200
4200
3C00
0000
0800
0800
ENDCHAR
STARTCHAR LtSmlRGraveLdot
ENCODING 846
SWIDTH 508 0
DWIDTH 9 0
BBX 9 17 0 -3
BITMAP
0000
0000
1000
1000
0800
0000
6E00
3200
2000
2000
2000
2000
2000
2000
0000
2000
2000
ENDCHAR
STARTCHAR LtCapACircumLdot
ENCODING 847
SWIDTH 508 0
DWIDTH 9 0
BBX 9 17 0 -3
BITMAP
0C00
1200
0000
0800
0800
0800
1400
1400
2200
2200
3E00
4100
4100
4100
0000
0800
0800
ENDCHAR
STARTCHAR LtCapECircumLdot
ENCODING 848
SWIDTH 508 0
DWIDTH 9 0
BBX 9 17 0 -3
BITMAP
1800
2400
0000
7E00
4000
4000
4000
4000
7800
4000
4000
4000
4000
7E00
0000
1000
1000
ENDCHAR
STARTCHAR LtCapOCircumLdot
ENCODING 849
SWIDTH 508 0
DWIDTH 9 0
BBX 9 17 0 -3
BITMAP
1800
2400
0000
3C00
4200
4200
4200
4200
4200
4200
4200
4200
4200
3C00
0000
0800
0800
ENDCHAR
STARTCHAR LtSmlACircumLdot
ENCODING 850
SWIDTH 508 0
DWIDTH 9 0
BBX 9 17 0 -3
BITMAP
0000
0000
0000
1800
2400
0000
3C00
0200
0200
3E00
4200
4200
4600
3A00
0000
0800
0800
ENDCHAR
STARTCHAR LtSmlECircumLdot
ENCODING 851
SWIDTH 508 0
DWIDTH 9 0
BBX 9 17 0 -3
BITMAP
0000
0000
0000
0C00
1200
0000
1C00
2200
4200
7E00
4000
4000
2200
1C00
0000
0800
0800
ENDCHAR
STARTCHAR LtSmlOCircumLdot
ENCODING 852
SWIDTH 508 0
DWIDTH 9 0
BBX 9 17 0 -3
BITMAP
0000
0000
0000
1800
2400
0000
3C00
4200
4200
4200
4200
4200
4200
3C00
0000
0800
0800
ENDCHAR
STARTCHAR LtCapCCaronLdot
ENCODING 853
SWIDTH 508 0
DWIDTH 9 0
BBX 9 17 0 -3
BITMAP
1200
0C00
0000
1C00
2200
4000
4000
4000
4000
4000
4000
4000
2200
1C00
0000
0800
0800
ENDCHAR
STARTCHAR LtSmlCCaronLdot
ENCODING 854
SWIDTH 508 0
DWIDTH 9 0
BBX 9 17 0 -3
BITMAP
0000
0000
0000
1200
0C00
0000
1C00
2200
4000
4000
4000
4000
2200
1C00
0000
0800
0800
ENDCHAR
STARTCHAR LtCapABreveLdot
ENCODING 855
SWIDTH 508 0
DWIDTH 9 0
BBX 9 17 0 -3
BITMAP
2200
1C00
0000
0800
0800
0800
1400
1400
2200
2200
3E00
4100
4100
4100
0000
0800
0800
ENDCHAR
STARTCHAR LtSmlABreveLdot
ENCODING 856
SWIDTH 508 0
DWIDTH 9 0
BBX 9 17 0 -3
BITMAP
0000
0000
0000
2200
1C00
0000
3C00
0200
0200
3E00
4200
4200
4600
3A00
0000
0800
0800
ENDCHAR
STARTCHAR LtSmlRLvline
ENCODING 860
SWIDTH 508 0
DWIDTH 9 0
BBX 9 17 0 -3
BITMAP
0000
0000
0000
0000
0000
0000
6E00
3200
2000
2000
2000
2000
2000
2000
1000
1000
1000
ENDCHAR
STARTCHAR LtCapALring
ENCODING 862
SWIDTH 508 0
DWIDTH 9 0
BBX 9 17 0 -3
BITMAP
0000
0000
0000
0800
0800
0800
1400
1400
2200
2200
3E00
4100
4100
4100
1800
2400
1800
ENDCHAR
STARTCHAR LtCapRLring
ENCODING 863
SWIDTH 508 0
DWIDTH 9 0
BBX 9 17 0 -3
BITMAP
0000
0000
0000
7C00
4200
4200
4200
4200
7C00
4800
4400
4400
4200
4200
1800
2400
1800
ENDCHAR
STARTCHAR LtSmlALring
ENCODING 864
SWIDTH 508 0
DWIDTH 9 0
BBX 9 17 0 -3
BITMAP
0000
0000
0000
0000
0000
0000
3C00
0200
0200
3E00
4200
4200
4600
3A00
1800
2400
1800
ENDCHAR
STARTCHAR LtSmlLLring
ENCODING 865
SWIDTH 508 0
DWIDTH 9 0
BBX 9 17 0 -3
BITMAP
0000
0000
0000
1800
0800
0800
0800
0800
0800
0800
0800
0800
0800
3E00
1800
2400
1800
ENDCHAR
STARTCHAR LtSmlRLring
ENCODING 866
SWIDTH 508 0
DWIDTH 9 0
BBX 9 17 0 -3
BITMAP
0000
0000
0000
0000
0000
0000
6E00
3200
2000
2000
2000
2000
2000
2000
3000
4800
3000
ENDCHAR
STARTCHAR LtSmlLMacronLring
ENCODING 867
SWIDTH 508 0
DWIDTH 9 0
BBX 9 17 0 -3
BITMAP
3E00
0000
0000
1800
0800
0800
0800
0800
0800
0800
0800
0800
0800
3E00
1800
2400
1800
ENDCHAR
STARTCHAR LtSmlRMacronLring
ENCODING 868
SWIDTH 508 0
DWIDTH 9 0
BBX 9 17 0 -3
BITMAP
0000
0000
0000
3C00
0000
0000
6E00
3200
2000
2000
2000
2000
2000
2000
3000
4800
3000
ENDCHAR
STARTCHAR LtSmlRAcuteLring
ENCODING 869
SWIDTH 508 0
DWIDTH 9 0
BBX 9 17 0 -3
BITMAP
0000
0000
0800
0800
1000
0000
6E00
3200
2000
2000
2000
2000
2000
2000
3000
4800
3000
ENDCHAR
STARTCHAR LtSmlRMacronAcuteLring
ENCODING 870
SWIDTH 508 0
DWIDTH 9 0
BBX 9 17 0 -3
BITMAP
0800
0800
1000
0000
3C00
0000
6E00
3200
2000
2000
2000
2000
2000
2000
3000
4800
3000
ENDCHAR
STARTCHAR LtSmlRGraveLring
ENCODING 871
SWIDTH 508 0
DWIDTH 9 0
BBX 9 17 0 -3
BITMAP
0000
0000
1000
1000
0800
0000
6E00
3200
2000
2000
2000
2000
2000
2000
3000
4800
3000
ENDCHAR
STARTCHAR LtCapULdrss
ENCODING 872
SWIDTH 508 0
DWIDTH 9 0
BBX 9 17 0 -3
BITMAP
0000
0000
0000
4200
4200
4200
4200
4200
4200
4200
4200
4200
4200
3C00
0000
2400
2400
ENDCHAR
STARTCHAR LtSmlULdrss
ENCODING 873
SWIDTH 508 0
DWIDTH 9 0
BBX 9 17 0 -3
BITMAP
0000
0000
0000
0000
0000
0000
4200
4200
4200
4200
4200
4200
4600
3A00
0000
2400
2400
ENDCHAR
STARTCHAR LtCapBLmacron
ENCODING 874
SWIDTH 508 0
DWIDTH 9 0
BBX 9 17 0 -3
BITMAP
0000
0000
0000
7C00
4200
4200
4200
4400
7C00
4200
4200
4200
4200
7C00
0000
0000
3C00
ENDCHAR
STARTCHAR LtCapDLmacron
ENCODING 875
SWIDTH 508 0
DWIDTH 9 0
BBX 9 17 0 -3
BITMAP
0000
0000
0000
7800
4400
4200
4200
4200
4200
4200
4200
4200
4400
7800
0000
0000
7C00
ENDCHAR
STARTCHAR LtCapELmacron
ENCODING 876
SWIDTH 508 0
DWIDTH 9 0
BBX 9 17 0 -3
BITMAP
0000
0000
0000
7E00
4000
4000
4000
4000
7800
4000
4000
4000
4000
7E00
0000
0000
3C00
ENDCHAR
STARTCHAR LtCapHLmacron
ENCODING 877
SWIDTH 508 0
DWIDTH 9 0
BBX 9 17 0 -3
BITMAP
0000
0000
0000
4200
4200
4200
4200
4200
7E00
4200
4200
4200
4200
4200
0000
0000
3C00
ENDCHAR
STARTCHAR LtCapKLmacron
ENCODING 878
SWIDTH 508 0
DWIDTH 9 0
BBX 9 17 0 -3
BITMAP
0000
0000
0000
4200
4200
4400
4400
4800
5000
6800
4400
4400
4200
4200
0000
0000
3C00
ENDCHAR
STARTCHAR LtCapLLmacron
ENCODING 879
SWIDTH 508 0
DWIDTH 9 0
BBX 9 17 0 -3
BITMAP
0000
0000
0000
4000
4000
4000
4000
4000
4000
4000
4000
4000
4000
7E00
0000
0000
3C00
ENDCHAR
STARTCHAR LtCapNLmacron
ENCODING 880
SWIDTH 508 0
DWIDTH 9 0
BBX 9 17 0 -3
BITMAP
0000
0000
0000
4200
4200
6200
6200
5200
4A00
4A00
4600
4600
4200
4200
0000
0000
3C00
ENDCHAR
STARTCHAR LtCapOLmacron
ENCODING 881
SWIDTH 508 0
DWIDTH 9 0
BBX 9 17 0 -3
BITMAP
0000
0000
0000
3C00
4200
4200
4200
4200
4200
4200
4200
4200
4200
3C00
0000
0000
3C00
ENDCHAR
STARTCHAR LtCapRLmacron
ENCODING 882
SWIDTH 508 0
DWIDTH 9 0
BBX 9 17 0 -3
BITMAP
0000
0000
0000
7C00
4200
4200
4200
4200
7C00
4800
4400
4400
4200
4200
0000
0000
3C00
ENDCHAR
STARTCHAR LtCapTLmacron
ENCODING 883
SWIDTH 508 0
DWIDTH 9 0
BBX 9 17 0 -3
BITMAP
0000
0000
0000
7F00
0800
0800
0800
0800
0800
0800
0800
0800
0800
0800
0000
0000
3E00
ENDCHAR
STARTCHAR LtCapZLmacron
ENCODING 884
SWIDTH 508 0
DWIDTH 9 0
BBX 9 17 0 -3
BITMAP
0000
0000
0000
7E00
0200
0400
0400
0800
1000
1000
2000
4000
4000
7E00
0000
0000
3C00
ENDCHAR
STARTCHAR LtSmlBLmacron
ENCODING 885
SWIDTH 508 0
DWIDTH 9 0
BBX 9 17 0 -3
BITMAP
0000
0000
0000
4000
4000
4000
5C00
6200
4200
4200
4200
4200
6200
5C00
0000
0000
3C00
ENDCHAR
STARTCHAR LtSmlDLmacron
ENCODING 886
SWIDTH 508 0
DWIDTH 9 0
BBX 9 17 0 -3
BITMAP
0000
0000
0000
0200
0200
0200
3A00
4600
4200
4200
4200
4200
4600
3A00
0000
0000
3C00
ENDCHAR
STARTCHAR LtSmlELmacron
ENCODING 887
SWIDTH 508 0
DWIDTH 9 0
BBX 9 17 0 -3
BITMAP
0000
0000
0000
0000
0000
0000
1C00
2200
4200
7E00
4000
4000
2200
1C00
0000
0000
3C00
ENDCHAR
STARTCHAR LtSmlHLmacron
ENCODING 888
SWIDTH 508 0
DWIDTH 9 0
BBX 9 17 0 -3
BITMAP
0000
0000
0000
4000
4000
4000
5C00
6200
4200
4200
4200
4200
4200
4200
0000
0000
3C00
ENDCHAR
STARTCHAR LtSmlKLmacron
ENCODING 889
SWIDTH 508 0
DWIDTH 9 0
BBX 9 17 0 -3
BITMAP
0000
0000
0000
4000
4000
4000
4200
4400
4800
5000
7000
4800
4400
4200
0000
0000
3C00
ENDCHAR
STARTCHAR LtSmlLLmacron
ENCODING 890
SWIDTH 508 0
DWIDTH 9 0
BBX 9 17 0 -3
BITMAP
0000
0000
0000
1800
0800
0800
0800
0800
0800
0800
0800
0800
0800
3E00
0000
0000
3E00
ENDCHAR
STARTCHAR LtSmlNLmacron
ENCODING 891
SWIDTH 508 0
DWIDTH 9 0
BBX 9 17 0 -3
BITMAP
0000
0000
0000
0000
0000
0000
5C00
6200
4200
4200
4200
4200
4200
4200
0000
0000
3C00
ENDCHAR
STARTCHAR LtSmlOLmacron
ENCODING 892
SWIDTH 508 0
DWIDTH 9 0
BBX 9 17 0 -3
BITMAP
0000
0000
0000
0000
0000
0000
3C00
4200
4200
4200
4200
4200
4200
3C00
0000
0000
3C00
ENDCHAR
STARTCHAR LtSmlRLmacron
ENCODING 893
SWIDTH 508 0
DWIDTH 9 0
BBX 9 17 0 -3
BITMAP
0000
0000
0000
0000
0000
0000
6E00
3200
2000
2000
2000
2000
2000
2000
0000
0000
3C00
ENDCHAR
STARTCHAR LtSmlTLmacron
ENCODING 894
SWIDTH 508 0
DWIDTH 9 0
BBX 9 17 0 -3
BITMAP
0000
0000
0000
0000
1000
1000
7C00
1000
1000
1000
1000
1000
1200
0C00
0000
0000
1E00
ENDCHAR
STARTCHAR LtSmlZLmacron
ENCODING 895
SWIDTH 508 0
DWIDTH 9 0
BBX 9 17 0 -3
BITMAP
0000
0000
0000
0000
0000
0000
7E00
0200
0400
0800
1000
2000
4000
7E00
0000
0000
3C00
ENDCHAR
STARTCHAR LtCapGHLmacron
ENCODING 896
SWIDTH 508 0
DWIDTH 9 0
BBX 9 17 0 -3
BITMAP
0000
0000
0000
6480
9480
8480
8480
8480
B780
9480
9480
9480
9480
7480
0000
0000
3E00
ENDCHAR
STARTCHAR LtCapKHLmacron
ENCODING 897
SWIDTH 508 0
DWIDTH 9 0
BBX 9 17 0 -3
BITMAP
0000
0000
0000
9480
9480
9480
9480
A480
A780
E480
9480
9480
9480
9480
0000
0000
3E00
ENDCHAR
STARTCHAR LtMixGHLmacron
ENCODING 898
SWIDTH 508 0
DWIDTH 9 0
BBX 9 17 0 -3
BITMAP
0000
0000
0000
6400
9400
8400
8500
8680
B480
9480
9480
9480
9480
7480
0000
0000
3E00
ENDCHAR
STARTCHAR LtMixKHLmacron
ENCODING 899
SWIDTH 508 0
DWIDTH 9 0
BBX 9 17 0 -3
BITMAP
0000
0000
0000
9400
9400
9400
9500
A680
A480
E480
9480
9480
9480
9480
0000
0000
3E00
ENDCHAR
STARTCHAR LtSmlGHLmacron
ENCODING 900
SWIDTH 508 0
DWIDTH 9 0
BBX 9 17 0 -3
BITMAP
0000
0000
0000
0400
0400
0400
7500
9680
9480
9480
9480
6480
8480
7480
8800
7000
7F00
ENDCHAR
STARTCHAR LtSmlKHLmacron
ENCODING 901
SWIDTH 508 0
DWIDTH 9 0
BBX 9 17 0 -3
BITMAP
0000
0000
0000
8400
8400
8400
9500
9680
A480
A480
C480
A480
9480
9480
0000
0000
3E00
ENDCHAR
STARTCHAR LtCapDLcircum
ENCODING 902
SWIDTH 508 0
DWIDTH 9 0
BBX 9 17 0 -3
BITMAP
0000
0000
0000
7800
4400
4200
4200
4200
4200
4200
4200
4200
4400
7800
0000
1800
2400
ENDCHAR
STARTCHAR LtCapELcircum
ENCODING 903
SWIDTH 508 0
DWIDTH 9 0
BBX 9 17 0 -3
BITMAP
0000
0000
0000
7E00
4000
4000
4000
4000
7800
4000
4000
4000
4000
7E00
0000
1800
2400
ENDCHAR
STARTCHAR LtCapLLcircum
ENCODING 904
SWIDTH 508 0
DWIDTH 9 0
BBX 9 17 0 -3
BITMAP
0000
0000
0000
4000
4000
4000
4000
4000
4000
4000
4000
4000
4000
7E00
0000
1800
2400
ENDCHAR
STARTCHAR LtCapNLcircum
ENCODING 905
SWIDTH 508 0
DWIDTH 9 0
BBX 9 17 0 -3
BITMAP
0000
0000
0000
4200
4200
6200
6200
5200
4A00
4A00
4600
4600
4200
4200
0000
1800
2400
ENDCHAR
STARTCHAR LtCapTLcircum
ENCODING 906
SWIDTH 508 0
DWIDTH 9 0
BBX 9 17 0 -3
BITMAP
0000
0000
0000
7F00
0800
0800
0800
0800
0800
0800
0800
0800
0800
0800
0000
1800
2400
ENDCHAR
STARTCHAR LtCapULcircum
ENCODING 907
SWIDTH 508 0
DWIDTH 9 0
BBX 9 17 0 -3
BITMAP
0000
0000
0000
4200
4200
4200
4200
4200
4200
4200
4200
4200
4200
3C00
0000
1800
2400
ENDCHAR
STARTCHAR LtSmlDLcircum
ENCODING 908
SWIDTH 508 0
DWIDTH 9 0
BBX 9 17 0 -3
BITMAP
0000
0000
0000
0200
0200
0200
3A00
4600
4200
4200
4200
4200
4600
3A00
0000
1800
2400
ENDCHAR
STARTCHAR LtSmlELcircum
ENCODING 909
SWIDTH 508 0
DWIDTH 9 0
BBX 9 17 0 -3
BITMAP
0000
0000
0000
0000
0000
0000
1C00
2200
4200
7E00
4000
4000
2200
1C00
0000
1800
2400
ENDCHAR
STARTCHAR LtSmlLLcircum
ENCODING 910
SWIDTH 508 0
DWIDTH 9 0
BBX 9 17 0 -3
BITMAP
0000
0000
0000
1800
0800
0800
0800
0800
0800
0800
0800
0800
0800
3E00
0000
1800
2400
ENDCHAR
STARTCHAR LtSmlNLcircum
ENCODING 911
SWIDTH 508 0
DWIDTH 9 0
BBX 9 17 0 -3
BITMAP
0000
0000
0000
0000
0000
0000
5C00
6200
4200
4200
4200
4200
4200
4200
0000
1800
2400
ENDCHAR
STARTCHAR LtSmlTLcircum
ENCODING 912
SWIDTH 508 0
DWIDTH 9 0
BBX 9 17 0 -3
BITMAP
0000
0000
0000
0000
1000
1000
7C00
1000
1000
1000
1000
1000
1200
0C00
0000
0C00
1200
ENDCHAR
STARTCHAR LtSmlULcircum
ENCODING 913
SWIDTH 508 0
DWIDTH 9 0
BBX 9 17 0 -3
BITMAP
0000
0000
0000
0000
0000
0000
4200
4200
4200
4200
4200
4200
4600
3A00
0000
1800
2400
ENDCHAR
STARTCHAR LtCapHLbreve
ENCODING 914
SWIDTH 508 0
DWIDTH 9 0
BBX 9 17 0 -3
BITMAP
0000
0000
0000
4200
4200
4200
4200
4200
7E00
4200
4200
4200
4200
4200
0000
4400
3800
ENDCHAR
STARTCHAR LtSmlHLbreve
ENCODING 915
SWIDTH 508 0
DWIDTH 9 0
BBX 9 17 0 -3
BITMAP
0000
0000
0000
4000
4000
4000
5C00
6200
4200
4200
4200
4200
4200
4200
0000
4400
3800
ENDCHAR
STARTCHAR LtSmlILinvbreve
ENCODING 916
SWIDTH 508 0
DWIDTH 9 0
BBX 9 17 0 -3
BITMAP
0000
0000
0800
0800
0000
0000
1800
0800
0800
0800
0800
0800
0800
3E00
0000
1C00
2200
ENDCHAR
STARTCHAR LtSmlOLinvbreve
ENCODING 917
SWIDTH 508 0
DWIDTH 9 0
BBX 9 17 0 -3
BITMAP
0000
0000
0000
0000
0000
0000
3C00
4200
4200
4200
4200
4200
4200
3C00
0000
3800
4400
ENDCHAR
STARTCHAR LtSmlULinvbreve
ENCODING 918
SWIDTH 508 0
DWIDTH 9 0
BBX 9 17 0 -3
BITMAP
0000
0000
0000
0000
0000
0000
4200
4200
4200
4200
4200
4200
4600
3A00
0000
3800
4400
ENDCHAR
STARTCHAR LtSmlATrndLinvbreve
ENCODING 919
SWIDTH 508 0
DWIDTH 9 0
BBX 9 17 0 -3
BITMAP
0000
0000
0000
0000
0000
0000
DC00
6200
4200
4400
7800
4000
4400
3C00
0000
3800
4400
ENDCHAR
STARTCHAR LtCapELtilde
ENCODING 920
SWIDTH 508 0
DWIDTH 9 0
BBX 9 17 0 -3
BITMAP
0000
0000
0000
7E00
4000
4000
4000
4000
7800
4000
4000
4000
4000
7E00
0000
3200
4C00
ENDCHAR
STARTCHAR LtCapILtilde
ENCODING 921
SWIDTH 508 0
DWIDTH 9 0
BBX 9 17 0 -3
BITMAP
0000
0000
0000
3E00
0800
0800
0800
0800
0800
0800
0800
0800
0800
3E00
0000
1200
2C00
ENDCHAR
STARTCHAR LtCapULtilde
ENCODING 922
SWIDTH 508 0
DWIDTH 9 0
BBX 9 17 0 -3
BITMAP
0000
0000
0000
4200
4200
4200
4200
4200
4200
4200
4200
4200
4200
3C00
0000
3200
4C00
ENDCHAR
STARTCHAR LtSmlELtilde
ENCODING 923
SWIDTH 508 0
DWIDTH 9 0
BBX 9 17 0 -3
BITMAP
0000
0000
0000
0000
0000
0000
1C00
2200
4200
7E00
4000
4000
2200
1C00
0000
1200
2C00
ENDCHAR
STARTCHAR LtSmlILtilde
ENCODING 924
SWIDTH 508 0
DWIDTH 9 0
BBX 9 17 0 -3
BITMAP
0000
0000
0800
0800
0000
0000
1800
0800
0800
0800
0800
0800
0800
3E00
0000
1200
2C00
ENDCHAR
STARTCHAR LtSmlULtilde
ENCODING 925
SWIDTH 508 0
DWIDTH 9 0
BBX 9 17 0 -3
BITMAP
0000
0000
0000
0000
0000
0000
4200
4200
4200
4200
4200
4200
4600
3A00
0000
3200
4C00
ENDCHAR
STARTCHAR HbAlefPatah
ENCODING 1355
SWIDTH 508 0
DWIDTH 9 0
BBX 9 17 0 -3
BITMAP
0000
0000
0000
0000
0000
4200
4100
2100
1200
2A00
4400
4200
4100
6100
0000
3E00
0000
ENDCHAR
STARTCHAR HbAlefQamats
ENCODING 1357
SWIDTH 508 0
DWIDTH 9 0
BBX 9 17 0 -3
BITMAP
0000
0000
0000
0000
0000
4200
4100
2100
1200
2A00
4400
4200
4100
6100
0000
1C00
0800
ENDCHAR
STARTCHAR GeGan
ENCODING 1388
SWIDTH 508 0
DWIDTH 9 0
BBX 9 17 0 -3
BITMAP
0000
0000
0000
0000
0000
0000
0000
3000
4800
4800
0800
3C00
4200
4200
4200
4200
3C00
ENDCHAR
STARTCHAR GeDon
ENCODING 1389
SWIDTH 508 0
DWIDTH 9 0
BBX 9 17 0 -3
BITMAP
0000
0000
0000
0000
0000
0000
0000
3600
4900
4900
4900
4900
4600
2000
3800
4600
0100
ENDCHAR
STARTCHAR GeEn
ENCODING 1390
SWIDTH 508 0
DWIDTH 9 0
BBX 9 17 0 -3
BITMAP
0000
0000
0000
0000
0000
0000
0000
1C00
2200
2200
0200
0200
0200
0200
4200
4200
3C00
ENDCHAR
STARTCHAR GeVin
ENCODING 1391
SWIDTH 508 0
DWIDTH 9 0
BBX 9 17 0 -3
BITMAP
0000
0000
0000
0000
0000
0000
0000
1C00
2200
2200
0200
0C00
0400
0200
4200
4200
3C00
ENDCHAR
STARTCHAR GeKan
ENCODING 1395
SWIDTH 508 0
DWIDTH 9 0
BBX 9 17 0 -3
BITMAP
0000
0000
0000
0000
0000
0000
0000
0600
0200
0200
0200
0C00
0400
0200
4200
4200
3C00
ENDCHAR
STARTCHAR GeLas
ENCODING 1396
SWIDTH 508 0
DWIDTH 9 0
BBX 9 17 0 -3
BITMAP
0000
0000
0000
0000
0000
0000
0000
3C00
4200
4200
4200
4200
4200
2000
3000
4C00
0200
ENDCHAR
STARTCHAR GeZhar
ENCODING 1401
SWIDTH 508 0
DWIDTH 9 0
BBX 9 17 0 -3
BITMAP
0000
0000
0000
0000
0000
0000
0000
0600
1A00
4A00
4A00
3200
0200
0200
4200
4200
3C00
ENDCHAR
STARTCHAR GeTar
ENCODING 1404
SWIDTH 508 0
DWIDTH 9 0
BBX 9 17 0 -3
BITMAP
0000
0000
0000
0000
0000
0800
1400
1C00
3600
4900
4100
4100
4100
4100
4100
2200
1C00
ENDCHAR
STARTCHAR GeUn
ENCODING 1405
SWIDTH 508 0
DWIDTH 9 0
BBX 9 17 0 -3
BITMAP
0000
0000
0000
0000
0000
0000
0000
5600
6900
0900
0900
0100
0100
0100
2100
2100
1E00
ENDCHAR
STARTCHAR GePhar
ENCODING 1406
SWIDTH 508 0
DWIDTH 9 0
BBX 9 17 0 -3
BITMAP
0000
0000
0000
0000
0000
0000
0000
3600
4900
4900
4900
4900
3200
0100
0100
2100
1E00
ENDCHAR
STARTCHAR GeKhar
ENCODING 1407
SWIDTH 508 0
DWIDTH 9 0
BBX 9 17 0 -3
BITMAP
0000
0000
0000
0200
0600
0200
0200
3E00
2200
2200
0200
0200
0200
0200
4200
4200
3C00
ENDCHAR
STARTCHAR GeGhan
ENCODING 1408
SWIDTH 508 0
DWIDTH 9 0
BBX 9 17 0 -3
BITMAP
0000
0000
0000
0000
0000
0000
0000
3600
4900
4900
4900
4100
4200
2000
3800
4600
0100
ENDCHAR
STARTCHAR GeQar
ENCODING 1409
SWIDTH 508 0
DWIDTH 9 0
BBX 9 17 0 -3
BITMAP
0000
0000
0000
0000
0000
0000
0000
4200
4200
4200
4200
4600
3A00
0200
4200
4200
3C00
ENDCHAR
STARTCHAR GeCan
ENCODING 1412
SWIDTH 508 0
DWIDTH 9 0
BBX 9 17 0 -3
BITMAP
0000
0000
0000
0000
0000
0000
0000
2400
4200
4100
4100
4600
4100
4100
4100
2200
1C00
ENDCHAR
STARTCHAR GeCil
ENCODING 1414
SWIDTH 508 0
DWIDTH 9 0
BBX 9 17 0 -3
BITMAP
0000
0000
0000
3600
4900
4900
4000
4000
3E00
2200
2200
2200
1400
1400
0800
0800
0800
ENDCHAR
STARTCHAR GeChar
ENCODING 1415
SWIDTH 508 0
DWIDTH 9 0
BBX 9 17 0 -3
BITMAP
0000
0000
0000
1000
1000
0800
0400
0400
0400
3600
4C00
3600
0400
0400
4400
4400
3800
ENDCHAR
STARTCHAR GeWe
ENCODING 1421
SWIDTH 508 0
DWIDTH 9 0
BBX 9 17 0 -3
BITMAP
0000
0000
0000
0000
0000
0000
0000
3E00
2200
0400
0800
1C00
0200
0200
4200
4200
3C00
ENDCHAR
STARTCHAR GeHar
ENCODING 1422
SWIDTH 508 0
DWIDTH 9 0
BBX 9 17 0 -3
BITMAP
0000
0000
0000
0800
1000
1000
1000
0E00
0200
0400
0800
1C00
0200
0200
4200
4200
3C00
ENDCHAR
STARTCHAR GeFi
ENCODING 1424
SWIDTH 508 0
DWIDTH 9 0
BBX 9 17 0 -3
BITMAP
0000
0000
0000
0000
0000
0000
0000
3600
4900
4900
4900
4900
4900
2E00
0800
0800
1000
ENDCHAR
STARTCHAR GeYn
ENCODING 1425
SWIDTH 508 0
DWIDTH 9 0
BBX 9 17 0 -3
BITMAP
0000
0000
0000
0000
0000
0000
0000
3C00
4200
4200
0200
0C00
3000
4000
4200
4200
3C00
ENDCHAR
STARTCHAR GeElifi
ENCODING 1426
SWIDTH 508 0
DWIDTH 9 0
BBX 9 17 0 -3
BITMAP
0000
0000
0000
0000
0000
0000
0000
4200
4200
4200
4200
6200
5C00
4000
4200
4200
3C00
ENDCHAR
STARTCHAR GeUo
ENCODING 1429
SWIDTH 508 0
DWIDTH 9 0
BBX 9 17 0 -3
BITMAP
0000
0000
0000
0000
0000
0000
0000
3500
4B00
4800
4800
4000
4000
4000
4200
4200
3C00
ENDCHAR
STARTCHAR GeGanTrnd
ENCODING 1432
SWIDTH 508 0
DWIDTH 9 0
BBX 9 17 0 -3
BITMAP
0000
0000
0000
0000
0000
0000
0000
3C00
4200
4200
4200
4200
3C00
1000
1200
1200
0C00
ENDCHAR
STARTCHAR GeUnDrss
ENCODING 1435
SWIDTH 508 0
DWIDTH 9 0
BBX 9 17 0 -3
BITMAP
0000
0000
0000
0000
1200
1200
0000
5600
6900
0900
0900
0100
0100
0100
2100
2100
1E00
ENDCHAR
STARTCHAR GeUnCircum
ENCODING 1437
SWIDTH 508 0
DWIDTH 9 0
BBX 9 17 0 -3
BITMAP
0000
0000
0000
0000
0C00
1200
0000
5600
6900
0900
0900
0100
0100
0100
2100
2100
1E00
ENDCHAR
STARTCHAR GeEnMacron
ENCODING 1439
SWIDTH 508 0
DWIDTH 9 0
BBX 9 17 0 -3
BITMAP
0000
0000
0000
0000
3C00
0000
0000
1C00
2200
2200
0200
0200
0200
0200
4200
4200
3C00
ENDCHAR
STARTCHAR GeUnMacron
ENCODING 1442
SWIDTH 508 0
DWIDTH 9 0
BBX 9 17 0 -3
BITMAP
0000
0000
0000
0000
3C00
0000
0000
5600
6900
0900
0900
0100
0100
0100
2100
2100
1E00
ENDCHAR
STARTCHAR AmSmlEh
ENCODING 1489
SWIDTH 508 0
DWIDTH 9 0
BBX 9 17 0 -3
BITMAP
0000
0000
0000
2000
2000
2000
2000
3E00
2000
2000
2000
2000
2000
1C00
0200
0400
0000
ENDCHAR
STARTCHAR AmSmlYi
ENCODING 1503
SWIDTH 508 0
DWIDTH 9 0
BBX 9 17 0 -3
BITMAP
0000
0000
0000
0000
0000
0000
0000
1800
0800
0800
0800
0800
0800
0800
0800
0800
7000
ENDCHAR
STARTCHAR AmSmlSha
ENCODING 1505
SWIDTH 508 0
DWIDTH 9 0
BBX 9 17 0 -3
BITMAP
0000
0000
0000
0000
0000
0000
0000
1C00
2200
0200
0400
0800
0800
1000
2000
2000
1E00
ENDCHAR
STARTCHAR AmSmlCha
ENCODING 1507
SWIDTH 508 0
DWIDTH 9 0
BBX 9 17 0 -3
BITMAP
0000
0000
0000
0000
0000
0000
0000
0800
1000
0800
0400
0400
0800
1000
2000
2000
1E00
ENDCHAR
STARTCHAR AmSmlJheh
ENCODING 1509
SWIDTH 508 0
DWIDTH 9 0
BBX 9 17 0 -3
BITMAP
0000
0000
0000
0800
1400
2200
2200
2200
2200
1400
1400
0800
0800
1000
2000
2000
1E00
ENDCHAR
STARTCHAR AmSmlCo
ENCODING 1515
SWIDTH 508 0
DWIDTH 9 0
BBX 9 17 0 -3
BITMAP
0000
0000
0000
0000
0000
0000
0000
1A00
2600
2200
2200
2200
2600
1A00
0200
2200
1C00
ENDCHAR
STARTCHAR AmSmlKeh
ENCODING 1518
SWIDTH 508 0
DWIDTH 9 0
BBX 9 17 0 -3
BITMAP
0000
0000
0000
0000
0000
0000
0000
2C00
3200
2200
2200
2200
3200
2C00
2000
7E00
2000
ENDCHAR
STARTCHAR GkCapIotTrndLbreve
ENCODING 1612
SWIDTH 508 0
DWIDTH 9 0
BBX 9 17 0 -3
BITMAP
0000
0000
0000
3E00
0800
0800
0800
0800
0800
0800
0800
0800
0800
3E00
0000
2200
1C00
ENDCHAR
STARTCHAR GkCapUpsTrndLbreve
ENCODING 1613
SWIDTH 508 0
DWIDTH 9 0
BBX 9 17 0 -3
BITMAP
0000
0000
0000
0800
0800
0800
0800
0800
1400
1400
2200
2200
4100
4100
0000
2200
1C00
ENDCHAR
STARTCHAR GkSmlIotTrndLbreve
ENCODING 1614
SWIDTH 508 0
DWIDTH 9 0
BBX 9 17 0 -3
BITMAP
0000
0000
0000
0000
0000
0000
3000
4800
0800
0800
0800
0800
0800
0800
0000
2200
1C00
ENDCHAR
STARTCHAR GkSmlUpsTrndLbreve
ENCODING 1615
SWIDTH 508 0
DWIDTH 9 0
BBX 9 17 0 -3
BITMAP
0000
0000
0000
0000
0000
0000
3C00
4200
4200
4200
4200
4200
4200
4200
0000
2200
1C00
ENDCHAR
STARTCHAR ThYoYing
ENCODING 1917
SWIDTH 508 0
DWIDTH 9 0
BBX 9 17 0 -3
BITMAP
0000
0000
0000
0000
0000
0000
3100
4900
4900
4900
4900
4900
4900
4600
0000
0900
0600
ENDCHAR
STARTCHAR ThDoChada
ENCODING 1919
SWIDTH 508 0
DWIDTH 9 0
BBX 9 17 0 -3
BITMAP
0000
0000
0000
0000
0000
0000
3C00
4200
6200
2200
2200
6200
6200
6200
0200
0200
1C00
ENDCHAR
STARTCHAR ThToPatak
ENCODING 1920
SWIDTH 508 0
DWIDTH 9 0
BBX 9 17 0 -3
BITMAP
0000
0000
0000
0000
0000
0000
3C00
4200
6200
2200
2200
6200
6200
6200
0200
2A00
3C00
ENDCHAR
STARTCHAR ThThoThan
ENCODING 1921
SWIDTH 508 0
DWIDTH 9 0
BBX 9 17 0 -3
BITMAP
0000
0000
0000
0000
0000
0000
7F00
0400
0200
1A00
1A00
0A00
0600
0200
0000
2A00
3C00
ENDCHAR
STARTCHAR ThRu
ENCODING 1942
SWIDTH 508 0
DWIDTH 9 0
BBX 9 17 0 -3
BITMAP
0000
0000
0000
0000
0000
0000
3C00
4200
6200
2200
2200
3200
3200
3200
0200
0200
0200
ENDCHAR
STARTCHAR ThLu
ENCODING 1944
SWIDTH 508 0
DWIDTH 9 0
BBX 9 17 0 -3
BITMAP
0000
0000
0000
0000
0000
0000
3C00
4200
6200
2200
2200
6200
6200
6200
0200
0200
0200
ENDCHAR
STARTCHAR ThMaiyamok
ENCODING 1955
SWIDTH 508 0
DWIDTH 9 0
BBX 9 17 0 -3
BITMAP
0000
0000
0000
0000
0000
0000
3400
4A00
6200
6200
0200
0200
0200
0200
0200
0200
0400
ENDCHAR
STARTCHAR ThLakkhangyao
ENCODING 1956
SWIDTH 508 0
DWIDTH 9 0
BBX 9 17 0 -3
BITMAP
0000
0000
0000
0000
0000
0000
1C00
2200
2200
0200
0200
0200
0200
0200
0200
0200
0200
ENDCHAR
STARTCHAR ThSaraU
ENCODING 1978
SWIDTH 508 0
DWIDTH 9 0
BBX 9 17 0 -3
BITMAP
0000
0000
0000
0000
0000
0000
0000
0000
0000
0000
0000
0000
0000
0000
0000
0600
0200
ENDCHAR
STARTCHAR ThSaraUu
ENCODING 1979
SWIDTH 508 0
DWIDTH 9 0
BBX 9 17 0 -3
BITMAP
0000
0000
0000
0000
0000
0000
0000
0000
0000
0000
0000
0000
0000
0000
0000
1A00
0E00
ENDCHAR
STARTCHAR ThPhinthu
ENCODING 1980
SWIDTH 508 0
DWIDTH 9 0
BBX 9 17 0 -3
BITMAP
0000
0000
0000
0000
0000
0000
0000
0000
0000
0000
0000
0000
0000
0000
0000
0600
0600
ENDCHAR
STARTCHAR ThSaraUD
ENCODING 1986
SWIDTH 508 0
DWIDTH 9 0
BBX 9 17 0 -3
BITMAP
0000
0000
0000
0000
0000
0000
0000
0000
0000
0000
0000
0000
0000
0000
0000
0600
0200
ENDCHAR
STARTCHAR ThSaraUuD
ENCODING 1987
SWIDTH 508 0
DWIDTH 9 0
BBX 9 17 0 -3
BITMAP
0000
0000
0000
0000
0000
0000
0000
0000
0000
0000
0000
0000
0000
0000
0000
1A00
0E00
ENDCHAR
STARTCHAR ThPhinthuD
ENCODING 1988
SWIDTH 508 0
DWIDTH 9 0
BBX 9 17 0 -3
BITMAP
0000
0000
0000
0000
0000
0000
0000
0000
0000
0000
0000
0000
0000
0000
0000
0600
0600
ENDCHAR
STARTCHAR AccGraveAscii
ENCODING 2484
SWIDTH 508 0
DWIDTH 9 0
BBX 9 17 0 -3
BITMAP
0000
0000
1800
1800
1800
0800
0400
0000
0000
0000
0000
0000
0000
0000
0000
0000
0000
ENDCHAR
STARTCHAR CombHbMeteg
ENCODING 2566
SWIDTH 508 0
DWIDTH 9 0
BBX 9 17 0 -3
BITMAP
0000
0000
0000
0000
0000
0000
0000
0000
0000
0000
0000
0000
0000
0000
0800
0800
0800
ENDCHAR
STARTCHAR CombHbPatah
ENCODING 2567
SWIDTH 508 0
DWIDTH 9 0
BBX 9 17 0 -3
BITMAP
0000
0000
0000
0000
0000
0000
0000
0000
0000
0000
0000
0000
0000
0000
0000
3E00
0000
ENDCHAR
STARTCHAR CombHbQamats
ENCODING 2568
SWIDTH 508 0
DWIDTH 9 0
BBX 9 17 0 -3
BITMAP
0000
0000
0000
0000
0000
0000
0000
0000
0000
0000
0000
0000
0000
0000
0000
1C00
0800
ENDCHAR
STARTCHAR CombHbSegol
ENCODING 2569
SWIDTH 508 0
DWIDTH 9 0
BBX 9 17 0 -3
BITMAP
0000
0000
0000
0000
0000
0000
0000
0000
0000
0000
0000
0000
0000
0000
0000
6600
1800
ENDCHAR
STARTCHAR CombHbHatafQamats
ENCODING 2573
SWIDTH 508 0
DWIDTH 9 0
BBX 9 17 0 -3
BITMAP
0000
0000
0000
0000
0000
0000
0000
0000
0000
0000
0000
0000
0000
0000
0600
7000
2600
ENDCHAR
STARTCHAR CombLdot
ENCODING 2631
SWIDTH 508 0
DWIDTH 9 0
BBX 9 17 0 -3
BITMAP
0000
0000
0000
0000
0000
0000
0000
0000
0000
0000
0000
0000
0000
0000
0000
0800
0800
ENDCHAR
STARTCHAR CombLvline
ENCODING 2632
SWIDTH 508 0
DWIDTH 9 0
BBX 9 17 0 -3
BITMAP
0000
0000
0000
0000
0000
0000
0000
0000
0000
0000
0000
0000
0000
0000
0800
0800
0800
ENDCHAR
STARTCHAR CombLdrss
ENCODING 2633
SWIDTH 508 0
DWIDTH 9 0
BBX 9 17 0 -3
BITMAP
0000
0000
0000
0000
0000
0000
0000
0000
0000
0000
0000
0000
0000
0000
0000
2400
2400
ENDCHAR
STARTCHAR CombLvline2
ENCODING 2634
SWIDTH 508 0
DWIDTH 9 0
BBX 9 17 0 -3
BITMAP
0000
0000
0000
0000
0000
0000
0000
0000
0000
0000
0000
0000
0000
0000
2400
2400
2400
ENDCHAR
STARTCHAR CombLcircum
ENCODING 2637
SWIDTH 508 0
DWIDTH 9 0
BBX 9 17 0 -3
BITMAP
0000
0000
0000
0000
0000
0000
0000
0000
0000
0000
0000
0000
0000
0000
0000
1800
2400
ENDCHAR
STARTCHAR CombLcaron
ENCODING 2638
SWIDTH 508 0
DWIDTH 9 0
BBX 9 17 0 -3
BITMAP
0000
0000
0000
0000
0000
0000
0000
0000
0000
0000
0000
0000
0000
0000
0000
2400
1800
ENDCHAR
STARTCHAR CombLbreve
ENCODING 2639
SWIDTH 508 0
DWIDTH 9 0
BBX 9 17 0 -3
BITMAP
0000
0000
0000
0000
0000
0000
0000
0000
0000
0000
0000
0000
0000
0000
0000
2200
1C00
ENDCHAR
STARTCHAR CombLinvbreve
ENCODING 2640
SWIDTH 508 0
DWIDTH 9 0
BBX 9 17 0 -3
BITMAP
0000
0000
0000
0000
0000
0000
0000
0000
0000
0000
0000
0000
0000
0000
0000
1C00
2200
ENDCHAR
STARTCHAR CombLmacron
ENCODING 2641
SWIDTH 508 0
DWIDTH 9 0
BBX 9 17 0 -3
BITMAP
0000
0000
0000
0000
0000
0000
0000
0000
0000
0000
0000
0000
0000
0000
0000
0000
3C00
ENDCHAR
STARTCHAR CombLtilde
ENCODING 2644
SWIDTH 508 0
DWIDTH 9 0
BBX 9 17 0 -3
BITMAP
0000
0000
0000
0000
0000
0000
0000
0000
0000
0000
0000
0000
0000
0000
0000
1200
2C00
ENDCHAR
STARTCHAR PApostropheAscii
ENCODING 2681
SWIDTH 508 0
DWIDTH 9 0
BBX 9 17 0 -3
BITMAP
0000
0000
0C00
0C00
0C00
0800
1000
0000
0000
0000
0000
0000
0000
0000
0000
0000
0000
ENDCHAR
STARTCHAR PComma
ENCODING 2711
SWIDTH 508 0
DWIDTH 9 0
BBX 9 17 0 -3
BITMAP
0000
0000
0000
0000
0000
0000
0000
0000
0000
0000
0000
0000
1800
1800
1800
1000
2000
ENDCHAR
STARTCHAR PSemicolon
ENCODING 2712
SWIDTH 508 0
DWIDTH 9 0
BBX 9 17 0 -3
BITMAP
0000
0000
0000
0000
0000
0000
0000
0000
1800
1800
0000
0000
1800
1800
1800
1000
2000
ENDCHAR
STARTCHAR MArrowU
ENCODING 2955
SWIDTH 508 0
DWIDTH 9 0
BBX 9 17 0 -3
BITMAP
0000
0800
1C00
2A00
0800
0800
0800
0800
0800
0800
0800
0800
0800
0800
0800
0800
0000
ENDCHAR
STARTCHAR MArrowD
ENCODING 2956
SWIDTH 508 0
DWIDTH 9 0
BBX 9 17 0 -3
BITMAP
0000
0800
0800
0800
0800
0800
0800
0800
0800
0800
0800
0800
0800
2A00
1C00
0800
0000
ENDCHAR
STARTCHAR MArrowUD
ENCODING 2959
SWIDTH 508 0
DWIDTH 9 0
BBX 9 17 0 -3
BITMAP
0000
0800
1C00
2A00
0800
0800
0800
0800
0800
0800
0800
0800
0800
2A00
1C00
0800
0000
ENDCHAR
STARTCHAR MArrowUDBase
ENCODING 2960
SWIDTH 508 0
DWIDTH 9 0
BBX 9 17 0 -3
BITMAP
0000
0800
1C00
2A00
0800
0800
0800
0800
0800
0800
0800
0800
2A00
1C00
0800
3E00
0000
ENDCHAR
STARTCHAR MArrowULeftD
ENCODING 2962
SWIDTH 508 0
DWIDTH 9 0
BBX 9 17 0 -3
BITMAP
0000
2200
7200
AA00
2200
2200
2200
2200
2200
2200
2200
2200
2200
2A80
2700
2200
0000
ENDCHAR
STARTCHAR MArrowULeftU
ENCODING 2966
SWIDTH 508 0
DWIDTH 9 0
BBX 9 17 0 -3
BITMAP
0000
2200
7700
AA80
2200
2200
2200
2200
2200
2200
2200
2200
2200
2200
2200
2200
0000
ENDCHAR
STARTCHAR MArrowDLeftD
ENCODING 2967
SWIDTH 508 0
DWIDTH 9 0
BBX 9 17 0 -3
BITMAP
0000
2200
2200
2200
2200
2200
2200
2200
2200
2200
2200
2200
2200
AA80
7700
2200
0000
ENDCHAR
STARTCHAR MArrowUu
ENCODING 2970
SWIDTH 508 0
DWIDTH 9 0
BBX 9 17 0 -3
BITMAP
0000
0800
1C00
2A00
0800
1C00
2A00
0800
0800
0800
0800
0800
0800
0800
0800
0800
0000
ENDCHAR
STARTCHAR MArrowDd
ENCODING 2971
SWIDTH 508 0
DWIDTH 9 0
BBX 9 17 0 -3
BITMAP
0000
0800
0800
0800
0800
0800
0800
0800
0800
0800
2A00
1C00
0800
2A00
1C00
0800
0000
ENDCHAR
STARTCHAR MArrowBarU
ENCODING 2972
SWIDTH 508 0
DWIDTH 9 0
BBX 9 17 0 -3
BITMAP
0000
0800
1C00
2A00
0800
0800
0800
0800
0800
0800
0800
0800
0800
0800
0800
3E00
0000
ENDCHAR
STARTCHAR MArrowBarD
ENCODING 2973
SWIDTH 508 0
DWIDTH 9 0
BBX 9 17 0 -3
BITMAP
0000
3E00
0800
0800
0800
0800
0800
0800
0800
0800
0800
0800
0800
2A00
1C00
0800
0000
ENDCHAR
STARTCHAR MArrowLU
ENCODING 2978
SWIDTH 508 0
DWIDTH 9 0
BBX 9 17 0 -3
BITMAP
0000
8000
E000
D000
A000
A000
1000
1000
0800
0800
0400
0400
0200
0200
0100
0100
0000
ENDCHAR
STARTCHAR MArrowRU
ENCODING 2979
SWIDTH 508 0
DWIDTH 9 0
BBX 9 17 0 -3
BITMAP
0000
0100
0700
0B00
0500
0500
0800
0800
1000
1000
2000
2000
4000
4000
8000
8000
0000
ENDCHAR
STARTCHAR MArrowLD
ENCODING 2980
SWIDTH 508 0
DWIDTH 9 0
BBX 9 17 0 -3
BITMAP
0000
0100
0100
0200
0200
0400
0400
0800
0800
1000
1000
A000
A000
D000
E000
8000
0000
ENDCHAR
STARTCHAR MArrowRD
ENCODING 2981
SWIDTH 508 0
DWIDTH 9 0
BBX 9 17 0 -3
BITMAP
0000
8000
8000
4000
4000
2000
2000
1000
1000
0800
0800
0500
0500
0B00
0700
0100
0000
ENDCHAR
STARTCHAR MArrow2U
ENCODING 2998
SWIDTH 508 0
DWIDTH 9 0
BBX 9 17 0 -3
BITMAP
0000
0800
1C00
3600
5500
1400
1400
1400
1400
1400
1400
1400
1400
1400
1400
1400
0000
ENDCHAR
STARTCHAR MArrow2D
ENCODING 2999
SWIDTH 508 0
DWIDTH 9 0
BBX 9 17 0 -3
BITMAP
0000
1400
1400
1400
1400
1400
1400
1400
1400
1400
1400
1400
5500
3600
1C00
0800
0000
ENDCHAR
STARTCHAR MArrow2UD
ENCODING 3000
SWIDTH 508 0
DWIDTH 9 0
BBX 9 17 0 -3
BITMAP
0000
0800
1C00
3600
5500
1400
1400
1400
1400
1400
1400
1400
5500
3600
1C00
0800
0000
ENDCHAR
STARTCHAR MHarpoonUl
ENCODING 3021
SWIDTH 508 0
DWIDTH 9 0
BBX 9 17 0 -3
BITMAP
0000
0800
1800
2800
0800
0800
0800
0800
0800
0800
0800
0800
0800
0800
0800
0800
0000
ENDCHAR
STARTCHAR MHarpoonUr
ENCODING 3022
SWIDTH 508 0
DWIDTH 9 0
BBX 9 17 0 -3
BITMAP
0000
0800
0C00
0A00
0800
0800
0800
0800
0800
0800
0800
0800
0800
0800
0800
0800
0000
ENDCHAR
STARTCHAR MHarpoonDl
ENCODING 3023
SWIDTH 508 0
DWIDTH 9 0
BBX 9 17 0 -3
BITMAP
0000
0800
0800
0800
0800
0800
0800
0800
0800
0800
0800
0800
0800
2800
1800
0800
0000
ENDCHAR
STARTCHAR MHarpoonDr
ENCODING 3024
SWIDTH 508 0
DWIDTH 9 0
BBX 9 17 0 -3
BITMAP
0000
0800
0800
0800
0800
0800
0800
0800
0800
0800
0800
0800
0800
0A00
0C00
0800
0000
ENDCHAR
STARTCHAR PCurlyBrackLTRB
ENCODING 3154
SWIDTH 508 0
DWIDTH 9 0
BBX 9 17 0 -3
BITMAP
0300
0400
0800
0800
0800
0800
0800
0800
0800
0800
0800
0800
0800
0800
0800
1000
6000
ENDCHAR
STARTCHAR PCurlyBrackLBRT
ENCODING 3155
SWIDTH 508 0
DWIDTH 9 0
BBX 9 17 0 -3
BITMAP
6000
1000
0800
0800
0800
0800
0800
0800
0800
0800
0800
0800
0800
0800
0800
0400
0300
ENDCHAR
STARTCHAR MSumT
ENCODING 3156
SWIDTH 508 0
DWIDTH 9 0
BBX 9 17 0 -3
BITMAP
0000
FF00
8000
8000
4000
4000
4000
2000
2000
2000
1000
1000
1000
0800
0800
0800
0400
ENDCHAR
STARTCHAR MRootB
ENCODING 3158
SWIDTH 508 0
DWIDTH 9 0
BBX 9 17 0 -3
BITMAP
0800
0800
0800
0800
0800
0800
0800
0800
0800
C800
4800
2800
2800
1800
1800
0800
0800
ENDCHAR
ENDFONT
