STARTFONT 2.1
COMMENT 
COMMENT Copyright (C) 2012-2025 Uwe Waldmann
COMMENT 
COMMENT Permission is hereby granted, free of charge, to any person obtaining
COMMENT a copy of this font software and associated files (the "Software"),
COMMENT to deal in the Software without restriction, including without
COMMENT limitation the rights to use, copy, modify, merge, publish,
COMMENT distribute, embed, sublicense, and/or sell copies of the Software,
COMMENT and to permit persons to whom the Software is furnished to do so,
COMMENT subject to the following conditions:
COMMENT 
COMMENT (1) The above copyright notice, this permission notice, and the
COMMENT     disclaimer below shall be included in all copies or substantial
COMMENT     portions of the Software.
COMMENT 
COMMENT (2) If the design of any glyphs in the fonts that are contained in the
COMMENT     Software or generated during the installation process is modified
COMMENT     or if additional glyphs are added to the fonts, the fonts
COMMENT     must be renamed. The new names may not contain the word "UW",
COMMENT     irrespective of capitalisation; the new names may contain the word
COMMENT     "ttyp0", irrespective of capitalisation, only if preceded by a
COMMENT     foundry name different from "UW".
COMMENT 
COMMENT THE SOFTWARE IS PROVIDED "AS IS", WITHOUT WARRANTY OF ANY KIND, EXPRESS
COMMENT OR IMPLIED, INCLUDING BUT NOT LIMITED TO THE WARRANTIES OF
COMMENT MERCHANTABILITY, FITNESS FOR A PARTICULAR PURPOSE AND NONINFRINGEMENT.
COMMENT IN NO EVENT SHALL THE AUTHORS OR COPYRIGHT HOLDERS BE LIABLE FOR ANY
COMMENT CLAIM, DAMAGES OR OTHER LIABILITY, WHETHER IN AN ACTION OF CONTRACT,
COMMENT TORT OR OTHERWISE, ARISING FROM, OUT OF OR IN CONNECTION WITH THE
COMMENT SOFTWARE OR THE USE OR OTHER DEALINGS IN THE SOFTWARE.
COMMENT 
FONT -UW-Ttyp0-Bold-R-Normal--11-100-75-75-C-60-UW-Fontspecific
SIZE 11 75 75
FONTBOUNDINGBOX 6 11 0 -2
STARTPROPERTIES 20
FONTNAME_REGISTRY ""
FOUNDRY "UW"
FAMILY_NAME "Ttyp0"
WEIGHT_NAME "Bold"
SLANT "R"
SETWIDTH_NAME "Normal"
ADD_STYLE_NAME ""
PIXEL_SIZE 11
POINT_SIZE 100
RESOLUTION_X 75
RESOLUTION_Y 75
SPACING "C"
AVERAGE_WIDTH 60
CHARSET_REGISTRY "UW"
CHARSET_ENCODING "Fontspecific"
DEFAULT_CHAR 0
FONT_DESCENT 2
FONT_ASCENT 9
COPYRIGHT "Copyright (C) 2012-2025 Uwe Waldmann"
_GBDFED_INFO "Edited with gbdfed 1.6."
ENDPROPERTIES
CHARS 241
STARTCHAR LtCapALdot
ENCODING 780
SWIDTH 523 0
DWIDTH 6 0
BBX 6 11 0 -2
BITMAP
00
20
60
70
50
F8
D8
98
98
00
60
ENDCHAR
STARTCHAR LtCapBLdot
ENCODING 781
SWIDTH 523 0
DWIDTH 6 0
BBX 6 11 0 -2
BITMAP
00
F0
D8
D8
F0
D8
D8
D8
F0
00
60
ENDCHAR
STARTCHAR LtCapCLdot
ENCODING 782
SWIDTH 523 0
DWIDTH 6 0
BBX 6 11 0 -2
BITMAP
00
78
C8
C0
C0
C0
C0
C8
78
00
30
ENDCHAR
STARTCHAR LtCapDLdot
ENCODING 783
SWIDTH 523 0
DWIDTH 6 0
BBX 6 11 0 -2
BITMAP
00
E0
D0
D8
D8
D8
D8
D0
E0
00
60
ENDCHAR
STARTCHAR LtCapELdot
ENCODING 784
SWIDTH 523 0
DWIDTH 6 0
BBX 6 11 0 -2
BITMAP
00
F8
C8
C0
F0
C0
C0
C8
F8
00
60
ENDCHAR
STARTCHAR LtCapHLdot
ENCODING 785
SWIDTH 523 0
DWIDTH 6 0
BBX 6 11 0 -2
BITMAP
00
D8
D8
D8
F8
D8
D8
D8
D8
00
60
ENDCHAR
STARTCHAR LtCapILdot
ENCODING 786
SWIDTH 523 0
DWIDTH 6 0
BBX 6 11 0 -2
BITMAP
00
78
30
30
30
30
30
30
78
00
30
ENDCHAR
STARTCHAR LtCapKLdot
ENCODING 787
SWIDTH 523 0
DWIDTH 6 0
BBX 6 11 0 -2
BITMAP
00
C8
D8
D0
E0
F0
D8
D8
D8
00
60
ENDCHAR
STARTCHAR LtCapLLdot
ENCODING 788
SWIDTH 523 0
DWIDTH 6 0
BBX 6 11 0 -2
BITMAP
00
C0
C0
C0
C0
C0
C0
C8
F8
00
60
ENDCHAR
STARTCHAR LtCapMLdot
ENCODING 789
SWIDTH 523 0
DWIDTH 6 0
BBX 6 11 0 -2
BITMAP
00
88
D8
F8
F8
A8
A8
88
88
00
60
ENDCHAR
STARTCHAR LtCapNLdot
ENCODING 790
SWIDTH 523 0
DWIDTH 6 0
BBX 6 11 0 -2
BITMAP
00
C8
C8
E8
E8
B8
B8
98
98
00
60
ENDCHAR
STARTCHAR LtCapOLdot
ENCODING 791
SWIDTH 523 0
DWIDTH 6 0
BBX 6 11 0 -2
BITMAP
00
70
D8
D8
D8
D8
D8
D8
70
00
60
ENDCHAR
STARTCHAR LtCapPLdot
ENCODING 792
SWIDTH 523 0
DWIDTH 6 0
BBX 6 11 0 -2
BITMAP
00
F0
D8
D8
D8
F0
C0
C0
C0
00
C0
ENDCHAR
STARTCHAR LtCapQLdot
ENCODING 793
SWIDTH 523 0
DWIDTH 6 0
BBX 6 11 0 -2
BITMAP
00
70
D8
D8
D8
D8
D8
D8
70
18
68
ENDCHAR
STARTCHAR LtCapRLdot
ENCODING 794
SWIDTH 523 0
DWIDTH 6 0
BBX 6 11 0 -2
BITMAP
00
F0
D8
D8
F0
D0
D8
D8
D8
00
60
ENDCHAR
STARTCHAR LtCapSLdot
ENCODING 795
SWIDTH 523 0
DWIDTH 6 0
BBX 6 11 0 -2
BITMAP
00
78
C8
C0
F0
78
18
98
F0
00
60
ENDCHAR
STARTCHAR LtCapTLdot
ENCODING 796
SWIDTH 523 0
DWIDTH 6 0
BBX 6 11 0 -2
BITMAP
00
FC
B0
30
30
30
30
30
30
00
30
ENDCHAR
STARTCHAR LtCapULdot
ENCODING 797
SWIDTH 523 0
DWIDTH 6 0
BBX 6 11 0 -2
BITMAP
00
D8
D8
D8
D8
D8
D8
D8
70
00
60
ENDCHAR
STARTCHAR LtCapVLdot
ENCODING 798
SWIDTH 523 0
DWIDTH 6 0
BBX 6 11 0 -2
BITMAP
00
C8
C8
C8
D8
58
70
30
20
00
60
ENDCHAR
STARTCHAR LtCapWLdot
ENCODING 799
SWIDTH 523 0
DWIDTH 6 0
BBX 6 11 0 -2
BITMAP
00
88
88
A8
A8
F8
F8
50
50
00
60
ENDCHAR
STARTCHAR LtCapYLdot
ENCODING 800
SWIDTH 523 0
DWIDTH 6 0
BBX 6 11 0 -2
BITMAP
00
C4
C8
68
70
30
30
30
30
00
30
ENDCHAR
STARTCHAR LtCapZLdot
ENCODING 801
SWIDTH 523 0
DWIDTH 6 0
BBX 6 11 0 -2
BITMAP
00
F8
98
30
30
60
60
C8
F8
00
60
ENDCHAR
STARTCHAR LtSmlALdot
ENCODING 802
SWIDTH 523 0
DWIDTH 6 0
BBX 6 11 0 -2
BITMAP
00
00
00
70
18
78
D8
D8
78
00
30
ENDCHAR
STARTCHAR LtSmlBLdot
ENCODING 803
SWIDTH 523 0
DWIDTH 6 0
BBX 6 11 0 -2
BITMAP
00
C0
C0
F0
D8
D8
D8
D8
F0
00
60
ENDCHAR
STARTCHAR LtSmlCLdot
ENCODING 804
SWIDTH 523 0
DWIDTH 6 0
BBX 6 11 0 -2
BITMAP
00
00
00
78
C8
C0
C0
C8
78
00
30
ENDCHAR
STARTCHAR LtSmlDLdot
ENCODING 805
SWIDTH 523 0
DWIDTH 6 0
BBX 6 11 0 -2
BITMAP
00
18
18
78
D8
D8
D8
D8
78
00
30
ENDCHAR
STARTCHAR LtSmlELdot
ENCODING 806
SWIDTH 523 0
DWIDTH 6 0
BBX 6 11 0 -2
BITMAP
00
00
00
70
D8
F8
C0
C8
78
00
30
ENDCHAR
STARTCHAR LtSmlHLdot
ENCODING 807
SWIDTH 523 0
DWIDTH 6 0
BBX 6 11 0 -2
BITMAP
00
C0
C0
F0
D8
D8
D8
D8
D8
00
60
ENDCHAR
STARTCHAR LtSmlILdot
ENCODING 808
SWIDTH 523 0
DWIDTH 6 0
BBX 6 11 0 -2
BITMAP
30
30
00
70
30
30
30
30
78
00
30
ENDCHAR
STARTCHAR LtSmlKLdot
ENCODING 809
SWIDTH 523 0
DWIDTH 6 0
BBX 6 11 0 -2
BITMAP
00
C0
C0
D8
D0
E0
F0
D8
D8
00
60
ENDCHAR
STARTCHAR LtSmlLLdot
ENCODING 810
SWIDTH 523 0
DWIDTH 6 0
BBX 6 11 0 -2
BITMAP
00
70
30
30
30
30
30
30
78
00
30
ENDCHAR
STARTCHAR LtSmlMLdot
ENCODING 811
SWIDTH 523 0
DWIDTH 6 0
BBX 6 11 0 -2
BITMAP
00
00
00
F0
F8
A8
A8
A8
A8
00
60
ENDCHAR
STARTCHAR LtSmlNLdot
ENCODING 812
SWIDTH 523 0
DWIDTH 6 0
BBX 6 11 0 -2
BITMAP
00
00
00
F0
D8
D8
D8
D8
D8
00
60
ENDCHAR
STARTCHAR LtSmlOLdot
ENCODING 813
SWIDTH 523 0
DWIDTH 6 0
BBX 6 11 0 -2
BITMAP
00
00
00
70
D8
D8
D8
D8
70
00
60
ENDCHAR
STARTCHAR LtSmlPLdot
ENCODING 814
SWIDTH 523 0
DWIDTH 6 0
BBX 6 11 0 -2
BITMAP
00
00
00
F0
D8
D8
D8
D8
F0
C0
D8
ENDCHAR
STARTCHAR LtSmlQLdot
ENCODING 815
SWIDTH 523 0
DWIDTH 6 0
BBX 6 11 0 -2
BITMAP
00
00
00
78
D8
D8
D8
D8
78
18
D8
ENDCHAR
STARTCHAR LtSmlRLdot
ENCODING 816
SWIDTH 523 0
DWIDTH 6 0
BBX 6 11 0 -2
BITMAP
00
00
00
F8
68
60
60
60
60
00
60
ENDCHAR
STARTCHAR LtSmlSLdot
ENCODING 817
SWIDTH 523 0
DWIDTH 6 0
BBX 6 11 0 -2
BITMAP
00
00
00
78
C0
F0
78
18
F0
00
60
ENDCHAR
STARTCHAR LtSmlTLdot
ENCODING 818
SWIDTH 523 0
DWIDTH 6 0
BBX 6 11 0 -2
BITMAP
00
20
60
F8
60
60
60
68
38
00
30
ENDCHAR
STARTCHAR LtSmlULdot
ENCODING 819
SWIDTH 523 0
DWIDTH 6 0
BBX 6 11 0 -2
BITMAP
00
00
00
D8
D8
D8
D8
D8
78
00
30
ENDCHAR
STARTCHAR LtSmlVLdot
ENCODING 820
SWIDTH 523 0
DWIDTH 6 0
BBX 6 11 0 -2
BITMAP
00
00
00
C8
C8
70
70
30
20
00
60
ENDCHAR
STARTCHAR LtSmlWLdot
ENCODING 821
SWIDTH 523 0
DWIDTH 6 0
BBX 6 11 0 -2
BITMAP
00
00
00
88
A8
A8
F8
70
50
00
60
ENDCHAR
STARTCHAR LtSmlYLdot
ENCODING 822
SWIDTH 523 0
DWIDTH 6 0
BBX 6 11 0 -2
BITMAP
00
00
00
C8
C8
68
78
30
10
A8
E8
ENDCHAR
STARTCHAR LtSmlZLdot
ENCODING 823
SWIDTH 523 0
DWIDTH 6 0
BBX 6 11 0 -2
BITMAP
00
00
00
F8
B8
30
60
E8
F8
00
60
ENDCHAR
STARTCHAR LtCapOHornLdot
ENCODING 824
SWIDTH 523 0
DWIDTH 6 0
BBX 6 11 0 -2
BITMAP
0C
7C
D8
D8
D8
D8
D8
D8
70
00
60
ENDCHAR
STARTCHAR LtCapUHornLdot
ENCODING 825
SWIDTH 523 0
DWIDTH 6 0
BBX 6 11 0 -2
BITMAP
0C
DC
D8
D8
D8
D8
D8
D8
70
00
60
ENDCHAR
STARTCHAR LtSmlOHornLdot
ENCODING 826
SWIDTH 523 0
DWIDTH 6 0
BBX 6 11 0 -2
BITMAP
00
00
0C
7C
D8
D8
D8
D8
70
00
60
ENDCHAR
STARTCHAR LtSmlUHornLdot
ENCODING 827
SWIDTH 523 0
DWIDTH 6 0
BBX 6 11 0 -2
BITMAP
00
00
0C
DC
D8
D8
D8
D8
78
00
30
ENDCHAR
STARTCHAR LtCapSDotLdot
ENCODING 828
SWIDTH 523 0
DWIDTH 6 0
BBX 6 11 0 -2
BITMAP
30
00
78
C8
E0
70
38
98
F0
00
60
ENDCHAR
STARTCHAR LtSmlSDotLdot
ENCODING 829
SWIDTH 523 0
DWIDTH 6 0
BBX 6 11 0 -2
BITMAP
30
30
00
78
C0
F0
78
18
F0
00
60
ENDCHAR
STARTCHAR LtCapLMacronLdot
ENCODING 830
SWIDTH 523 0
DWIDTH 6 0
BBX 6 11 0 -2
BITMAP
F8
00
C0
C0
C0
C0
C0
C8
F8
00
60
ENDCHAR
STARTCHAR LtCapRMacronLdot
ENCODING 831
SWIDTH 523 0
DWIDTH 6 0
BBX 6 11 0 -2
BITMAP
F8
00
F0
D8
D8
F0
D0
D8
D8
00
60
ENDCHAR
STARTCHAR LtSmlLMacronLdot
ENCODING 832
SWIDTH 523 0
DWIDTH 6 0
BBX 6 11 0 -2
BITMAP
F8
00
70
30
30
30
30
30
78
00
30
ENDCHAR
STARTCHAR LtSmlRMacronLdot
ENCODING 833
SWIDTH 523 0
DWIDTH 6 0
BBX 6 11 0 -2
BITMAP
00
78
00
F8
68
60
60
60
60
00
60
ENDCHAR
STARTCHAR LtCapEAcuteLdot
ENCODING 834
SWIDTH 523 0
DWIDTH 6 0
BBX 6 11 0 -2
BITMAP
30
60
F8
C8
C0
F0
C0
C8
F8
00
60
ENDCHAR
STARTCHAR LtCapOAcuteLdot
ENCODING 835
SWIDTH 523 0
DWIDTH 6 0
BBX 6 11 0 -2
BITMAP
18
30
70
D8
D8
D8
D8
D8
70
00
60
ENDCHAR
STARTCHAR LtCapRAcuteLdot
ENCODING 836
SWIDTH 523 0
DWIDTH 6 0
BBX 6 11 0 -2
BITMAP
30
60
F0
D8
D8
F0
D0
D8
D8
00
60
ENDCHAR
STARTCHAR LtSmlEAcuteLdot
ENCODING 837
SWIDTH 523 0
DWIDTH 6 0
BBX 6 11 0 -2
BITMAP
18
30
00
70
D8
F8
C0
C8
78
00
30
ENDCHAR
STARTCHAR LtSmlOAcuteLdot
ENCODING 838
SWIDTH 523 0
DWIDTH 6 0
BBX 6 11 0 -2
BITMAP
18
30
00
70
D8
D8
D8
D8
70
00
60
ENDCHAR
STARTCHAR LtSmlRAcuteLdot
ENCODING 839
SWIDTH 523 0
DWIDTH 6 0
BBX 6 11 0 -2
BITMAP
18
30
00
F8
68
60
60
60
60
00
60
ENDCHAR
STARTCHAR LtSmlRMacronAcuteLdot
ENCODING 840
SWIDTH 523 0
DWIDTH 6 0
BBX 6 11 0 -2
BITMAP
30
F8
00
F8
68
60
60
60
60
00
60
ENDCHAR
STARTCHAR LtCapEGraveLdot
ENCODING 841
SWIDTH 523 0
DWIDTH 6 0
BBX 6 11 0 -2
BITMAP
60
30
F8
C8
C0
F0
C0
C8
F8
00
60
ENDCHAR
STARTCHAR LtCapOGraveLdot
ENCODING 842
SWIDTH 523 0
DWIDTH 6 0
BBX 6 11 0 -2
BITMAP
60
30
70
D8
D8
D8
D8
D8
70
00
60
ENDCHAR
STARTCHAR LtCapRGraveLdot
ENCODING 843
SWIDTH 523 0
DWIDTH 6 0
BBX 6 11 0 -2
BITMAP
C0
60
F0
D8
D8
F0
D0
D8
D8
00
60
ENDCHAR
STARTCHAR LtSmlEGraveLdot
ENCODING 844
SWIDTH 523 0
DWIDTH 6 0
BBX 6 11 0 -2
BITMAP
60
30
00
70
D8
F8
C0
C8
78
00
30
ENDCHAR
STARTCHAR LtSmlOGraveLdot
ENCODING 845
SWIDTH 523 0
DWIDTH 6 0
BBX 6 11 0 -2
BITMAP
C0
60
00
70
D8
D8
D8
D8
70
00
60
ENDCHAR
STARTCHAR LtSmlRGraveLdot
ENCODING 846
SWIDTH 523 0
DWIDTH 6 0
BBX 6 11 0 -2
BITMAP
60
30
00
F8
68
60
60
60
60
00
60
ENDCHAR
STARTCHAR LtCapACircumLdot
ENCODING 847
SWIDTH 523 0
DWIDTH 6 0
BBX 6 11 0 -2
BITMAP
30
58
20
70
50
F8
D8
98
98
00
60
ENDCHAR
STARTCHAR LtCapECircumLdot
ENCODING 848
SWIDTH 523 0
DWIDTH 6 0
BBX 6 11 0 -2
BITMAP
30
58
F8
C8
C0
F0
C0
C8
F8
00
60
ENDCHAR
STARTCHAR LtCapOCircumLdot
ENCODING 849
SWIDTH 523 0
DWIDTH 6 0
BBX 6 11 0 -2
BITMAP
30
58
70
D8
D8
D8
D8
D8
70
00
60
ENDCHAR
STARTCHAR LtSmlACircumLdot
ENCODING 850
SWIDTH 523 0
DWIDTH 6 0
BBX 6 11 0 -2
BITMAP
30
58
00
70
18
78
D8
D8
78
00
30
ENDCHAR
STARTCHAR LtSmlECircumLdot
ENCODING 851
SWIDTH 523 0
DWIDTH 6 0
BBX 6 11 0 -2
BITMAP
30
58
00
70
D8
F8
C0
C8
78
00
30
ENDCHAR
STARTCHAR LtSmlOCircumLdot
ENCODING 852
SWIDTH 523 0
DWIDTH 6 0
BBX 6 11 0 -2
BITMAP
30
58
00
70
D8
D8
D8
D8
70
00
60
ENDCHAR
STARTCHAR LtCapCCaronLdot
ENCODING 853
SWIDTH 523 0
DWIDTH 6 0
BBX 6 11 0 -2
BITMAP
68
30
78
C8
C0
C0
C0
C8
78
00
30
ENDCHAR
STARTCHAR LtSmlCCaronLdot
ENCODING 854
SWIDTH 523 0
DWIDTH 6 0
BBX 6 11 0 -2
BITMAP
68
30
00
78
C8
C0
C0
C8
78
00
30
ENDCHAR
STARTCHAR LtCapABreveLdot
ENCODING 855
SWIDTH 523 0
DWIDTH 6 0
BBX 6 11 0 -2
BITMAP
D0
60
20
70
50
F8
D8
98
98
00
60
ENDCHAR
STARTCHAR LtSmlABreveLdot
ENCODING 856
SWIDTH 523 0
DWIDTH 6 0
BBX 6 11 0 -2
BITMAP
68
30
00
70
18
78
D8
D8
78
00
30
ENDCHAR
STARTCHAR LtSmlRLvline
ENCODING 860
SWIDTH 523 0
DWIDTH 6 0
BBX 6 11 0 -2
BITMAP
00
00
00
F8
68
60
60
60
00
60
60
ENDCHAR
STARTCHAR LtCapALring
ENCODING 862
SWIDTH 523 0
DWIDTH 6 0
BBX 6 11 0 -2
BITMAP
00
20
60
70
50
F8
D8
98
A8
50
20
ENDCHAR
STARTCHAR LtCapRLring
ENCODING 863
SWIDTH 523 0
DWIDTH 6 0
BBX 6 11 0 -2
BITMAP
00
F0
D8
D8
F0
D0
D8
D8
A8
50
20
ENDCHAR
STARTCHAR LtSmlALring
ENCODING 864
SWIDTH 523 0
DWIDTH 6 0
BBX 6 11 0 -2
BITMAP
00
00
00
70
18
78
D8
D8
78
50
20
ENDCHAR
STARTCHAR LtSmlLLring
ENCODING 865
SWIDTH 523 0
DWIDTH 6 0
BBX 6 11 0 -2
BITMAP
00
70
30
30
30
30
30
30
78
50
20
ENDCHAR
STARTCHAR LtSmlRLring
ENCODING 866
SWIDTH 523 0
DWIDTH 6 0
BBX 6 11 0 -2
BITMAP
00
00
00
F8
68
60
60
60
60
50
20
ENDCHAR
STARTCHAR LtSmlLMacronLring
ENCODING 867
SWIDTH 523 0
DWIDTH 6 0
BBX 6 11 0 -2
BITMAP
F8
00
70
30
30
30
30
30
78
50
20
ENDCHAR
STARTCHAR LtSmlRMacronLring
ENCODING 868
SWIDTH 523 0
DWIDTH 6 0
BBX 6 11 0 -2
BITMAP
00
78
00
F8
68
60
60
60
60
50
20
ENDCHAR
STARTCHAR LtSmlRAcuteLring
ENCODING 869
SWIDTH 523 0
DWIDTH 6 0
BBX 6 11 0 -2
BITMAP
18
30
00
F8
68
60
60
60
60
50
20
ENDCHAR
STARTCHAR LtSmlRMacronAcuteLring
ENCODING 870
SWIDTH 523 0
DWIDTH 6 0
BBX 6 11 0 -2
BITMAP
30
F8
00
F8
68
60
60
60
60
50
20
ENDCHAR
STARTCHAR LtSmlRGraveLring
ENCODING 871
SWIDTH 523 0
DWIDTH 6 0
BBX 6 11 0 -2
BITMAP
60
30
00
F8
68
60
60
60
60
50
20
ENDCHAR
STARTCHAR LtCapULdrss
ENCODING 872
SWIDTH 523 0
DWIDTH 6 0
BBX 6 11 0 -2
BITMAP
00
D8
D8
D8
D8
D8
D8
D8
70
00
D8
ENDCHAR
STARTCHAR LtSmlULdrss
ENCODING 873
SWIDTH 523 0
DWIDTH 6 0
BBX 6 11 0 -2
BITMAP
00
00
00
D8
D8
D8
D8
D8
78
00
D8
ENDCHAR
STARTCHAR LtCapBLmacron
ENCODING 874
SWIDTH 523 0
DWIDTH 6 0
BBX 6 11 0 -2
BITMAP
00
F0
D8
D8
F0
D8
D8
D8
F0
00
F8
ENDCHAR
STARTCHAR LtCapDLmacron
ENCODING 875
SWIDTH 523 0
DWIDTH 6 0
BBX 6 11 0 -2
BITMAP
00
E0
D0
D8
D8
D8
D8
D0
E0
00
F8
ENDCHAR
STARTCHAR LtCapELmacron
ENCODING 876
SWIDTH 523 0
DWIDTH 6 0
BBX 6 11 0 -2
BITMAP
00
F8
C8
C0
F0
C0
C0
C8
F8
00
F8
ENDCHAR
STARTCHAR LtCapHLmacron
ENCODING 877
SWIDTH 523 0
DWIDTH 6 0
BBX 6 11 0 -2
BITMAP
00
D8
D8
D8
F8
D8
D8
D8
D8
00
F8
ENDCHAR
STARTCHAR LtCapKLmacron
ENCODING 878
SWIDTH 523 0
DWIDTH 6 0
BBX 6 11 0 -2
BITMAP
00
C8
D8
D0
E0
F0
D8
D8
D8
00
F8
ENDCHAR
STARTCHAR LtCapLLmacron
ENCODING 879
SWIDTH 523 0
DWIDTH 6 0
BBX 6 11 0 -2
BITMAP
00
C0
C0
C0
C0
C0
C0
C8
F8
00
F8
ENDCHAR
STARTCHAR LtCapNLmacron
ENCODING 880
SWIDTH 523 0
DWIDTH 6 0
BBX 6 11 0 -2
BITMAP
00
C8
C8
E8
E8
B8
B8
98
98
00
F8
ENDCHAR
STARTCHAR LtCapOLmacron
ENCODING 881
SWIDTH 523 0
DWIDTH 6 0
BBX 6 11 0 -2
BITMAP
00
70
D8
D8
D8
D8
D8
D8
70
00
F8
ENDCHAR
STARTCHAR LtCapRLmacron
ENCODING 882
SWIDTH 523 0
DWIDTH 6 0
BBX 6 11 0 -2
BITMAP
00
F0
D8
D8
F0
D0
D8
D8
D8
00
F8
ENDCHAR
STARTCHAR LtCapTLmacron
ENCODING 883
SWIDTH 523 0
DWIDTH 6 0
BBX 6 11 0 -2
BITMAP
00
FC
B0
30
30
30
30
30
30
00
F8
ENDCHAR
STARTCHAR LtCapZLmacron
ENCODING 884
SWIDTH 523 0
DWIDTH 6 0
BBX 6 11 0 -2
BITMAP
00
F8
98
30
30
60
60
C8
F8
00
F8
ENDCHAR
STARTCHAR LtSmlBLmacron
ENCODING 885
SWIDTH 523 0
DWIDTH 6 0
BBX 6 11 0 -2
BITMAP
00
C0
C0
F0
D8
D8
D8
D8
F0
00
F8
ENDCHAR
STARTCHAR LtSmlDLmacron
ENCODING 886
SWIDTH 523 0
DWIDTH 6 0
BBX 6 11 0 -2
BITMAP
00
18
18
78
D8
D8
D8
D8
78
00
F8
ENDCHAR
STARTCHAR LtSmlELmacron
ENCODING 887
SWIDTH 523 0
DWIDTH 6 0
BBX 6 11 0 -2
BITMAP
00
00
00
70
D8
F8
C0
C8
78
00
F8
ENDCHAR
STARTCHAR LtSmlHLmacron
ENCODING 888
SWIDTH 523 0
DWIDTH 6 0
BBX 6 11 0 -2
BITMAP
00
C0
C0
F0
D8
D8
D8
D8
D8
00
F8
ENDCHAR
STARTCHAR LtSmlKLmacron
ENCODING 889
SWIDTH 523 0
DWIDTH 6 0
BBX 6 11 0 -2
BITMAP
00
C0
C0
D8
D0
E0
F0
D8
D8
00
F8
ENDCHAR
STARTCHAR LtSmlLLmacron
ENCODING 890
SWIDTH 523 0
DWIDTH 6 0
BBX 6 11 0 -2
BITMAP
00
70
30
30
30
30
30
30
78
00
78
ENDCHAR
STARTCHAR LtSmlNLmacron
ENCODING 891
SWIDTH 523 0
DWIDTH 6 0
BBX 6 11 0 -2
BITMAP
00
00
00
F0
D8
D8
D8
D8
D8
00
F8
ENDCHAR
STARTCHAR LtSmlOLmacron
ENCODING 892
SWIDTH 523 0
DWIDTH 6 0
BBX 6 11 0 -2
BITMAP
00
00
00
70
D8
D8
D8
D8
70
00
F8
ENDCHAR
STARTCHAR LtSmlRLmacron
ENCODING 893
SWIDTH 523 0
DWIDTH 6 0
BBX 6 11 0 -2
BITMAP
00
00
00
F8
68
60
60
60
60
00
78
ENDCHAR
STARTCHAR LtSmlTLmacron
ENCODING 894
SWIDTH 523 0
DWIDTH 6 0
BBX 6 11 0 -2
BITMAP
00
20
60
F8
60
60
60
68
38
00
F8
ENDCHAR
STARTCHAR LtSmlZLmacron
ENCODING 895
SWIDTH 523 0
DWIDTH 6 0
BBX 6 11 0 -2
BITMAP
00
00
00
F8
B8
30
60
E8
F8
00
F8
ENDCHAR
STARTCHAR LtCapGHLmacron
ENCODING 896
SWIDTH 523 0
DWIDTH 6 0
BBX 6 11 0 -2
BITMAP
00
68
E8
A8
B8
F8
E8
E8
68
00
F8
ENDCHAR
STARTCHAR LtCapKHLmacron
ENCODING 897
SWIDTH 523 0
DWIDTH 6 0
BBX 6 11 0 -2
BITMAP
00
A8
E8
E8
B8
F8
E8
E8
A8
00
F8
ENDCHAR
STARTCHAR LtMixGHLmacron
ENCODING 898
SWIDTH 523 0
DWIDTH 6 0
BBX 6 11 0 -2
BITMAP
00
60
E0
B0
B8
E8
E8
E8
68
00
F8
ENDCHAR
STARTCHAR LtMixKHLmacron
ENCODING 899
SWIDTH 523 0
DWIDTH 6 0
BBX 6 11 0 -2
BITMAP
00
A0
E0
F0
B8
E8
E8
E8
A8
00
F8
ENDCHAR
STARTCHAR LtSmlGHLmacron
ENCODING 900
SWIDTH 523 0
DWIDTH 6 0
BBX 6 11 0 -2
BITMAP
00
20
20
70
F8
A8
A8
E8
68
C0
F8
ENDCHAR
STARTCHAR LtSmlKHLmacron
ENCODING 901
SWIDTH 523 0
DWIDTH 6 0
BBX 6 11 0 -2
BITMAP
00
A0
A0
F0
F8
A8
E8
E8
A8
00
F8
ENDCHAR
STARTCHAR LtCapDLcircum
ENCODING 902
SWIDTH 523 0
DWIDTH 6 0
BBX 6 11 0 -2
BITMAP
00
E0
D0
D8
D8
D8
D8
D0
E0
60
B0
ENDCHAR
STARTCHAR LtCapELcircum
ENCODING 903
SWIDTH 523 0
DWIDTH 6 0
BBX 6 11 0 -2
BITMAP
00
F8
C8
C0
F0
C0
C0
C8
F8
30
58
ENDCHAR
STARTCHAR LtCapLLcircum
ENCODING 904
SWIDTH 523 0
DWIDTH 6 0
BBX 6 11 0 -2
BITMAP
00
C0
C0
C0
C0
C0
C0
C8
F8
30
58
ENDCHAR
STARTCHAR LtCapNLcircum
ENCODING 905
SWIDTH 523 0
DWIDTH 6 0
BBX 6 11 0 -2
BITMAP
00
C8
C8
E8
E8
B8
B8
98
98
60
B0
ENDCHAR
STARTCHAR LtCapTLcircum
ENCODING 906
SWIDTH 523 0
DWIDTH 6 0
BBX 6 11 0 -2
BITMAP
00
FC
B0
30
30
30
30
30
30
30
58
ENDCHAR
STARTCHAR LtCapULcircum
ENCODING 907
SWIDTH 523 0
DWIDTH 6 0
BBX 6 11 0 -2
BITMAP
00
D8
D8
D8
D8
D8
D8
D8
70
30
58
ENDCHAR
STARTCHAR LtSmlDLcircum
ENCODING 908
SWIDTH 523 0
DWIDTH 6 0
BBX 6 11 0 -2
BITMAP
00
18
18
78
D8
D8
D8
D8
78
30
58
ENDCHAR
STARTCHAR LtSmlELcircum
ENCODING 909
SWIDTH 523 0
DWIDTH 6 0
BBX 6 11 0 -2
BITMAP
00
00
00
70
D8
F8
C0
C8
78
30
58
ENDCHAR
STARTCHAR LtSmlLLcircum
ENCODING 910
SWIDTH 523 0
DWIDTH 6 0
BBX 6 11 0 -2
BITMAP
00
70
30
30
30
30
30
30
78
30
58
ENDCHAR
STARTCHAR LtSmlNLcircum
ENCODING 911
SWIDTH 523 0
DWIDTH 6 0
BBX 6 11 0 -2
BITMAP
00
00
00
F0
D8
D8
D8
D8
D8
30
58
ENDCHAR
STARTCHAR LtSmlTLcircum
ENCODING 912
SWIDTH 523 0
DWIDTH 6 0
BBX 6 11 0 -2
BITMAP
00
20
60
F8
60
60
60
68
38
30
58
ENDCHAR
STARTCHAR LtSmlULcircum
ENCODING 913
SWIDTH 523 0
DWIDTH 6 0
BBX 6 11 0 -2
BITMAP
00
00
00
D8
D8
D8
D8
D8
78
30
58
ENDCHAR
STARTCHAR LtCapHLbreve
ENCODING 914
SWIDTH 523 0
DWIDTH 6 0
BBX 6 11 0 -2
BITMAP
00
D8
D8
D8
F8
D8
D8
D8
88
D0
60
ENDCHAR
STARTCHAR LtSmlHLbreve
ENCODING 915
SWIDTH 523 0
DWIDTH 6 0
BBX 6 11 0 -2
BITMAP
00
C0
C0
F0
D8
D8
D8
D8
88
D0
60
ENDCHAR
STARTCHAR LtSmlILinvbreve
ENCODING 916
SWIDTH 523 0
DWIDTH 6 0
BBX 6 11 0 -2
BITMAP
30
30
00
70
30
30
30
30
78
30
58
ENDCHAR
STARTCHAR LtSmlOLinvbreve
ENCODING 917
SWIDTH 523 0
DWIDTH 6 0
BBX 6 11 0 -2
BITMAP
00
00
00
70
D8
D8
D8
D8
70
30
58
ENDCHAR
STARTCHAR LtSmlULinvbreve
ENCODING 918
SWIDTH 523 0
DWIDTH 6 0
BBX 6 11 0 -2
BITMAP
00
00
00
D8
D8
D8
D8
D8
78
30
58
ENDCHAR
STARTCHAR LtSmlATrndLinvbreve
ENCODING 919
SWIDTH 523 0
DWIDTH 6 0
BBX 6 11 0 -2
BITMAP
00
00
00
F0
D8
D8
F0
C0
70
60
B0
ENDCHAR
STARTCHAR LtCapELtilde
ENCODING 920
SWIDTH 523 0
DWIDTH 6 0
BBX 6 11 0 -2
BITMAP
00
F8
C8
C0
F0
C0
C0
C8
F8
48
B0
ENDCHAR
STARTCHAR LtCapILtilde
ENCODING 921
SWIDTH 523 0
DWIDTH 6 0
BBX 6 11 0 -2
BITMAP
00
78
30
30
30
30
30
30
78
48
B0
ENDCHAR
STARTCHAR LtCapULtilde
ENCODING 922
SWIDTH 523 0
DWIDTH 6 0
BBX 6 11 0 -2
BITMAP
00
D8
D8
D8
D8
D8
D8
D8
70
48
B0
ENDCHAR
STARTCHAR LtSmlELtilde
ENCODING 923
SWIDTH 523 0
DWIDTH 6 0
BBX 6 11 0 -2
BITMAP
00
00
00
70
D8
F8
C0
C8
78
48
B0
ENDCHAR
STARTCHAR LtSmlILtilde
ENCODING 924
SWIDTH 523 0
DWIDTH 6 0
BBX 6 11 0 -2
BITMAP
30
30
00
70
30
30
30
30
78
48
B0
ENDCHAR
STARTCHAR LtSmlULtilde
ENCODING 925
SWIDTH 523 0
DWIDTH 6 0
BBX 6 11 0 -2
BITMAP
00
00
00
D8
D8
D8
D8
D8
78
48
B0
ENDCHAR
STARTCHAR HbAlefPatah
ENCODING 1355
SWIDTH 523 0
DWIDTH 6 0
BBX 6 11 0 -2
BITMAP
00
00
00
90
D8
70
B0
98
C8
00
F8
ENDCHAR
STARTCHAR HbAlefQamats
ENCODING 1357
SWIDTH 523 0
DWIDTH 6 0
BBX 6 11 0 -2
BITMAP
00
00
00
90
D8
70
B0
98
C8
70
20
ENDCHAR
STARTCHAR GeGan
ENCODING 1388
SWIDTH 523 0
DWIDTH 6 0
BBX 6 11 0 -2
BITMAP
00
00
00
00
C0
E0
20
70
D8
D8
70
ENDCHAR
STARTCHAR GeDon
ENCODING 1389
SWIDTH 523 0
DWIDTH 6 0
BBX 6 11 0 -2
BITMAP
00
00
00
00
70
D8
D8
70
60
F0
18
ENDCHAR
STARTCHAR GeEn
ENCODING 1390
SWIDTH 523 0
DWIDTH 6 0
BBX 6 11 0 -2
BITMAP
00
00
00
00
70
58
18
18
18
98
F0
ENDCHAR
STARTCHAR GeVin
ENCODING 1391
SWIDTH 523 0
DWIDTH 6 0
BBX 6 11 0 -2
BITMAP
00
00
00
00
70
58
18
70
18
98
F0
ENDCHAR
STARTCHAR GeKan
ENCODING 1395
SWIDTH 523 0
DWIDTH 6 0
BBX 6 11 0 -2
BITMAP
00
00
00
00
18
18
18
70
18
98
F0
ENDCHAR
STARTCHAR GeLas
ENCODING 1396
SWIDTH 523 0
DWIDTH 6 0
BBX 6 11 0 -2
BITMAP
00
00
00
00
70
D8
D8
C0
60
F0
18
ENDCHAR
STARTCHAR GeZhar
ENCODING 1401
SWIDTH 523 0
DWIDTH 6 0
BBX 6 11 0 -2
BITMAP
00
00
00
00
B8
A8
E8
48
08
78
30
ENDCHAR
STARTCHAR GeTar
ENCODING 1404
SWIDTH 523 0
DWIDTH 6 0
BBX 6 11 0 -2
BITMAP
00
00
00
20
50
F8
A8
88
88
D8
70
ENDCHAR
STARTCHAR GeUn
ENCODING 1405
SWIDTH 523 0
DWIDTH 6 0
BBX 6 11 0 -2
BITMAP
00
00
00
00
B0
F8
58
18
98
98
F0
ENDCHAR
STARTCHAR GePhar
ENCODING 1406
SWIDTH 523 0
DWIDTH 6 0
BBX 6 11 0 -2
BITMAP
00
00
00
00
70
A8
E8
50
18
58
70
ENDCHAR
STARTCHAR GeKhar
ENCODING 1407
SWIDTH 523 0
DWIDTH 6 0
BBX 6 11 0 -2
BITMAP
00
08
18
18
18
78
58
18
18
98
F0
ENDCHAR
STARTCHAR GeGhan
ENCODING 1408
SWIDTH 523 0
DWIDTH 6 0
BBX 6 11 0 -2
BITMAP
00
00
00
00
50
F8
A8
88
60
F0
18
ENDCHAR
STARTCHAR GeQar
ENCODING 1409
SWIDTH 523 0
DWIDTH 6 0
BBX 6 11 0 -2
BITMAP
00
00
00
00
D8
D8
D8
78
18
98
F0
ENDCHAR
STARTCHAR GeCan
ENCODING 1412
SWIDTH 523 0
DWIDTH 6 0
BBX 6 11 0 -2
BITMAP
00
00
00
00
B0
98
98
B0
98
98
70
ENDCHAR
STARTCHAR GeCil
ENCODING 1414
SWIDTH 523 0
DWIDTH 6 0
BBX 6 11 0 -2
BITMAP
00
50
F8
A8
80
F8
50
50
70
20
20
ENDCHAR
STARTCHAR GeChar
ENCODING 1415
SWIDTH 523 0
DWIDTH 6 0
BBX 6 11 0 -2
BITMAP
00
40
60
30
18
38
58
38
18
98
F0
ENDCHAR
STARTCHAR GeWe
ENCODING 1421
SWIDTH 523 0
DWIDTH 6 0
BBX 6 11 0 -2
BITMAP
00
00
00
00
78
18
30
70
18
98
F0
ENDCHAR
STARTCHAR GeHar
ENCODING 1422
SWIDTH 523 0
DWIDTH 6 0
BBX 6 11 0 -2
BITMAP
00
30
60
60
38
18
30
70
18
98
F0
ENDCHAR
STARTCHAR GeFi
ENCODING 1424
SWIDTH 523 0
DWIDTH 6 0
BBX 6 11 0 -2
BITMAP
00
00
00
50
F8
A8
A8
B8
30
20
60
ENDCHAR
STARTCHAR GeYn
ENCODING 1425
SWIDTH 523 0
DWIDTH 6 0
BBX 6 11 0 -2
BITMAP
00
00
00
00
F0
98
18
70
C0
C8
78
ENDCHAR
STARTCHAR GeElifi
ENCODING 1426
SWIDTH 523 0
DWIDTH 6 0
BBX 6 11 0 -2
BITMAP
00
00
00
00
D8
D8
D8
F0
C0
C8
78
ENDCHAR
STARTCHAR GeUo
ENCODING 1429
SWIDTH 523 0
DWIDTH 6 0
BBX 6 11 0 -2
BITMAP
00
00
00
00
68
F8
D0
C0
C8
C8
78
ENDCHAR
STARTCHAR GeGanTrnd
ENCODING 1432
SWIDTH 523 0
DWIDTH 6 0
BBX 6 11 0 -2
BITMAP
00
00
00
00
70
D8
D8
70
20
38
18
ENDCHAR
STARTCHAR GeUnDrss
ENCODING 1435
SWIDTH 523 0
DWIDTH 6 0
BBX 6 11 0 -2
BITMAP
00
50
50
00
B0
F8
58
18
98
98
F0
ENDCHAR
STARTCHAR GeUnCircum
ENCODING 1437
SWIDTH 523 0
DWIDTH 6 0
BBX 6 11 0 -2
BITMAP
00
60
B0
00
B0
F8
58
18
98
98
F0
ENDCHAR
STARTCHAR GeEnMacron
ENCODING 1439
SWIDTH 523 0
DWIDTH 6 0
BBX 6 11 0 -2
BITMAP
00
00
78
00
70
58
18
18
18
98
F0
ENDCHAR
STARTCHAR GeUnMacron
ENCODING 1442
SWIDTH 523 0
DWIDTH 6 0
BBX 6 11 0 -2
BITMAP
00
00
F0
00
B0
F8
58
18
98
98
F0
ENDCHAR
STARTCHAR AmSmlEh
ENCODING 1489
SWIDTH 523 0
DWIDTH 6 0
BBX 6 11 0 -2
BITMAP
00
C0
C0
C0
F8
C0
C0
C0
70
18
00
ENDCHAR
STARTCHAR AmSmlYi
ENCODING 1503
SWIDTH 523 0
DWIDTH 6 0
BBX 6 11 0 -2
BITMAP
00
00
00
00
70
30
30
30
30
B0
E0
ENDCHAR
STARTCHAR AmSmlSha
ENCODING 1505
SWIDTH 523 0
DWIDTH 6 0
BBX 6 11 0 -2
BITMAP
00
00
00
00
70
98
18
30
60
C0
78
ENDCHAR
STARTCHAR AmSmlCha
ENCODING 1507
SWIDTH 523 0
DWIDTH 6 0
BBX 6 11 0 -2
BITMAP
00
00
00
00
20
70
30
60
C0
C0
78
ENDCHAR
STARTCHAR AmSmlJheh
ENCODING 1509
SWIDTH 523 0
DWIDTH 6 0
BBX 6 11 0 -2
BITMAP
00
70
B8
D8
D8
70
70
60
C0
C0
78
ENDCHAR
STARTCHAR AmSmlCo
ENCODING 1515
SWIDTH 523 0
DWIDTH 6 0
BBX 6 11 0 -2
BITMAP
00
00
00
00
78
D8
D8
78
18
98
F0
ENDCHAR
STARTCHAR AmSmlKeh
ENCODING 1518
SWIDTH 523 0
DWIDTH 6 0
BBX 6 11 0 -2
BITMAP
00
00
00
00
F0
D8
D8
F0
C0
F0
C0
ENDCHAR
STARTCHAR GkCapIotTrndLbreve
ENCODING 1612
SWIDTH 523 0
DWIDTH 6 0
BBX 6 11 0 -2
BITMAP
00
78
30
30
30
30
30
78
00
48
30
ENDCHAR
STARTCHAR GkCapUpsTrndLbreve
ENCODING 1613
SWIDTH 523 0
DWIDTH 6 0
BBX 6 11 0 -2
BITMAP
00
30
30
30
30
70
68
C8
84
48
30
ENDCHAR
STARTCHAR GkSmlIotTrndLbreve
ENCODING 1614
SWIDTH 523 0
DWIDTH 6 0
BBX 6 11 0 -2
BITMAP
00
00
00
E0
30
30
30
30
00
48
30
ENDCHAR
STARTCHAR GkSmlUpsTrndLbreve
ENCODING 1615
SWIDTH 523 0
DWIDTH 6 0
BBX 6 11 0 -2
BITMAP
00
00
00
70
D8
98
D8
48
00
48
30
ENDCHAR
STARTCHAR ThYoYing
ENCODING 1917
SWIDTH 523 0
DWIDTH 6 0
BBX 6 11 0 -2
BITMAP
00
00
00
00
48
E8
A8
B8
98
08
30
ENDCHAR
STARTCHAR ThDoChada
ENCODING 1919
SWIDTH 523 0
DWIDTH 6 0
BBX 6 11 0 -2
BITMAP
00
00
00
00
70
98
D8
58
D8
18
78
ENDCHAR
STARTCHAR ThToPatak
ENCODING 1920
SWIDTH 523 0
DWIDTH 6 0
BBX 6 11 0 -2
BITMAP
00
00
00
00
70
98
D8
58
98
58
F8
ENDCHAR
STARTCHAR ThThoThan
ENCODING 1921
SWIDTH 523 0
DWIDTH 6 0
BBX 6 11 0 -2
BITMAP
00
00
00
00
F8
F8
10
78
18
A0
F8
ENDCHAR
STARTCHAR ThRu
ENCODING 1942
SWIDTH 523 0
DWIDTH 6 0
BBX 6 11 0 -2
BITMAP
00
00
00
00
70
88
C8
C8
E8
08
08
ENDCHAR
STARTCHAR ThLu
ENCODING 1944
SWIDTH 523 0
DWIDTH 6 0
BBX 6 11 0 -2
BITMAP
00
00
00
00
70
C8
E8
68
E8
08
08
ENDCHAR
STARTCHAR ThMaiyamok
ENCODING 1955
SWIDTH 523 0
DWIDTH 6 0
BBX 6 11 0 -2
BITMAP
00
00
00
00
50
F8
98
D8
18
18
30
ENDCHAR
STARTCHAR ThLakkhangyao
ENCODING 1956
SWIDTH 523 0
DWIDTH 6 0
BBX 6 11 0 -2
BITMAP
00
00
00
00
70
D8
18
18
18
18
18
ENDCHAR
STARTCHAR ThSaraU
ENCODING 1978
SWIDTH 523 0
DWIDTH 6 0
BBX 6 11 0 -2
BITMAP
00
00
00
00
00
00
00
00
00
18
08
ENDCHAR
STARTCHAR ThSaraUu
ENCODING 1979
SWIDTH 523 0
DWIDTH 6 0
BBX 6 11 0 -2
BITMAP
00
00
00
00
00
00
00
00
00
68
38
ENDCHAR
STARTCHAR ThPhinthu
ENCODING 1980
SWIDTH 523 0
DWIDTH 6 0
BBX 6 11 0 -2
BITMAP
00
00
00
00
00
00
00
00
00
00
18
ENDCHAR
STARTCHAR ThSaraUD
ENCODING 1986
SWIDTH 523 0
DWIDTH 6 0
BBX 6 11 0 -2
BITMAP
00
00
00
00
00
00
00
00
00
18
08
ENDCHAR
STARTCHAR ThSaraUuD
ENCODING 1987
SWIDTH 523 0
DWIDTH 6 0
BBX 6 11 0 -2
BITMAP
00
00
00
00
00
00
00
00
00
68
38
ENDCHAR
STARTCHAR ThPhinthuD
ENCODING 1988
SWIDTH 523 0
DWIDTH 6 0
BBX 6 11 0 -2
BITMAP
00
00
00
00
00
00
00
00
00
00
18
ENDCHAR
STARTCHAR AccGraveAscii
ENCODING 2484
SWIDTH 523 0
DWIDTH 6 0
BBX 6 11 0 -2
BITMAP
60
60
30
10
00
00
00
00
00
00
00
ENDCHAR
STARTCHAR CombHbMeteg
ENCODING 2566
SWIDTH 523 0
DWIDTH 6 0
BBX 6 11 0 -2
BITMAP
00
00
00
00
00
00
00
00
20
20
20
ENDCHAR
STARTCHAR CombHbPatah
ENCODING 2567
SWIDTH 523 0
DWIDTH 6 0
BBX 6 11 0 -2
BITMAP
00
00
00
00
00
00
00
00
00
00
F8
ENDCHAR
STARTCHAR CombHbQamats
ENCODING 2568
SWIDTH 523 0
DWIDTH 6 0
BBX 6 11 0 -2
BITMAP
00
00
00
00
00
00
00
00
00
70
20
ENDCHAR
STARTCHAR CombHbSegol
ENCODING 2569
SWIDTH 523 0
DWIDTH 6 0
BBX 6 11 0 -2
BITMAP
00
00
00
00
00
00
00
00
00
88
20
ENDCHAR
STARTCHAR CombHbHatafQamats
ENCODING 2573
SWIDTH 523 0
DWIDTH 6 0
BBX 6 11 0 -2
BITMAP
00
00
00
00
00
00
00
00
08
E0
48
ENDCHAR
STARTCHAR CombLdot
ENCODING 2631
SWIDTH 523 0
DWIDTH 6 0
BBX 6 11 0 -2
BITMAP
00
00
00
00
00
00
00
00
00
00
30
ENDCHAR
STARTCHAR CombLvline
ENCODING 2632
SWIDTH 523 0
DWIDTH 6 0
BBX 6 11 0 -2
BITMAP
00
00
00
00
00
00
00
00
00
30
30
ENDCHAR
STARTCHAR CombLdrss
ENCODING 2633
SWIDTH 523 0
DWIDTH 6 0
BBX 6 11 0 -2
BITMAP
00
00
00
00
00
00
00
00
00
00
D8
ENDCHAR
STARTCHAR CombLvline2
ENCODING 2634
SWIDTH 523 0
DWIDTH 6 0
BBX 6 11 0 -2
BITMAP
00
00
00
00
00
00
00
00
00
50
50
ENDCHAR
STARTCHAR CombLcircum
ENCODING 2637
SWIDTH 523 0
DWIDTH 6 0
BBX 6 11 0 -2
BITMAP
00
00
00
00
00
00
00
00
00
30
58
ENDCHAR
STARTCHAR CombLcaron
ENCODING 2638
SWIDTH 523 0
DWIDTH 6 0
BBX 6 11 0 -2
BITMAP
00
00
00
00
00
00
00
00
00
68
30
ENDCHAR
STARTCHAR CombLbreve
ENCODING 2639
SWIDTH 523 0
DWIDTH 6 0
BBX 6 11 0 -2
BITMAP
00
00
00
00
00
00
00
00
00
68
30
ENDCHAR
STARTCHAR CombLinvbreve
ENCODING 2640
SWIDTH 523 0
DWIDTH 6 0
BBX 6 11 0 -2
BITMAP
00
00
00
00
00
00
00
00
00
30
58
ENDCHAR
STARTCHAR CombLmacron
ENCODING 2641
SWIDTH 523 0
DWIDTH 6 0
BBX 6 11 0 -2
BITMAP
00
00
00
00
00
00
00
00
00
00
F8
ENDCHAR
STARTCHAR CombLtilde
ENCODING 2644
SWIDTH 523 0
DWIDTH 6 0
BBX 6 11 0 -2
BITMAP
00
00
00
00
00
00
00
00
00
48
B0
ENDCHAR
STARTCHAR PApostropheAscii
ENCODING 2681
SWIDTH 523 0
DWIDTH 6 0
BBX 6 11 0 -2
BITMAP
30
30
60
40
00
00
00
00
00
00
00
ENDCHAR
STARTCHAR PComma
ENCODING 2711
SWIDTH 523 0
DWIDTH 6 0
BBX 6 11 0 -2
BITMAP
00
00
00
00
00
00
00
30
30
60
40
ENDCHAR
STARTCHAR PSemicolon
ENCODING 2712
SWIDTH 523 0
DWIDTH 6 0
BBX 6 11 0 -2
BITMAP
00
00
00
00
30
30
00
30
30
60
40
ENDCHAR
STARTCHAR MArrowU
ENCODING 2955
SWIDTH 523 0
DWIDTH 6 0
BBX 6 11 0 -2
BITMAP
30
78
30
30
30
30
30
30
30
30
00
ENDCHAR
STARTCHAR MArrowD
ENCODING 2956
SWIDTH 523 0
DWIDTH 6 0
BBX 6 11 0 -2
BITMAP
30
30
30
30
30
30
30
30
78
30
00
ENDCHAR
STARTCHAR MArrowUD
ENCODING 2959
SWIDTH 523 0
DWIDTH 6 0
BBX 6 11 0 -2
BITMAP
30
78
30
30
30
30
30
30
78
30
00
ENDCHAR
STARTCHAR MArrowUDBase
ENCODING 2960
SWIDTH 523 0
DWIDTH 6 0
BBX 6 11 0 -2
BITMAP
30
78
30
30
30
30
30
78
30
78
00
ENDCHAR
STARTCHAR MArrowULeftD
ENCODING 2962
SWIDTH 523 0
DWIDTH 6 0
BBX 6 11 0 -2
BITMAP
D8
F8
D8
D8
D8
D8
D8
D8
FC
D8
00
ENDCHAR
STARTCHAR MArrowULeftU
ENCODING 2966
SWIDTH 523 0
DWIDTH 6 0
BBX 6 11 0 -2
BITMAP
D8
FC
D8
D8
D8
D8
D8
D8
D8
D8
00
ENDCHAR
STARTCHAR MArrowDLeftD
ENCODING 2967
SWIDTH 523 0
DWIDTH 6 0
BBX 6 11 0 -2
BITMAP
D8
D8
D8
D8
D8
D8
D8
D8
FC
D8
00
ENDCHAR
STARTCHAR MArrowUu
ENCODING 2970
SWIDTH 523 0
DWIDTH 6 0
BBX 6 11 0 -2
BITMAP
30
78
30
78
30
30
30
30
30
30
00
ENDCHAR
STARTCHAR MArrowDd
ENCODING 2971
SWIDTH 523 0
DWIDTH 6 0
BBX 6 11 0 -2
BITMAP
30
30
30
30
30
30
78
30
78
30
00
ENDCHAR
STARTCHAR MArrowBarU
ENCODING 2972
SWIDTH 523 0
DWIDTH 6 0
BBX 6 11 0 -2
BITMAP
30
78
30
30
30
30
30
30
30
78
00
ENDCHAR
STARTCHAR MArrowBarD
ENCODING 2973
SWIDTH 523 0
DWIDTH 6 0
BBX 6 11 0 -2
BITMAP
78
30
30
30
30
30
30
30
78
30
00
ENDCHAR
STARTCHAR MArrowLU
ENCODING 2978
SWIDTH 523 0
DWIDTH 6 0
BBX 6 11 0 -2
BITMAP
80
E0
F0
E0
E0
30
30
18
18
08
00
ENDCHAR
STARTCHAR MArrowRU
ENCODING 2979
SWIDTH 523 0
DWIDTH 6 0
BBX 6 11 0 -2
BITMAP
08
38
78
38
38
60
60
C0
C0
80
00
ENDCHAR
STARTCHAR MArrowLD
ENCODING 2980
SWIDTH 523 0
DWIDTH 6 0
BBX 6 11 0 -2
BITMAP
08
18
18
30
30
E0
E0
F0
E0
80
00
ENDCHAR
STARTCHAR MArrowRD
ENCODING 2981
SWIDTH 523 0
DWIDTH 6 0
BBX 6 11 0 -2
BITMAP
80
C0
C0
60
60
38
38
78
38
08
00
ENDCHAR
STARTCHAR MArrow2U
ENCODING 2998
SWIDTH 523 0
DWIDTH 6 0
BBX 6 11 0 -2
BITMAP
20
70
F8
50
50
50
50
50
50
50
00
ENDCHAR
STARTCHAR MArrow2D
ENCODING 2999
SWIDTH 523 0
DWIDTH 6 0
BBX 6 11 0 -2
BITMAP
50
50
50
50
50
50
50
F8
70
20
00
ENDCHAR
STARTCHAR MArrow2UD
ENCODING 3000
SWIDTH 523 0
DWIDTH 6 0
BBX 6 11 0 -2
BITMAP
20
70
F8
50
50
50
50
F8
70
20
00
ENDCHAR
STARTCHAR MHarpoonUl
ENCODING 3021
SWIDTH 523 0
DWIDTH 6 0
BBX 6 11 0 -2
BITMAP
30
70
30
30
30
30
30
30
30
30
00
ENDCHAR
STARTCHAR MHarpoonUr
ENCODING 3022
SWIDTH 523 0
DWIDTH 6 0
BBX 6 11 0 -2
BITMAP
30
38
30
30
30
30
30
30
30
30
00
ENDCHAR
STARTCHAR MHarpoonDl
ENCODING 3023
SWIDTH 523 0
DWIDTH 6 0
BBX 6 11 0 -2
BITMAP
30
30
30
30
30
30
30
30
70
30
00
ENDCHAR
STARTCHAR MHarpoonDr
ENCODING 3024
SWIDTH 523 0
DWIDTH 6 0
BBX 6 11 0 -2
BITMAP
30
30
30
30
30
30
30
30
38
30
00
ENDCHAR
STARTCHAR PCurlyBrackLTRB
ENCODING 3154
SWIDTH 523 0
DWIDTH 6 0
BBX 6 11 0 -2
BITMAP
18
30
30
30
30
30
30
30
30
30
60
ENDCHAR
STARTCHAR PCurlyBrackLBRT
ENCODING 3155
SWIDTH 523 0
DWIDTH 6 0
BBX 6 11 0 -2
BITMAP
60
30
30
30
30
30
30
30
30
30
18
ENDCHAR
STARTCHAR MSumT
ENCODING 3156
SWIDTH 523 0
DWIDTH 6 0
BBX 6 11 0 -2
BITMAP
F8
C8
C0
60
60
60
30
30
30
18
18
ENDCHAR
STARTCHAR MRootB
ENCODING 3158
SWIDTH 523 0
DWIDTH 6 0
BBX 6 11 0 -2
BITMAP
30
30
30
30
30
B0
B0
70
70
30
30
ENDCHAR
ENDFONT
