STARTFONT 2.1
COMMENT 
COMMENT Copyright (C) 2012-2025 Uwe Waldmann
COMMENT 
COMMENT Permission is hereby granted, free of charge, to any person obtaining
COMMENT a copy of this font software and associated files (the "Software"),
COMMENT to deal in the Software without restriction, including without
COMMENT limitation the rights to use, copy, modify, merge, publish,
COMMENT distribute, embed, sublicense, and/or sell copies of the Software,
COMMENT and to permit persons to whom the Software is furnished to do so,
COMMENT subject to the following conditions:
COMMENT 
COMMENT (1) The above copyright notice, this permission notice, and the
COMMENT     disclaimer below shall be included in all copies or substantial
COMMENT     portions of the Software.
COMMENT 
COMMENT (2) If the design of any glyphs in the fonts that are contained in the
COMMENT     Software or generated during the installation process is modified
COMMENT     or if additional glyphs are added to the fonts, the fonts
COMMENT     must be renamed. The new names may not contain the word "UW",
COMMENT     irrespective of capitalisation; the new names may contain the word
COMMENT     "ttyp0", irrespective of capitalisation, only if preceded by a
COMMENT     foundry name different from "UW".
COMMENT 
COMMENT THE SOFTWARE IS PROVIDED "AS IS", WITHOUT WARRANTY OF ANY KIND, EXPRESS
COMMENT OR IMPLIED, INCLUDING BUT NOT LIMITED TO THE WARRANTIES OF
COMMENT MERCHANTABILITY, FITNESS FOR A PARTICULAR PURPOSE AND NONINFRINGEMENT.
COMMENT IN NO EVENT SHALL THE AUTHORS OR COPYRIGHT HOLDERS BE LIABLE FOR ANY
COMMENT CLAIM, DAMAGES OR OTHER LIABILITY, WHETHER IN AN ACTION OF CONTRACT,
COMMENT TORT OR OTHERWISE, ARISING FROM, OUT OF OR IN CONNECTION WITH THE
COMMENT SOFTWARE OR THE USE OR OTHER DEALINGS IN THE SOFTWARE.
COMMENT 
FONT -UW-Ttyp0-Medium-I-Normal--15-140-75-75-C-80-UW-Fontspecific
SIZE 15 75 75
FONTBOUNDINGBOX 8 15 0 -3
STARTPROPERTIES 20
FONTNAME_REGISTRY ""
FOUNDRY "UW"
FAMILY_NAME "Ttyp0"
WEIGHT_NAME "Medium"
SLANT "I"
SETWIDTH_NAME "Normal"
ADD_STYLE_NAME ""
PIXEL_SIZE 15
POINT_SIZE 140
RESOLUTION_X 75
RESOLUTION_Y 75
SPACING "C"
AVERAGE_WIDTH 80
CHARSET_REGISTRY "UW"
CHARSET_ENCODING "Fontspecific"
DEFAULT_CHAR 0
FONT_DESCENT 3
FONT_ASCENT 12
COPYRIGHT "Copyright (C) 2012-2025 Uwe Waldmann"
_GBDFED_INFO "Edited with gbdfed 1.6."
ENDPROPERTIES
CHARS 241
STARTCHAR LtCapALdot
ENCODING 780
SWIDTH 512 0
DWIDTH 8 0
BBX 8 15 0 -3
BITMAP
00
00
0C
0C
14
14
24
24
7C
44
84
84
00
20
20
ENDCHAR
STARTCHAR LtCapBLdot
ENCODING 781
SWIDTH 512 0
DWIDTH 8 0
BBX 8 15 0 -3
BITMAP
00
00
1E
11
11
22
3C
22
22
42
44
78
00
20
20
ENDCHAR
STARTCHAR LtCapCLdot
ENCODING 782
SWIDTH 512 0
DWIDTH 8 0
BBX 8 15 0 -3
BITMAP
00
00
0E
11
20
20
40
40
40
40
44
38
00
20
20
ENDCHAR
STARTCHAR LtCapDLdot
ENCODING 783
SWIDTH 512 0
DWIDTH 8 0
BBX 8 15 0 -3
BITMAP
00
00
3C
22
22
42
42
42
44
84
88
F0
00
40
40
ENDCHAR
STARTCHAR LtCapELdot
ENCODING 784
SWIDTH 512 0
DWIDTH 8 0
BBX 8 15 0 -3
BITMAP
00
00
1F
10
10
20
3C
20
20
40
40
7C
00
20
20
ENDCHAR
STARTCHAR LtCapHLdot
ENCODING 785
SWIDTH 512 0
DWIDTH 8 0
BBX 8 15 0 -3
BITMAP
00
00
21
21
21
42
7E
42
42
84
84
84
00
20
20
ENDCHAR
STARTCHAR LtCapILdot
ENCODING 786
SWIDTH 512 0
DWIDTH 8 0
BBX 8 15 0 -3
BITMAP
00
00
1F
04
04
08
08
08
08
10
10
7C
00
20
20
ENDCHAR
STARTCHAR LtCapKLdot
ENCODING 787
SWIDTH 512 0
DWIDTH 8 0
BBX 8 15 0 -3
BITMAP
00
00
21
22
24
48
70
50
48
88
84
84
00
20
20
ENDCHAR
STARTCHAR LtCapLLdot
ENCODING 788
SWIDTH 512 0
DWIDTH 8 0
BBX 8 15 0 -3
BITMAP
00
00
10
10
10
20
20
20
20
40
40
7C
00
20
20
ENDCHAR
STARTCHAR LtCapMLdot
ENCODING 789
SWIDTH 512 0
DWIDTH 8 0
BBX 8 15 0 -3
BITMAP
00
00
21
21
33
56
5A
5A
42
84
84
84
00
20
20
ENDCHAR
STARTCHAR LtCapNLdot
ENCODING 790
SWIDTH 512 0
DWIDTH 8 0
BBX 8 15 0 -3
BITMAP
00
00
21
21
31
52
52
4A
4A
8C
84
84
00
20
20
ENDCHAR
STARTCHAR LtCapOLdot
ENCODING 791
SWIDTH 512 0
DWIDTH 8 0
BBX 8 15 0 -3
BITMAP
00
00
0E
11
21
21
41
41
42
42
44
38
00
20
20
ENDCHAR
STARTCHAR LtCapPLdot
ENCODING 792
SWIDTH 512 0
DWIDTH 8 0
BBX 8 15 0 -3
BITMAP
00
00
1E
11
11
21
22
3C
20
40
40
40
00
80
80
ENDCHAR
STARTCHAR LtCapQLdot
ENCODING 793
SWIDTH 512 0
DWIDTH 8 0
BBX 8 15 0 -3
BITMAP
00
00
0E
11
21
21
41
41
42
52
54
38
06
20
20
ENDCHAR
STARTCHAR LtCapRLdot
ENCODING 794
SWIDTH 512 0
DWIDTH 8 0
BBX 8 15 0 -3
BITMAP
00
00
1E
11
11
22
3C
30
28
48
44
44
00
20
20
ENDCHAR
STARTCHAR LtCapSLdot
ENCODING 795
SWIDTH 512 0
DWIDTH 8 0
BBX 8 15 0 -3
BITMAP
00
00
1E
21
20
20
10
08
04
04
84
78
00
20
20
ENDCHAR
STARTCHAR LtCapTLdot
ENCODING 796
SWIDTH 512 0
DWIDTH 8 0
BBX 8 15 0 -3
BITMAP
00
00
7F
08
08
10
10
10
10
20
20
20
00
40
40
ENDCHAR
STARTCHAR LtCapULdot
ENCODING 797
SWIDTH 512 0
DWIDTH 8 0
BBX 8 15 0 -3
BITMAP
00
00
21
21
41
42
42
42
82
84
84
78
00
20
20
ENDCHAR
STARTCHAR LtCapVLdot
ENCODING 798
SWIDTH 512 0
DWIDTH 8 0
BBX 8 15 0 -3
BITMAP
00
00
21
21
22
22
24
24
28
28
30
30
00
20
20
ENDCHAR
STARTCHAR LtCapWLdot
ENCODING 799
SWIDTH 512 0
DWIDTH 8 0
BBX 8 15 0 -3
BITMAP
00
00
21
21
21
22
2A
5A
6A
6C
44
44
00
10
10
ENDCHAR
STARTCHAR LtCapYLdot
ENCODING 800
SWIDTH 512 0
DWIDTH 8 0
BBX 8 15 0 -3
BITMAP
00
00
21
21
12
12
14
08
08
10
10
10
00
20
20
ENDCHAR
STARTCHAR LtCapZLdot
ENCODING 801
SWIDTH 512 0
DWIDTH 8 0
BBX 8 15 0 -3
BITMAP
00
00
3F
01
02
04
08
10
20
40
80
FC
00
20
20
ENDCHAR
STARTCHAR LtSmlALdot
ENCODING 802
SWIDTH 512 0
DWIDTH 8 0
BBX 8 15 0 -3
BITMAP
00
00
00
00
00
1E
22
22
44
44
4C
32
00
10
10
ENDCHAR
STARTCHAR LtSmlBLdot
ENCODING 803
SWIDTH 512 0
DWIDTH 8 0
BBX 8 15 0 -3
BITMAP
00
00
30
10
10
2C
32
22
22
44
44
38
00
20
20
ENDCHAR
STARTCHAR LtSmlCLdot
ENCODING 804
SWIDTH 512 0
DWIDTH 8 0
BBX 8 15 0 -3
BITMAP
00
00
00
00
00
1C
22
20
40
40
44
38
00
20
20
ENDCHAR
STARTCHAR LtSmlDLdot
ENCODING 805
SWIDTH 512 0
DWIDTH 8 0
BBX 8 15 0 -3
BITMAP
00
00
01
01
01
1E
22
22
42
44
4C
32
00
10
10
ENDCHAR
STARTCHAR LtSmlELdot
ENCODING 806
SWIDTH 512 0
DWIDTH 8 0
BBX 8 15 0 -3
BITMAP
00
00
00
00
00
1C
22
24
78
40
44
38
00
20
20
ENDCHAR
STARTCHAR LtSmlHLdot
ENCODING 807
SWIDTH 512 0
DWIDTH 8 0
BBX 8 15 0 -3
BITMAP
00
00
30
10
10
2E
32
22
22
44
44
46
00
10
10
ENDCHAR
STARTCHAR LtSmlILdot
ENCODING 808
SWIDTH 512 0
DWIDTH 8 0
BBX 8 15 0 -3
BITMAP
00
00
04
04
00
0C
18
08
08
10
12
1C
00
10
10
ENDCHAR
STARTCHAR LtSmlKLdot
ENCODING 809
SWIDTH 512 0
DWIDTH 8 0
BBX 8 15 0 -3
BITMAP
00
00
10
10
10
2E
32
22
3C
48
44
42
00
10
10
ENDCHAR
STARTCHAR LtSmlLLdot
ENCODING 810
SWIDTH 512 0
DWIDTH 8 0
BBX 8 15 0 -3
BITMAP
00
00
0C
04
04
08
08
08
08
10
14
18
00
10
10
ENDCHAR
STARTCHAR LtSmlMLdot
ENCODING 811
SWIDTH 512 0
DWIDTH 8 0
BBX 8 15 0 -3
BITMAP
00
00
00
00
00
B7
49
49
49
92
92
93
00
20
20
ENDCHAR
STARTCHAR LtSmlNLdot
ENCODING 812
SWIDTH 512 0
DWIDTH 8 0
BBX 8 15 0 -3
BITMAP
00
00
00
00
00
6E
32
22
22
44
44
46
00
10
10
ENDCHAR
STARTCHAR LtSmlOLdot
ENCODING 813
SWIDTH 512 0
DWIDTH 8 0
BBX 8 15 0 -3
BITMAP
00
00
00
00
00
1C
22
22
42
44
44
38
00
20
20
ENDCHAR
STARTCHAR LtSmlPLdot
ENCODING 814
SWIDTH 512 0
DWIDTH 8 0
BBX 8 15 0 -3
BITMAP
00
00
00
00
00
2C
72
22
22
44
44
78
40
90
90
ENDCHAR
STARTCHAR LtSmlQLdot
ENCODING 815
SWIDTH 512 0
DWIDTH 8 0
BBX 8 15 0 -3
BITMAP
00
00
00
00
00
1A
26
22
42
44
4C
34
08
28
28
ENDCHAR
STARTCHAR LtSmlRLdot
ENCODING 816
SWIDTH 512 0
DWIDTH 8 0
BBX 8 15 0 -3
BITMAP
00
00
00
00
00
16
3A
10
10
20
20
20
00
40
40
ENDCHAR
STARTCHAR LtSmlSLdot
ENCODING 817
SWIDTH 512 0
DWIDTH 8 0
BBX 8 15 0 -3
BITMAP
00
00
00
00
00
1C
22
20
18
04
44
38
00
20
20
ENDCHAR
STARTCHAR LtSmlTLdot
ENCODING 818
SWIDTH 512 0
DWIDTH 8 0
BBX 8 15 0 -3
BITMAP
00
00
00
08
08
3E
08
10
10
10
24
18
00
10
10
ENDCHAR
STARTCHAR LtSmlULdot
ENCODING 819
SWIDTH 512 0
DWIDTH 8 0
BBX 8 15 0 -3
BITMAP
00
00
00
00
00
62
22
22
42
44
4C
32
00
10
10
ENDCHAR
STARTCHAR LtSmlVLdot
ENCODING 820
SWIDTH 512 0
DWIDTH 8 0
BBX 8 15 0 -3
BITMAP
00
00
00
00
00
62
22
22
22
24
28
30
00
20
20
ENDCHAR
STARTCHAR LtSmlWLdot
ENCODING 821
SWIDTH 512 0
DWIDTH 8 0
BBX 8 15 0 -3
BITMAP
00
00
00
00
00
61
21
41
49
5A
66
44
00
10
10
ENDCHAR
STARTCHAR LtSmlYLdot
ENCODING 822
SWIDTH 512 0
DWIDTH 8 0
BBX 8 15 0 -3
BITMAP
00
00
00
00
00
62
22
22
44
44
4C
34
08
4A
72
ENDCHAR
STARTCHAR LtSmlZLdot
ENCODING 823
SWIDTH 512 0
DWIDTH 8 0
BBX 8 15 0 -3
BITMAP
00
00
00
00
00
1D
22
04
08
10
20
52
0C
20
20
ENDCHAR
STARTCHAR LtCapOHornLdot
ENCODING 824
SWIDTH 512 0
DWIDTH 8 0
BBX 8 15 0 -3
BITMAP
03
01
0E
12
22
22
42
42
44
44
48
30
00
20
20
ENDCHAR
STARTCHAR LtCapUHornLdot
ENCODING 825
SWIDTH 512 0
DWIDTH 8 0
BBX 8 15 0 -3
BITMAP
03
01
22
22
42
44
44
44
88
88
88
70
00
40
40
ENDCHAR
STARTCHAR LtSmlOHornLdot
ENCODING 826
SWIDTH 512 0
DWIDTH 8 0
BBX 8 15 0 -3
BITMAP
00
00
00
03
01
1E
22
22
42
44
44
38
00
20
20
ENDCHAR
STARTCHAR LtSmlUHornLdot
ENCODING 827
SWIDTH 512 0
DWIDTH 8 0
BBX 8 15 0 -3
BITMAP
00
00
00
03
01
62
22
22
42
44
4C
32
00
10
10
ENDCHAR
STARTCHAR LtCapSDotLdot
ENCODING 828
SWIDTH 512 0
DWIDTH 8 0
BBX 8 15 0 -3
BITMAP
04
04
00
1E
21
20
20
18
04
04
84
78
00
20
20
ENDCHAR
STARTCHAR LtSmlSDotLdot
ENCODING 829
SWIDTH 512 0
DWIDTH 8 0
BBX 8 15 0 -3
BITMAP
00
00
08
08
00
1C
22
20
18
04
44
38
00
20
20
ENDCHAR
STARTCHAR LtCapLMacronLdot
ENCODING 830
SWIDTH 512 0
DWIDTH 8 0
BBX 8 15 0 -3
BITMAP
0F
00
10
10
10
20
20
20
20
40
40
7C
00
20
20
ENDCHAR
STARTCHAR LtCapRMacronLdot
ENCODING 831
SWIDTH 512 0
DWIDTH 8 0
BBX 8 15 0 -3
BITMAP
0F
00
1E
11
11
22
3C
30
28
48
44
44
00
20
20
ENDCHAR
STARTCHAR LtSmlLMacronLdot
ENCODING 832
SWIDTH 512 0
DWIDTH 8 0
BBX 8 15 0 -3
BITMAP
0F
00
0C
04
04
08
08
08
08
10
14
18
00
10
10
ENDCHAR
STARTCHAR LtSmlRMacronLdot
ENCODING 833
SWIDTH 512 0
DWIDTH 8 0
BBX 8 15 0 -3
BITMAP
00
00
1E
00
00
16
3A
10
10
20
20
20
00
40
40
ENDCHAR
STARTCHAR LtCapEAcuteLdot
ENCODING 834
SWIDTH 512 0
DWIDTH 8 0
BBX 8 15 0 -3
BITMAP
01
06
00
1F
10
10
20
3C
20
40
40
7C
00
20
20
ENDCHAR
STARTCHAR LtCapOAcuteLdot
ENCODING 835
SWIDTH 512 0
DWIDTH 8 0
BBX 8 15 0 -3
BITMAP
01
06
00
0E
11
21
21
41
42
42
44
38
00
20
20
ENDCHAR
STARTCHAR LtCapRAcuteLdot
ENCODING 836
SWIDTH 512 0
DWIDTH 8 0
BBX 8 15 0 -3
BITMAP
01
06
00
1E
11
11
22
3C
28
48
44
44
00
20
20
ENDCHAR
STARTCHAR LtSmlEAcuteLdot
ENCODING 837
SWIDTH 512 0
DWIDTH 8 0
BBX 8 15 0 -3
BITMAP
00
04
04
08
00
1C
22
24
78
40
44
38
00
20
20
ENDCHAR
STARTCHAR LtSmlOAcuteLdot
ENCODING 838
SWIDTH 512 0
DWIDTH 8 0
BBX 8 15 0 -3
BITMAP
00
02
02
04
00
1C
22
22
42
44
44
38
00
20
20
ENDCHAR
STARTCHAR LtSmlRAcuteLdot
ENCODING 839
SWIDTH 512 0
DWIDTH 8 0
BBX 8 15 0 -3
BITMAP
00
02
02
04
00
16
3A
10
10
20
20
20
00
40
40
ENDCHAR
STARTCHAR LtSmlRMacronAcuteLdot
ENCODING 840
SWIDTH 512 0
DWIDTH 8 0
BBX 8 15 0 -3
BITMAP
01
06
00
1E
00
16
3A
10
10
20
20
20
00
40
40
ENDCHAR
STARTCHAR LtCapEGraveLdot
ENCODING 841
SWIDTH 512 0
DWIDTH 8 0
BBX 8 15 0 -3
BITMAP
08
06
00
1F
10
10
20
3C
20
40
40
7C
00
20
20
ENDCHAR
STARTCHAR LtCapOGraveLdot
ENCODING 842
SWIDTH 512 0
DWIDTH 8 0
BBX 8 15 0 -3
BITMAP
08
06
00
0E
11
21
21
41
42
42
44
38
00
20
20
ENDCHAR
STARTCHAR LtCapRGraveLdot
ENCODING 843
SWIDTH 512 0
DWIDTH 8 0
BBX 8 15 0 -3
BITMAP
08
06
00
1E
11
11
22
3C
28
48
44
44
00
20
20
ENDCHAR
STARTCHAR LtSmlEGraveLdot
ENCODING 844
SWIDTH 512 0
DWIDTH 8 0
BBX 8 15 0 -3
BITMAP
00
08
08
04
00
1C
22
24
78
40
44
38
00
20
20
ENDCHAR
STARTCHAR LtSmlOGraveLdot
ENCODING 845
SWIDTH 512 0
DWIDTH 8 0
BBX 8 15 0 -3
BITMAP
00
08
08
04
00
1C
22
22
42
44
44
38
00
20
20
ENDCHAR
STARTCHAR LtSmlRGraveLdot
ENCODING 846
SWIDTH 512 0
DWIDTH 8 0
BBX 8 15 0 -3
BITMAP
00
08
08
04
00
16
3A
10
10
20
20
20
00
40
40
ENDCHAR
STARTCHAR LtCapACircumLdot
ENCODING 847
SWIDTH 512 0
DWIDTH 8 0
BBX 8 15 0 -3
BITMAP
0C
12
00
0C
0C
14
14
24
7C
44
84
84
00
20
20
ENDCHAR
STARTCHAR LtCapECircumLdot
ENCODING 848
SWIDTH 512 0
DWIDTH 8 0
BBX 8 15 0 -3
BITMAP
06
09
00
1F
10
10
20
3C
20
40
40
7C
00
20
20
ENDCHAR
STARTCHAR LtCapOCircumLdot
ENCODING 849
SWIDTH 512 0
DWIDTH 8 0
BBX 8 15 0 -3
BITMAP
06
09
00
0E
11
21
21
41
42
42
44
38
00
20
20
ENDCHAR
STARTCHAR LtSmlACircumLdot
ENCODING 850
SWIDTH 512 0
DWIDTH 8 0
BBX 8 15 0 -3
BITMAP
00
00
0C
12
00
1E
22
22
44
44
4C
32
00
10
10
ENDCHAR
STARTCHAR LtSmlECircumLdot
ENCODING 851
SWIDTH 512 0
DWIDTH 8 0
BBX 8 15 0 -3
BITMAP
00
00
0C
12
00
1C
22
24
78
40
44
38
00
20
20
ENDCHAR
STARTCHAR LtSmlOCircumLdot
ENCODING 852
SWIDTH 512 0
DWIDTH 8 0
BBX 8 15 0 -3
BITMAP
00
00
0C
12
00
1C
22
22
42
44
44
38
00
20
20
ENDCHAR
STARTCHAR LtCapCCaronLdot
ENCODING 853
SWIDTH 512 0
DWIDTH 8 0
BBX 8 15 0 -3
BITMAP
09
06
00
0E
11
20
20
40
40
40
44
38
00
20
20
ENDCHAR
STARTCHAR LtSmlCCaronLdot
ENCODING 854
SWIDTH 512 0
DWIDTH 8 0
BBX 8 15 0 -3
BITMAP
00
00
12
0C
00
1C
22
20
40
40
44
38
00
20
20
ENDCHAR
STARTCHAR LtCapABreveLdot
ENCODING 855
SWIDTH 512 0
DWIDTH 8 0
BBX 8 15 0 -3
BITMAP
11
0E
00
0C
0C
14
14
24
7C
44
84
84
00
20
20
ENDCHAR
STARTCHAR LtSmlABreveLdot
ENCODING 856
SWIDTH 512 0
DWIDTH 8 0
BBX 8 15 0 -3
BITMAP
00
00
12
0C
00
1E
22
22
44
44
4C
32
00
10
10
ENDCHAR
STARTCHAR LtSmlRLvline
ENCODING 860
SWIDTH 512 0
DWIDTH 8 0
BBX 8 15 0 -3
BITMAP
00
00
00
00
00
16
3A
10
10
20
20
20
10
10
10
ENDCHAR
STARTCHAR LtCapALring
ENCODING 862
SWIDTH 512 0
DWIDTH 8 0
BBX 8 15 0 -3
BITMAP
00
00
0C
0C
14
14
24
24
7C
44
84
84
20
50
20
ENDCHAR
STARTCHAR LtCapRLring
ENCODING 863
SWIDTH 512 0
DWIDTH 8 0
BBX 8 15 0 -3
BITMAP
00
00
1E
11
11
22
3C
30
28
48
44
44
10
28
10
ENDCHAR
STARTCHAR LtSmlALring
ENCODING 864
SWIDTH 512 0
DWIDTH 8 0
BBX 8 15 0 -3
BITMAP
00
00
00
00
00
1E
22
22
44
44
4C
32
10
28
10
ENDCHAR
STARTCHAR LtSmlLLring
ENCODING 865
SWIDTH 512 0
DWIDTH 8 0
BBX 8 15 0 -3
BITMAP
00
00
0C
04
04
08
08
08
08
10
14
18
10
28
10
ENDCHAR
STARTCHAR LtSmlRLring
ENCODING 866
SWIDTH 512 0
DWIDTH 8 0
BBX 8 15 0 -3
BITMAP
00
00
00
00
00
16
3A
10
10
20
20
20
20
50
20
ENDCHAR
STARTCHAR LtSmlLMacronLring
ENCODING 867
SWIDTH 512 0
DWIDTH 8 0
BBX 8 15 0 -3
BITMAP
0F
00
0C
04
04
08
08
08
08
10
14
18
10
28
10
ENDCHAR
STARTCHAR LtSmlRMacronLring
ENCODING 868
SWIDTH 512 0
DWIDTH 8 0
BBX 8 15 0 -3
BITMAP
00
00
1E
00
00
16
3A
10
10
20
20
20
20
50
20
ENDCHAR
STARTCHAR LtSmlRAcuteLring
ENCODING 869
SWIDTH 512 0
DWIDTH 8 0
BBX 8 15 0 -3
BITMAP
00
02
02
04
00
16
3A
10
10
20
20
20
20
50
20
ENDCHAR
STARTCHAR LtSmlRMacronAcuteLring
ENCODING 870
SWIDTH 512 0
DWIDTH 8 0
BBX 8 15 0 -3
BITMAP
01
06
00
1E
00
16
3A
10
10
20
20
20
20
50
20
ENDCHAR
STARTCHAR LtSmlRGraveLring
ENCODING 871
SWIDTH 512 0
DWIDTH 8 0
BBX 8 15 0 -3
BITMAP
00
08
08
04
00
16
3A
10
10
20
20
20
20
50
20
ENDCHAR
STARTCHAR LtCapULdrss
ENCODING 872
SWIDTH 512 0
DWIDTH 8 0
BBX 8 15 0 -3
BITMAP
00
00
21
21
41
42
42
42
82
84
84
78
00
48
48
ENDCHAR
STARTCHAR LtSmlULdrss
ENCODING 873
SWIDTH 512 0
DWIDTH 8 0
BBX 8 15 0 -3
BITMAP
00
00
00
00
00
62
22
22
42
44
4C
32
00
48
48
ENDCHAR
STARTCHAR LtCapBLmacron
ENCODING 874
SWIDTH 512 0
DWIDTH 8 0
BBX 8 15 0 -3
BITMAP
00
00
1E
11
11
22
3C
22
22
42
44
78
00
00
78
ENDCHAR
STARTCHAR LtCapDLmacron
ENCODING 875
SWIDTH 512 0
DWIDTH 8 0
BBX 8 15 0 -3
BITMAP
00
00
3C
22
22
42
42
42
44
84
88
F0
00
00
F0
ENDCHAR
STARTCHAR LtCapELmacron
ENCODING 876
SWIDTH 512 0
DWIDTH 8 0
BBX 8 15 0 -3
BITMAP
00
00
1F
10
10
20
3C
20
20
40
40
7C
00
00
78
ENDCHAR
STARTCHAR LtCapHLmacron
ENCODING 877
SWIDTH 512 0
DWIDTH 8 0
BBX 8 15 0 -3
BITMAP
00
00
21
21
21
42
7E
42
42
84
84
84
00
00
F0
ENDCHAR
STARTCHAR LtCapKLmacron
ENCODING 878
SWIDTH 512 0
DWIDTH 8 0
BBX 8 15 0 -3
BITMAP
00
00
21
22
24
48
70
50
48
88
84
84
00
00
F0
ENDCHAR
STARTCHAR LtCapLLmacron
ENCODING 879
SWIDTH 512 0
DWIDTH 8 0
BBX 8 15 0 -3
BITMAP
00
00
10
10
10
20
20
20
20
40
40
7C
00
00
F0
ENDCHAR
STARTCHAR LtCapNLmacron
ENCODING 880
SWIDTH 512 0
DWIDTH 8 0
BBX 8 15 0 -3
BITMAP
00
00
21
21
31
52
52
4A
4A
8C
84
84
00
00
F0
ENDCHAR
STARTCHAR LtCapOLmacron
ENCODING 881
SWIDTH 512 0
DWIDTH 8 0
BBX 8 15 0 -3
BITMAP
00
00
0E
11
21
21
41
41
42
42
44
38
00
00
78
ENDCHAR
STARTCHAR LtCapRLmacron
ENCODING 882
SWIDTH 512 0
DWIDTH 8 0
BBX 8 15 0 -3
BITMAP
00
00
1E
11
11
22
3C
30
28
48
44
44
00
00
F0
ENDCHAR
STARTCHAR LtCapTLmacron
ENCODING 883
SWIDTH 512 0
DWIDTH 8 0
BBX 8 15 0 -3
BITMAP
00
00
7F
08
08
10
10
10
10
20
20
20
00
00
F0
ENDCHAR
STARTCHAR LtCapZLmacron
ENCODING 884
SWIDTH 512 0
DWIDTH 8 0
BBX 8 15 0 -3
BITMAP
00
00
3F
01
02
04
08
10
20
40
80
FC
00
00
F0
ENDCHAR
STARTCHAR LtSmlBLmacron
ENCODING 885
SWIDTH 512 0
DWIDTH 8 0
BBX 8 15 0 -3
BITMAP
00
00
30
10
10
2C
32
22
22
44
44
38
00
00
78
ENDCHAR
STARTCHAR LtSmlDLmacron
ENCODING 886
SWIDTH 512 0
DWIDTH 8 0
BBX 8 15 0 -3
BITMAP
00
00
01
01
01
1E
22
22
42
44
4C
32
00
00
78
ENDCHAR
STARTCHAR LtSmlELmacron
ENCODING 887
SWIDTH 512 0
DWIDTH 8 0
BBX 8 15 0 -3
BITMAP
00
00
00
00
00
1C
22
24
78
40
44
38
00
00
78
ENDCHAR
STARTCHAR LtSmlHLmacron
ENCODING 888
SWIDTH 512 0
DWIDTH 8 0
BBX 8 15 0 -3
BITMAP
00
00
30
10
10
2E
32
22
22
44
44
46
00
00
78
ENDCHAR
STARTCHAR LtSmlKLmacron
ENCODING 889
SWIDTH 512 0
DWIDTH 8 0
BBX 8 15 0 -3
BITMAP
00
00
10
10
10
2E
32
22
3C
48
44
42
00
00
78
ENDCHAR
STARTCHAR LtSmlLLmacron
ENCODING 890
SWIDTH 512 0
DWIDTH 8 0
BBX 8 15 0 -3
BITMAP
00
00
0C
04
04
08
08
08
08
10
14
18
00
00
78
ENDCHAR
STARTCHAR LtSmlNLmacron
ENCODING 891
SWIDTH 512 0
DWIDTH 8 0
BBX 8 15 0 -3
BITMAP
00
00
00
00
00
6E
32
22
22
44
44
46
00
00
78
ENDCHAR
STARTCHAR LtSmlOLmacron
ENCODING 892
SWIDTH 512 0
DWIDTH 8 0
BBX 8 15 0 -3
BITMAP
00
00
00
00
00
1C
22
22
42
44
44
38
00
00
78
ENDCHAR
STARTCHAR LtSmlRLmacron
ENCODING 893
SWIDTH 512 0
DWIDTH 8 0
BBX 8 15 0 -3
BITMAP
00
00
00
00
00
16
3A
10
10
20
20
20
00
00
F0
ENDCHAR
STARTCHAR LtSmlTLmacron
ENCODING 894
SWIDTH 512 0
DWIDTH 8 0
BBX 8 15 0 -3
BITMAP
00
00
00
08
08
3E
08
10
10
10
24
18
00
00
3C
ENDCHAR
STARTCHAR LtSmlZLmacron
ENCODING 895
SWIDTH 512 0
DWIDTH 8 0
BBX 8 15 0 -3
BITMAP
00
00
00
00
00
1D
22
04
08
10
20
52
0C
00
78
ENDCHAR
STARTCHAR LtCapGHLmacron
ENCODING 896
SWIDTH 512 0
DWIDTH 8 0
BBX 8 15 0 -3
BITMAP
00
00
15
35
45
45
8E
AA
AA
AA
D4
D4
00
00
78
ENDCHAR
STARTCHAR LtCapKHLmacron
ENCODING 897
SWIDTH 512 0
DWIDTH 8 0
BBX 8 15 0 -3
BITMAP
00
00
2D
2D
55
55
6E
6A
6A
AA
B4
B4
00
00
78
ENDCHAR
STARTCHAR LtMixGHLmacron
ENCODING 898
SWIDTH 512 0
DWIDTH 8 0
BBX 8 15 0 -3
BITMAP
00
00
0A
1A
22
47
45
B5
95
AA
AA
6B
00
00
78
ENDCHAR
STARTCHAR LtMixKHLmacron
ENCODING 899
SWIDTH 512 0
DWIDTH 8 0
BBX 8 15 0 -3
BITMAP
00
00
2A
2A
2A
57
65
65
55
AA
AA
AB
00
00
78
ENDCHAR
STARTCHAR LtSmlGHLmacron
ENCODING 900
SWIDTH 512 0
DWIDTH 8 0
BBX 8 15 0 -3
BITMAP
00
00
02
02
02
37
55
55
95
AA
AA
6B
20
A0
FC
ENDCHAR
STARTCHAR LtSmlKHLmacron
ENCODING 901
SWIDTH 512 0
DWIDTH 8 0
BBX 8 15 0 -3
BITMAP
00
00
22
22
22
77
55
55
65
AA
AA
AB
00
00
78
ENDCHAR
STARTCHAR LtCapDLcircum
ENCODING 902
SWIDTH 512 0
DWIDTH 8 0
BBX 8 15 0 -3
BITMAP
00
00
3C
22
22
42
42
42
44
84
88
F0
00
60
90
ENDCHAR
STARTCHAR LtCapELcircum
ENCODING 903
SWIDTH 512 0
DWIDTH 8 0
BBX 8 15 0 -3
BITMAP
00
00
1F
10
10
20
3C
20
20
40
40
7C
00
30
48
ENDCHAR
STARTCHAR LtCapLLcircum
ENCODING 904
SWIDTH 512 0
DWIDTH 8 0
BBX 8 15 0 -3
BITMAP
00
00
10
10
10
20
20
20
20
40
40
7C
00
30
48
ENDCHAR
STARTCHAR LtCapNLcircum
ENCODING 905
SWIDTH 512 0
DWIDTH 8 0
BBX 8 15 0 -3
BITMAP
00
00
21
21
31
52
52
4A
4A
8C
84
84
00
30
48
ENDCHAR
STARTCHAR LtCapTLcircum
ENCODING 906
SWIDTH 512 0
DWIDTH 8 0
BBX 8 15 0 -3
BITMAP
00
00
7F
08
08
10
10
10
10
20
20
20
00
60
90
ENDCHAR
STARTCHAR LtCapULcircum
ENCODING 907
SWIDTH 512 0
DWIDTH 8 0
BBX 8 15 0 -3
BITMAP
00
00
21
21
41
42
42
42
82
84
84
78
00
60
90
ENDCHAR
STARTCHAR LtSmlDLcircum
ENCODING 908
SWIDTH 512 0
DWIDTH 8 0
BBX 8 15 0 -3
BITMAP
00
00
01
01
01
1E
22
22
42
44
4C
32
00
30
48
ENDCHAR
STARTCHAR LtSmlELcircum
ENCODING 909
SWIDTH 512 0
DWIDTH 8 0
BBX 8 15 0 -3
BITMAP
00
00
00
00
00
1C
22
24
78
40
44
38
00
30
48
ENDCHAR
STARTCHAR LtSmlLLcircum
ENCODING 910
SWIDTH 512 0
DWIDTH 8 0
BBX 8 15 0 -3
BITMAP
00
00
0C
04
04
08
08
08
08
10
14
18
00
18
24
ENDCHAR
STARTCHAR LtSmlNLcircum
ENCODING 911
SWIDTH 512 0
DWIDTH 8 0
BBX 8 15 0 -3
BITMAP
00
00
00
00
00
6E
32
22
22
44
44
46
00
30
48
ENDCHAR
STARTCHAR LtSmlTLcircum
ENCODING 912
SWIDTH 512 0
DWIDTH 8 0
BBX 8 15 0 -3
BITMAP
00
00
00
08
08
3E
08
10
10
10
24
18
00
30
48
ENDCHAR
STARTCHAR LtSmlULcircum
ENCODING 913
SWIDTH 512 0
DWIDTH 8 0
BBX 8 15 0 -3
BITMAP
00
00
00
00
00
62
22
22
42
44
4C
32
00
30
48
ENDCHAR
STARTCHAR LtCapHLbreve
ENCODING 914
SWIDTH 512 0
DWIDTH 8 0
BBX 8 15 0 -3
BITMAP
00
00
21
21
21
42
7E
42
42
84
84
84
00
48
30
ENDCHAR
STARTCHAR LtSmlHLbreve
ENCODING 915
SWIDTH 512 0
DWIDTH 8 0
BBX 8 15 0 -3
BITMAP
00
00
30
10
10
2E
32
22
22
44
44
46
00
48
30
ENDCHAR
STARTCHAR LtSmlILinvbreve
ENCODING 916
SWIDTH 512 0
DWIDTH 8 0
BBX 8 15 0 -3
BITMAP
00
00
04
04
00
0C
18
08
08
10
12
1C
00
18
24
ENDCHAR
STARTCHAR LtSmlOLinvbreve
ENCODING 917
SWIDTH 512 0
DWIDTH 8 0
BBX 8 15 0 -3
BITMAP
00
00
00
00
00
1C
22
22
42
44
44
38
00
30
48
ENDCHAR
STARTCHAR LtSmlULinvbreve
ENCODING 918
SWIDTH 512 0
DWIDTH 8 0
BBX 8 15 0 -3
BITMAP
00
00
00
00
00
62
22
22
42
44
4C
32
00
30
48
ENDCHAR
STARTCHAR LtSmlATrndLinvbreve
ENCODING 919
SWIDTH 512 0
DWIDTH 8 0
BBX 8 15 0 -3
BITMAP
00
00
00
00
00
6C
32
22
3C
40
48
38
00
30
48
ENDCHAR
STARTCHAR LtCapELtilde
ENCODING 920
SWIDTH 512 0
DWIDTH 8 0
BBX 8 15 0 -3
BITMAP
00
00
1F
10
10
20
3C
20
20
40
40
7C
00
24
58
ENDCHAR
STARTCHAR LtCapILtilde
ENCODING 921
SWIDTH 512 0
DWIDTH 8 0
BBX 8 15 0 -3
BITMAP
00
00
1F
04
04
08
08
08
08
10
10
7C
00
24
58
ENDCHAR
STARTCHAR LtCapULtilde
ENCODING 922
SWIDTH 512 0
DWIDTH 8 0
BBX 8 15 0 -3
BITMAP
00
00
21
21
41
42
42
42
82
84
84
78
00
48
B0
ENDCHAR
STARTCHAR LtSmlELtilde
ENCODING 923
SWIDTH 512 0
DWIDTH 8 0
BBX 8 15 0 -3
BITMAP
00
00
00
00
00
1C
22
24
78
40
44
38
00
24
58
ENDCHAR
STARTCHAR LtSmlILtilde
ENCODING 924
SWIDTH 512 0
DWIDTH 8 0
BBX 8 15 0 -3
BITMAP
00
00
04
04
00
0C
18
08
08
10
12
1C
00
24
58
ENDCHAR
STARTCHAR LtSmlULtilde
ENCODING 925
SWIDTH 512 0
DWIDTH 8 0
BBX 8 15 0 -3
BITMAP
00
00
00
00
00
62
22
22
42
44
4C
32
00
24
58
ENDCHAR
STARTCHAR HbAlefPatah
ENCODING 1355
SWIDTH 512 0
DWIDTH 8 0
BBX 8 15 0 -3
BITMAP
00
00
00
00
8C
CE
66
78
98
CC
66
E2
00
7C
00
ENDCHAR
STARTCHAR HbAlefQamats
ENCODING 1357
SWIDTH 512 0
DWIDTH 8 0
BBX 8 15 0 -3
BITMAP
00
00
00
00
8C
CE
66
78
98
CC
66
E2
00
38
10
ENDCHAR
STARTCHAR GeGan
ENCODING 1388
SWIDTH 512 0
DWIDTH 8 0
BBX 8 15 0 -3
BITMAP
00
00
00
00
00
00
38
44
08
38
44
84
84
88
70
ENDCHAR
STARTCHAR GeDon
ENCODING 1389
SWIDTH 512 0
DWIDTH 8 0
BBX 8 15 0 -3
BITMAP
00
00
00
00
00
00
1C
22
42
42
44
38
20
F8
04
ENDCHAR
STARTCHAR GeEn
ENCODING 1390
SWIDTH 512 0
DWIDTH 8 0
BBX 8 15 0 -3
BITMAP
00
00
00
00
00
00
1C
22
22
02
04
04
88
88
F0
ENDCHAR
STARTCHAR GeVin
ENCODING 1391
SWIDTH 512 0
DWIDTH 8 0
BBX 8 15 0 -3
BITMAP
00
00
00
00
00
00
1C
22
22
0C
04
04
88
88
F0
ENDCHAR
STARTCHAR GeKan
ENCODING 1395
SWIDTH 512 0
DWIDTH 8 0
BBX 8 15 0 -3
BITMAP
00
00
00
00
00
00
02
02
04
18
04
04
88
88
F0
ENDCHAR
STARTCHAR GeLas
ENCODING 1396
SWIDTH 512 0
DWIDTH 8 0
BBX 8 15 0 -3
BITMAP
00
00
00
00
00
00
1C
22
42
42
40
20
70
88
04
ENDCHAR
STARTCHAR GeZhar
ENCODING 1401
SWIDTH 512 0
DWIDTH 8 0
BBX 8 15 0 -3
BITMAP
00
00
00
00
00
00
06
6A
4A
54
24
04
88
88
F0
ENDCHAR
STARTCHAR GeTar
ENCODING 1404
SWIDTH 512 0
DWIDTH 8 0
BBX 8 15 0 -3
BITMAP
00
00
00
00
00
0C
14
3C
2A
42
82
82
84
88
78
ENDCHAR
STARTCHAR GeUn
ENCODING 1405
SWIDTH 512 0
DWIDTH 8 0
BBX 8 15 0 -3
BITMAP
00
00
00
00
00
00
4C
72
12
24
04
04
88
88
F0
ENDCHAR
STARTCHAR GePhar
ENCODING 1406
SWIDTH 512 0
DWIDTH 8 0
BBX 8 15 0 -3
BITMAP
00
00
00
00
00
00
36
49
49
52
26
02
42
44
78
ENDCHAR
STARTCHAR GeKhar
ENCODING 1407
SWIDTH 512 0
DWIDTH 8 0
BBX 8 15 0 -3
BITMAP
00
00
01
03
01
02
02
1E
22
04
04
04
88
88
F0
ENDCHAR
STARTCHAR GeGhan
ENCODING 1408
SWIDTH 512 0
DWIDTH 8 0
BBX 8 15 0 -3
BITMAP
00
00
00
00
00
00
36
49
49
92
82
80
60
98
04
ENDCHAR
STARTCHAR GeQar
ENCODING 1409
SWIDTH 512 0
DWIDTH 8 0
BBX 8 15 0 -3
BITMAP
00
00
00
00
00
00
22
22
42
44
3C
04
88
88
F0
ENDCHAR
STARTCHAR GeCan
ENCODING 1412
SWIDTH 512 0
DWIDTH 8 0
BBX 8 15 0 -3
BITMAP
00
00
00
00
00
00
24
26
42
42
8C
84
84
88
70
ENDCHAR
STARTCHAR GeCil
ENCODING 1414
SWIDTH 512 0
DWIDTH 8 0
BBX 8 15 0 -3
BITMAP
00
00
1B
25
29
20
20
3E
22
24
24
28
30
30
20
ENDCHAR
STARTCHAR GeChar
ENCODING 1415
SWIDTH 512 0
DWIDTH 8 0
BBX 8 15 0 -3
BITMAP
00
00
08
04
02
02
04
36
5C
6A
08
08
90
90
E0
ENDCHAR
STARTCHAR GeWe
ENCODING 1421
SWIDTH 512 0
DWIDTH 8 0
BBX 8 15 0 -3
BITMAP
00
00
00
00
00
00
3E
04
08
10
38
04
84
88
F8
ENDCHAR
STARTCHAR GeHar
ENCODING 1422
SWIDTH 512 0
DWIDTH 8 0
BBX 8 15 0 -3
BITMAP
00
00
04
08
10
10
0E
04
08
10
38
04
84
88
F0
ENDCHAR
STARTCHAR GeFi
ENCODING 1424
SWIDTH 512 0
DWIDTH 8 0
BBX 8 15 0 -3
BITMAP
00
00
00
00
00
00
14
2A
4A
52
54
18
20
20
C0
ENDCHAR
STARTCHAR GeYn
ENCODING 1425
SWIDTH 512 0
DWIDTH 8 0
BBX 8 15 0 -3
BITMAP
00
00
00
00
00
00
1C
22
22
0C
30
40
88
88
70
ENDCHAR
STARTCHAR GeElifi
ENCODING 1426
SWIDTH 512 0
DWIDTH 8 0
BBX 8 15 0 -3
BITMAP
00
00
00
00
00
00
22
22
22
44
78
40
88
88
70
ENDCHAR
STARTCHAR GeUo
ENCODING 1429
SWIDTH 512 0
DWIDTH 8 0
BBX 8 15 0 -3
BITMAP
00
00
00
00
00
00
19
27
24
48
40
40
88
88
70
ENDCHAR
STARTCHAR GeGanTrnd
ENCODING 1432
SWIDTH 512 0
DWIDTH 8 0
BBX 8 15 0 -3
BITMAP
00
00
00
00
00
00
1C
22
42
42
44
38
20
44
38
ENDCHAR
STARTCHAR GeUnDrss
ENCODING 1435
SWIDTH 512 0
DWIDTH 8 0
BBX 8 15 0 -3
BITMAP
00
00
00
12
12
00
4C
72
12
24
04
04
88
88
F0
ENDCHAR
STARTCHAR GeUnCircum
ENCODING 1437
SWIDTH 512 0
DWIDTH 8 0
BBX 8 15 0 -3
BITMAP
00
00
00
0C
12
00
4C
72
12
24
04
04
88
88
F0
ENDCHAR
STARTCHAR GeEnMacron
ENCODING 1439
SWIDTH 512 0
DWIDTH 8 0
BBX 8 15 0 -3
BITMAP
00
00
00
1E
00
00
1C
22
22
02
04
04
88
88
F0
ENDCHAR
STARTCHAR GeUnMacron
ENCODING 1442
SWIDTH 512 0
DWIDTH 8 0
BBX 8 15 0 -3
BITMAP
00
00
00
1E
00
00
4C
72
12
24
04
04
88
88
F0
ENDCHAR
STARTCHAR AmSmlEh
ENCODING 1489
SWIDTH 512 0
DWIDTH 8 0
BBX 8 15 0 -3
BITMAP
00
00
10
10
10
20
3E
20
20
40
40
38
04
08
00
ENDCHAR
STARTCHAR AmSmlYi
ENCODING 1503
SWIDTH 512 0
DWIDTH 8 0
BBX 8 15 0 -3
BITMAP
00
00
00
00
00
00
1C
08
08
08
10
10
10
20
C0
ENDCHAR
STARTCHAR AmSmlSha
ENCODING 1505
SWIDTH 512 0
DWIDTH 8 0
BBX 8 15 0 -3
BITMAP
00
00
00
00
00
00
1C
22
04
08
10
20
40
80
78
ENDCHAR
STARTCHAR AmSmlCha
ENCODING 1507
SWIDTH 512 0
DWIDTH 8 0
BBX 8 15 0 -3
BITMAP
00
00
00
00
00
00
08
10
08
08
10
20
40
80
78
ENDCHAR
STARTCHAR AmSmlJheh
ENCODING 1509
SWIDTH 512 0
DWIDTH 8 0
BBX 8 15 0 -3
BITMAP
00
00
06
09
09
11
12
12
14
18
10
20
40
80
78
ENDCHAR
STARTCHAR AmSmlCo
ENCODING 1515
SWIDTH 512 0
DWIDTH 8 0
BBX 8 15 0 -3
BITMAP
00
00
00
00
00
00
1E
22
22
44
4C
34
08
88
F0
ENDCHAR
STARTCHAR AmSmlKeh
ENCODING 1518
SWIDTH 512 0
DWIDTH 8 0
BBX 8 15 0 -3
BITMAP
00
00
00
00
00
00
3C
22
22
22
44
78
80
F8
80
ENDCHAR
STARTCHAR GkCapIotTrndLbreve
ENCODING 1612
SWIDTH 512 0
DWIDTH 8 0
BBX 8 15 0 -3
BITMAP
00
00
1F
04
04
08
08
08
08
10
10
7C
00
44
38
ENDCHAR
STARTCHAR GkCapUpsTrndLbreve
ENCODING 1613
SWIDTH 512 0
DWIDTH 8 0
BBX 8 15 0 -3
BITMAP
00
00
04
04
04
08
08
14
14
22
42
42
00
44
38
ENDCHAR
STARTCHAR GkSmlIotTrndLbreve
ENCODING 1614
SWIDTH 512 0
DWIDTH 8 0
BBX 8 15 0 -3
BITMAP
00
00
00
00
00
18
24
08
08
08
10
18
00
44
38
ENDCHAR
STARTCHAR GkSmlUpsTrndLbreve
ENCODING 1615
SWIDTH 512 0
DWIDTH 8 0
BBX 8 15 0 -3
BITMAP
00
00
00
00
00
1C
22
42
42
44
44
22
00
44
38
ENDCHAR
STARTCHAR ThYoYing
ENCODING 1917
SWIDTH 512 0
DWIDTH 8 0
BBX 8 15 0 -3
BITMAP
00
00
00
00
00
32
4A
52
54
94
A4
98
00
48
30
ENDCHAR
STARTCHAR ThDoChada
ENCODING 1919
SWIDTH 512 0
DWIDTH 8 0
BBX 8 15 0 -3
BITMAP
00
00
00
00
00
3C
42
62
24
44
C4
C8
08
08
70
ENDCHAR
STARTCHAR ThToPatak
ENCODING 1920
SWIDTH 512 0
DWIDTH 8 0
BBX 8 15 0 -3
BITMAP
00
00
00
00
00
3C
42
62
24
44
C4
C8
08
A8
F0
ENDCHAR
STARTCHAR ThThoThan
ENCODING 1921
SWIDTH 512 0
DWIDTH 8 0
BBX 8 15 0 -3
BITMAP
00
00
00
00
00
7E
08
04
34
3C
08
08
00
A8
F0
ENDCHAR
STARTCHAR ThRu
ENCODING 1942
SWIDTH 512 0
DWIDTH 8 0
BBX 8 15 0 -3
BITMAP
00
00
00
00
00
3C
42
62
22
44
64
64
08
08
08
ENDCHAR
STARTCHAR ThLu
ENCODING 1944
SWIDTH 512 0
DWIDTH 8 0
BBX 8 15 0 -3
BITMAP
00
00
00
00
00
3C
42
62
22
44
C4
C4
08
08
08
ENDCHAR
STARTCHAR ThMaiyamok
ENCODING 1955
SWIDTH 512 0
DWIDTH 8 0
BBX 8 15 0 -3
BITMAP
00
00
00
00
00
34
4A
62
62
04
04
04
08
08
10
ENDCHAR
STARTCHAR ThLakkhangyao
ENCODING 1956
SWIDTH 512 0
DWIDTH 8 0
BBX 8 15 0 -3
BITMAP
00
00
00
00
00
18
24
04
04
08
08
08
10
10
10
ENDCHAR
STARTCHAR ThSaraU
ENCODING 1978
SWIDTH 512 0
DWIDTH 8 0
BBX 8 15 0 -3
BITMAP
00
00
00
00
00
00
00
00
00
00
00
00
00
18
08
ENDCHAR
STARTCHAR ThSaraUu
ENCODING 1979
SWIDTH 512 0
DWIDTH 8 0
BBX 8 15 0 -3
BITMAP
00
00
00
00
00
00
00
00
00
00
00
00
00
68
38
ENDCHAR
STARTCHAR ThPhinthu
ENCODING 1980
SWIDTH 512 0
DWIDTH 8 0
BBX 8 15 0 -3
BITMAP
00
00
00
00
00
00
00
00
00
00
00
00
00
18
18
ENDCHAR
STARTCHAR ThSaraUD
ENCODING 1986
SWIDTH 512 0
DWIDTH 8 0
BBX 8 15 0 -3
BITMAP
00
00
00
00
00
00
00
00
00
00
00
00
00
18
08
ENDCHAR
STARTCHAR ThSaraUuD
ENCODING 1987
SWIDTH 512 0
DWIDTH 8 0
BBX 8 15 0 -3
BITMAP
00
00
00
00
00
00
00
00
00
00
00
00
00
68
38
ENDCHAR
STARTCHAR ThPhinthuD
ENCODING 1988
SWIDTH 512 0
DWIDTH 8 0
BBX 8 15 0 -3
BITMAP
00
00
00
00
00
00
00
00
00
00
00
00
00
18
18
ENDCHAR
STARTCHAR AccGraveAscii
ENCODING 2484
SWIDTH 512 0
DWIDTH 8 0
BBX 8 15 0 -3
BITMAP
00
0C
0C
04
02
00
00
00
00
00
00
00
00
00
00
ENDCHAR
STARTCHAR CombHbMeteg
ENCODING 2566
SWIDTH 512 0
DWIDTH 8 0
BBX 8 15 0 -3
BITMAP
00
00
00
00
00
00
00
00
00
00
00
00
10
10
10
ENDCHAR
STARTCHAR CombHbPatah
ENCODING 2567
SWIDTH 512 0
DWIDTH 8 0
BBX 8 15 0 -3
BITMAP
00
00
00
00
00
00
00
00
00
00
00
00
00
7C
00
ENDCHAR
STARTCHAR CombHbQamats
ENCODING 2568
SWIDTH 512 0
DWIDTH 8 0
BBX 8 15 0 -3
BITMAP
00
00
00
00
00
00
00
00
00
00
00
00
00
38
10
ENDCHAR
STARTCHAR CombHbSegol
ENCODING 2569
SWIDTH 512 0
DWIDTH 8 0
BBX 8 15 0 -3
BITMAP
00
00
00
00
00
00
00
00
00
00
00
00
00
66
18
ENDCHAR
STARTCHAR CombHbHatafQamats
ENCODING 2573
SWIDTH 512 0
DWIDTH 8 0
BBX 8 15 0 -3
BITMAP
00
00
00
00
00
00
00
00
00
00
00
00
06
70
26
ENDCHAR
STARTCHAR CombLdot
ENCODING 2631
SWIDTH 512 0
DWIDTH 8 0
BBX 8 15 0 -3
BITMAP
00
00
00
00
00
00
00
00
00
00
00
00
00
20
20
ENDCHAR
STARTCHAR CombLvline
ENCODING 2632
SWIDTH 512 0
DWIDTH 8 0
BBX 8 15 0 -3
BITMAP
00
00
00
00
00
00
00
00
00
00
00
00
20
20
20
ENDCHAR
STARTCHAR CombLdrss
ENCODING 2633
SWIDTH 512 0
DWIDTH 8 0
BBX 8 15 0 -3
BITMAP
00
00
00
00
00
00
00
00
00
00
00
00
00
48
48
ENDCHAR
STARTCHAR CombLvline2
ENCODING 2634
SWIDTH 512 0
DWIDTH 8 0
BBX 8 15 0 -3
BITMAP
00
00
00
00
00
00
00
00
00
00
00
00
48
48
48
ENDCHAR
STARTCHAR CombLcircum
ENCODING 2637
SWIDTH 512 0
DWIDTH 8 0
BBX 8 15 0 -3
BITMAP
00
00
00
00
00
00
00
00
00
00
00
00
00
30
48
ENDCHAR
STARTCHAR CombLcaron
ENCODING 2638
SWIDTH 512 0
DWIDTH 8 0
BBX 8 15 0 -3
BITMAP
00
00
00
00
00
00
00
00
00
00
00
00
00
48
30
ENDCHAR
STARTCHAR CombLbreve
ENCODING 2639
SWIDTH 512 0
DWIDTH 8 0
BBX 8 15 0 -3
BITMAP
00
00
00
00
00
00
00
00
00
00
00
00
00
48
30
ENDCHAR
STARTCHAR CombLinvbreve
ENCODING 2640
SWIDTH 512 0
DWIDTH 8 0
BBX 8 15 0 -3
BITMAP
00
00
00
00
00
00
00
00
00
00
00
00
00
30
48
ENDCHAR
STARTCHAR CombLmacron
ENCODING 2641
SWIDTH 512 0
DWIDTH 8 0
BBX 8 15 0 -3
BITMAP
00
00
00
00
00
00
00
00
00
00
00
00
00
00
78
ENDCHAR
STARTCHAR CombLtilde
ENCODING 2644
SWIDTH 512 0
DWIDTH 8 0
BBX 8 15 0 -3
BITMAP
00
00
00
00
00
00
00
00
00
00
00
00
00
48
B0
ENDCHAR
STARTCHAR PApostropheAscii
ENCODING 2681
SWIDTH 512 0
DWIDTH 8 0
BBX 8 15 0 -3
BITMAP
00
06
06
04
08
00
00
00
00
00
00
00
00
00
00
ENDCHAR
STARTCHAR PComma
ENCODING 2711
SWIDTH 512 0
DWIDTH 8 0
BBX 8 15 0 -3
BITMAP
00
00
00
00
00
00
00
00
00
00
30
30
20
40
00
ENDCHAR
STARTCHAR PSemicolon
ENCODING 2712
SWIDTH 512 0
DWIDTH 8 0
BBX 8 15 0 -3
BITMAP
00
00
00
00
00
00
18
18
00
00
30
30
20
40
00
ENDCHAR
STARTCHAR MArrowU
ENCODING 2955
SWIDTH 512 0
DWIDTH 8 0
BBX 8 15 0 -3
BITMAP
00
08
1C
2A
08
08
08
08
08
08
08
08
08
08
00
ENDCHAR
STARTCHAR MArrowD
ENCODING 2956
SWIDTH 512 0
DWIDTH 8 0
BBX 8 15 0 -3
BITMAP
00
08
08
08
08
08
08
08
08
08
08
2A
1C
08
00
ENDCHAR
STARTCHAR MArrowUD
ENCODING 2959
SWIDTH 512 0
DWIDTH 8 0
BBX 8 15 0 -3
BITMAP
00
08
1C
2A
08
08
08
08
08
08
08
2A
1C
08
00
ENDCHAR
STARTCHAR MArrowUDBase
ENCODING 2960
SWIDTH 512 0
DWIDTH 8 0
BBX 8 15 0 -3
BITMAP
00
08
1C
2A
08
08
08
08
08
08
2A
1C
08
3E
00
ENDCHAR
STARTCHAR MArrowULeftD
ENCODING 2962
SWIDTH 512 0
DWIDTH 8 0
BBX 8 15 0 -3
BITMAP
00
24
74
A4
24
24
24
24
24
24
24
25
2E
24
00
ENDCHAR
STARTCHAR MArrowULeftU
ENCODING 2966
SWIDTH 512 0
DWIDTH 8 0
BBX 8 15 0 -3
BITMAP
00
24
7E
A5
24
24
24
24
24
24
24
24
24
24
00
ENDCHAR
STARTCHAR MArrowDLeftD
ENCODING 2967
SWIDTH 512 0
DWIDTH 8 0
BBX 8 15 0 -3
BITMAP
00
24
24
24
24
24
24
24
24
24
24
A5
7E
24
00
ENDCHAR
STARTCHAR MArrowUu
ENCODING 2970
SWIDTH 512 0
DWIDTH 8 0
BBX 8 15 0 -3
BITMAP
00
08
1C
2A
08
1C
2A
08
08
08
08
08
08
08
00
ENDCHAR
STARTCHAR MArrowDd
ENCODING 2971
SWIDTH 512 0
DWIDTH 8 0
BBX 8 15 0 -3
BITMAP
00
08
08
08
08
08
08
08
2A
1C
08
2A
1C
08
00
ENDCHAR
STARTCHAR MArrowBarU
ENCODING 2972
SWIDTH 512 0
DWIDTH 8 0
BBX 8 15 0 -3
BITMAP
00
08
1C
2A
08
08
08
08
08
08
08
08
08
3E
00
ENDCHAR
STARTCHAR MArrowBarD
ENCODING 2973
SWIDTH 512 0
DWIDTH 8 0
BBX 8 15 0 -3
BITMAP
00
3E
08
08
08
08
08
08
08
08
08
2A
1C
08
00
ENDCHAR
STARTCHAR MArrowLU
ENCODING 2978
SWIDTH 512 0
DWIDTH 8 0
BBX 8 15 0 -3
BITMAP
00
40
70
68
50
50
08
08
04
04
02
02
01
01
00
ENDCHAR
STARTCHAR MArrowRU
ENCODING 2979
SWIDTH 512 0
DWIDTH 8 0
BBX 8 15 0 -3
BITMAP
00
01
07
0B
05
05
08
08
10
10
20
20
40
40
00
ENDCHAR
STARTCHAR MArrowLD
ENCODING 2980
SWIDTH 512 0
DWIDTH 8 0
BBX 8 15 0 -3
BITMAP
00
01
01
02
02
04
04
08
08
50
50
68
70
40
00
ENDCHAR
STARTCHAR MArrowRD
ENCODING 2981
SWIDTH 512 0
DWIDTH 8 0
BBX 8 15 0 -3
BITMAP
00
40
40
20
20
10
10
08
08
05
05
0B
07
01
00
ENDCHAR
STARTCHAR MArrow2U
ENCODING 2998
SWIDTH 512 0
DWIDTH 8 0
BBX 8 15 0 -3
BITMAP
00
08
1C
36
55
14
14
14
14
14
14
14
14
14
00
ENDCHAR
STARTCHAR MArrow2D
ENCODING 2999
SWIDTH 512 0
DWIDTH 8 0
BBX 8 15 0 -3
BITMAP
00
14
14
14
14
14
14
14
14
14
55
36
1C
08
00
ENDCHAR
STARTCHAR MArrow2UD
ENCODING 3000
SWIDTH 512 0
DWIDTH 8 0
BBX 8 15 0 -3
BITMAP
00
08
1C
36
55
14
14
14
14
14
55
36
1C
08
00
ENDCHAR
STARTCHAR MHarpoonUl
ENCODING 3021
SWIDTH 512 0
DWIDTH 8 0
BBX 8 15 0 -3
BITMAP
00
08
18
28
08
08
08
08
08
08
08
08
08
08
00
ENDCHAR
STARTCHAR MHarpoonUr
ENCODING 3022
SWIDTH 512 0
DWIDTH 8 0
BBX 8 15 0 -3
BITMAP
00
08
0C
0A
08
08
08
08
08
08
08
08
08
08
00
ENDCHAR
STARTCHAR MHarpoonDl
ENCODING 3023
SWIDTH 512 0
DWIDTH 8 0
BBX 8 15 0 -3
BITMAP
00
08
08
08
08
08
08
08
08
08
08
28
18
08
00
ENDCHAR
STARTCHAR MHarpoonDr
ENCODING 3024
SWIDTH 512 0
DWIDTH 8 0
BBX 8 15 0 -3
BITMAP
00
08
08
08
08
08
08
08
08
08
08
0A
0C
08
00
ENDCHAR
STARTCHAR PCurlyBrackLTRB
ENCODING 3154
SWIDTH 512 0
DWIDTH 8 0
BBX 8 15 0 -3
BITMAP
03
04
08
08
08
08
08
08
08
08
08
08
08
10
60
ENDCHAR
STARTCHAR PCurlyBrackLBRT
ENCODING 3155
SWIDTH 512 0
DWIDTH 8 0
BBX 8 15 0 -3
BITMAP
60
10
08
08
08
08
08
08
08
08
08
08
08
04
03
ENDCHAR
STARTCHAR MSumT
ENCODING 3156
SWIDTH 512 0
DWIDTH 8 0
BBX 8 15 0 -3
BITMAP
00
7F
40
40
20
20
20
10
10
10
08
08
08
04
04
ENDCHAR
STARTCHAR MRootB
ENCODING 3158
SWIDTH 512 0
DWIDTH 8 0
BBX 8 15 0 -3
BITMAP
08
08
08
08
08
08
08
C8
48
28
28
18
18
08
08
ENDCHAR
ENDFONT
