STARTFONT 2.1
COMMENT 
COMMENT Copyright (C) 2012-2025 Uwe Waldmann
COMMENT 
COMMENT Permission is hereby granted, free of charge, to any person obtaining
COMMENT a copy of this font software and associated files (the "Software"),
COMMENT to deal in the Software without restriction, including without
COMMENT limitation the rights to use, copy, modify, merge, publish,
COMMENT distribute, embed, sublicense, and/or sell copies of the Software,
COMMENT and to permit persons to whom the Software is furnished to do so,
COMMENT subject to the following conditions:
COMMENT 
COMMENT (1) The above copyright notice, this permission notice, and the
COMMENT     disclaimer below shall be included in all copies or substantial
COMMENT     portions of the Software.
COMMENT 
COMMENT (2) If the design of any glyphs in the fonts that are contained in the
COMMENT     Software or generated during the installation process is modified
COMMENT     or if additional glyphs are added to the fonts, the fonts
COMMENT     must be renamed. The new names may not contain the word "UW",
COMMENT     irrespective of capitalisation; the new names may contain the word
COMMENT     "ttyp0", irrespective of capitalisation, only if preceded by a
COMMENT     foundry name different from "UW".
COMMENT 
COMMENT THE SOFTWARE IS PROVIDED "AS IS", WITHOUT WARRANTY OF ANY KIND, EXPRESS
COMMENT OR IMPLIED, INCLUDING BUT NOT LIMITED TO THE WARRANTIES OF
COMMENT MERCHANTABILITY, FITNESS FOR A PARTICULAR PURPOSE AND NONINFRINGEMENT.
COMMENT IN NO EVENT SHALL THE AUTHORS OR COPYRIGHT HOLDERS BE LIABLE FOR ANY
COMMENT CLAIM, DAMAGES OR OTHER LIABILITY, WHETHER IN AN ACTION OF CONTRACT,
COMMENT TORT OR OTHERWISE, ARISING FROM, OUT OF OR IN CONNECTION WITH THE
COMMENT SOFTWARE OR THE USE OR OTHER DEALINGS IN THE SOFTWARE.
COMMENT 
FONT -UW-Ttyp0-Medium-R-Normal--13-120-75-75-C-70-UW-Fontspecific
SIZE 13 75 75
FONTBOUNDINGBOX 7 13 0 -2
STARTPROPERTIES 20
FONTNAME_REGISTRY ""
FOUNDRY "UW"
FAMILY_NAME "Ttyp0"
WEIGHT_NAME "Medium"
SLANT "R"
SETWIDTH_NAME "Normal"
ADD_STYLE_NAME ""
PIXEL_SIZE 13
POINT_SIZE 120
RESOLUTION_X 75
RESOLUTION_Y 75
SPACING "C"
AVERAGE_WIDTH 70
CHARSET_REGISTRY "UW"
CHARSET_ENCODING "Fontspecific"
DEFAULT_CHAR 0
FONT_DESCENT 2
FONT_ASCENT 11
COPYRIGHT "Copyright (C) 2012-2025 Uwe Waldmann"
_GBDFED_INFO "Edited with gbdfed 1.6."
ENDPROPERTIES
CHARS 241
STARTCHAR LtCapALdot
ENCODING 780
SWIDTH 516 0
DWIDTH 7 0
BBX 7 13 0 -2
BITMAP
00
00
30
30
30
48
48
78
84
84
84
00
30
ENDCHAR
STARTCHAR LtCapBLdot
ENCODING 781
SWIDTH 516 0
DWIDTH 7 0
BBX 7 13 0 -2
BITMAP
00
00
78
44
44
44
78
44
44
44
78
00
30
ENDCHAR
STARTCHAR LtCapCLdot
ENCODING 782
SWIDTH 516 0
DWIDTH 7 0
BBX 7 13 0 -2
BITMAP
00
00
18
24
40
40
40
40
40
24
18
00
18
ENDCHAR
STARTCHAR LtCapDLdot
ENCODING 783
SWIDTH 516 0
DWIDTH 7 0
BBX 7 13 0 -2
BITMAP
00
00
70
48
44
44
44
44
44
48
70
00
30
ENDCHAR
STARTCHAR LtCapELdot
ENCODING 784
SWIDTH 516 0
DWIDTH 7 0
BBX 7 13 0 -2
BITMAP
00
00
7C
40
40
40
78
40
40
40
7C
00
30
ENDCHAR
STARTCHAR LtCapHLdot
ENCODING 785
SWIDTH 516 0
DWIDTH 7 0
BBX 7 13 0 -2
BITMAP
00
00
44
44
44
44
7C
44
44
44
44
00
30
ENDCHAR
STARTCHAR LtCapILdot
ENCODING 786
SWIDTH 516 0
DWIDTH 7 0
BBX 7 13 0 -2
BITMAP
00
00
7C
10
10
10
10
10
10
10
7C
00
30
ENDCHAR
STARTCHAR LtCapKLdot
ENCODING 787
SWIDTH 516 0
DWIDTH 7 0
BBX 7 13 0 -2
BITMAP
00
00
44
44
48
50
70
48
48
44
44
00
30
ENDCHAR
STARTCHAR LtCapLLdot
ENCODING 788
SWIDTH 516 0
DWIDTH 7 0
BBX 7 13 0 -2
BITMAP
00
00
40
40
40
40
40
40
40
40
7C
00
30
ENDCHAR
STARTCHAR LtCapMLdot
ENCODING 789
SWIDTH 516 0
DWIDTH 7 0
BBX 7 13 0 -2
BITMAP
00
00
84
84
CC
CC
B4
B4
84
84
84
00
30
ENDCHAR
STARTCHAR LtCapNLdot
ENCODING 790
SWIDTH 516 0
DWIDTH 7 0
BBX 7 13 0 -2
BITMAP
00
00
44
44
64
64
54
4C
4C
44
44
00
30
ENDCHAR
STARTCHAR LtCapOLdot
ENCODING 791
SWIDTH 516 0
DWIDTH 7 0
BBX 7 13 0 -2
BITMAP
00
00
38
44
44
44
44
44
44
44
38
00
30
ENDCHAR
STARTCHAR LtCapPLdot
ENCODING 792
SWIDTH 516 0
DWIDTH 7 0
BBX 7 13 0 -2
BITMAP
00
00
78
44
44
44
78
40
40
40
40
00
60
ENDCHAR
STARTCHAR LtCapQLdot
ENCODING 793
SWIDTH 516 0
DWIDTH 7 0
BBX 7 13 0 -2
BITMAP
00
00
38
44
44
44
44
44
44
54
38
06
30
ENDCHAR
STARTCHAR LtCapRLdot
ENCODING 794
SWIDTH 516 0
DWIDTH 7 0
BBX 7 13 0 -2
BITMAP
00
00
78
44
44
44
78
50
48
44
44
00
30
ENDCHAR
STARTCHAR LtCapSLdot
ENCODING 795
SWIDTH 516 0
DWIDTH 7 0
BBX 7 13 0 -2
BITMAP
00
00
38
44
40
40
38
04
04
44
38
00
30
ENDCHAR
STARTCHAR LtCapTLdot
ENCODING 796
SWIDTH 516 0
DWIDTH 7 0
BBX 7 13 0 -2
BITMAP
00
00
7C
10
10
10
10
10
10
10
10
00
30
ENDCHAR
STARTCHAR LtCapULdot
ENCODING 797
SWIDTH 516 0
DWIDTH 7 0
BBX 7 13 0 -2
BITMAP
00
00
44
44
44
44
44
44
44
44
38
00
30
ENDCHAR
STARTCHAR LtCapVLdot
ENCODING 798
SWIDTH 516 0
DWIDTH 7 0
BBX 7 13 0 -2
BITMAP
00
00
44
44
44
44
44
28
28
10
10
00
30
ENDCHAR
STARTCHAR LtCapWLdot
ENCODING 799
SWIDTH 516 0
DWIDTH 7 0
BBX 7 13 0 -2
BITMAP
00
00
82
82
92
92
92
6C
6C
44
44
00
30
ENDCHAR
STARTCHAR LtCapYLdot
ENCODING 800
SWIDTH 516 0
DWIDTH 7 0
BBX 7 13 0 -2
BITMAP
00
00
44
44
44
28
28
10
10
10
10
00
30
ENDCHAR
STARTCHAR LtCapZLdot
ENCODING 801
SWIDTH 516 0
DWIDTH 7 0
BBX 7 13 0 -2
BITMAP
00
00
7C
04
08
08
10
20
20
40
7C
00
30
ENDCHAR
STARTCHAR LtSmlALdot
ENCODING 802
SWIDTH 516 0
DWIDTH 7 0
BBX 7 13 0 -2
BITMAP
00
00
00
00
38
04
04
3C
44
44
3C
00
30
ENDCHAR
STARTCHAR LtSmlBLdot
ENCODING 803
SWIDTH 516 0
DWIDTH 7 0
BBX 7 13 0 -2
BITMAP
00
40
40
40
58
64
44
44
44
64
58
00
18
ENDCHAR
STARTCHAR LtSmlCLdot
ENCODING 804
SWIDTH 516 0
DWIDTH 7 0
BBX 7 13 0 -2
BITMAP
00
00
00
00
38
44
40
40
40
44
38
00
30
ENDCHAR
STARTCHAR LtSmlDLdot
ENCODING 805
SWIDTH 516 0
DWIDTH 7 0
BBX 7 13 0 -2
BITMAP
00
04
04
04
34
4C
44
44
44
4C
34
00
30
ENDCHAR
STARTCHAR LtSmlELdot
ENCODING 806
SWIDTH 516 0
DWIDTH 7 0
BBX 7 13 0 -2
BITMAP
00
00
00
00
38
44
44
7C
40
40
38
00
30
ENDCHAR
STARTCHAR LtSmlHLdot
ENCODING 807
SWIDTH 516 0
DWIDTH 7 0
BBX 7 13 0 -2
BITMAP
00
40
40
40
58
64
44
44
44
44
44
00
30
ENDCHAR
STARTCHAR LtSmlILdot
ENCODING 808
SWIDTH 516 0
DWIDTH 7 0
BBX 7 13 0 -2
BITMAP
00
10
10
00
30
10
10
10
10
10
7C
00
30
ENDCHAR
STARTCHAR LtSmlKLdot
ENCODING 809
SWIDTH 516 0
DWIDTH 7 0
BBX 7 13 0 -2
BITMAP
00
40
40
40
44
48
50
60
50
48
44
00
30
ENDCHAR
STARTCHAR LtSmlLLdot
ENCODING 810
SWIDTH 516 0
DWIDTH 7 0
BBX 7 13 0 -2
BITMAP
00
30
10
10
10
10
10
10
10
10
7C
00
30
ENDCHAR
STARTCHAR LtSmlMLdot
ENCODING 811
SWIDTH 516 0
DWIDTH 7 0
BBX 7 13 0 -2
BITMAP
00
00
00
00
EC
92
92
92
92
92
92
00
30
ENDCHAR
STARTCHAR LtSmlNLdot
ENCODING 812
SWIDTH 516 0
DWIDTH 7 0
BBX 7 13 0 -2
BITMAP
00
00
00
00
58
64
44
44
44
44
44
00
30
ENDCHAR
STARTCHAR LtSmlOLdot
ENCODING 813
SWIDTH 516 0
DWIDTH 7 0
BBX 7 13 0 -2
BITMAP
00
00
00
00
38
44
44
44
44
44
38
00
30
ENDCHAR
STARTCHAR LtSmlPLdot
ENCODING 814
SWIDTH 516 0
DWIDTH 7 0
BBX 7 13 0 -2
BITMAP
00
00
00
00
58
64
44
44
44
64
58
40
58
ENDCHAR
STARTCHAR LtSmlQLdot
ENCODING 815
SWIDTH 516 0
DWIDTH 7 0
BBX 7 13 0 -2
BITMAP
00
00
00
00
34
4C
44
44
44
4C
34
04
34
ENDCHAR
STARTCHAR LtSmlRLdot
ENCODING 816
SWIDTH 516 0
DWIDTH 7 0
BBX 7 13 0 -2
BITMAP
00
00
00
00
6C
34
20
20
20
20
20
00
30
ENDCHAR
STARTCHAR LtSmlSLdot
ENCODING 817
SWIDTH 516 0
DWIDTH 7 0
BBX 7 13 0 -2
BITMAP
00
00
00
00
38
44
40
38
04
44
38
00
30
ENDCHAR
STARTCHAR LtSmlTLdot
ENCODING 818
SWIDTH 516 0
DWIDTH 7 0
BBX 7 13 0 -2
BITMAP
00
00
20
20
78
20
20
20
20
24
18
00
18
ENDCHAR
STARTCHAR LtSmlULdot
ENCODING 819
SWIDTH 516 0
DWIDTH 7 0
BBX 7 13 0 -2
BITMAP
00
00
00
00
44
44
44
44
44
4C
34
00
30
ENDCHAR
STARTCHAR LtSmlVLdot
ENCODING 820
SWIDTH 516 0
DWIDTH 7 0
BBX 7 13 0 -2
BITMAP
00
00
00
00
44
44
44
28
28
10
10
00
30
ENDCHAR
STARTCHAR LtSmlWLdot
ENCODING 821
SWIDTH 516 0
DWIDTH 7 0
BBX 7 13 0 -2
BITMAP
00
00
00
00
82
92
92
92
6C
44
44
00
30
ENDCHAR
STARTCHAR LtSmlYLdot
ENCODING 822
SWIDTH 516 0
DWIDTH 7 0
BBX 7 13 0 -2
BITMAP
00
00
00
00
44
44
44
28
28
18
10
14
64
ENDCHAR
STARTCHAR LtSmlZLdot
ENCODING 823
SWIDTH 516 0
DWIDTH 7 0
BBX 7 13 0 -2
BITMAP
00
00
00
00
7C
04
08
10
20
40
7C
00
30
ENDCHAR
STARTCHAR LtCapOHornLdot
ENCODING 824
SWIDTH 516 0
DWIDTH 7 0
BBX 7 13 0 -2
BITMAP
06
02
3C
44
44
44
44
44
44
44
38
00
30
ENDCHAR
STARTCHAR LtCapUHornLdot
ENCODING 825
SWIDTH 516 0
DWIDTH 7 0
BBX 7 13 0 -2
BITMAP
06
02
44
44
44
44
44
44
44
44
38
00
30
ENDCHAR
STARTCHAR LtSmlOHornLdot
ENCODING 826
SWIDTH 516 0
DWIDTH 7 0
BBX 7 13 0 -2
BITMAP
00
00
06
02
3C
44
44
44
44
44
38
00
30
ENDCHAR
STARTCHAR LtSmlUHornLdot
ENCODING 827
SWIDTH 516 0
DWIDTH 7 0
BBX 7 13 0 -2
BITMAP
00
00
06
02
44
44
44
44
44
4C
34
00
30
ENDCHAR
STARTCHAR LtCapSDotLdot
ENCODING 828
SWIDTH 516 0
DWIDTH 7 0
BBX 7 13 0 -2
BITMAP
10
10
00
38
44
40
38
04
04
44
38
00
30
ENDCHAR
STARTCHAR LtSmlSDotLdot
ENCODING 829
SWIDTH 516 0
DWIDTH 7 0
BBX 7 13 0 -2
BITMAP
00
10
10
00
38
44
40
38
04
44
38
00
30
ENDCHAR
STARTCHAR LtCapLMacronLdot
ENCODING 830
SWIDTH 516 0
DWIDTH 7 0
BBX 7 13 0 -2
BITMAP
78
00
40
40
40
40
40
40
40
40
7C
00
30
ENDCHAR
STARTCHAR LtCapRMacronLdot
ENCODING 831
SWIDTH 516 0
DWIDTH 7 0
BBX 7 13 0 -2
BITMAP
78
00
78
44
44
44
78
50
48
44
44
00
30
ENDCHAR
STARTCHAR LtSmlLMacronLdot
ENCODING 832
SWIDTH 516 0
DWIDTH 7 0
BBX 7 13 0 -2
BITMAP
78
00
30
10
10
10
10
10
10
10
7C
00
30
ENDCHAR
STARTCHAR LtSmlRMacronLdot
ENCODING 833
SWIDTH 516 0
DWIDTH 7 0
BBX 7 13 0 -2
BITMAP
00
00
3C
00
6C
34
20
20
20
20
20
00
30
ENDCHAR
STARTCHAR LtCapEAcuteLdot
ENCODING 834
SWIDTH 516 0
DWIDTH 7 0
BBX 7 13 0 -2
BITMAP
08
30
00
7C
40
40
78
40
40
40
7C
00
30
ENDCHAR
STARTCHAR LtCapOAcuteLdot
ENCODING 835
SWIDTH 516 0
DWIDTH 7 0
BBX 7 13 0 -2
BITMAP
08
30
00
38
44
44
44
44
44
44
38
00
30
ENDCHAR
STARTCHAR LtCapRAcuteLdot
ENCODING 836
SWIDTH 516 0
DWIDTH 7 0
BBX 7 13 0 -2
BITMAP
08
30
00
78
44
44
78
50
48
44
44
00
30
ENDCHAR
STARTCHAR LtSmlEAcuteLdot
ENCODING 837
SWIDTH 516 0
DWIDTH 7 0
BBX 7 13 0 -2
BITMAP
08
08
10
00
38
44
44
7C
40
40
38
00
30
ENDCHAR
STARTCHAR LtSmlOAcuteLdot
ENCODING 838
SWIDTH 516 0
DWIDTH 7 0
BBX 7 13 0 -2
BITMAP
08
08
10
00
38
44
44
44
44
44
38
00
30
ENDCHAR
STARTCHAR LtSmlRAcuteLdot
ENCODING 839
SWIDTH 516 0
DWIDTH 7 0
BBX 7 13 0 -2
BITMAP
08
08
10
00
6C
34
20
20
20
20
20
00
30
ENDCHAR
STARTCHAR LtSmlRMacronAcuteLdot
ENCODING 840
SWIDTH 516 0
DWIDTH 7 0
BBX 7 13 0 -2
BITMAP
08
10
3C
00
6C
34
20
20
20
20
20
00
30
ENDCHAR
STARTCHAR LtCapEGraveLdot
ENCODING 841
SWIDTH 516 0
DWIDTH 7 0
BBX 7 13 0 -2
BITMAP
20
18
00
7C
40
40
78
40
40
40
7C
00
30
ENDCHAR
STARTCHAR LtCapOGraveLdot
ENCODING 842
SWIDTH 516 0
DWIDTH 7 0
BBX 7 13 0 -2
BITMAP
20
18
00
38
44
44
44
44
44
44
38
00
30
ENDCHAR
STARTCHAR LtCapRGraveLdot
ENCODING 843
SWIDTH 516 0
DWIDTH 7 0
BBX 7 13 0 -2
BITMAP
20
18
00
78
44
44
78
50
48
44
44
00
30
ENDCHAR
STARTCHAR LtSmlEGraveLdot
ENCODING 844
SWIDTH 516 0
DWIDTH 7 0
BBX 7 13 0 -2
BITMAP
20
20
10
00
38
44
44
7C
40
40
38
00
30
ENDCHAR
STARTCHAR LtSmlOGraveLdot
ENCODING 845
SWIDTH 516 0
DWIDTH 7 0
BBX 7 13 0 -2
BITMAP
20
20
10
00
38
44
44
44
44
44
38
00
30
ENDCHAR
STARTCHAR LtSmlRGraveLdot
ENCODING 846
SWIDTH 516 0
DWIDTH 7 0
BBX 7 13 0 -2
BITMAP
20
20
10
00
6C
34
20
20
20
20
20
00
30
ENDCHAR
STARTCHAR LtCapACircumLdot
ENCODING 847
SWIDTH 516 0
DWIDTH 7 0
BBX 7 13 0 -2
BITMAP
30
48
00
30
30
48
48
78
84
84
84
00
30
ENDCHAR
STARTCHAR LtCapECircumLdot
ENCODING 848
SWIDTH 516 0
DWIDTH 7 0
BBX 7 13 0 -2
BITMAP
18
24
00
7C
40
40
78
40
40
40
7C
00
30
ENDCHAR
STARTCHAR LtCapOCircumLdot
ENCODING 849
SWIDTH 516 0
DWIDTH 7 0
BBX 7 13 0 -2
BITMAP
18
24
00
38
44
44
44
44
44
44
38
00
30
ENDCHAR
STARTCHAR LtSmlACircumLdot
ENCODING 850
SWIDTH 516 0
DWIDTH 7 0
BBX 7 13 0 -2
BITMAP
00
18
24
00
38
04
04
3C
44
44
3C
00
30
ENDCHAR
STARTCHAR LtSmlECircumLdot
ENCODING 851
SWIDTH 516 0
DWIDTH 7 0
BBX 7 13 0 -2
BITMAP
00
18
24
00
38
44
44
7C
40
40
38
00
30
ENDCHAR
STARTCHAR LtSmlOCircumLdot
ENCODING 852
SWIDTH 516 0
DWIDTH 7 0
BBX 7 13 0 -2
BITMAP
00
18
24
00
38
44
44
44
44
44
38
00
30
ENDCHAR
STARTCHAR LtCapCCaronLdot
ENCODING 853
SWIDTH 516 0
DWIDTH 7 0
BBX 7 13 0 -2
BITMAP
24
18
00
18
24
40
40
40
40
24
18
00
18
ENDCHAR
STARTCHAR LtSmlCCaronLdot
ENCODING 854
SWIDTH 516 0
DWIDTH 7 0
BBX 7 13 0 -2
BITMAP
00
24
18
00
38
44
40
40
40
44
38
00
30
ENDCHAR
STARTCHAR LtCapABreveLdot
ENCODING 855
SWIDTH 516 0
DWIDTH 7 0
BBX 7 13 0 -2
BITMAP
48
30
00
30
30
48
48
78
84
84
84
00
30
ENDCHAR
STARTCHAR LtSmlABreveLdot
ENCODING 856
SWIDTH 516 0
DWIDTH 7 0
BBX 7 13 0 -2
BITMAP
00
24
18
00
38
04
04
3C
44
44
3C
00
30
ENDCHAR
STARTCHAR LtSmlRLvline
ENCODING 860
SWIDTH 516 0
DWIDTH 7 0
BBX 7 13 0 -2
BITMAP
00
00
00
00
6C
34
20
20
20
20
00
20
20
ENDCHAR
STARTCHAR LtCapALring
ENCODING 862
SWIDTH 516 0
DWIDTH 7 0
BBX 7 13 0 -2
BITMAP
00
00
30
30
30
48
48
78
84
84
94
28
10
ENDCHAR
STARTCHAR LtCapRLring
ENCODING 863
SWIDTH 516 0
DWIDTH 7 0
BBX 7 13 0 -2
BITMAP
00
00
78
44
44
44
78
50
48
44
54
28
10
ENDCHAR
STARTCHAR LtSmlALring
ENCODING 864
SWIDTH 516 0
DWIDTH 7 0
BBX 7 13 0 -2
BITMAP
00
00
00
00
38
04
04
3C
44
44
3C
28
10
ENDCHAR
STARTCHAR LtSmlLLring
ENCODING 865
SWIDTH 516 0
DWIDTH 7 0
BBX 7 13 0 -2
BITMAP
00
30
10
10
10
10
10
10
10
10
7C
28
10
ENDCHAR
STARTCHAR LtSmlRLring
ENCODING 866
SWIDTH 516 0
DWIDTH 7 0
BBX 7 13 0 -2
BITMAP
00
00
00
00
6C
34
20
20
20
20
20
50
20
ENDCHAR
STARTCHAR LtSmlLMacronLring
ENCODING 867
SWIDTH 516 0
DWIDTH 7 0
BBX 7 13 0 -2
BITMAP
78
00
30
10
10
10
10
10
10
10
7C
28
10
ENDCHAR
STARTCHAR LtSmlRMacronLring
ENCODING 868
SWIDTH 516 0
DWIDTH 7 0
BBX 7 13 0 -2
BITMAP
00
00
3C
00
6C
34
20
20
20
20
20
50
20
ENDCHAR
STARTCHAR LtSmlRAcuteLring
ENCODING 869
SWIDTH 516 0
DWIDTH 7 0
BBX 7 13 0 -2
BITMAP
08
08
10
00
6C
34
20
20
20
20
20
50
20
ENDCHAR
STARTCHAR LtSmlRMacronAcuteLring
ENCODING 870
SWIDTH 516 0
DWIDTH 7 0
BBX 7 13 0 -2
BITMAP
08
10
3C
00
6C
34
20
20
20
20
20
50
20
ENDCHAR
STARTCHAR LtSmlRGraveLring
ENCODING 871
SWIDTH 516 0
DWIDTH 7 0
BBX 7 13 0 -2
BITMAP
20
20
10
00
6C
34
20
20
20
20
20
50
20
ENDCHAR
STARTCHAR LtCapULdrss
ENCODING 872
SWIDTH 516 0
DWIDTH 7 0
BBX 7 13 0 -2
BITMAP
00
00
44
44
44
44
44
44
44
44
38
00
6C
ENDCHAR
STARTCHAR LtSmlULdrss
ENCODING 873
SWIDTH 516 0
DWIDTH 7 0
BBX 7 13 0 -2
BITMAP
00
00
00
00
44
44
44
44
44
4C
34
00
6C
ENDCHAR
STARTCHAR LtCapBLmacron
ENCODING 874
SWIDTH 516 0
DWIDTH 7 0
BBX 7 13 0 -2
BITMAP
00
00
78
44
44
44
78
44
44
44
78
00
7C
ENDCHAR
STARTCHAR LtCapDLmacron
ENCODING 875
SWIDTH 516 0
DWIDTH 7 0
BBX 7 13 0 -2
BITMAP
00
00
70
48
44
44
44
44
44
48
70
00
7C
ENDCHAR
STARTCHAR LtCapELmacron
ENCODING 876
SWIDTH 516 0
DWIDTH 7 0
BBX 7 13 0 -2
BITMAP
00
00
7C
40
40
40
78
40
40
40
7C
00
7C
ENDCHAR
STARTCHAR LtCapHLmacron
ENCODING 877
SWIDTH 516 0
DWIDTH 7 0
BBX 7 13 0 -2
BITMAP
00
00
44
44
44
44
7C
44
44
44
44
00
7C
ENDCHAR
STARTCHAR LtCapKLmacron
ENCODING 878
SWIDTH 516 0
DWIDTH 7 0
BBX 7 13 0 -2
BITMAP
00
00
44
44
48
50
70
48
48
44
44
00
7C
ENDCHAR
STARTCHAR LtCapLLmacron
ENCODING 879
SWIDTH 516 0
DWIDTH 7 0
BBX 7 13 0 -2
BITMAP
00
00
40
40
40
40
40
40
40
40
7C
00
7C
ENDCHAR
STARTCHAR LtCapNLmacron
ENCODING 880
SWIDTH 516 0
DWIDTH 7 0
BBX 7 13 0 -2
BITMAP
00
00
44
44
64
64
54
4C
4C
44
44
00
7C
ENDCHAR
STARTCHAR LtCapOLmacron
ENCODING 881
SWIDTH 516 0
DWIDTH 7 0
BBX 7 13 0 -2
BITMAP
00
00
38
44
44
44
44
44
44
44
38
00
7C
ENDCHAR
STARTCHAR LtCapRLmacron
ENCODING 882
SWIDTH 516 0
DWIDTH 7 0
BBX 7 13 0 -2
BITMAP
00
00
78
44
44
44
78
50
48
44
44
00
7C
ENDCHAR
STARTCHAR LtCapTLmacron
ENCODING 883
SWIDTH 516 0
DWIDTH 7 0
BBX 7 13 0 -2
BITMAP
00
00
7C
10
10
10
10
10
10
10
10
00
78
ENDCHAR
STARTCHAR LtCapZLmacron
ENCODING 884
SWIDTH 516 0
DWIDTH 7 0
BBX 7 13 0 -2
BITMAP
00
00
7C
04
08
08
10
20
20
40
7C
00
7C
ENDCHAR
STARTCHAR LtSmlBLmacron
ENCODING 885
SWIDTH 516 0
DWIDTH 7 0
BBX 7 13 0 -2
BITMAP
00
40
40
40
58
64
44
44
44
64
58
00
7C
ENDCHAR
STARTCHAR LtSmlDLmacron
ENCODING 886
SWIDTH 516 0
DWIDTH 7 0
BBX 7 13 0 -2
BITMAP
00
04
04
04
34
4C
44
44
44
4C
34
00
7C
ENDCHAR
STARTCHAR LtSmlELmacron
ENCODING 887
SWIDTH 516 0
DWIDTH 7 0
BBX 7 13 0 -2
BITMAP
00
00
00
00
38
44
44
7C
40
40
38
00
7C
ENDCHAR
STARTCHAR LtSmlHLmacron
ENCODING 888
SWIDTH 516 0
DWIDTH 7 0
BBX 7 13 0 -2
BITMAP
00
40
40
40
58
64
44
44
44
44
44
00
7C
ENDCHAR
STARTCHAR LtSmlKLmacron
ENCODING 889
SWIDTH 516 0
DWIDTH 7 0
BBX 7 13 0 -2
BITMAP
00
40
40
40
44
48
50
60
50
48
44
00
7C
ENDCHAR
STARTCHAR LtSmlLLmacron
ENCODING 890
SWIDTH 516 0
DWIDTH 7 0
BBX 7 13 0 -2
BITMAP
00
30
10
10
10
10
10
10
10
10
7C
00
7C
ENDCHAR
STARTCHAR LtSmlNLmacron
ENCODING 891
SWIDTH 516 0
DWIDTH 7 0
BBX 7 13 0 -2
BITMAP
00
00
00
00
58
64
44
44
44
44
44
00
7C
ENDCHAR
STARTCHAR LtSmlOLmacron
ENCODING 892
SWIDTH 516 0
DWIDTH 7 0
BBX 7 13 0 -2
BITMAP
00
00
00
00
38
44
44
44
44
44
38
00
7C
ENDCHAR
STARTCHAR LtSmlRLmacron
ENCODING 893
SWIDTH 516 0
DWIDTH 7 0
BBX 7 13 0 -2
BITMAP
00
00
00
00
6C
34
20
20
20
20
20
00
78
ENDCHAR
STARTCHAR LtSmlTLmacron
ENCODING 894
SWIDTH 516 0
DWIDTH 7 0
BBX 7 13 0 -2
BITMAP
00
00
20
20
78
20
20
20
20
24
18
00
3C
ENDCHAR
STARTCHAR LtSmlZLmacron
ENCODING 895
SWIDTH 516 0
DWIDTH 7 0
BBX 7 13 0 -2
BITMAP
00
00
00
00
7C
04
08
10
20
40
7C
00
7C
ENDCHAR
STARTCHAR LtCapGHLmacron
ENCODING 896
SWIDTH 516 0
DWIDTH 7 0
BBX 7 13 0 -2
BITMAP
00
00
6A
AA
8A
8A
AE
AA
AA
AA
6A
00
7C
ENDCHAR
STARTCHAR LtCapKHLmacron
ENCODING 897
SWIDTH 516 0
DWIDTH 7 0
BBX 7 13 0 -2
BITMAP
00
00
AA
AA
AA
CA
CE
AA
AA
AA
AA
00
7C
ENDCHAR
STARTCHAR LtMixGHLmacron
ENCODING 898
SWIDTH 516 0
DWIDTH 7 0
BBX 7 13 0 -2
BITMAP
00
08
68
A8
8E
8A
AA
AA
AA
AA
6A
00
7C
ENDCHAR
STARTCHAR LtMixKHLmacron
ENCODING 899
SWIDTH 516 0
DWIDTH 7 0
BBX 7 13 0 -2
BITMAP
00
08
A8
A8
AE
CA
CA
AA
AA
AA
AA
00
7C
ENDCHAR
STARTCHAR LtSmlGHLmacron
ENCODING 900
SWIDTH 516 0
DWIDTH 7 0
BBX 7 13 0 -2
BITMAP
00
08
08
08
6E
AA
AA
AA
AA
6A
2A
A0
FC
ENDCHAR
STARTCHAR LtSmlKHLmacron
ENCODING 901
SWIDTH 516 0
DWIDTH 7 0
BBX 7 13 0 -2
BITMAP
00
88
88
88
AE
AA
AA
CA
AA
AA
AA
00
7C
ENDCHAR
STARTCHAR LtCapDLcircum
ENCODING 902
SWIDTH 516 0
DWIDTH 7 0
BBX 7 13 0 -2
BITMAP
00
00
70
48
44
44
44
44
44
48
70
20
50
ENDCHAR
STARTCHAR LtCapELcircum
ENCODING 903
SWIDTH 516 0
DWIDTH 7 0
BBX 7 13 0 -2
BITMAP
00
00
7C
40
40
40
78
40
40
40
7C
10
28
ENDCHAR
STARTCHAR LtCapLLcircum
ENCODING 904
SWIDTH 516 0
DWIDTH 7 0
BBX 7 13 0 -2
BITMAP
00
00
40
40
40
40
40
40
40
40
7C
10
28
ENDCHAR
STARTCHAR LtCapNLcircum
ENCODING 905
SWIDTH 516 0
DWIDTH 7 0
BBX 7 13 0 -2
BITMAP
00
00
44
44
64
64
54
4C
4C
44
44
10
28
ENDCHAR
STARTCHAR LtCapTLcircum
ENCODING 906
SWIDTH 516 0
DWIDTH 7 0
BBX 7 13 0 -2
BITMAP
00
00
7C
10
10
10
10
10
10
10
10
10
28
ENDCHAR
STARTCHAR LtCapULcircum
ENCODING 907
SWIDTH 516 0
DWIDTH 7 0
BBX 7 13 0 -2
BITMAP
00
00
44
44
44
44
44
44
44
44
38
10
28
ENDCHAR
STARTCHAR LtSmlDLcircum
ENCODING 908
SWIDTH 516 0
DWIDTH 7 0
BBX 7 13 0 -2
BITMAP
00
04
04
04
34
4C
44
44
44
4C
34
10
28
ENDCHAR
STARTCHAR LtSmlELcircum
ENCODING 909
SWIDTH 516 0
DWIDTH 7 0
BBX 7 13 0 -2
BITMAP
00
00
00
00
38
44
44
7C
40
40
38
10
28
ENDCHAR
STARTCHAR LtSmlLLcircum
ENCODING 910
SWIDTH 516 0
DWIDTH 7 0
BBX 7 13 0 -2
BITMAP
00
30
10
10
10
10
10
10
10
10
7C
10
28
ENDCHAR
STARTCHAR LtSmlNLcircum
ENCODING 911
SWIDTH 516 0
DWIDTH 7 0
BBX 7 13 0 -2
BITMAP
00
00
00
00
58
64
44
44
44
44
44
10
28
ENDCHAR
STARTCHAR LtSmlTLcircum
ENCODING 912
SWIDTH 516 0
DWIDTH 7 0
BBX 7 13 0 -2
BITMAP
00
00
20
20
78
20
20
20
20
24
18
10
28
ENDCHAR
STARTCHAR LtSmlULcircum
ENCODING 913
SWIDTH 516 0
DWIDTH 7 0
BBX 7 13 0 -2
BITMAP
00
00
00
00
44
44
44
44
44
4C
34
10
28
ENDCHAR
STARTCHAR LtCapHLbreve
ENCODING 914
SWIDTH 516 0
DWIDTH 7 0
BBX 7 13 0 -2
BITMAP
00
00
44
44
44
7C
44
44
44
44
00
24
18
ENDCHAR
STARTCHAR LtSmlHLbreve
ENCODING 915
SWIDTH 516 0
DWIDTH 7 0
BBX 7 13 0 -2
BITMAP
00
40
40
40
58
64
44
44
44
44
00
24
18
ENDCHAR
STARTCHAR LtSmlILinvbreve
ENCODING 916
SWIDTH 516 0
DWIDTH 7 0
BBX 7 13 0 -2
BITMAP
00
10
10
00
30
10
10
10
10
7C
00
30
48
ENDCHAR
STARTCHAR LtSmlOLinvbreve
ENCODING 917
SWIDTH 516 0
DWIDTH 7 0
BBX 7 13 0 -2
BITMAP
00
00
00
00
38
44
44
44
44
38
00
30
48
ENDCHAR
STARTCHAR LtSmlULinvbreve
ENCODING 918
SWIDTH 516 0
DWIDTH 7 0
BBX 7 13 0 -2
BITMAP
00
00
00
00
44
44
44
44
4C
34
00
30
48
ENDCHAR
STARTCHAR LtSmlATrndLinvbreve
ENCODING 919
SWIDTH 516 0
DWIDTH 7 0
BBX 7 13 0 -2
BITMAP
00
00
00
00
F8
44
44
78
40
38
00
30
48
ENDCHAR
STARTCHAR LtCapELtilde
ENCODING 920
SWIDTH 516 0
DWIDTH 7 0
BBX 7 13 0 -2
BITMAP
00
00
7C
40
40
40
78
40
40
40
7C
24
58
ENDCHAR
STARTCHAR LtCapILtilde
ENCODING 921
SWIDTH 516 0
DWIDTH 7 0
BBX 7 13 0 -2
BITMAP
00
00
7C
10
10
10
10
10
10
10
7C
24
58
ENDCHAR
STARTCHAR LtCapULtilde
ENCODING 922
SWIDTH 516 0
DWIDTH 7 0
BBX 7 13 0 -2
BITMAP
00
00
44
44
44
44
44
44
44
44
38
24
58
ENDCHAR
STARTCHAR LtSmlELtilde
ENCODING 923
SWIDTH 516 0
DWIDTH 7 0
BBX 7 13 0 -2
BITMAP
00
00
00
00
38
44
44
7C
40
40
38
24
58
ENDCHAR
STARTCHAR LtSmlILtilde
ENCODING 924
SWIDTH 516 0
DWIDTH 7 0
BBX 7 13 0 -2
BITMAP
00
10
10
00
30
10
10
10
10
10
7C
24
58
ENDCHAR
STARTCHAR LtSmlULtilde
ENCODING 925
SWIDTH 516 0
DWIDTH 7 0
BBX 7 13 0 -2
BITMAP
00
00
00
00
44
44
44
44
44
4C
34
24
58
ENDCHAR
STARTCHAR HbAlefPatah
ENCODING 1355
SWIDTH 516 0
DWIDTH 7 0
BBX 7 13 0 -2
BITMAP
00
00
00
00
48
44
28
38
48
44
64
00
78
ENDCHAR
STARTCHAR HbAlefQamats
ENCODING 1357
SWIDTH 516 0
DWIDTH 7 0
BBX 7 13 0 -2
BITMAP
00
00
00
00
48
44
28
38
48
44
44
38
10
ENDCHAR
STARTCHAR GeGan
ENCODING 1388
SWIDTH 516 0
DWIDTH 7 0
BBX 7 13 0 -2
BITMAP
00
00
00
00
00
60
50
10
38
44
44
44
38
ENDCHAR
STARTCHAR GeDon
ENCODING 1389
SWIDTH 516 0
DWIDTH 7 0
BBX 7 13 0 -2
BITMAP
00
00
00
00
00
38
44
44
44
38
20
78
04
ENDCHAR
STARTCHAR GeEn
ENCODING 1390
SWIDTH 516 0
DWIDTH 7 0
BBX 7 13 0 -2
BITMAP
00
00
00
00
00
18
24
24
04
04
44
44
38
ENDCHAR
STARTCHAR GeVin
ENCODING 1391
SWIDTH 516 0
DWIDTH 7 0
BBX 7 13 0 -2
BITMAP
00
00
00
00
00
18
24
04
18
04
44
44
38
ENDCHAR
STARTCHAR GeKan
ENCODING 1395
SWIDTH 516 0
DWIDTH 7 0
BBX 7 13 0 -2
BITMAP
00
00
00
00
00
04
04
04
18
04
44
44
38
ENDCHAR
STARTCHAR GeLas
ENCODING 1396
SWIDTH 516 0
DWIDTH 7 0
BBX 7 13 0 -2
BITMAP
00
00
00
00
00
38
44
44
44
44
20
78
04
ENDCHAR
STARTCHAR GeZhar
ENCODING 1401
SWIDTH 516 0
DWIDTH 7 0
BBX 7 13 0 -2
BITMAP
00
00
00
00
00
1C
54
54
24
04
44
44
38
ENDCHAR
STARTCHAR GeTar
ENCODING 1404
SWIDTH 516 0
DWIDTH 7 0
BBX 7 13 0 -2
BITMAP
00
00
00
10
28
38
54
44
82
82
82
44
38
ENDCHAR
STARTCHAR GeUn
ENCODING 1405
SWIDTH 516 0
DWIDTH 7 0
BBX 7 13 0 -2
BITMAP
00
00
00
00
00
58
74
24
24
04
44
44
38
ENDCHAR
STARTCHAR GePhar
ENCODING 1406
SWIDTH 516 0
DWIDTH 7 0
BBX 7 13 0 -2
BITMAP
00
00
00
00
00
6C
92
92
A2
4C
02
22
1C
ENDCHAR
STARTCHAR GeKhar
ENCODING 1407
SWIDTH 516 0
DWIDTH 7 0
BBX 7 13 0 -2
BITMAP
00
00
04
0C
04
04
3C
24
04
04
44
44
38
ENDCHAR
STARTCHAR GeGhan
ENCODING 1408
SWIDTH 516 0
DWIDTH 7 0
BBX 7 13 0 -2
BITMAP
00
00
00
00
00
28
54
54
54
44
20
78
04
ENDCHAR
STARTCHAR GeQar
ENCODING 1409
SWIDTH 516 0
DWIDTH 7 0
BBX 7 13 0 -2
BITMAP
00
00
00
00
00
44
44
44
3C
04
44
44
38
ENDCHAR
STARTCHAR GeCan
ENCODING 1412
SWIDTH 516 0
DWIDTH 7 0
BBX 7 13 0 -2
BITMAP
00
00
00
00
00
28
48
44
44
58
44
44
38
ENDCHAR
STARTCHAR GeCil
ENCODING 1414
SWIDTH 516 0
DWIDTH 7 0
BBX 7 13 0 -2
BITMAP
00
00
28
54
54
40
40
7C
28
28
10
10
10
ENDCHAR
STARTCHAR GeChar
ENCODING 1415
SWIDTH 516 0
DWIDTH 7 0
BBX 7 13 0 -2
BITMAP
00
00
20
10
08
08
2C
58
2C
08
48
48
30
ENDCHAR
STARTCHAR GeWe
ENCODING 1421
SWIDTH 516 0
DWIDTH 7 0
BBX 7 13 0 -2
BITMAP
00
00
00
00
00
3C
04
08
18
04
44
44
38
ENDCHAR
STARTCHAR GeHar
ENCODING 1422
SWIDTH 516 0
DWIDTH 7 0
BBX 7 13 0 -2
BITMAP
00
00
08
10
10
0C
04
08
18
04
44
44
38
ENDCHAR
STARTCHAR GeFi
ENCODING 1424
SWIDTH 516 0
DWIDTH 7 0
BBX 7 13 0 -2
BITMAP
00
00
00
00
00
28
54
54
54
54
18
10
20
ENDCHAR
STARTCHAR GeYn
ENCODING 1425
SWIDTH 516 0
DWIDTH 7 0
BBX 7 13 0 -2
BITMAP
00
00
00
00
00
38
24
04
18
20
44
44
38
ENDCHAR
STARTCHAR GeElifi
ENCODING 1426
SWIDTH 516 0
DWIDTH 7 0
BBX 7 13 0 -2
BITMAP
00
00
00
00
00
44
44
44
78
40
44
44
38
ENDCHAR
STARTCHAR GeUo
ENCODING 1429
SWIDTH 516 0
DWIDTH 7 0
BBX 7 13 0 -2
BITMAP
00
00
00
00
00
34
5C
48
48
40
44
44
38
ENDCHAR
STARTCHAR GeGanTrnd
ENCODING 1432
SWIDTH 516 0
DWIDTH 7 0
BBX 7 13 0 -2
BITMAP
00
00
00
00
00
38
44
44
44
38
10
14
0C
ENDCHAR
STARTCHAR GeUnDrss
ENCODING 1435
SWIDTH 516 0
DWIDTH 7 0
BBX 7 13 0 -2
BITMAP
00
00
24
24
00
58
74
24
24
04
44
44
38
ENDCHAR
STARTCHAR GeUnCircum
ENCODING 1437
SWIDTH 516 0
DWIDTH 7 0
BBX 7 13 0 -2
BITMAP
00
00
18
24
00
58
74
24
24
04
44
44
38
ENDCHAR
STARTCHAR GeEnMacron
ENCODING 1439
SWIDTH 516 0
DWIDTH 7 0
BBX 7 13 0 -2
BITMAP
00
00
00
38
00
18
24
24
04
04
44
44
38
ENDCHAR
STARTCHAR GeUnMacron
ENCODING 1442
SWIDTH 516 0
DWIDTH 7 0
BBX 7 13 0 -2
BITMAP
00
00
00
38
00
58
74
24
24
04
44
44
38
ENDCHAR
STARTCHAR AmSmlEh
ENCODING 1489
SWIDTH 516 0
DWIDTH 7 0
BBX 7 13 0 -2
BITMAP
00
40
40
40
40
7C
40
40
40
40
38
04
08
ENDCHAR
STARTCHAR AmSmlYi
ENCODING 1503
SWIDTH 516 0
DWIDTH 7 0
BBX 7 13 0 -2
BITMAP
00
00
00
00
00
30
10
10
10
10
10
10
E0
ENDCHAR
STARTCHAR AmSmlSha
ENCODING 1505
SWIDTH 516 0
DWIDTH 7 0
BBX 7 13 0 -2
BITMAP
00
00
00
00
00
38
44
04
08
10
20
40
3C
ENDCHAR
STARTCHAR AmSmlCha
ENCODING 1507
SWIDTH 516 0
DWIDTH 7 0
BBX 7 13 0 -2
BITMAP
00
00
00
00
00
10
20
10
08
10
20
40
3C
ENDCHAR
STARTCHAR AmSmlJheh
ENCODING 1509
SWIDTH 516 0
DWIDTH 7 0
BBX 7 13 0 -2
BITMAP
00
38
44
44
44
44
28
28
10
20
40
40
3C
ENDCHAR
STARTCHAR AmSmlCo
ENCODING 1515
SWIDTH 516 0
DWIDTH 7 0
BBX 7 13 0 -2
BITMAP
00
00
00
00
00
3C
44
44
44
3C
04
44
38
ENDCHAR
STARTCHAR AmSmlKeh
ENCODING 1518
SWIDTH 516 0
DWIDTH 7 0
BBX 7 13 0 -2
BITMAP
00
00
00
00
00
78
44
44
44
78
40
F8
40
ENDCHAR
STARTCHAR GkCapIotTrndLbreve
ENCODING 1612
SWIDTH 516 0
DWIDTH 7 0
BBX 7 13 0 -2
BITMAP
00
00
7C
10
10
10
10
10
10
7C
00
24
18
ENDCHAR
STARTCHAR GkCapUpsTrndLbreve
ENCODING 1613
SWIDTH 516 0
DWIDTH 7 0
BBX 7 13 0 -2
BITMAP
00
00
10
10
10
10
28
28
44
44
00
24
18
ENDCHAR
STARTCHAR GkSmlIotTrndLbreve
ENCODING 1614
SWIDTH 516 0
DWIDTH 7 0
BBX 7 13 0 -2
BITMAP
00
00
00
00
30
48
08
08
08
08
00
24
18
ENDCHAR
STARTCHAR GkSmlUpsTrndLbreve
ENCODING 1615
SWIDTH 516 0
DWIDTH 7 0
BBX 7 13 0 -2
BITMAP
00
00
00
00
38
44
44
44
44
44
00
24
18
ENDCHAR
STARTCHAR ThYoYing
ENCODING 1917
SWIDTH 516 0
DWIDTH 7 0
BBX 7 13 0 -2
BITMAP
00
00
00
00
64
94
94
94
94
94
8C
04
1C
ENDCHAR
STARTCHAR ThDoChada
ENCODING 1919
SWIDTH 516 0
DWIDTH 7 0
BBX 7 13 0 -2
BITMAP
00
00
00
00
38
44
64
24
24
64
64
04
3C
ENDCHAR
STARTCHAR ThToPatak
ENCODING 1920
SWIDTH 516 0
DWIDTH 7 0
BBX 7 13 0 -2
BITMAP
00
00
00
00
38
44
64
24
24
64
44
14
3C
ENDCHAR
STARTCHAR ThThoThan
ENCODING 1921
SWIDTH 516 0
DWIDTH 7 0
BBX 7 13 0 -2
BITMAP
00
00
00
00
7C
08
04
34
34
0C
04
58
7C
ENDCHAR
STARTCHAR ThRu
ENCODING 1942
SWIDTH 516 0
DWIDTH 7 0
BBX 7 13 0 -2
BITMAP
00
00
00
00
38
44
64
24
24
34
34
04
04
ENDCHAR
STARTCHAR ThLu
ENCODING 1944
SWIDTH 516 0
DWIDTH 7 0
BBX 7 13 0 -2
BITMAP
00
00
00
00
38
44
64
24
24
64
64
04
04
ENDCHAR
STARTCHAR ThMaiyamok
ENCODING 1955
SWIDTH 516 0
DWIDTH 7 0
BBX 7 13 0 -2
BITMAP
00
00
00
00
28
54
44
64
64
04
04
04
08
ENDCHAR
STARTCHAR ThLakkhangyao
ENCODING 1956
SWIDTH 516 0
DWIDTH 7 0
BBX 7 13 0 -2
BITMAP
00
00
00
00
30
48
48
08
08
08
08
08
08
ENDCHAR
STARTCHAR ThSaraU
ENCODING 1978
SWIDTH 516 0
DWIDTH 7 0
BBX 7 13 0 -2
BITMAP
00
00
00
00
00
00
00
00
00
00
00
0C
04
ENDCHAR
STARTCHAR ThSaraUu
ENCODING 1979
SWIDTH 516 0
DWIDTH 7 0
BBX 7 13 0 -2
BITMAP
00
00
00
00
00
00
00
00
00
00
00
34
1C
ENDCHAR
STARTCHAR ThPhinthu
ENCODING 1980
SWIDTH 516 0
DWIDTH 7 0
BBX 7 13 0 -2
BITMAP
00
00
00
00
00
00
00
00
00
00
00
00
0C
ENDCHAR
STARTCHAR ThSaraUD
ENCODING 1986
SWIDTH 516 0
DWIDTH 7 0
BBX 7 13 0 -2
BITMAP
00
00
00
00
00
00
00
00
00
00
00
0C
04
ENDCHAR
STARTCHAR ThSaraUuD
ENCODING 1987
SWIDTH 516 0
DWIDTH 7 0
BBX 7 13 0 -2
BITMAP
00
00
00
00
00
00
00
00
00
00
00
34
1C
ENDCHAR
STARTCHAR ThPhinthuD
ENCODING 1988
SWIDTH 516 0
DWIDTH 7 0
BBX 7 13 0 -2
BITMAP
00
00
00
00
00
00
00
00
00
00
00
00
0C
ENDCHAR
STARTCHAR AccGraveAscii
ENCODING 2484
SWIDTH 516 0
DWIDTH 7 0
BBX 7 13 0 -2
BITMAP
00
30
30
10
08
00
00
00
00
00
00
00
00
ENDCHAR
STARTCHAR CombHbMeteg
ENCODING 2566
SWIDTH 516 0
DWIDTH 7 0
BBX 7 13 0 -2
BITMAP
00
00
00
00
00
00
00
00
00
00
10
10
10
ENDCHAR
STARTCHAR CombHbPatah
ENCODING 2567
SWIDTH 516 0
DWIDTH 7 0
BBX 7 13 0 -2
BITMAP
00
00
00
00
00
00
00
00
00
00
00
00
78
ENDCHAR
STARTCHAR CombHbQamats
ENCODING 2568
SWIDTH 516 0
DWIDTH 7 0
BBX 7 13 0 -2
BITMAP
00
00
00
00
00
00
00
00
00
00
00
38
10
ENDCHAR
STARTCHAR CombHbSegol
ENCODING 2569
SWIDTH 516 0
DWIDTH 7 0
BBX 7 13 0 -2
BITMAP
00
00
00
00
00
00
00
00
00
00
00
44
10
ENDCHAR
STARTCHAR CombHbHatafQamats
ENCODING 2573
SWIDTH 516 0
DWIDTH 7 0
BBX 7 13 0 -2
BITMAP
00
00
00
00
00
00
00
00
00
00
04
70
24
ENDCHAR
STARTCHAR CombLdot
ENCODING 2631
SWIDTH 516 0
DWIDTH 7 0
BBX 7 13 0 -2
BITMAP
00
00
00
00
00
00
00
00
00
00
00
00
30
ENDCHAR
STARTCHAR CombLvline
ENCODING 2632
SWIDTH 516 0
DWIDTH 7 0
BBX 7 13 0 -2
BITMAP
00
00
00
00
00
00
00
00
00
00
00
10
10
ENDCHAR
STARTCHAR CombLdrss
ENCODING 2633
SWIDTH 516 0
DWIDTH 7 0
BBX 7 13 0 -2
BITMAP
00
00
00
00
00
00
00
00
00
00
00
00
6C
ENDCHAR
STARTCHAR CombLvline2
ENCODING 2634
SWIDTH 516 0
DWIDTH 7 0
BBX 7 13 0 -2
BITMAP
00
00
00
00
00
00
00
00
00
00
00
48
48
ENDCHAR
STARTCHAR CombLcircum
ENCODING 2637
SWIDTH 516 0
DWIDTH 7 0
BBX 7 13 0 -2
BITMAP
00
00
00
00
00
00
00
00
00
00
00
10
28
ENDCHAR
STARTCHAR CombLcaron
ENCODING 2638
SWIDTH 516 0
DWIDTH 7 0
BBX 7 13 0 -2
BITMAP
00
00
00
00
00
00
00
00
00
00
00
28
10
ENDCHAR
STARTCHAR CombLbreve
ENCODING 2639
SWIDTH 516 0
DWIDTH 7 0
BBX 7 13 0 -2
BITMAP
00
00
00
00
00
00
00
00
00
00
00
48
30
ENDCHAR
STARTCHAR CombLinvbreve
ENCODING 2640
SWIDTH 516 0
DWIDTH 7 0
BBX 7 13 0 -2
BITMAP
00
00
00
00
00
00
00
00
00
00
00
30
48
ENDCHAR
STARTCHAR CombLmacron
ENCODING 2641
SWIDTH 516 0
DWIDTH 7 0
BBX 7 13 0 -2
BITMAP
00
00
00
00
00
00
00
00
00
00
00
00
7C
ENDCHAR
STARTCHAR CombLtilde
ENCODING 2644
SWIDTH 516 0
DWIDTH 7 0
BBX 7 13 0 -2
BITMAP
00
00
00
00
00
00
00
00
00
00
00
24
58
ENDCHAR
STARTCHAR PApostropheAscii
ENCODING 2681
SWIDTH 516 0
DWIDTH 7 0
BBX 7 13 0 -2
BITMAP
00
18
18
10
20
00
00
00
00
00
00
00
00
ENDCHAR
STARTCHAR PComma
ENCODING 2711
SWIDTH 516 0
DWIDTH 7 0
BBX 7 13 0 -2
BITMAP
00
00
00
00
00
00
00
00
00
30
30
20
40
ENDCHAR
STARTCHAR PSemicolon
ENCODING 2712
SWIDTH 516 0
DWIDTH 7 0
BBX 7 13 0 -2
BITMAP
00
00
00
00
00
30
30
00
00
30
30
20
40
ENDCHAR
STARTCHAR MArrowU
ENCODING 2955
SWIDTH 516 0
DWIDTH 7 0
BBX 7 13 0 -2
BITMAP
10
38
54
10
10
10
10
10
10
10
10
10
00
ENDCHAR
STARTCHAR MArrowD
ENCODING 2956
SWIDTH 516 0
DWIDTH 7 0
BBX 7 13 0 -2
BITMAP
10
10
10
10
10
10
10
10
10
54
38
10
00
ENDCHAR
STARTCHAR MArrowUD
ENCODING 2959
SWIDTH 516 0
DWIDTH 7 0
BBX 7 13 0 -2
BITMAP
10
38
54
10
10
10
10
10
10
54
38
10
00
ENDCHAR
STARTCHAR MArrowUDBase
ENCODING 2960
SWIDTH 516 0
DWIDTH 7 0
BBX 7 13 0 -2
BITMAP
10
38
54
10
10
10
10
10
54
38
10
7C
00
ENDCHAR
STARTCHAR MArrowULeftD
ENCODING 2962
SWIDTH 516 0
DWIDTH 7 0
BBX 7 13 0 -2
BITMAP
44
E4
54
44
44
44
44
44
44
54
4E
44
00
ENDCHAR
STARTCHAR MArrowULeftU
ENCODING 2966
SWIDTH 516 0
DWIDTH 7 0
BBX 7 13 0 -2
BITMAP
44
EE
54
44
44
44
44
44
44
44
44
44
00
ENDCHAR
STARTCHAR MArrowDLeftD
ENCODING 2967
SWIDTH 516 0
DWIDTH 7 0
BBX 7 13 0 -2
BITMAP
44
44
44
44
44
44
44
44
44
54
EE
44
00
ENDCHAR
STARTCHAR MArrowUu
ENCODING 2970
SWIDTH 516 0
DWIDTH 7 0
BBX 7 13 0 -2
BITMAP
10
38
54
38
54
10
10
10
10
10
10
10
00
ENDCHAR
STARTCHAR MArrowDd
ENCODING 2971
SWIDTH 516 0
DWIDTH 7 0
BBX 7 13 0 -2
BITMAP
10
10
10
10
10
10
10
54
38
54
38
10
00
ENDCHAR
STARTCHAR MArrowBarU
ENCODING 2972
SWIDTH 516 0
DWIDTH 7 0
BBX 7 13 0 -2
BITMAP
10
38
54
10
10
10
10
10
10
10
10
7C
00
ENDCHAR
STARTCHAR MArrowBarD
ENCODING 2973
SWIDTH 516 0
DWIDTH 7 0
BBX 7 13 0 -2
BITMAP
7C
10
10
10
10
10
10
10
10
54
38
10
00
ENDCHAR
STARTCHAR MArrowLU
ENCODING 2978
SWIDTH 516 0
DWIDTH 7 0
BBX 7 13 0 -2
BITMAP
80
C0
E0
C0
20
20
10
10
08
08
04
04
00
ENDCHAR
STARTCHAR MArrowRU
ENCODING 2979
SWIDTH 516 0
DWIDTH 7 0
BBX 7 13 0 -2
BITMAP
04
0C
1C
0C
10
10
20
20
40
40
80
80
00
ENDCHAR
STARTCHAR MArrowLD
ENCODING 2980
SWIDTH 516 0
DWIDTH 7 0
BBX 7 13 0 -2
BITMAP
04
04
08
08
10
10
20
20
C0
E0
C0
80
00
ENDCHAR
STARTCHAR MArrowRD
ENCODING 2981
SWIDTH 516 0
DWIDTH 7 0
BBX 7 13 0 -2
BITMAP
80
80
40
40
20
20
10
10
0C
1C
0C
04
00
ENDCHAR
STARTCHAR MArrow2U
ENCODING 2998
SWIDTH 516 0
DWIDTH 7 0
BBX 7 13 0 -2
BITMAP
10
38
6C
28
28
28
28
28
28
28
28
28
00
ENDCHAR
STARTCHAR MArrow2D
ENCODING 2999
SWIDTH 516 0
DWIDTH 7 0
BBX 7 13 0 -2
BITMAP
28
28
28
28
28
28
28
28
28
6C
38
10
00
ENDCHAR
STARTCHAR MArrow2UD
ENCODING 3000
SWIDTH 516 0
DWIDTH 7 0
BBX 7 13 0 -2
BITMAP
10
38
6C
28
28
28
28
28
28
6C
38
10
00
ENDCHAR
STARTCHAR MHarpoonUl
ENCODING 3021
SWIDTH 516 0
DWIDTH 7 0
BBX 7 13 0 -2
BITMAP
10
30
50
10
10
10
10
10
10
10
10
10
00
ENDCHAR
STARTCHAR MHarpoonUr
ENCODING 3022
SWIDTH 516 0
DWIDTH 7 0
BBX 7 13 0 -2
BITMAP
10
18
14
10
10
10
10
10
10
10
10
10
00
ENDCHAR
STARTCHAR MHarpoonDl
ENCODING 3023
SWIDTH 516 0
DWIDTH 7 0
BBX 7 13 0 -2
BITMAP
10
10
10
10
10
10
10
10
10
50
30
10
00
ENDCHAR
STARTCHAR MHarpoonDr
ENCODING 3024
SWIDTH 516 0
DWIDTH 7 0
BBX 7 13 0 -2
BITMAP
10
10
10
10
10
10
10
10
10
14
18
10
00
ENDCHAR
STARTCHAR PCurlyBrackLTRB
ENCODING 3154
SWIDTH 516 0
DWIDTH 7 0
BBX 7 13 0 -2
BITMAP
0C
10
10
10
10
10
10
10
10
10
10
10
60
ENDCHAR
STARTCHAR PCurlyBrackLBRT
ENCODING 3155
SWIDTH 516 0
DWIDTH 7 0
BBX 7 13 0 -2
BITMAP
60
10
10
10
10
10
10
10
10
10
10
10
0C
ENDCHAR
STARTCHAR MSumT
ENCODING 3156
SWIDTH 516 0
DWIDTH 7 0
BBX 7 13 0 -2
BITMAP
00
FC
80
80
40
40
40
20
20
10
10
10
08
ENDCHAR
STARTCHAR MRootB
ENCODING 3158
SWIDTH 516 0
DWIDTH 7 0
BBX 7 13 0 -2
BITMAP
10
10
10
10
10
10
90
50
50
30
30
10
10
ENDCHAR
ENDFONT
